M48
;Layer_Color=9474304
;FILE_FORMAT=2:5
INCH,LZ
;TYPE=PLATED
T01F00S00C0.01575
T02F00S00C0.02362
T03F00S00C0.02756
T04F00S00C0.03543
T05F00S00C0.03937
T06F00S00C0.04016
T07F00S00C0.04134
T09F00S00C0.06417
T10F00S00C0.12795
T11F00S00C0.15748
%
T01
X01663Y00344
X02386Y00347
X02353Y01018
X0191929Y0061221
X0191831Y0056102
X01762Y00661
X01687Y00814
X01532Y0075647
X01452Y00723
X01383Y00595
X01595Y00584
X0108Y00669
X01054Y00698
Y00757
X01081Y00833
X01019Y00883
X0094Y00846
X00882Y00664
X00942Y00451
X00552Y00412
X00618Y00561
X00649Y00758
X00969Y01118
X01028Y01591
X01027Y01688
X00812Y01603
X01445Y01766
X0125787Y019813
X01773Y02352
X01981Y02413
X0203756Y02926
X02275Y02974
X02678Y02308
X02878
T02
X001704Y001204
X0024Y0009157
X003096Y001204
X0033843Y0019
X003096Y002596
X0024Y0028842
X001704Y002596
X0014157Y0019
X005Y0111756
X006
T03
X001189Y0031886
X003189
X00437Y00326
X005189Y0031886
X006189
X007189
X006689Y0021886
X005689
X004689
X005189Y0011886
X006189
X007189
X008189
X0079Y00176
X0097115Y0018021
X010689Y0021886
X01165Y00176
X012689Y0021886
X013689
X014689
X0156446Y0018245
X017689Y0021886
X017189Y0031886
X014189
X013189
X004189Y0011886
X019689Y0021886
X020689
X021689
X02282Y0021356
X023689Y0021886
X024689
X025689
X026189Y0031886
X025189
X02786Y0033
X02808Y00248
X028689Y0021886
X029689
X030689
X030189Y0011886
X029189
X028189
X027189
X02829Y00474
X0280385Y0057955
X030689Y0061886
Y0081886
Y0101886
Y0121886
X029689
X028689
X029189Y0111886
X0280385Y0110955
X028689Y0101886
X029189Y0091886
X028189
X026189
X025189
Y0111886
X025689Y0121886
X026689
X027189Y0131886
X028189
X030189
X030689Y0141886
Y0161886
X029689
X028689
X027689
X027189Y0171886
X026189
X026689Y0181886
X027689
X029189Y0191886
Y0171886
X030189
X030689Y0181886
X029189Y0151886
X027189
X026189Y0131886
X024689Y0141886
X023689Y0121886
X022689
X023189Y0111886
X022189
X022Y00971
X02244
X020689Y0121886
Y0141886
X019689
X019675Y01553
X02032
X0211417Y0149114
X022189Y0151886
X023189Y0171886
Y0191886
X024189
X025189
X026189
X021689Y0181886
X0209Y01805
X0199
X021189Y0051886
X02321Y00485
X0232Y00585
X026689Y0101886
X030689Y0041886
X0158Y00421
X01579Y0051
X015189Y0051886
X013689Y0041886
X01152Y00384
X010689Y0041886
X007689
X00796Y00383
X006689Y0041886
X007189Y0051886
X006189
X006689Y0061886
X004689
X00403Y00566
X004189Y0051886
X0046593Y0076256
X004689Y0081886
X004189Y0111886
X0040045Y0134145
X005189Y0131886
X005689Y0121886
X00785Y01228
X0085Y0129663
X007189Y0131886
X007689Y0141886
X0070855Y0151301
X006689Y0161886
X005689
X0052965Y0166301
X005189Y0171886
X006189
X004189
X00416Y01887
X005189Y0191886
X00688Y0192
X008189Y0191886
X009189
X01098Y01899
X009189Y0171886
X00812Y01762
X009189Y0151886
X010189
X01033Y01447
X00972
X01094
X013689Y0141886
X014689
X015689
X016689
X017689
X018689
X019189Y0131886
X018189
X017189
X016189
X015189
X014189
X013189
X013689Y0121886
X014689
X015689
X016689
X017689
X018689
X019189Y0111886
X018189
X017189
X016189
X015189
X014189
X014689Y0101886
X0152654Y01023
X0152854Y00918
X013189Y0091886
X01321Y01008
X012689Y0101886
X0124294Y0096156
X012189Y0111886
X007189
X006689Y0101886
X00731Y00966
X00781Y01007
X008689Y0081886
X008189Y0071886
X017689Y0081886
X0172538Y01017
X018689Y0101886
X019189Y0091886
X01903Y01553
X018189Y0151886
X017189
X016189
X015189
X014189
X014689Y0161886
X015689
X016689
X017689
X017189Y0171886
X016189
X015189
X014189
X014689Y0181886
X015689
X016689
X017689
X019Y01805
X0163656Y0189001
X004689Y0141886
X003689
X002689
X001689
X002189Y0131886
X003189
Y0151886
X00326Y01592
Y01725
X001689Y0181886
X00245Y01905
X001689Y0161886
X001189Y0151886
X00245Y0149663
X0010655Y0128755
X001189Y0111886
X001689Y0101886
X002689
X003689
X002189Y0091886
X001189
X001689Y0081886
X002689
X002189Y0071886
X001189
X00102Y00648
X001189Y0051886
X002189
X003189
X003689Y0061886
X00263Y00412
X001689Y0041886
X001189Y0211886
X003189
X00275Y02201
X00273Y02306
X002689Y0241886
X003689
X002189Y0251886
X001189
X001689Y0261886
X001189Y0271886
X003189
X003689Y0281886
X003189Y0291886
X002189
X001189
X001689Y0301886
X002689
X003689
X0055118Y02893
X00626
X0055118Y02813
X006189Y0271886
X00718Y02715
X00804Y0283
Y028875
Y02945
X0073
X00731Y0309
X00805
X00993Y03023
X01062
Y02962
X010689Y0281886
X01017Y02696
X01015Y02625
X01084Y02624
X011689Y0261886
X011189Y0251886
X011689Y0241886
X012689
X013689
X014689
X015189Y0231886
X014189
X013189
X013689Y0221886
X0148746Y0223511
X014189Y0211886
X013189
X012189
X011189
X0113Y02215
Y02314
X009689Y0241886
X009189Y0251886
X00862Y02556
X008189Y0251886
X00764Y02526
X00743Y02422
X005689Y0241886
X005Y02413
Y025185
X00498Y02624
X00468Y02149
Y02095
X0041
Y02149
X00531
Y02095
X00595
Y02149
X008189Y0211886
X009189
X009689Y0201886
X010689
X011689
X013689
X0157108Y0206256
X017689Y0201886
X018689
X019189Y0231886
X016689Y0221886
X016189Y0251886
X014189
X01386Y02556
X01464Y02608
X01501Y0266
X01395Y02768
X01451Y02912
X014689Y0301886
X016689
X01851Y03076
X01879Y02873
X01745Y02809
X017189Y0271886
X017689Y0261886
X009189Y0291886
X00727Y01976
X019689Y0201886
X0211Y02015
X02082Y02096
X022189Y0211886
X022689Y0221886
X02176Y02244
X02108Y02314
Y02379
Y02445
Y02508
X02027
X020126Y023226
X023189Y0231886
X024189
X024689Y0241886
X025689
X02575Y02518
X025189Y0251886
X024189
X023189
X023689Y0261886
X022689
X02199Y02737
X02097Y02729
X01972Y02872
X01945Y03076
X0203399Y0306799
X023689Y0301886
X024689
X025689
X026689
X027689
X028689
X029689
X030689
X028189Y0291886
X027189
X026189
X025189
X025689Y0281886
X026689
X027689
X028689
X0285Y0275
X027189Y0271886
X026189
X025189
X023689Y0241886
X022689
X024189Y0211886
X025189
X026189
X027189
X028189
X029189
X030189
X030689Y0221886
X029689
X028689
X027689
X026689
X025689
Y0201886
X024689
X023689
X027689
X028689
X029689
X030689
X030189Y0231886
X030689Y0241886
X029689
X030189Y0251886
X029189
X028189
X028Y0233364
X030689Y0261886
T04
X0245Y0156217
Y0166217
Y0176216
Y0186216
X0255Y0181256
Y0171256
Y0161256
Y0151256
T05
X03Y0035
Y0045
Y0055
Y0065
Y0075
Y0085
Y0095
Y0105
Y0115
X001Y0161256
Y0171256
Y0181256
Y0191256
Y0231256
Y0241256
X0245827Y0282909
X0296614
T06
X0299291Y0142654
Y0152654
Y0184819
Y0194819
T07
X0245039Y0261256
X0297402
T09
X0267992Y0138244
Y0199228
T10
X028Y0146236
Y0191236
T11
X0024Y0019
M30
