M48
;Layer_Color=9474304
;FILE_FORMAT=2:5
INCH,LZ
;TYPE=PLATED
T01F00S00C0.01200
T03F00S00C0.02800
T04F00S00C0.04000
%
T01
X00298Y00094
X00369Y0016
X0037Y0025501
X00448Y00283
X0046Y00325
X00495Y0029
X00535
X00575
Y0016
X00535
X00495
X0046Y00185
Y0023
X00448Y00142
X00734Y00183
X00765Y00215
X0081
X00831Y00183
X0079799Y00463
X00788Y00532
Y00585
X00751Y00659
X00731Y00748
X00688
Y00792
X00731
X00699Y00887
X00789Y00874
X00841Y00841
X00914Y00708
X00934Y00567
Y00507
X00685Y00571
X00623Y005
X0063Y0069
X00465Y00698
X00471Y00741
Y00779
X00458Y00814
X00479Y00857
X0038087Y0085686
X0038Y0075609
Y0072109
X00353Y00779
X00317
X00296Y00906
X00289Y00624
X00307Y00578
X00315Y0041
X0029Y0038
X0044Y00665
X0094801Y0079401
X0095536Y0085736
X01306Y00838
X01629Y00862
X0161Y0062
X01631Y00583
X01693
X0169Y00625
X0172857Y00608
X01767Y00634
Y00693
X01813Y00667
Y0072
X01836Y00781
X01887Y00774
X02044Y0074478
X0216084Y0073205
X0222777
X022947
X0236163
X0242856
X0249548
X02462Y0068
X0239507
X0232814
X0226121
X0219428
X02283Y0056496
Y005
Y0043504
X02361Y00467
Y00533
X02428
Y00467
X0239504Y0038796
X0242847Y0032
X024954
X0246192Y0026795
X0239499
X0232806
X0226113
X021942
X0216077Y0031998
X0222768Y0032
X0229461
X0236154
X0239504Y0061204
X0237998Y00866
X02482Y00887
X02067Y00516
X02034Y00517
X0203401Y00448
X02067
X020003Y00365
X01943
X01871Y00355
X01831Y00363
X01849Y00448
X01882Y00463
Y00502
X01849Y00516
X01755Y00555
X01558Y00597
X01488
X01556Y0039204
X01434Y00324
X01176Y00319
X01137
X01098
X01059
X0102
Y004045
X01059
X01098
X01137
X01176
X012435Y00405
X01176Y0049
X01137
X01098
X01059
X0102
X01686Y00215
X01616Y00124
X02066Y00212
X02047Y00297
X01983
X0252885Y0026795
X0256231
X0262709Y002657
Y0029916
Y0033263
Y0036609
Y0039955
Y0043302
Y0046648
Y0049995
Y0053341
Y0056688
Y0060034
Y0063381
Y0066727
Y0070074
Y007342
X0259588Y0073205
X02595Y00822
X02533Y00887
X0250708Y0056496
Y005
Y0043504
X02653Y00181
T03
X00375Y0045
Y005
Y0055
X01357Y00501
X01407
T04
X0035Y0005
X0045
X0055
X0065
X0075
X0085
X0095
X0105
X0115
X0125
X0135
X0145
X0155
X0165
X0175
X0185
X0195
X0205
X0215
X0225
X0235
X0245
X0255
X0265
Y0095
X0255
X0245
X0235
X0225
X0215
X0205
X0195
X0185
X0175
X0165
X0155
X0145
X0135
X0125
X0115
X0105
X0095
X0085
X0075
X0065
X0055
X0045
X0035
M30
