G04*
G04 #@! TF.GenerationSoftware,Altium Limited,Altium Designer,24.1.2 (44)*
G04*
G04 Layer_Physical_Order=4*
G04 Layer_Color=16711680*
%FSLAX25Y25*%
%MOIN*%
G70*
G04*
G04 #@! TF.SameCoordinates,C1C22DCD-7358-48D9-AFAA-883D9B7C899C*
G04*
G04*
G04 #@! TF.FilePolarity,Positive*
G04*
G01*
G75*
%ADD11C,0.00600*%
G04:AMPARAMS|DCode=53|XSize=39.37mil|YSize=70.87mil|CornerRadius=19.68mil|HoleSize=0mil|Usage=FLASHONLY|Rotation=270.000|XOffset=0mil|YOffset=0mil|HoleType=Round|Shape=RoundedRectangle|*
%AMROUNDEDRECTD53*
21,1,0.03937,0.03150,0,0,270.0*
21,1,0.00000,0.07087,0,0,270.0*
1,1,0.03937,-0.01575,0.00000*
1,1,0.03937,-0.01575,0.00000*
1,1,0.03937,0.01575,0.00000*
1,1,0.03937,0.01575,0.00000*
%
%ADD53ROUNDEDRECTD53*%
G04:AMPARAMS|DCode=54|XSize=39.37mil|YSize=86.61mil|CornerRadius=19.68mil|HoleSize=0mil|Usage=FLASHONLY|Rotation=270.000|XOffset=0mil|YOffset=0mil|HoleType=Round|Shape=RoundedRectangle|*
%AMROUNDEDRECTD54*
21,1,0.03937,0.04724,0,0,270.0*
21,1,0.00000,0.08661,0,0,270.0*
1,1,0.03937,-0.02362,0.00000*
1,1,0.03937,-0.02362,0.00000*
1,1,0.03937,0.02362,0.00000*
1,1,0.03937,0.02362,0.00000*
%
%ADD54ROUNDEDRECTD54*%
%ADD60C,0.04000*%
%ADD64C,0.00603*%
%ADD66C,0.06400*%
%ADD67R,0.06400X0.06400*%
%ADD68R,0.04000X0.04000*%
%ADD69C,0.04000*%
%ADD70R,0.04000X0.04000*%
%ADD71C,0.02400*%
D11*
X132300Y77700D02*
X168300D01*
X176700Y69300D01*
X115000Y95000D02*
X132300Y77700D01*
X105000Y95000D02*
X124100Y75900D01*
X165800D02*
X175000Y66700D01*
X124100Y75900D02*
X165800D01*
X95000Y95000D02*
X116000Y74000D01*
X164600D02*
X175065Y63535D01*
X116000Y74000D02*
X164600D01*
X96200Y89700D02*
X114000Y71900D01*
X163800D01*
X172643Y63057D01*
X176565Y63535D02*
X176700Y63400D01*
X175065Y63535D02*
X176565D01*
X172643Y61013D02*
Y63057D01*
X90300Y89700D02*
X96200D01*
X88117Y89621D02*
X107837Y69900D01*
X157700D02*
X169300Y58300D01*
X107837Y69900D02*
X157700D01*
X139000Y65800D02*
X148900Y55900D01*
X104600Y65800D02*
X139000D01*
X99600Y70800D02*
X104600Y65800D01*
X106400Y67800D02*
X140700D01*
X97700Y76500D02*
X106400Y67800D01*
X140700D02*
X148800Y59700D01*
X93200Y76500D02*
X97700D01*
X61700Y63400D02*
X136900D01*
X146000Y54300D01*
X159400D01*
X219428Y68000D02*
Y75472D01*
X216322Y78578D02*
X219428Y75472D01*
X198422Y78578D02*
X216322D01*
X182700Y87300D02*
X198900D01*
X202600Y83600D01*
X221600D01*
X197300Y85700D02*
X201100Y81900D01*
X219900D02*
X226121Y75679D01*
X201100Y81900D02*
X219900D01*
X157500Y82500D02*
X194500D01*
X198422Y78578D01*
X196722Y76978D02*
X214800D01*
X149100Y80900D02*
X192800D01*
X196722Y76978D01*
X174300Y85700D02*
X197300D01*
X200800Y88900D02*
X204500Y85200D01*
X223400D01*
X191100Y88900D02*
X200800D01*
X202600Y90500D02*
X206300Y86800D01*
X225200D01*
X199500Y90500D02*
X202600D01*
X199822Y80178D02*
X218322D01*
X172100Y84100D02*
X195900D01*
X199822Y80178D01*
X214800Y76978D02*
X216084Y75694D01*
X105000Y5000D02*
X121400Y21400D01*
X162000D02*
X166200Y25600D01*
X121400Y21400D02*
X162000D01*
X95000Y5000D02*
X113100Y23100D01*
X160600D02*
X164700Y27200D01*
X113100Y23100D02*
X160600D01*
X105000Y25000D02*
X159300D01*
X85000Y5000D02*
X105000Y25000D01*
X159300D02*
X163100Y28800D01*
X85700Y10800D02*
X101800Y26900D01*
X158300D02*
X161800Y30400D01*
X101800Y26900D02*
X158300D01*
X164700Y27200D02*
X179274D01*
X166200Y25600D02*
X179937D01*
X163100Y28800D02*
X178612D01*
X161800Y30400D02*
X177949D01*
X157400Y28800D02*
X160600Y32000D01*
X99500Y28800D02*
X157400D01*
X160600Y32000D02*
X177286D01*
X159200Y33600D02*
X176000D01*
X143400Y32400D02*
X158000D01*
X159200Y33600D01*
X83800Y13100D02*
X99500Y28800D01*
X60800Y10800D02*
X85700D01*
X55000Y5000D02*
X60800Y10800D01*
X53100Y13100D02*
X83800D01*
X45000Y5000D02*
X53100Y13100D01*
X172643Y61013D02*
X172857Y60800D01*
X59200Y65900D02*
X61700Y63400D01*
X59200Y65900D02*
Y75300D01*
X65000Y81100D01*
X78900Y87400D02*
X82700D01*
X176498Y34099D02*
Y34099D01*
X176000Y33600D02*
X176498Y34099D01*
Y34099D02*
X181400Y39000D01*
X188700Y68700D02*
Y77400D01*
Y68700D02*
X192900Y64500D01*
X205060Y4940D02*
X207959Y7839D01*
X148900Y55900D02*
X152000D01*
X65000Y81100D02*
Y95000D01*
X159400Y54300D02*
X163100Y58000D01*
X91900Y77800D02*
X93200Y76500D01*
X91900Y77800D02*
Y82500D01*
X82700Y87400D02*
X87000D01*
X91900Y82500D01*
X202500Y39000D02*
X206500Y35000D01*
X181400Y39000D02*
X202500D01*
X181458Y36172D02*
X182972D01*
X177286Y32000D02*
X181458Y36172D01*
X182972D02*
X183100Y36300D01*
X181149Y33600D02*
X185200D01*
X177949Y30400D02*
X181149Y33600D01*
X185200D02*
X187100Y35500D01*
X189800Y32000D02*
X194300Y36500D01*
X181812Y32000D02*
X189800D01*
X178612Y28800D02*
X181812Y32000D01*
X182475Y30400D02*
X193930D01*
X200030Y36500D01*
X179274Y27200D02*
X182475Y30400D01*
X197949Y29700D02*
X198300D01*
X183137Y28800D02*
X197048D01*
X197949Y29700D01*
X179937Y25600D02*
X183137Y28800D01*
X206500Y35000D02*
X253700D01*
X259600Y29100D01*
X245000Y5000D02*
X259600Y19600D01*
Y29100D01*
X174000Y79300D02*
X181300Y72000D01*
X91400Y70800D02*
X99600D01*
X88117Y89621D02*
X88117D01*
X87837Y89900D02*
X88117Y89621D01*
X80100Y89900D02*
X87837D01*
X152000Y55900D02*
X155800Y59700D01*
X220800Y10800D02*
X232437D01*
X215000Y5000D02*
X220800Y10800D01*
X207959Y7839D02*
X210516D01*
X215076Y12400D02*
X231774D01*
X210516Y7839D02*
X215076Y12400D01*
X231774D02*
X242847Y23473D01*
Y32000D01*
X195000Y5600D02*
X200100Y10700D01*
X211114D01*
X214414Y14000D01*
X195000Y5000D02*
Y5600D01*
X214414Y14000D02*
X231112D01*
X210451Y12300D02*
X213751Y15600D01*
X185000Y6000D02*
X191300Y12300D01*
X210451D01*
X213751Y15600D02*
X230449D01*
X185263Y13900D02*
X209788D01*
X176363Y5000D02*
X185263Y13900D01*
X209788D02*
X213088Y17200D01*
X175000Y5000D02*
X176363D01*
X213088Y17200D02*
X229786D01*
X184600Y15500D02*
X209125D01*
X212425Y18800D01*
X179813Y10713D02*
X184600Y15500D01*
X212425Y18800D02*
X227600D01*
X183219Y17100D02*
X208463D01*
X211763Y20400D01*
X179419Y13300D02*
X183219Y17100D01*
X211763Y20400D02*
X224400D01*
X207800Y18700D02*
X211100Y22000D01*
X182556Y18700D02*
X207800D01*
X211100Y22000D02*
X221100D01*
X178756Y14900D02*
X182556Y18700D01*
X170713Y10713D02*
X179813D01*
X167700Y13300D02*
X179419D01*
X165000Y5000D02*
X170713Y10713D01*
X164300Y9900D02*
X167700Y13300D01*
X159900Y9900D02*
X164300D01*
X185000Y5000D02*
Y6000D01*
Y23700D02*
X216325D01*
X146500Y16500D02*
X177800D01*
X185000Y23700D01*
X138100Y18100D02*
X176963D01*
X184163Y25300D01*
X214700D01*
X85000Y95000D02*
X90300Y89700D01*
X75000Y95000D02*
X80100Y89900D01*
X165800Y90400D02*
X172100Y84100D01*
X159600Y90400D02*
X165800D01*
X155000Y95000D02*
X159600Y90400D01*
X145000Y95000D02*
X157500Y82500D01*
X135000Y95000D02*
X149100Y80900D01*
X175000Y66700D02*
X181300D01*
X140700Y79300D02*
X174000D01*
X125000Y95000D02*
X140700Y79300D01*
X192900Y64500D02*
X242700D01*
X246200Y68000D01*
Y74863D01*
X202200Y27200D02*
X204700Y29700D01*
X183800Y27200D02*
X202200D01*
X154900Y14900D02*
X178756D01*
X145000Y5000D02*
X154900Y14900D01*
X180600Y24000D02*
X183800Y27200D01*
X167564Y24000D02*
X180600D01*
X129700Y19700D02*
X163265D01*
X167564Y24000D01*
X115000Y5000D02*
X129700Y19700D01*
X216077Y26677D02*
Y31998D01*
X214700Y25300D02*
X216077Y26677D01*
X216325Y23700D02*
X219420Y26795D01*
X155000Y5000D02*
X159900Y9900D01*
X125000Y5000D02*
X138100Y18100D01*
X135000Y5000D02*
X146500Y16500D01*
X222768Y23668D02*
Y32000D01*
X221100Y22000D02*
X222768Y23668D01*
X224400Y20400D02*
X226113Y22113D01*
Y26795D01*
X229461Y20661D02*
Y32000D01*
X227600Y18800D02*
X229461Y20661D01*
X232806Y20220D02*
Y26795D01*
X229786Y17200D02*
X232806Y20220D01*
X232437Y10800D02*
X242037Y20400D01*
X244950D01*
X246192Y21642D01*
Y26795D01*
X225000Y5000D02*
X229200Y9200D01*
X233100D01*
X242700Y18800D01*
X247200D01*
X249540Y21140D02*
Y32000D01*
X247200Y18800D02*
X249540Y21140D01*
X230449Y15600D02*
X236154Y21305D01*
Y32000D01*
X231112Y14000D02*
X239499Y22387D01*
Y26795D01*
X225000Y95000D02*
X226063D01*
X246200Y74863D01*
X215000Y95000D02*
X220000Y90000D01*
X228800D01*
X242856Y75945D01*
Y73205D02*
Y75945D01*
X210000Y88400D02*
X227000D01*
X239507Y75893D01*
Y68000D02*
Y75893D01*
X236163Y73205D02*
Y75837D01*
X225200Y86800D02*
X236163Y75837D01*
X232814Y68000D02*
Y75786D01*
X223400Y85200D02*
X232814Y75786D01*
X221600Y83600D02*
X229470Y75730D01*
Y73205D02*
Y75730D01*
X226121Y68000D02*
Y75679D01*
X222777Y73205D02*
Y75723D01*
X218322Y80178D02*
X222777Y75723D01*
X206499Y91901D02*
X210000Y88400D01*
X205000Y93431D02*
Y95000D01*
Y93431D02*
X206499Y91931D01*
Y91901D02*
Y91931D01*
X216084Y73205D02*
Y75694D01*
X165000Y95000D02*
X174300Y85700D01*
X175000Y95000D02*
X182700Y87300D01*
X185000Y95000D02*
X191100Y88900D01*
X195000Y95000D02*
X199500Y90500D01*
X249548Y73205D02*
Y80452D01*
X235000Y95000D02*
X249548Y80452D01*
D53*
X22500Y60984D02*
D03*
Y95000D02*
D03*
Y5000D02*
D03*
Y39016D02*
D03*
D54*
X6752Y60984D02*
D03*
Y95000D02*
D03*
Y5000D02*
D03*
Y39016D02*
D03*
D60*
X63000Y69000D02*
X64100Y70100D01*
X75100D01*
X84100Y79100D01*
Y84100D01*
X47500Y62600D02*
X55000Y70100D01*
Y95000D01*
X47500Y50000D02*
Y62600D01*
Y50000D02*
X62300D01*
X37500D02*
X47500D01*
D64*
X34201Y81647D02*
X34555Y82000D01*
X37216D01*
X31700Y77900D02*
Y78053D01*
X32798Y79152D01*
Y82228D01*
X33974Y83403D01*
X35300Y77900D02*
Y78053D01*
X34201Y79152D02*
Y81647D01*
Y79152D02*
X35300Y78053D01*
X33974Y83403D02*
X37797D01*
X44499Y76701D01*
X37216Y82000D02*
X43917Y75299D01*
X45848D01*
X44499Y76701D02*
X45848D01*
X47047Y77900D01*
X47100D01*
X47047Y74100D02*
X47100D01*
X45848Y75299D02*
X47047Y74100D01*
X166864Y36903D02*
X171766Y41805D01*
X167445Y35500D02*
X172347Y40402D01*
X171766Y41805D02*
X189020D01*
X196167Y48952D01*
X189602Y40402D02*
X196748Y47548D01*
X172347Y40402D02*
X189602D01*
X63548Y20049D02*
X87597Y44097D01*
X62967Y21452D02*
X87016Y45500D01*
X47548Y20049D02*
X63548D01*
X87016Y45500D02*
X169016D01*
X87597Y44097D02*
X169597D01*
X47548Y21452D02*
X62967D01*
X169597Y44097D02*
X173048Y47548D01*
X169016Y45500D02*
X172467Y48952D01*
X46000Y18500D02*
X47548Y20049D01*
X46000Y23000D02*
X47548Y21452D01*
X173048Y47548D02*
X186951D01*
X172467Y48952D02*
X186951D01*
Y47548D02*
X188200Y46300D01*
X186951Y48952D02*
X188200Y50200D01*
X196167Y48952D02*
X202751D01*
X196748Y47548D02*
X202751D01*
X84984Y35500D02*
X167445D01*
X84403Y36903D02*
X166864D01*
X203401Y44800D02*
Y46899D01*
X202751Y47548D02*
X203401Y46899D01*
X202751Y48952D02*
X203400Y49600D01*
Y51700D01*
X79452Y29967D02*
X84984Y35500D01*
X78048Y30549D02*
X84403Y36903D01*
X79452Y23049D02*
Y29967D01*
Y23049D02*
X81000Y21500D01*
X78048Y23049D02*
Y30549D01*
X76500Y21500D02*
X78048Y23049D01*
D66*
X35000Y5000D02*
D03*
X45000D02*
D03*
X55000D02*
D03*
X65000D02*
D03*
X75000D02*
D03*
X85000D02*
D03*
X95000D02*
D03*
X105000D02*
D03*
X115000D02*
D03*
X125000D02*
D03*
X135000D02*
D03*
X145000D02*
D03*
X155000D02*
D03*
X165000D02*
D03*
X175000D02*
D03*
X185000D02*
D03*
X195000D02*
D03*
X205000D02*
D03*
X215000D02*
D03*
X225000D02*
D03*
X235000D02*
D03*
X245000D02*
D03*
X255000D02*
D03*
X35000Y95000D02*
D03*
X45000D02*
D03*
X55000D02*
D03*
X65000D02*
D03*
X75000D02*
D03*
X85000D02*
D03*
X95000D02*
D03*
X105000D02*
D03*
X115000D02*
D03*
X125000D02*
D03*
X135000D02*
D03*
X145000D02*
D03*
X155000D02*
D03*
X165000D02*
D03*
X175000D02*
D03*
X185000D02*
D03*
X195000D02*
D03*
X205000D02*
D03*
X215000D02*
D03*
X225000D02*
D03*
X235000D02*
D03*
X245000D02*
D03*
X255000D02*
D03*
D67*
X265000Y5000D02*
D03*
Y95000D02*
D03*
D68*
X135700Y50100D02*
D03*
D69*
X140700D02*
D03*
X37500Y50000D02*
D03*
Y45000D02*
D03*
D70*
Y55000D02*
D03*
D71*
X68500Y57100D02*
D03*
X143400Y32400D02*
D03*
X148800Y59700D02*
D03*
X175500Y55500D02*
D03*
X169300Y58300D02*
D03*
X169000Y62500D02*
D03*
X161000Y62000D02*
D03*
X44000Y66500D02*
D03*
X63000Y69000D02*
D03*
X68800Y74800D02*
D03*
Y79200D02*
D03*
X73100Y74800D02*
D03*
Y79200D02*
D03*
X75100Y65900D02*
D03*
X78900Y87400D02*
D03*
X155600Y39204D02*
D03*
X183600Y78100D02*
D03*
X188700Y77400D02*
D03*
X237998Y86600D02*
D03*
X130600Y83800D02*
D03*
X84100Y84100D02*
D03*
X94801Y79401D02*
D03*
X46500Y69800D02*
D03*
X62300Y50000D02*
D03*
X93400Y50700D02*
D03*
Y56700D02*
D03*
X105900Y49000D02*
D03*
Y40450D02*
D03*
X30700Y57800D02*
D03*
X45800Y81400D02*
D03*
X38000Y75609D02*
D03*
Y72109D02*
D03*
X38087Y85686D02*
D03*
X29600Y90600D02*
D03*
X28900Y62400D02*
D03*
X31700Y77900D02*
D03*
X35300D02*
D03*
X47100Y74100D02*
D03*
Y77900D02*
D03*
X184900Y51600D02*
D03*
Y44800D02*
D03*
X183100Y36300D02*
D03*
X46000Y18500D02*
D03*
Y23000D02*
D03*
X37000Y25501D02*
D03*
X36900Y16000D02*
D03*
X44800Y28300D02*
D03*
Y14200D02*
D03*
X188200Y46300D02*
D03*
Y50200D02*
D03*
X187100Y35500D02*
D03*
X206700Y44800D02*
D03*
Y51600D02*
D03*
X83100Y18300D02*
D03*
X73400D02*
D03*
X203400Y51700D02*
D03*
X203401Y44800D02*
D03*
X76500Y21500D02*
D03*
X81000D02*
D03*
X117600Y49000D02*
D03*
X109800D02*
D03*
X102000D02*
D03*
X113700D02*
D03*
X102000Y40450D02*
D03*
X117600D02*
D03*
X113700D02*
D03*
X109800D02*
D03*
X113700Y31900D02*
D03*
X105900D02*
D03*
X117600D02*
D03*
X102000D02*
D03*
X109800D02*
D03*
X31500Y41000D02*
D03*
X29000Y38000D02*
D03*
X46000Y32500D02*
D03*
X29800Y9400D02*
D03*
X49500Y16000D02*
D03*
X53500D02*
D03*
X57500D02*
D03*
X49500Y29000D02*
D03*
X53500D02*
D03*
X57500D02*
D03*
X124350Y40500D02*
D03*
X181300Y72000D02*
D03*
X95536Y85736D02*
D03*
X91400Y70800D02*
D03*
X253300Y88700D02*
D03*
X248200D02*
D03*
X163100Y58300D02*
D03*
X69900Y88700D02*
D03*
X47900Y85700D02*
D03*
X79799Y46300D02*
D03*
X78800Y53200D02*
D03*
Y58500D02*
D03*
X206600Y21200D02*
D03*
X155800Y59700D02*
D03*
X162900Y86200D02*
D03*
X172857Y60800D02*
D03*
X176700Y69300D02*
D03*
Y63400D02*
D03*
X204400Y74478D02*
D03*
X181300Y66700D02*
D03*
X198300Y29700D02*
D03*
X194300Y36500D02*
D03*
X200030D02*
D03*
X204700Y29700D02*
D03*
X161600Y12400D02*
D03*
X168600Y21500D02*
D03*
X265300Y18100D02*
D03*
X259500Y82200D02*
D03*
X236100Y46700D02*
D03*
X242800D02*
D03*
Y53300D02*
D03*
X236100D02*
D03*
X239504Y61204D02*
D03*
X250708Y56496D02*
D03*
Y50000D02*
D03*
Y43504D02*
D03*
X239504Y38796D02*
D03*
X228300Y43504D02*
D03*
Y50000D02*
D03*
Y56496D02*
D03*
X259588Y73205D02*
D03*
X262709Y73420D02*
D03*
Y70074D02*
D03*
Y66727D02*
D03*
Y63381D02*
D03*
Y60034D02*
D03*
Y56688D02*
D03*
Y53341D02*
D03*
Y49995D02*
D03*
Y46648D02*
D03*
Y43302D02*
D03*
Y39955D02*
D03*
Y36609D02*
D03*
Y33263D02*
D03*
Y29916D02*
D03*
Y26570D02*
D03*
X216077Y31998D02*
D03*
X249540Y32000D02*
D03*
X246192Y26795D02*
D03*
X242847Y32000D02*
D03*
X239499Y26795D02*
D03*
X236154Y32000D02*
D03*
X232806Y26795D02*
D03*
X229461Y32000D02*
D03*
X226113Y26795D02*
D03*
X222768Y32000D02*
D03*
X219420Y26795D02*
D03*
X246200Y68000D02*
D03*
X256231Y26795D02*
D03*
X252885D02*
D03*
X216084Y73205D02*
D03*
X222777D02*
D03*
X219428Y68000D02*
D03*
X229470Y73205D02*
D03*
X226121Y68000D02*
D03*
X236163Y73205D02*
D03*
X232814Y68000D02*
D03*
X239507D02*
D03*
X242856Y73205D02*
D03*
X249548D02*
D03*
M02*
