G04*
G04 #@! TF.GenerationSoftware,Altium Limited,Altium Designer,24.1.2 (44)*
G04*
G04 Layer_Color=65535*
%FSLAX25Y25*%
%MOIN*%
G70*
G04*
G04 #@! TF.SameCoordinates,C1C22DCD-7358-48D9-AFAA-883D9B7C899C*
G04*
G04*
G04 #@! TF.FilePolarity,Positive*
G04*
G01*
G75*
%ADD10C,0.00984*%
%ADD11C,0.00600*%
%ADD12C,0.00787*%
%ADD13C,0.00500*%
%ADD14R,0.05600X0.01456*%
D10*
X161358Y66142D02*
G03*
X161358Y66142I-492J0D01*
G01*
X29783Y90571D02*
G03*
X29783Y90571I-492J0D01*
G01*
X75429Y88360D02*
G03*
X75429Y88360I-492J0D01*
G01*
X29783Y34587D02*
G03*
X29783Y34587I-492J0D01*
G01*
X66189Y41992D02*
G03*
X66189Y41992I-492J0D01*
G01*
X161358Y16142D02*
G03*
X161358Y16142I-492J0D01*
G01*
D11*
X162400Y25893D02*
X166800D01*
Y33493D01*
X162400D02*
X166800D01*
X162400Y25893D02*
Y33493D01*
X93100Y77400D02*
Y81600D01*
X85700D02*
X93100D01*
X85700Y77400D02*
Y81600D01*
Y77400D02*
X93100D01*
X39800Y79200D02*
X44200D01*
Y86800D01*
X39800D02*
X44200D01*
X39800Y79200D02*
Y86800D01*
X30900Y64300D02*
X37100D01*
Y59700D02*
Y64300D01*
X30900Y59700D02*
X37100D01*
X30900D02*
Y64300D01*
X46893Y59900D02*
Y64100D01*
X39493D02*
X46893D01*
X39493Y59900D02*
Y64100D01*
Y59900D02*
X46893D01*
X201599Y42600D02*
Y47000D01*
X193999D02*
X201599D01*
X193999Y42600D02*
X201599D01*
X201598Y49500D02*
Y53900D01*
X193998D02*
X201598D01*
X193998Y49500D02*
X201598D01*
X190599D02*
Y53900D01*
Y49500D02*
X198199D01*
X190599Y53900D02*
X198199D01*
X190599Y42600D02*
Y47000D01*
Y42600D02*
X198199D01*
X190599Y47000D02*
X198199D01*
X66800Y46800D02*
Y51200D01*
Y46800D02*
X74400D01*
X66800Y51200D02*
X74400D01*
X35900Y21291D02*
Y27491D01*
X31300Y21291D02*
X35900D01*
X31300D02*
Y27491D01*
X35900D01*
X48200Y71300D02*
Y75700D01*
Y71300D02*
X55800D01*
Y75700D01*
X48200D02*
X55800D01*
X216800Y13300D02*
Y17700D01*
X209200D02*
X216800D01*
X209200Y13300D02*
Y17700D01*
Y13300D02*
X216800D01*
X191200Y80500D02*
Y84900D01*
Y80500D02*
X198800D01*
Y84900D01*
X191200D02*
X198800D01*
X31200Y70400D02*
X35800D01*
Y76600D01*
X31200D02*
X35800D01*
X31200Y70400D02*
Y76600D01*
X39800Y33900D02*
X47200D01*
X39800D02*
Y38100D01*
X47200D01*
Y33900D02*
Y38100D01*
X84201Y58900D02*
X91801D01*
Y54500D02*
Y58900D01*
X84201Y54500D02*
X91801D01*
X84201D02*
Y58900D01*
X44200Y70200D02*
Y77800D01*
X39800Y70200D02*
X44200D01*
X39800D02*
Y77800D01*
X44200D01*
X49107Y87800D02*
X56507D01*
Y83600D02*
Y87800D01*
X49107Y83600D02*
X56507D01*
X49107D02*
Y87800D01*
X31200Y85379D02*
X35800D01*
X31200Y79180D02*
Y85379D01*
Y79180D02*
X35800D01*
Y85379D01*
X84201Y64900D02*
X91801D01*
Y60500D02*
Y64900D01*
X84201Y60500D02*
X91801D01*
X84201D02*
Y64900D01*
X191200Y79400D02*
X198800D01*
Y75000D02*
Y79400D01*
X191200Y75000D02*
X198800D01*
X191200D02*
Y79400D01*
X199700Y13300D02*
X207300D01*
X199700D02*
Y17700D01*
X207300D01*
Y13300D02*
Y17700D01*
X98300Y77200D02*
Y84800D01*
X102700D01*
Y77200D02*
Y84800D01*
X98300Y77200D02*
X102700D01*
X182200Y76200D02*
Y83800D01*
X177800Y76200D02*
X182200D01*
X177800D02*
Y83800D01*
X182200D01*
X85500Y81900D02*
X93100D01*
X85500D02*
Y86300D01*
X93100D01*
Y81900D02*
Y86300D01*
X62800Y55208D02*
Y62608D01*
X67000D01*
Y55208D02*
Y62608D01*
X62800Y55208D02*
X67000D01*
X49107Y69800D02*
X56507D01*
Y65600D02*
Y69800D01*
X49107Y65600D02*
X56507D01*
X49107D02*
Y69800D01*
X70199Y46800D02*
X77799D01*
X70199Y51200D02*
X77799D01*
Y46800D02*
Y51200D01*
X102700Y59200D02*
Y66800D01*
X98300Y59200D02*
X102700D01*
X98300D02*
Y66800D01*
X102700D01*
X251300Y83400D02*
X258700D01*
X251300D02*
Y87600D01*
X258700D01*
Y83400D02*
Y87600D01*
X162400Y64493D02*
Y71893D01*
X166600D01*
Y64493D02*
Y71893D01*
X162400Y64493D02*
X166600D01*
X162400Y15493D02*
Y22893D01*
X166600D01*
Y15493D02*
Y22893D01*
X162400Y15493D02*
X166600D01*
X57700Y55100D02*
Y62700D01*
X62100D01*
Y55100D02*
Y62700D01*
X57700Y55100D02*
X62100D01*
X84201Y52900D02*
X91801D01*
Y48500D02*
Y52900D01*
X84201Y48500D02*
X91801D01*
X84201D02*
Y52900D01*
X170500Y85100D02*
X175500D01*
X170500Y75700D02*
Y85100D01*
Y75700D02*
X175500D01*
Y85100D01*
X170500Y15400D02*
Y24800D01*
X175500D01*
Y15400D02*
Y24800D01*
X170500Y15400D02*
X175500D01*
X48200Y80700D02*
X55800D01*
Y76300D02*
Y80700D01*
X48200Y76300D02*
X55800D01*
X48200D02*
Y80700D01*
X182200Y16200D02*
Y23800D01*
X177800Y16200D02*
X182200D01*
X177800D02*
Y23800D01*
X182200D01*
X242800Y87600D02*
X250200D01*
Y83400D02*
Y87600D01*
X242800Y83400D02*
X250200D01*
X242800D02*
Y87600D01*
X31300Y14009D02*
X35900D01*
Y20209D01*
X31300D02*
X35900D01*
X31300Y14009D02*
Y20209D01*
X43200Y12200D02*
Y19800D01*
X38800Y12200D02*
X43200D01*
X38800D02*
Y19800D01*
X43200D01*
X38800Y22700D02*
Y30300D01*
X43200D01*
Y22700D02*
Y30300D01*
X38800Y22700D02*
X43200D01*
X31120Y33700D02*
Y38300D01*
Y33700D02*
X37321D01*
Y38300D01*
X31120D02*
X37321D01*
X70300Y58400D02*
X77700D01*
X70300D02*
Y62600D01*
X77700D01*
Y58400D02*
Y62600D01*
X259800Y83400D02*
X267200D01*
X259800D02*
Y87600D01*
X267200D01*
Y83400D02*
Y87600D01*
X259300Y16100D02*
X266700D01*
Y11900D02*
Y16100D01*
X259300Y11900D02*
X266700D01*
X259300D02*
Y16100D01*
X70300Y53400D02*
X77700D01*
X70300D02*
Y57600D01*
X77700D01*
Y53400D02*
Y57600D01*
X59600Y18300D02*
Y25700D01*
X55400Y18300D02*
X59600D01*
X55400D02*
Y25700D01*
X59600D01*
X55400Y32300D02*
Y39700D01*
X59600D01*
Y32300D02*
Y39700D01*
X55400Y32300D02*
X59600D01*
X54600Y18300D02*
Y25700D01*
X50400Y18300D02*
X54600D01*
X50400D02*
Y25700D01*
X54600D01*
X144700Y45850D02*
Y54350D01*
X131700D02*
X144700D01*
X131700Y45850D02*
X144700D01*
X131700D02*
Y54350D01*
X33250Y59000D02*
X41750D01*
Y41000D02*
Y59000D01*
X33250Y41000D02*
X41750D01*
X33250D02*
Y59000D01*
X172900Y28300D02*
Y32299D01*
X174899D01*
X175566Y31632D01*
Y30299D01*
X174899Y29633D01*
X172900D01*
X178898Y32299D02*
X177565D01*
X176899Y31632D01*
Y28966D01*
X177565Y28300D01*
X178898D01*
X179564Y28966D01*
Y31632D01*
X178898Y32299D01*
X180897D02*
Y28300D01*
X182230Y29633D01*
X183563Y28300D01*
Y32299D01*
X187562D02*
X184896D01*
Y28300D01*
X187562D01*
X184896Y30299D02*
X186229D01*
X188895Y28300D02*
Y32299D01*
X190894D01*
X191561Y31632D01*
Y30299D01*
X190894Y29633D01*
X188895D01*
X190228D02*
X191561Y28300D01*
X172900Y73299D02*
Y69966D01*
X173566Y69300D01*
X174899D01*
X175566Y69966D01*
Y73299D01*
X179564Y72632D02*
X178898Y73299D01*
X177565D01*
X176899Y72632D01*
Y71966D01*
X177565Y71299D01*
X178898D01*
X179564Y70633D01*
Y69966D01*
X178898Y69300D01*
X177565D01*
X176899Y69966D01*
X183563Y73299D02*
X180897D01*
Y69300D01*
X183563D01*
X180897Y71299D02*
X182230D01*
X184896Y69300D02*
Y73299D01*
X186896D01*
X187562Y72632D01*
Y71299D01*
X186896Y70633D01*
X184896D01*
X186229D02*
X187562Y69300D01*
X122600Y60799D02*
Y56800D01*
X124599D01*
X125266Y57466D01*
Y58133D01*
X124599Y58799D01*
X122600D01*
X124599D01*
X125266Y59466D01*
Y60132D01*
X124599Y60799D01*
X122600D01*
X128598D02*
X127265D01*
X126599Y60132D01*
Y57466D01*
X127265Y56800D01*
X128598D01*
X129264Y57466D01*
Y60132D01*
X128598Y60799D01*
X132597D02*
X131264D01*
X130597Y60132D01*
Y57466D01*
X131264Y56800D01*
X132597D01*
X133263Y57466D01*
Y60132D01*
X132597Y60799D01*
X134596D02*
X137262D01*
X135929D01*
Y56800D01*
X138595D02*
X141261Y59466D01*
X142594Y60799D02*
Y57466D01*
X143260Y56800D01*
X144593D01*
X145259Y57466D01*
Y60799D01*
X149258Y60132D02*
X148592Y60799D01*
X147259D01*
X146592Y60132D01*
Y59466D01*
X147259Y58799D01*
X148592D01*
X149258Y58133D01*
Y57466D01*
X148592Y56800D01*
X147259D01*
X146592Y57466D01*
X153257Y60799D02*
X150591D01*
Y56800D01*
X153257D01*
X150591Y58799D02*
X151924D01*
X154590Y56800D02*
Y60799D01*
X156589D01*
X157255Y60132D01*
Y58799D01*
X156589Y58133D01*
X154590D01*
X155923D02*
X157255Y56800D01*
X130600Y38600D02*
Y42599D01*
X132599D01*
X133266Y41932D01*
Y40599D01*
X132599Y39933D01*
X130600D01*
X131933D02*
X133266Y38600D01*
X137265Y42599D02*
X134599D01*
Y38600D01*
X137265D01*
X134599Y40599D02*
X135932D01*
X141263Y41932D02*
X140597Y42599D01*
X139264D01*
X138597Y41932D01*
Y41266D01*
X139264Y40599D01*
X140597D01*
X141263Y39933D01*
Y39266D01*
X140597Y38600D01*
X139264D01*
X138597Y39266D01*
X145262Y42599D02*
X142596D01*
Y38600D01*
X145262D01*
X142596Y40599D02*
X143929D01*
X146595Y42599D02*
X149261D01*
X147928D01*
Y38600D01*
X146900Y51632D02*
X147566Y52299D01*
X148899D01*
X149566Y51632D01*
Y50966D01*
X148899Y50299D01*
X148233D01*
X148899D01*
X149566Y49633D01*
Y48966D01*
X148899Y48300D01*
X147566D01*
X146900Y48966D01*
X150899Y52299D02*
Y49633D01*
X152232Y48300D01*
X153565Y49633D01*
Y52299D01*
X154897Y51632D02*
X155564Y52299D01*
X156897D01*
X157563Y51632D01*
Y50966D01*
X156897Y50299D01*
X156230D01*
X156897D01*
X157563Y49633D01*
Y48966D01*
X156897Y48300D01*
X155564D01*
X154897Y48966D01*
X118500Y48300D02*
Y52299D01*
X120499D01*
X121166Y51632D01*
Y50299D01*
X120499Y49633D01*
X118500D01*
X119833D02*
X121166Y48300D01*
X125164Y52299D02*
X122499D01*
Y48300D01*
X125164D01*
X122499Y50299D02*
X123832D01*
X129163Y51632D02*
X128497Y52299D01*
X127164D01*
X126497Y51632D01*
Y48966D01*
X127164Y48300D01*
X128497D01*
X129163Y48966D01*
Y50299D01*
X127830D01*
X43400Y45599D02*
Y42266D01*
X44066Y41600D01*
X45399D01*
X46066Y42266D01*
Y45599D01*
X50064Y44932D02*
X49398Y45599D01*
X48065D01*
X47399Y44932D01*
Y44266D01*
X48065Y43599D01*
X49398D01*
X50064Y42933D01*
Y42266D01*
X49398Y41600D01*
X48065D01*
X47399Y42266D01*
X51397Y45599D02*
Y41600D01*
X53397D01*
X54063Y42266D01*
Y42933D01*
X53397Y43599D01*
X51397D01*
X53397D01*
X54063Y44266D01*
Y44932D01*
X53397Y45599D01*
X51397D01*
X58062Y41600D02*
X55396D01*
X58062Y44266D01*
Y44932D01*
X57395Y45599D01*
X56063D01*
X55396Y44932D01*
X43400Y49599D02*
X46066D01*
X44733Y50932D02*
Y48266D01*
X50064Y51599D02*
X47399D01*
Y49599D01*
X48732Y50266D01*
X49398D01*
X50064Y49599D01*
Y48266D01*
X49398Y47600D01*
X48065D01*
X47399Y48266D01*
X51397Y51599D02*
Y48933D01*
X52730Y47600D01*
X54063Y48933D01*
Y51599D01*
X43400Y57599D02*
Y54266D01*
X44066Y53600D01*
X45399D01*
X46066Y54266D01*
Y57599D01*
X50064Y56932D02*
X49398Y57599D01*
X48065D01*
X47399Y56932D01*
Y56266D01*
X48065Y55599D01*
X49398D01*
X50064Y54933D01*
Y54266D01*
X49398Y53600D01*
X48065D01*
X47399Y54266D01*
X51397Y57599D02*
Y53600D01*
X53397D01*
X54063Y54266D01*
Y54933D01*
X53397Y55599D01*
X51397D01*
X53397D01*
X54063Y56266D01*
Y56932D01*
X53397Y57599D01*
X51397D01*
X55396Y53600D02*
X56729D01*
X56063D01*
Y57599D01*
X55396Y56932D01*
X6266Y46599D02*
X3600D01*
Y42600D01*
X6266D01*
X3600Y44599D02*
X4933D01*
X10265Y45932D02*
X9598Y46599D01*
X8265D01*
X7599Y45932D01*
Y45266D01*
X8265Y44599D01*
X9598D01*
X10265Y43933D01*
Y43266D01*
X9598Y42600D01*
X8265D01*
X7599Y43266D01*
X11597Y42600D02*
Y46599D01*
X13597D01*
X14263Y45932D01*
Y44599D01*
X13597Y43933D01*
X11597D01*
X3600Y57599D02*
Y54266D01*
X4266Y53600D01*
X5599D01*
X6266Y54266D01*
Y57599D01*
X7599Y53600D02*
Y56266D01*
X8932Y57599D01*
X10265Y56266D01*
Y53600D01*
Y55599D01*
X7599D01*
X11597Y53600D02*
Y57599D01*
X13597D01*
X14263Y56932D01*
Y55599D01*
X13597Y54933D01*
X11597D01*
X12930D02*
X14263Y53600D01*
X15596Y57599D02*
X18262D01*
X16929D01*
Y53600D01*
X30100Y53100D02*
X31433D01*
X30766D01*
Y57099D01*
X30100Y56432D01*
D12*
X112500Y58791D02*
X115059D01*
Y61646D01*
X112500Y70209D02*
X115059D01*
Y67354D02*
Y70209D01*
X112500Y73291D02*
X115059D01*
Y76146D01*
X112500Y84709D02*
X115059D01*
Y81854D02*
Y84709D01*
X128878Y63189D02*
X151122D01*
X128189Y70177D02*
Y79823D01*
X128878Y86811D02*
X151122D01*
X151811Y70177D02*
Y79823D01*
X12559Y95984D02*
X17480D01*
X-1909D02*
X945D01*
X-1909Y60000D02*
Y95984D01*
X12559Y60000D02*
X17480D01*
X-1909D02*
X945D01*
X76906Y84874D02*
X78874D01*
Y82906D02*
Y84874D01*
X63126D02*
X65095D01*
X63126Y82906D02*
Y84874D01*
X76906Y69126D02*
X78874D01*
Y71095D01*
X63126Y69126D02*
X65095D01*
X63126D02*
Y71095D01*
X12559Y40000D02*
X17480D01*
X-1909D02*
X945D01*
X-1909Y4016D02*
Y40000D01*
X12559Y4016D02*
X17480D01*
X-1909D02*
X945D01*
X70323Y15811D02*
X85677D01*
X70323Y42189D02*
X85677D01*
Y15811D02*
Y42189D01*
X70323Y15811D02*
Y42189D01*
X128878Y13189D02*
X151122D01*
X128189Y20177D02*
Y29823D01*
X128878Y36811D02*
X151122D01*
X151811Y20177D02*
Y29823D01*
D13*
X269917Y80315D02*
X289799D01*
X209090Y19685D02*
Y80315D01*
X269917Y19685D02*
X289799D01*
Y80315D01*
D14*
X173000Y84772D02*
D03*
Y15728D02*
D03*
M02*
