G04*
G04 #@! TF.GenerationSoftware,Altium Limited,Altium Designer,24.1.2 (44)*
G04*
G04 Layer_Physical_Order=2*
G04 Layer_Color=36540*
%FSLAX25Y25*%
%MOIN*%
G70*
G04*
G04 #@! TF.SameCoordinates,C1C22DCD-7358-48D9-AFAA-883D9B7C899C*
G04*
G04*
G04 #@! TF.FilePolarity,Positive*
G04*
G01*
G75*
G04:AMPARAMS|DCode=53|XSize=39.37mil|YSize=70.87mil|CornerRadius=19.68mil|HoleSize=0mil|Usage=FLASHONLY|Rotation=270.000|XOffset=0mil|YOffset=0mil|HoleType=Round|Shape=RoundedRectangle|*
%AMROUNDEDRECTD53*
21,1,0.03937,0.03150,0,0,270.0*
21,1,0.00000,0.07087,0,0,270.0*
1,1,0.03937,-0.01575,0.00000*
1,1,0.03937,-0.01575,0.00000*
1,1,0.03937,0.01575,0.00000*
1,1,0.03937,0.01575,0.00000*
%
%ADD53ROUNDEDRECTD53*%
G04:AMPARAMS|DCode=54|XSize=39.37mil|YSize=86.61mil|CornerRadius=19.68mil|HoleSize=0mil|Usage=FLASHONLY|Rotation=270.000|XOffset=0mil|YOffset=0mil|HoleType=Round|Shape=RoundedRectangle|*
%AMROUNDEDRECTD54*
21,1,0.03937,0.04724,0,0,270.0*
21,1,0.00000,0.08661,0,0,270.0*
1,1,0.03937,-0.02362,0.00000*
1,1,0.03937,-0.02362,0.00000*
1,1,0.03937,0.02362,0.00000*
1,1,0.03937,0.02362,0.00000*
%
%ADD54ROUNDEDRECTD54*%
%ADD60C,0.04000*%
%ADD62C,0.02000*%
%ADD66C,0.06400*%
%ADD67R,0.06400X0.06400*%
%ADD68R,0.04000X0.04000*%
%ADD69C,0.04000*%
%ADD70R,0.04000X0.04000*%
%ADD71C,0.02400*%
%ADD72C,0.06000*%
G36*
X98048Y99500D02*
X97757Y99442D01*
X97426Y99221D01*
X97205Y98890D01*
X96863Y98774D01*
X96621Y98914D01*
X95553Y99200D01*
X94447D01*
X93379Y98914D01*
X92421Y98361D01*
X91639Y97579D01*
X91086Y96621D01*
X90800Y95553D01*
Y94447D01*
X91086Y93379D01*
X91639Y92421D01*
X92078Y91983D01*
X92158Y91796D01*
X92220Y91452D01*
X92145Y91315D01*
X92058Y91185D01*
X92049Y91142D01*
X92028Y91103D01*
X92011Y90948D01*
X91980Y90795D01*
Y88247D01*
X91497Y87876D01*
X86529Y82908D01*
X86105Y83191D01*
X86300Y83662D01*
Y84538D01*
X85965Y85346D01*
X85346Y85965D01*
X84538Y86300D01*
X83662D01*
X82854Y85965D01*
X82235Y85346D01*
X81900Y84538D01*
Y83662D01*
X82235Y82854D01*
X82854Y82235D01*
X83662Y81900D01*
X84538D01*
X85009Y82095D01*
X85292Y81671D01*
X83560Y79940D01*
X83079Y79313D01*
X82777Y78583D01*
X82674Y77800D01*
Y53454D01*
X77660Y48440D01*
X77179Y47813D01*
X76876Y47083D01*
X76773Y46300D01*
X76876Y45517D01*
X77179Y44787D01*
X77660Y44160D01*
X78286Y43679D01*
X79016Y43377D01*
X79799Y43274D01*
X80582Y43377D01*
X81312Y43679D01*
X81939Y44160D01*
X87840Y50061D01*
X88320Y50688D01*
X88623Y51418D01*
X88726Y52201D01*
X88726Y52201D01*
Y70300D01*
X89200Y70362D01*
X89535Y69554D01*
X90154Y68935D01*
X90962Y68600D01*
X91838D01*
X92646Y68935D01*
X93265Y69554D01*
X93600Y70362D01*
Y71238D01*
X93265Y72046D01*
X92646Y72665D01*
X91838Y73000D01*
X90962D01*
X90154Y72665D01*
X89535Y72046D01*
X89200Y71238D01*
X88726Y71300D01*
Y76547D01*
X93160Y80980D01*
X105078D01*
X116779Y69279D01*
X117110Y69058D01*
X117500Y68980D01*
X129545D01*
X137674Y59917D01*
Y53100D01*
X135897D01*
X135700Y53126D01*
X135503Y53100D01*
X132700D01*
Y51379D01*
X130688Y49367D01*
X130156Y49297D01*
X129183Y48894D01*
X128347Y48253D01*
X127706Y47417D01*
X127303Y46444D01*
X127165Y45400D01*
Y36071D01*
X121829Y30735D01*
X68100D01*
X68100Y30735D01*
X67056Y30597D01*
X66083Y30194D01*
X65247Y29553D01*
X65247Y29553D01*
X59547Y23853D01*
X58906Y23017D01*
X58700Y22520D01*
X48462D01*
X48278Y22553D01*
X48000Y22970D01*
Y23398D01*
X47695Y24133D01*
X47133Y24696D01*
X46398Y25000D01*
X45602D01*
X44867Y24696D01*
X44304Y24133D01*
X44000Y23398D01*
Y22602D01*
X44304Y21867D01*
X44867Y21305D01*
X45602Y21000D01*
X46398D01*
X46442Y21018D01*
X46843Y20750D01*
X46442Y20482D01*
X46398Y20500D01*
X45602D01*
X44867Y20196D01*
X44304Y19633D01*
X44000Y18898D01*
Y18102D01*
X44304Y17367D01*
X44867Y16804D01*
X45602Y16500D01*
X46398D01*
X46780Y16658D01*
X47280Y16324D01*
Y14000D01*
X47358Y13610D01*
X47579Y13279D01*
X47910Y13058D01*
X48300Y12980D01*
X57452D01*
X57500Y12974D01*
X57548Y12980D01*
X66000D01*
X66390Y13058D01*
X66721Y13279D01*
X66942Y13610D01*
X67020Y14000D01*
Y19914D01*
X69771Y22666D01*
X74277D01*
X74611Y22165D01*
X74500Y21898D01*
Y21102D01*
X74805Y20367D01*
X75367Y19805D01*
X76102Y19500D01*
X76898D01*
X77633Y19805D01*
X78196Y20367D01*
X78500Y21102D01*
Y21898D01*
X78747Y22123D01*
X79000Y21756D01*
Y21102D01*
X79304Y20367D01*
X79867Y19805D01*
X80602Y19500D01*
X81398D01*
X82133Y19805D01*
X82696Y20367D01*
X83000Y21102D01*
Y21898D01*
X82889Y22165D01*
X83223Y22666D01*
X123500D01*
X123500Y22666D01*
X124544Y22803D01*
X125517Y23206D01*
X126353Y23847D01*
X134053Y31547D01*
X134053Y31547D01*
X134694Y32383D01*
X135097Y33356D01*
X135234Y34400D01*
Y45355D01*
X136979Y47100D01*
X138602D01*
X138700Y47080D01*
X140652D01*
X140700Y47074D01*
X140748Y47080D01*
X144000D01*
X144390Y47158D01*
X144721Y47379D01*
X144942Y47710D01*
X145020Y48100D01*
Y66078D01*
X151922Y72980D01*
X178875D01*
X179153Y72565D01*
X179100Y72438D01*
Y71562D01*
X179435Y70754D01*
X180054Y70135D01*
X180862Y69800D01*
X181738D01*
X182546Y70135D01*
X183165Y70754D01*
X183500Y71562D01*
Y72438D01*
X183447Y72565D01*
X183725Y72980D01*
X191500D01*
X191890Y73058D01*
X192221Y73279D01*
X195422Y76480D01*
X249078D01*
X249653Y75905D01*
X249446Y75405D01*
X249111D01*
X248302Y75070D01*
X247683Y74451D01*
X247348Y73643D01*
Y72768D01*
X247683Y71959D01*
X248302Y71340D01*
X249111Y71005D01*
X249986D01*
X250795Y71340D01*
X250980Y71526D01*
X251480Y71319D01*
Y57815D01*
X251558Y57425D01*
X251670Y57257D01*
X251888Y56731D01*
Y56261D01*
X251670Y55735D01*
X251558Y55567D01*
X251480Y55177D01*
Y51319D01*
X251558Y50929D01*
X251670Y50761D01*
X251888Y50235D01*
Y49765D01*
X251670Y49239D01*
X251558Y49071D01*
X251480Y48681D01*
Y44823D01*
X251558Y44433D01*
X251670Y44265D01*
X251888Y43739D01*
Y43269D01*
X251670Y42743D01*
X251558Y42575D01*
X251480Y42185D01*
Y33878D01*
X250980Y33671D01*
X250786Y33865D01*
X249978Y34200D01*
X249103D01*
X248294Y33865D01*
X247675Y33246D01*
X247340Y32438D01*
Y31562D01*
X247675Y30754D01*
X248294Y30135D01*
X249103Y29800D01*
X249978D01*
X250786Y30135D01*
X250980Y30329D01*
X251480Y30122D01*
Y28995D01*
X251558Y28605D01*
X251779Y28274D01*
X252110Y28053D01*
X252500Y27975D01*
X253119D01*
X253553Y27796D01*
X253837Y27512D01*
X254168Y27291D01*
X254558Y27213D01*
X254948Y27291D01*
X255279Y27512D01*
X255562Y27796D01*
X255996Y27975D01*
X256466D01*
X256900Y27796D01*
X257232Y27463D01*
X257392Y27077D01*
Y26513D01*
X257232Y26126D01*
X256900Y25794D01*
X256466Y25615D01*
X255996D01*
X255562Y25794D01*
X255279Y26078D01*
X254948Y26299D01*
X254558Y26376D01*
X254168Y26299D01*
X253837Y26078D01*
X253837Y26078D01*
X253553Y25794D01*
X253119Y25615D01*
X252500D01*
X252110Y25537D01*
X251779Y25316D01*
X251558Y24985D01*
X251480Y24595D01*
Y22422D01*
X248078Y19020D01*
X235000D01*
X234610Y18942D01*
X234279Y18721D01*
X229279Y13721D01*
X229058Y13390D01*
X228980Y13000D01*
Y7506D01*
X228480Y7372D01*
X228361Y7579D01*
X227579Y8361D01*
X226621Y8914D01*
X225553Y9200D01*
X224447D01*
X223379Y8914D01*
X222421Y8361D01*
X221639Y7579D01*
X221086Y6621D01*
X220800Y5553D01*
Y4447D01*
X221086Y3379D01*
X221639Y2421D01*
X222421Y1639D01*
X223379Y1086D01*
X224447Y800D01*
X225553D01*
X226621Y1086D01*
X227579Y1639D01*
X228361Y2421D01*
X228480Y2628D01*
X228980Y2494D01*
Y2000D01*
X229058Y1610D01*
X229279Y1279D01*
X229610Y1058D01*
X230000Y980D01*
X231429D01*
X231467Y988D01*
X231505Y983D01*
X231661Y1027D01*
X231819Y1058D01*
X231852Y1080D01*
X231889Y1090D01*
X232016Y1189D01*
X232150Y1279D01*
X232178Y1316D01*
X232202Y1335D01*
X232733Y1450D01*
X232793Y1423D01*
X232819Y1410D01*
X233379Y1086D01*
X234447Y800D01*
X235553D01*
X236621Y1086D01*
X237181Y1410D01*
X237207Y1423D01*
X237267Y1450D01*
X237798Y1335D01*
X237822Y1316D01*
X237850Y1279D01*
X237984Y1189D01*
X238111Y1090D01*
X238148Y1080D01*
X238181Y1058D01*
X238339Y1027D01*
X238494Y983D01*
X238533Y988D01*
X238571Y980D01*
X241429D01*
X241467Y988D01*
X241506Y983D01*
X241661Y1027D01*
X241819Y1058D01*
X241851Y1080D01*
X241889Y1090D01*
X242016Y1189D01*
X242150Y1279D01*
X242178Y1316D01*
X242202Y1335D01*
X242733Y1450D01*
X242793Y1423D01*
X242818Y1410D01*
X243379Y1086D01*
X244447Y800D01*
X245553D01*
X246621Y1086D01*
X247182Y1410D01*
X247207Y1423D01*
X247268Y1450D01*
X247798Y1335D01*
X247822Y1316D01*
X247850Y1279D01*
X247984Y1189D01*
X248111Y1090D01*
X248148Y1080D01*
X248181Y1058D01*
X248339Y1027D01*
X248495Y983D01*
X248533Y988D01*
X248571Y980D01*
X251429D01*
X251467Y988D01*
X251505Y983D01*
X251661Y1027D01*
X251819Y1058D01*
X251852Y1080D01*
X251889Y1090D01*
X252016Y1189D01*
X252150Y1279D01*
X252172Y1311D01*
X252202Y1335D01*
X252281Y1476D01*
X252371Y1610D01*
X252379Y1648D01*
X252398Y1681D01*
X252562Y2181D01*
X252566Y2210D01*
X252578Y2236D01*
X252590Y2407D01*
X252610Y2576D01*
X252603Y2604D01*
X252605Y2633D01*
X252550Y2795D01*
X252504Y2960D01*
X252486Y2982D01*
X252477Y3010D01*
X252036Y3772D01*
X251820Y4581D01*
Y5419D01*
X252036Y6228D01*
X252455Y6953D01*
X253047Y7545D01*
X253772Y7964D01*
X254581Y8180D01*
X255419D01*
X256228Y7964D01*
X256953Y7545D01*
X257545Y6953D01*
X257964Y6228D01*
X258180Y5419D01*
Y4581D01*
X257964Y3772D01*
X257523Y3010D01*
X257514Y2982D01*
X257496Y2960D01*
X257450Y2795D01*
X257396Y2633D01*
X257397Y2604D01*
X257390Y2576D01*
X257410Y2407D01*
X257421Y2236D01*
X257434Y2210D01*
X257438Y2181D01*
X257602Y1681D01*
X257621Y1648D01*
X257629Y1610D01*
X257718Y1476D01*
X257798Y1335D01*
X257828Y1311D01*
X257850Y1279D01*
X257984Y1189D01*
X258111Y1090D01*
X258149Y1080D01*
X258181Y1058D01*
X258339Y1027D01*
X258494Y983D01*
X258533Y988D01*
X258571Y980D01*
X260800D01*
Y800D01*
X269200D01*
Y9200D01*
X269020D01*
Y18481D01*
X269520Y18748D01*
X269527Y18743D01*
X269917Y18665D01*
X270000D01*
Y0D01*
X0D01*
Y100000D01*
X97999D01*
X98048Y99500D01*
D02*
G37*
G36*
X260800Y90800D02*
X268000D01*
Y2000D01*
X258571D01*
X258406Y2500D01*
X258914Y3379D01*
X259200Y4447D01*
Y5553D01*
X258914Y6621D01*
X258361Y7579D01*
X257579Y8361D01*
X256621Y8914D01*
X255553Y9200D01*
X254447D01*
X253379Y8914D01*
X252421Y8361D01*
X251639Y7579D01*
X251086Y6621D01*
X250800Y5553D01*
Y4447D01*
X251086Y3379D01*
X251594Y2500D01*
X251429Y2000D01*
X248571D01*
X248406Y2500D01*
X248914Y3379D01*
X249200Y4447D01*
Y5553D01*
X248914Y6621D01*
X248361Y7579D01*
X247579Y8361D01*
X246621Y8914D01*
X245553Y9200D01*
X244447D01*
X243379Y8914D01*
X242421Y8361D01*
X241639Y7579D01*
X241086Y6621D01*
X240800Y5553D01*
Y4447D01*
X241086Y3379D01*
X241594Y2500D01*
X241429Y2000D01*
X238571D01*
X238406Y2500D01*
X238914Y3379D01*
X239200Y4447D01*
Y5553D01*
X238914Y6621D01*
X238361Y7579D01*
X237579Y8361D01*
X236621Y8914D01*
X235553Y9200D01*
X234447D01*
X233379Y8914D01*
X232421Y8361D01*
X231639Y7579D01*
X231086Y6621D01*
X230800Y5553D01*
Y4447D01*
X231086Y3379D01*
X231594Y2500D01*
X231429Y2000D01*
X230000D01*
X230000Y13000D01*
X235000Y18000D01*
X248500D01*
X252500Y22000D01*
Y24595D01*
X253322D01*
X254131Y24930D01*
X254558Y25357D01*
X254985Y24930D01*
X255793Y24595D01*
X256669D01*
X257477Y24930D01*
X258096Y25549D01*
X258431Y26357D01*
Y27233D01*
X258096Y28041D01*
X257477Y28660D01*
X256669Y28995D01*
X255793D01*
X254985Y28660D01*
X254558Y28233D01*
X254131Y28660D01*
X253322Y28995D01*
X252500D01*
Y42185D01*
X252573Y42258D01*
X252908Y43066D01*
Y43942D01*
X252573Y44750D01*
X252500Y44823D01*
Y48681D01*
X252573Y48754D01*
X252908Y49562D01*
Y50438D01*
X252573Y51246D01*
X252500Y51319D01*
Y55177D01*
X252573Y55250D01*
X252908Y56059D01*
Y56934D01*
X252573Y57742D01*
X252500Y57815D01*
Y74500D01*
X249500Y77500D01*
X195000D01*
X191500Y74000D01*
X182220D01*
X181738Y74200D01*
X180862D01*
X180379Y74000D01*
X151500D01*
X144000Y66500D01*
Y48100D01*
X138700D01*
Y49903D01*
X138726Y50100D01*
X138700Y50297D01*
Y53100D01*
Y60300D01*
X130000Y70000D01*
X117500D01*
X105500Y82000D01*
X93000D01*
Y90795D01*
X93500Y91054D01*
X94447Y90800D01*
X95553D01*
X96621Y91086D01*
X97579Y91639D01*
X98361Y92421D01*
X98914Y93379D01*
X99200Y94447D01*
Y95553D01*
X98914Y96621D01*
X98361Y97579D01*
X97940Y98000D01*
X98147Y98500D01*
X101853D01*
X102060Y98000D01*
X101639Y97579D01*
X101086Y96621D01*
X100800Y95553D01*
Y94447D01*
X101086Y93379D01*
X101639Y92421D01*
X102421Y91639D01*
X103379Y91086D01*
X104447Y90800D01*
X105553D01*
X106621Y91086D01*
X107579Y91639D01*
X108361Y92421D01*
X108914Y93379D01*
X109200Y94447D01*
Y95553D01*
X108914Y96621D01*
X108361Y97579D01*
X107940Y98000D01*
X108147Y98500D01*
X111853D01*
X112060Y98000D01*
X111639Y97579D01*
X111086Y96621D01*
X110800Y95553D01*
Y94447D01*
X111086Y93379D01*
X111639Y92421D01*
X112421Y91639D01*
X113379Y91086D01*
X114447Y90800D01*
X115553D01*
X116621Y91086D01*
X117579Y91639D01*
X118361Y92421D01*
X118914Y93379D01*
X119200Y94447D01*
Y95553D01*
X118914Y96621D01*
X118361Y97579D01*
X117940Y98000D01*
X118147Y98500D01*
X121853D01*
X122060Y98000D01*
X121639Y97579D01*
X121086Y96621D01*
X120800Y95553D01*
Y94447D01*
X121086Y93379D01*
X121639Y92421D01*
X122421Y91639D01*
X123379Y91086D01*
X124447Y90800D01*
X125553D01*
X126621Y91086D01*
X127579Y91639D01*
X128361Y92421D01*
X128914Y93379D01*
X129200Y94447D01*
Y95553D01*
X128914Y96621D01*
X128361Y97579D01*
X127940Y98000D01*
X128147Y98500D01*
X131853D01*
X132060Y98000D01*
X131639Y97579D01*
X131086Y96621D01*
X130800Y95553D01*
Y94447D01*
X131086Y93379D01*
X131639Y92421D01*
X132421Y91639D01*
X133379Y91086D01*
X134447Y90800D01*
X135553D01*
X136621Y91086D01*
X137579Y91639D01*
X138361Y92421D01*
X138914Y93379D01*
X139200Y94447D01*
Y95553D01*
X138914Y96621D01*
X138361Y97579D01*
X137940Y98000D01*
X138147Y98500D01*
X141853D01*
X142060Y98000D01*
X141639Y97579D01*
X141086Y96621D01*
X140800Y95553D01*
Y94447D01*
X141086Y93379D01*
X141639Y92421D01*
X142421Y91639D01*
X143379Y91086D01*
X144447Y90800D01*
X145553D01*
X146621Y91086D01*
X147579Y91639D01*
X148361Y92421D01*
X148914Y93379D01*
X149200Y94447D01*
Y95553D01*
X148914Y96621D01*
X148361Y97579D01*
X147940Y98000D01*
X148147Y98500D01*
X151853D01*
X152060Y98000D01*
X151639Y97579D01*
X151086Y96621D01*
X150800Y95553D01*
Y94447D01*
X151086Y93379D01*
X151639Y92421D01*
X152421Y91639D01*
X153379Y91086D01*
X154447Y90800D01*
X155553D01*
X156621Y91086D01*
X157579Y91639D01*
X158361Y92421D01*
X158914Y93379D01*
X159200Y94447D01*
Y95553D01*
X158914Y96621D01*
X158361Y97579D01*
X157940Y98000D01*
X158147Y98500D01*
X161853D01*
X162060Y98000D01*
X161639Y97579D01*
X161086Y96621D01*
X160800Y95553D01*
Y94447D01*
X161086Y93379D01*
X161639Y92421D01*
X162421Y91639D01*
X163379Y91086D01*
X164447Y90800D01*
X165553D01*
X166621Y91086D01*
X167579Y91639D01*
X168361Y92421D01*
X168914Y93379D01*
X169200Y94447D01*
Y95553D01*
X168914Y96621D01*
X168361Y97579D01*
X167940Y98000D01*
X168147Y98500D01*
X171853D01*
X172060Y98000D01*
X171639Y97579D01*
X171086Y96621D01*
X170800Y95553D01*
Y94447D01*
X171086Y93379D01*
X171639Y92421D01*
X172421Y91639D01*
X173379Y91086D01*
X174447Y90800D01*
X175553D01*
X176621Y91086D01*
X177579Y91639D01*
X178361Y92421D01*
X178914Y93379D01*
X179200Y94447D01*
Y95553D01*
X178914Y96621D01*
X178361Y97579D01*
X177940Y98000D01*
X178147Y98500D01*
X181853D01*
X182060Y98000D01*
X181639Y97579D01*
X181086Y96621D01*
X180800Y95553D01*
Y94447D01*
X181086Y93379D01*
X181639Y92421D01*
X182421Y91639D01*
X183379Y91086D01*
X184447Y90800D01*
X185553D01*
X186621Y91086D01*
X187579Y91639D01*
X188361Y92421D01*
X188914Y93379D01*
X189200Y94447D01*
Y95553D01*
X188914Y96621D01*
X188361Y97579D01*
X187940Y98000D01*
X188147Y98500D01*
X191853D01*
X192060Y98000D01*
X191639Y97579D01*
X191086Y96621D01*
X190800Y95553D01*
Y94447D01*
X191086Y93379D01*
X191639Y92421D01*
X192421Y91639D01*
X193379Y91086D01*
X194447Y90800D01*
X195553D01*
X196621Y91086D01*
X197579Y91639D01*
X198361Y92421D01*
X198914Y93379D01*
X199200Y94447D01*
Y95553D01*
X198914Y96621D01*
X198361Y97579D01*
X197940Y98000D01*
X198147Y98500D01*
X201853D01*
X202060Y98000D01*
X201639Y97579D01*
X201086Y96621D01*
X200800Y95553D01*
Y94447D01*
X201086Y93379D01*
X201639Y92421D01*
X202421Y91639D01*
X203379Y91086D01*
X204447Y90800D01*
X205553D01*
X206621Y91086D01*
X207579Y91639D01*
X208361Y92421D01*
X208914Y93379D01*
X209200Y94447D01*
Y95553D01*
X208914Y96621D01*
X208361Y97579D01*
X207940Y98000D01*
X208147Y98500D01*
X211853D01*
X212060Y98000D01*
X211639Y97579D01*
X211086Y96621D01*
X210800Y95553D01*
Y94447D01*
X211086Y93379D01*
X211639Y92421D01*
X212421Y91639D01*
X213379Y91086D01*
X214447Y90800D01*
X215553D01*
X216621Y91086D01*
X217579Y91639D01*
X218361Y92421D01*
X218914Y93379D01*
X219200Y94447D01*
Y95553D01*
X218914Y96621D01*
X218361Y97579D01*
X217940Y98000D01*
X218147Y98500D01*
X221853D01*
X222060Y98000D01*
X221639Y97579D01*
X221086Y96621D01*
X220800Y95553D01*
Y94447D01*
X221086Y93379D01*
X221639Y92421D01*
X222421Y91639D01*
X223379Y91086D01*
X224447Y90800D01*
X225553D01*
X226621Y91086D01*
X227579Y91639D01*
X228361Y92421D01*
X228914Y93379D01*
X229200Y94447D01*
Y95553D01*
X228914Y96621D01*
X228361Y97579D01*
X227940Y98000D01*
X228147Y98500D01*
X231853D01*
X232060Y98000D01*
X231639Y97579D01*
X231086Y96621D01*
X230800Y95553D01*
Y94447D01*
X231086Y93379D01*
X231639Y92421D01*
X232421Y91639D01*
X233379Y91086D01*
X234447Y90800D01*
X235553D01*
X236621Y91086D01*
X237579Y91639D01*
X238361Y92421D01*
X238914Y93379D01*
X239200Y94447D01*
Y95553D01*
X238914Y96621D01*
X238361Y97579D01*
X237940Y98000D01*
X238147Y98500D01*
X241853D01*
X242060Y98000D01*
X241639Y97579D01*
X241086Y96621D01*
X240800Y95553D01*
Y94447D01*
X241086Y93379D01*
X241639Y92421D01*
X242421Y91639D01*
X243379Y91086D01*
X244447Y90800D01*
X245553D01*
X246621Y91086D01*
X247579Y91639D01*
X248361Y92421D01*
X248914Y93379D01*
X249200Y94447D01*
Y95553D01*
X248914Y96621D01*
X248361Y97579D01*
X247940Y98000D01*
X248147Y98500D01*
X260800D01*
Y90800D01*
D02*
G37*
G36*
X270000Y81335D02*
X269917D01*
X269527Y81257D01*
X269520Y81252D01*
X269020Y81519D01*
Y90800D01*
X268942Y91190D01*
X268721Y91521D01*
X268390Y91742D01*
X268000Y91820D01*
X261820D01*
Y98500D01*
X261742Y98890D01*
X261521Y99221D01*
X261190Y99442D01*
X260898Y99500D01*
X260948Y100000D01*
X270000D01*
Y81335D01*
D02*
G37*
G36*
X66000Y14000D02*
X48300D01*
Y21500D01*
X66000D01*
Y14000D01*
D02*
G37*
%LPC*%
G36*
X85553Y99200D02*
X84447D01*
X83379Y98914D01*
X82421Y98361D01*
X81639Y97579D01*
X81086Y96621D01*
X80800Y95553D01*
Y94447D01*
X81086Y93379D01*
X81639Y92421D01*
X82421Y91639D01*
X83379Y91086D01*
X84447Y90800D01*
X85553D01*
X86621Y91086D01*
X87579Y91639D01*
X88361Y92421D01*
X88914Y93379D01*
X89200Y94447D01*
Y95553D01*
X88914Y96621D01*
X88361Y97579D01*
X87579Y98361D01*
X86621Y98914D01*
X85553Y99200D01*
D02*
G37*
G36*
X75553D02*
X74447D01*
X73379Y98914D01*
X72421Y98361D01*
X71639Y97579D01*
X71086Y96621D01*
X70800Y95553D01*
Y94447D01*
X71086Y93379D01*
X71639Y92421D01*
X72421Y91639D01*
X73379Y91086D01*
X74447Y90800D01*
X75553D01*
X76621Y91086D01*
X77579Y91639D01*
X78361Y92421D01*
X78914Y93379D01*
X79200Y94447D01*
Y95553D01*
X78914Y96621D01*
X78361Y97579D01*
X77579Y98361D01*
X76621Y98914D01*
X75553Y99200D01*
D02*
G37*
G36*
X65553D02*
X64447D01*
X63379Y98914D01*
X62421Y98361D01*
X61639Y97579D01*
X61086Y96621D01*
X60800Y95553D01*
Y94447D01*
X61086Y93379D01*
X61639Y92421D01*
X62421Y91639D01*
X63379Y91086D01*
X64447Y90800D01*
X65553D01*
X66621Y91086D01*
X67579Y91639D01*
X68361Y92421D01*
X68914Y93379D01*
X69200Y94447D01*
Y95553D01*
X68914Y96621D01*
X68361Y97579D01*
X67579Y98361D01*
X66621Y98914D01*
X65553Y99200D01*
D02*
G37*
G36*
X55553D02*
X54447D01*
X53379Y98914D01*
X52421Y98361D01*
X51639Y97579D01*
X51086Y96621D01*
X50800Y95553D01*
Y94447D01*
X51086Y93379D01*
X51639Y92421D01*
X52421Y91639D01*
X53379Y91086D01*
X54447Y90800D01*
X55553D01*
X56621Y91086D01*
X57579Y91639D01*
X58361Y92421D01*
X58914Y93379D01*
X59200Y94447D01*
Y95553D01*
X58914Y96621D01*
X58361Y97579D01*
X57579Y98361D01*
X56621Y98914D01*
X55553Y99200D01*
D02*
G37*
G36*
X35553D02*
X34447D01*
X33379Y98914D01*
X32421Y98361D01*
X31639Y97579D01*
X31086Y96621D01*
X30800Y95553D01*
Y94447D01*
X31086Y93379D01*
X31639Y92421D01*
X32421Y91639D01*
X33379Y91086D01*
X34447Y90800D01*
X35553D01*
X36621Y91086D01*
X37579Y91639D01*
X38361Y92421D01*
X38914Y93379D01*
X39200Y94447D01*
Y95553D01*
X38914Y96621D01*
X38361Y97579D01*
X37579Y98361D01*
X36621Y98914D01*
X35553Y99200D01*
D02*
G37*
G36*
X79258Y89200D02*
X78542D01*
X77880Y88926D01*
X77374Y88420D01*
X77100Y87758D01*
Y87042D01*
X77374Y86380D01*
X77880Y85874D01*
X78542Y85600D01*
X79258D01*
X79920Y85874D01*
X80426Y86380D01*
X80700Y87042D01*
Y87758D01*
X80426Y88420D01*
X79920Y88926D01*
X79258Y89200D01*
D02*
G37*
G36*
X35698Y79900D02*
X34902D01*
X34167Y79596D01*
X33827Y79255D01*
X33500Y79087D01*
X33173Y79255D01*
X32833Y79596D01*
X32098Y79900D01*
X31302D01*
X30567Y79596D01*
X30005Y79033D01*
X29700Y78298D01*
Y77502D01*
X30005Y76767D01*
X30567Y76205D01*
X31302Y75900D01*
X32098D01*
X32833Y76205D01*
X33173Y76545D01*
X33500Y76713D01*
X33827Y76545D01*
X34167Y76205D01*
X34902Y75900D01*
X35698D01*
X36433Y76205D01*
X36996Y76767D01*
X37300Y77502D01*
Y78298D01*
X36996Y79033D01*
X36433Y79596D01*
X35698Y79900D01*
D02*
G37*
G36*
X47498D02*
X46702D01*
X45967Y79596D01*
X45404Y79033D01*
X45100Y78298D01*
Y77502D01*
X45404Y76767D01*
X45874Y76298D01*
X45929Y76000D01*
X45874Y75702D01*
X45404Y75233D01*
X45100Y74498D01*
Y73702D01*
X45404Y72967D01*
X45967Y72404D01*
X46702Y72100D01*
X47498D01*
X48233Y72404D01*
X48796Y72967D01*
X49100Y73702D01*
Y74498D01*
X48796Y75233D01*
X48326Y75702D01*
X48271Y76000D01*
X48326Y76298D01*
X48796Y76767D01*
X49100Y77502D01*
Y78298D01*
X48796Y79033D01*
X48233Y79596D01*
X47498Y79900D01*
D02*
G37*
G36*
X243293Y75405D02*
X242418D01*
X241609Y75070D01*
X240990Y74451D01*
X240655Y73643D01*
Y72768D01*
X240990Y71959D01*
X241609Y71340D01*
X242418Y71005D01*
X243293D01*
X244102Y71340D01*
X244721Y71959D01*
X245056Y72768D01*
Y73643D01*
X244721Y74451D01*
X244102Y75070D01*
X243293Y75405D01*
D02*
G37*
G36*
X236600D02*
X235725D01*
X234916Y75070D01*
X234297Y74451D01*
X233963Y73643D01*
Y72768D01*
X234297Y71959D01*
X234916Y71340D01*
X235725Y71005D01*
X236600D01*
X237409Y71340D01*
X238028Y71959D01*
X238363Y72768D01*
Y73643D01*
X238028Y74451D01*
X237409Y75070D01*
X236600Y75405D01*
D02*
G37*
G36*
X229907D02*
X229032D01*
X228223Y75070D01*
X227605Y74451D01*
X227270Y73643D01*
Y72768D01*
X227605Y71959D01*
X228223Y71340D01*
X229032Y71005D01*
X229907D01*
X230716Y71340D01*
X231335Y71959D01*
X231670Y72768D01*
Y73643D01*
X231335Y74451D01*
X230716Y75070D01*
X229907Y75405D01*
D02*
G37*
G36*
X223214D02*
X222339D01*
X221531Y75070D01*
X220912Y74451D01*
X220577Y73643D01*
Y72768D01*
X220912Y71959D01*
X221531Y71340D01*
X222339Y71005D01*
X223214D01*
X224023Y71340D01*
X224642Y71959D01*
X224977Y72768D01*
Y73643D01*
X224642Y74451D01*
X224023Y75070D01*
X223214Y75405D01*
D02*
G37*
G36*
X216522D02*
X215646D01*
X214838Y75070D01*
X214219Y74451D01*
X213884Y73643D01*
Y72768D01*
X214219Y71959D01*
X214838Y71340D01*
X215646Y71005D01*
X216522D01*
X217330Y71340D01*
X217949Y71959D01*
X218284Y72768D01*
Y73643D01*
X217949Y74451D01*
X217330Y75070D01*
X216522Y75405D01*
D02*
G37*
G36*
X63358Y70800D02*
X62642D01*
X61980Y70526D01*
X61474Y70020D01*
X61200Y69358D01*
Y68642D01*
X61474Y67980D01*
X61980Y67474D01*
X62642Y67200D01*
X63358D01*
X64020Y67474D01*
X64526Y67980D01*
X64800Y68642D01*
Y69358D01*
X64526Y70020D01*
X64020Y70526D01*
X63358Y70800D01*
D02*
G37*
G36*
X177138Y71500D02*
X176262D01*
X175454Y71165D01*
X174835Y70546D01*
X174500Y69738D01*
Y68862D01*
X174835Y68054D01*
X175454Y67435D01*
X176262Y67100D01*
X177138D01*
X177946Y67435D01*
X178565Y68054D01*
X178900Y68862D01*
Y69738D01*
X178565Y70546D01*
X177946Y71165D01*
X177138Y71500D01*
D02*
G37*
G36*
X246638Y70200D02*
X245762D01*
X244954Y69865D01*
X244335Y69246D01*
X244000Y68438D01*
Y67562D01*
X244335Y66754D01*
X244954Y66135D01*
X245762Y65800D01*
X246638D01*
X247446Y66135D01*
X248065Y66754D01*
X248400Y67562D01*
Y68438D01*
X248065Y69246D01*
X247446Y69865D01*
X246638Y70200D01*
D02*
G37*
G36*
X239945D02*
X239070D01*
X238261Y69865D01*
X237642Y69246D01*
X237307Y68438D01*
Y67562D01*
X237642Y66754D01*
X238261Y66135D01*
X239070Y65800D01*
X239945D01*
X240753Y66135D01*
X241372Y66754D01*
X241707Y67562D01*
Y68438D01*
X241372Y69246D01*
X240753Y69865D01*
X239945Y70200D01*
D02*
G37*
G36*
X233252D02*
X232377D01*
X231568Y69865D01*
X230949Y69246D01*
X230614Y68438D01*
Y67562D01*
X230949Y66754D01*
X231568Y66135D01*
X232377Y65800D01*
X233252D01*
X234060Y66135D01*
X234679Y66754D01*
X235014Y67562D01*
Y68438D01*
X234679Y69246D01*
X234060Y69865D01*
X233252Y70200D01*
D02*
G37*
G36*
X226559D02*
X225684D01*
X224875Y69865D01*
X224256Y69246D01*
X223921Y68438D01*
Y67562D01*
X224256Y66754D01*
X224875Y66135D01*
X225684Y65800D01*
X226559D01*
X227367Y66135D01*
X227986Y66754D01*
X228321Y67562D01*
Y68438D01*
X227986Y69246D01*
X227367Y69865D01*
X226559Y70200D01*
D02*
G37*
G36*
X219866D02*
X218991D01*
X218182Y69865D01*
X217563Y69246D01*
X217228Y68438D01*
Y67562D01*
X217563Y66754D01*
X218182Y66135D01*
X218991Y65800D01*
X219866D01*
X220674Y66135D01*
X221293Y66754D01*
X221628Y67562D01*
Y68438D01*
X221293Y69246D01*
X220674Y69865D01*
X219866Y70200D01*
D02*
G37*
G36*
X181738Y68900D02*
X180862D01*
X180054Y68565D01*
X179435Y67946D01*
X179100Y67138D01*
Y66262D01*
X179435Y65454D01*
X180054Y64835D01*
X180862Y64500D01*
X181738D01*
X182546Y64835D01*
X183165Y65454D01*
X183500Y66262D01*
Y67138D01*
X183165Y67946D01*
X182546Y68565D01*
X181738Y68900D01*
D02*
G37*
G36*
X177138Y65600D02*
X176262D01*
X175454Y65265D01*
X174835Y64646D01*
X174500Y63838D01*
Y62975D01*
X174437Y62916D01*
X174187Y62728D01*
X174078Y62675D01*
X173294Y63000D01*
X172419D01*
X171610Y62665D01*
X170992Y62046D01*
X170657Y61238D01*
Y60660D01*
X170175Y60319D01*
X169738Y60500D01*
X168862D01*
X168054Y60165D01*
X167435Y59546D01*
X167100Y58738D01*
Y57862D01*
X167435Y57054D01*
X168054Y56435D01*
X168862Y56100D01*
X169738D01*
X170546Y56435D01*
X171165Y57054D01*
X171500Y57862D01*
Y58439D01*
X171982Y58781D01*
X172419Y58600D01*
X173294D01*
X174103Y58935D01*
X174722Y59554D01*
X175057Y60362D01*
Y61225D01*
X175119Y61284D01*
X175370Y61472D01*
X175479Y61524D01*
X176262Y61200D01*
X177138D01*
X177946Y61535D01*
X178565Y62154D01*
X178900Y62962D01*
Y63838D01*
X178565Y64646D01*
X177946Y65265D01*
X177138Y65600D01*
D02*
G37*
G36*
X156238Y61900D02*
X155362D01*
X154554Y61565D01*
X153935Y60946D01*
X153600Y60138D01*
Y59262D01*
X153935Y58454D01*
X154554Y57835D01*
X155362Y57500D01*
X156238D01*
X157046Y57835D01*
X157665Y58454D01*
X158000Y59262D01*
Y60138D01*
X157665Y60946D01*
X157046Y61565D01*
X156238Y61900D01*
D02*
G37*
G36*
X149238D02*
X148362D01*
X147554Y61565D01*
X146935Y60946D01*
X146600Y60138D01*
Y59262D01*
X146935Y58454D01*
X147554Y57835D01*
X148362Y57500D01*
X149238D01*
X150046Y57835D01*
X150665Y58454D01*
X151000Y59262D01*
Y60138D01*
X150665Y60946D01*
X150046Y61565D01*
X149238Y61900D01*
D02*
G37*
G36*
X163538Y60500D02*
X162662D01*
X161854Y60165D01*
X161235Y59546D01*
X160900Y58738D01*
Y57862D01*
X161235Y57054D01*
X161854Y56435D01*
X162662Y56100D01*
X163538D01*
X164346Y56435D01*
X164965Y57054D01*
X165300Y57862D01*
Y58738D01*
X164965Y59546D01*
X164346Y60165D01*
X163538Y60500D01*
D02*
G37*
G36*
X203798Y53700D02*
X203002D01*
X202267Y53395D01*
X201705Y52833D01*
X201400Y52098D01*
Y51302D01*
X201705Y50567D01*
X202267Y50005D01*
X203002Y49700D01*
X203798D01*
X204533Y50005D01*
X205096Y50567D01*
X205400Y51302D01*
Y52098D01*
X205096Y52833D01*
X204533Y53395D01*
X203798Y53700D01*
D02*
G37*
G36*
X62738Y52200D02*
X61862D01*
X61054Y51865D01*
X60435Y51246D01*
X60100Y50438D01*
Y49562D01*
X60435Y48754D01*
X61054Y48135D01*
X61862Y47800D01*
X62738D01*
X63546Y48135D01*
X64165Y48754D01*
X64500Y49562D01*
Y50438D01*
X64165Y51246D01*
X63546Y51865D01*
X62738Y52200D01*
D02*
G37*
G36*
X188598D02*
X187802D01*
X187067Y51895D01*
X186504Y51333D01*
X186200Y50598D01*
Y49802D01*
X186504Y49067D01*
X187067Y48504D01*
X187078Y48500D01*
Y48000D01*
X187067Y47995D01*
X186504Y47433D01*
X186200Y46698D01*
Y45902D01*
X186504Y45167D01*
X187067Y44605D01*
X187802Y44300D01*
X188598D01*
X189333Y44605D01*
X189895Y45167D01*
X190200Y45902D01*
Y46698D01*
X189895Y47433D01*
X189333Y47995D01*
X189322Y48000D01*
Y48500D01*
X189333Y48504D01*
X189895Y49067D01*
X190200Y49802D01*
Y50598D01*
X189895Y51333D01*
X189333Y51895D01*
X188598Y52200D01*
D02*
G37*
G36*
X203799Y46800D02*
X203003D01*
X202268Y46496D01*
X201705Y45933D01*
X201401Y45198D01*
Y44402D01*
X201705Y43667D01*
X202268Y43104D01*
X203003Y42800D01*
X203799D01*
X204534Y43104D01*
X205096Y43667D01*
X205401Y44402D01*
Y45198D01*
X205096Y45933D01*
X204534Y46496D01*
X203799Y46800D01*
D02*
G37*
G36*
X40500Y58000D02*
X34500D01*
Y52000D01*
X34613D01*
X34902Y51500D01*
X34704Y51158D01*
X34500Y50395D01*
Y49605D01*
X34704Y48842D01*
X35099Y48158D01*
X35418Y47839D01*
X35604Y47500D01*
X35418Y47161D01*
X35099Y46842D01*
X34704Y46158D01*
X34500Y45395D01*
Y44605D01*
X34704Y43842D01*
X35099Y43158D01*
X35658Y42599D01*
X36342Y42204D01*
X37105Y42000D01*
X37895D01*
X38658Y42204D01*
X39342Y42599D01*
X39901Y43158D01*
X40296Y43842D01*
X40500Y44605D01*
Y45395D01*
X40296Y46158D01*
X39901Y46842D01*
X39582Y47161D01*
X39396Y47500D01*
X39582Y47839D01*
X39901Y48158D01*
X40296Y48842D01*
X40500Y49605D01*
Y50395D01*
X40296Y51158D01*
X40098Y51500D01*
X40387Y52000D01*
X40500D01*
Y58000D01*
D02*
G37*
G36*
X200468Y38700D02*
X199593D01*
X198784Y38365D01*
X198165Y37746D01*
X197830Y36938D01*
Y36062D01*
X198165Y35254D01*
X198784Y34635D01*
X199593Y34300D01*
X200468D01*
X201276Y34635D01*
X201895Y35254D01*
X202230Y36062D01*
Y36938D01*
X201895Y37746D01*
X201276Y38365D01*
X200468Y38700D01*
D02*
G37*
G36*
X194738D02*
X193862D01*
X193054Y38365D01*
X192435Y37746D01*
X192100Y36938D01*
Y36062D01*
X192435Y35254D01*
X193054Y34635D01*
X193862Y34300D01*
X194738D01*
X195546Y34635D01*
X196165Y35254D01*
X196500Y36062D01*
Y36938D01*
X196165Y37746D01*
X195546Y38365D01*
X194738Y38700D01*
D02*
G37*
G36*
X183538Y38500D02*
X182662D01*
X181854Y38165D01*
X181235Y37546D01*
X180900Y36738D01*
Y35862D01*
X181235Y35054D01*
X181854Y34435D01*
X182662Y34100D01*
X183538D01*
X184346Y34435D01*
X184603Y34692D01*
X185094Y34595D01*
X185235Y34254D01*
X185854Y33635D01*
X186662Y33300D01*
X187538D01*
X188346Y33635D01*
X188965Y34254D01*
X189300Y35062D01*
Y35938D01*
X188965Y36746D01*
X188346Y37365D01*
X187538Y37700D01*
X186662D01*
X185854Y37365D01*
X185597Y37108D01*
X185106Y37205D01*
X184965Y37546D01*
X184346Y38165D01*
X183538Y38500D01*
D02*
G37*
G36*
X143838Y34600D02*
X142962D01*
X142154Y34265D01*
X141535Y33646D01*
X141200Y32838D01*
Y31962D01*
X141535Y31154D01*
X142154Y30535D01*
X142962Y30200D01*
X143838D01*
X144646Y30535D01*
X145265Y31154D01*
X145600Y31962D01*
Y32838D01*
X145265Y33646D01*
X144646Y34265D01*
X143838Y34600D01*
D02*
G37*
G36*
X243285Y34200D02*
X242410D01*
X241601Y33865D01*
X240982Y33246D01*
X240647Y32438D01*
Y31562D01*
X240982Y30754D01*
X241601Y30135D01*
X242410Y29800D01*
X243285D01*
X244093Y30135D01*
X244712Y30754D01*
X245047Y31562D01*
Y32438D01*
X244712Y33246D01*
X244093Y33865D01*
X243285Y34200D01*
D02*
G37*
G36*
X236592D02*
X235717D01*
X234908Y33865D01*
X234289Y33246D01*
X233954Y32438D01*
Y31562D01*
X234289Y30754D01*
X234908Y30135D01*
X235717Y29800D01*
X236592D01*
X237401Y30135D01*
X238019Y30754D01*
X238354Y31562D01*
Y32438D01*
X238019Y33246D01*
X237401Y33865D01*
X236592Y34200D01*
D02*
G37*
G36*
X229899D02*
X229024D01*
X228215Y33865D01*
X227596Y33246D01*
X227261Y32438D01*
Y31562D01*
X227596Y30754D01*
X228215Y30135D01*
X229024Y29800D01*
X229899D01*
X230708Y30135D01*
X231327Y30754D01*
X231661Y31562D01*
Y32438D01*
X231327Y33246D01*
X230708Y33865D01*
X229899Y34200D01*
D02*
G37*
G36*
X223206D02*
X222331D01*
X221522Y33865D01*
X220903Y33246D01*
X220568Y32438D01*
Y31562D01*
X220903Y30754D01*
X221522Y30135D01*
X222331Y29800D01*
X223206D01*
X224015Y30135D01*
X224634Y30754D01*
X224969Y31562D01*
Y32438D01*
X224634Y33246D01*
X224015Y33865D01*
X223206Y34200D01*
D02*
G37*
G36*
X216515Y34198D02*
X215640D01*
X214831Y33863D01*
X214212Y33245D01*
X213877Y32436D01*
Y31561D01*
X214212Y30752D01*
X214831Y30133D01*
X215640Y29798D01*
X216515D01*
X217323Y30133D01*
X217942Y30752D01*
X218277Y31561D01*
Y32436D01*
X217942Y33245D01*
X217323Y33863D01*
X216515Y34198D01*
D02*
G37*
G36*
X205138Y31900D02*
X204262D01*
X203454Y31565D01*
X202835Y30946D01*
X202500Y30138D01*
Y29262D01*
X202835Y28454D01*
X203454Y27835D01*
X204262Y27500D01*
X205138D01*
X205946Y27835D01*
X206565Y28454D01*
X206900Y29262D01*
Y30138D01*
X206565Y30946D01*
X205946Y31565D01*
X205138Y31900D01*
D02*
G37*
G36*
X198738D02*
X197862D01*
X197054Y31565D01*
X196435Y30946D01*
X196100Y30138D01*
Y29262D01*
X196435Y28454D01*
X197054Y27835D01*
X197862Y27500D01*
X198738D01*
X199546Y27835D01*
X200165Y28454D01*
X200500Y29262D01*
Y30138D01*
X200165Y30946D01*
X199546Y31565D01*
X198738Y31900D01*
D02*
G37*
G36*
X246629Y28995D02*
X245754D01*
X244946Y28660D01*
X244327Y28041D01*
X243992Y27233D01*
Y26357D01*
X244327Y25549D01*
X244946Y24930D01*
X245754Y24595D01*
X246629D01*
X247438Y24930D01*
X248057Y25549D01*
X248392Y26357D01*
Y27233D01*
X248057Y28041D01*
X247438Y28660D01*
X246629Y28995D01*
D02*
G37*
G36*
X239936D02*
X239061D01*
X238253Y28660D01*
X237634Y28041D01*
X237299Y27233D01*
Y26357D01*
X237634Y25549D01*
X238253Y24930D01*
X239061Y24595D01*
X239936D01*
X240745Y24930D01*
X241364Y25549D01*
X241699Y26357D01*
Y27233D01*
X241364Y28041D01*
X240745Y28660D01*
X239936Y28995D01*
D02*
G37*
G36*
X233243D02*
X232368D01*
X231560Y28660D01*
X230941Y28041D01*
X230606Y27233D01*
Y26357D01*
X230941Y25549D01*
X231560Y24930D01*
X232368Y24595D01*
X233243D01*
X234052Y24930D01*
X234671Y25549D01*
X235006Y26357D01*
Y27233D01*
X234671Y28041D01*
X234052Y28660D01*
X233243Y28995D01*
D02*
G37*
G36*
X226551D02*
X225675D01*
X224867Y28660D01*
X224248Y28041D01*
X223913Y27233D01*
Y26357D01*
X224248Y25549D01*
X224867Y24930D01*
X225675Y24595D01*
X226551D01*
X227359Y24930D01*
X227978Y25549D01*
X228313Y26357D01*
Y27233D01*
X227978Y28041D01*
X227359Y28660D01*
X226551Y28995D01*
D02*
G37*
G36*
X219858D02*
X218983D01*
X218174Y28660D01*
X217555Y28041D01*
X217220Y27233D01*
Y26357D01*
X217555Y25549D01*
X218174Y24930D01*
X218983Y24595D01*
X219858D01*
X220666Y24930D01*
X221285Y25549D01*
X221620Y26357D01*
Y27233D01*
X221285Y28041D01*
X220666Y28660D01*
X219858Y28995D01*
D02*
G37*
G36*
X75527Y9000D02*
X74473D01*
X73456Y8727D01*
X72544Y8201D01*
X71799Y7456D01*
X71273Y6544D01*
X71000Y5527D01*
Y4473D01*
X71273Y3456D01*
X71799Y2544D01*
X72544Y1799D01*
X73456Y1273D01*
X74473Y1000D01*
X75527D01*
X76544Y1273D01*
X77456Y1799D01*
X78201Y2544D01*
X78727Y3456D01*
X79000Y4473D01*
Y5527D01*
X78727Y6544D01*
X78201Y7456D01*
X77456Y8201D01*
X76544Y8727D01*
X75527Y9000D01*
D02*
G37*
G36*
X65527D02*
X64473D01*
X63456Y8727D01*
X62544Y8201D01*
X61799Y7456D01*
X61273Y6544D01*
X61000Y5527D01*
Y4473D01*
X61273Y3456D01*
X61799Y2544D01*
X62544Y1799D01*
X63456Y1273D01*
X64473Y1000D01*
X65527D01*
X66544Y1273D01*
X67456Y1799D01*
X68201Y2544D01*
X68727Y3456D01*
X69000Y4473D01*
Y5527D01*
X68727Y6544D01*
X68201Y7456D01*
X67456Y8201D01*
X66544Y8727D01*
X65527Y9000D01*
D02*
G37*
G36*
X215553Y9200D02*
X214447D01*
X213379Y8914D01*
X212421Y8361D01*
X211639Y7579D01*
X211086Y6621D01*
X210800Y5553D01*
Y4447D01*
X211086Y3379D01*
X211639Y2421D01*
X212421Y1639D01*
X213379Y1086D01*
X214447Y800D01*
X215553D01*
X216621Y1086D01*
X217579Y1639D01*
X218361Y2421D01*
X218914Y3379D01*
X219200Y4447D01*
Y5553D01*
X218914Y6621D01*
X218361Y7579D01*
X217579Y8361D01*
X216621Y8914D01*
X215553Y9200D01*
D02*
G37*
G36*
X205553D02*
X204447D01*
X203379Y8914D01*
X202421Y8361D01*
X201639Y7579D01*
X201086Y6621D01*
X200800Y5553D01*
Y4447D01*
X201086Y3379D01*
X201639Y2421D01*
X202421Y1639D01*
X203379Y1086D01*
X204447Y800D01*
X205553D01*
X206621Y1086D01*
X207579Y1639D01*
X208361Y2421D01*
X208914Y3379D01*
X209200Y4447D01*
Y5553D01*
X208914Y6621D01*
X208361Y7579D01*
X207579Y8361D01*
X206621Y8914D01*
X205553Y9200D01*
D02*
G37*
G36*
X195553D02*
X194447D01*
X193379Y8914D01*
X192421Y8361D01*
X191639Y7579D01*
X191086Y6621D01*
X190800Y5553D01*
Y4447D01*
X191086Y3379D01*
X191639Y2421D01*
X192421Y1639D01*
X193379Y1086D01*
X194447Y800D01*
X195553D01*
X196621Y1086D01*
X197579Y1639D01*
X198361Y2421D01*
X198914Y3379D01*
X199200Y4447D01*
Y5553D01*
X198914Y6621D01*
X198361Y7579D01*
X197579Y8361D01*
X196621Y8914D01*
X195553Y9200D01*
D02*
G37*
G36*
X185553D02*
X184447D01*
X183379Y8914D01*
X182421Y8361D01*
X181639Y7579D01*
X181086Y6621D01*
X180800Y5553D01*
Y4447D01*
X181086Y3379D01*
X181639Y2421D01*
X182421Y1639D01*
X183379Y1086D01*
X184447Y800D01*
X185553D01*
X186621Y1086D01*
X187579Y1639D01*
X188361Y2421D01*
X188914Y3379D01*
X189200Y4447D01*
Y5553D01*
X188914Y6621D01*
X188361Y7579D01*
X187579Y8361D01*
X186621Y8914D01*
X185553Y9200D01*
D02*
G37*
G36*
X175553D02*
X174447D01*
X173379Y8914D01*
X172421Y8361D01*
X171639Y7579D01*
X171086Y6621D01*
X170800Y5553D01*
Y4447D01*
X171086Y3379D01*
X171639Y2421D01*
X172421Y1639D01*
X173379Y1086D01*
X174447Y800D01*
X175553D01*
X176621Y1086D01*
X177579Y1639D01*
X178361Y2421D01*
X178914Y3379D01*
X179200Y4447D01*
Y5553D01*
X178914Y6621D01*
X178361Y7579D01*
X177579Y8361D01*
X176621Y8914D01*
X175553Y9200D01*
D02*
G37*
G36*
X165553D02*
X164447D01*
X163379Y8914D01*
X162421Y8361D01*
X161639Y7579D01*
X161086Y6621D01*
X160800Y5553D01*
Y4447D01*
X161086Y3379D01*
X161639Y2421D01*
X162421Y1639D01*
X163379Y1086D01*
X164447Y800D01*
X165553D01*
X166621Y1086D01*
X167579Y1639D01*
X168361Y2421D01*
X168914Y3379D01*
X169200Y4447D01*
Y5553D01*
X168914Y6621D01*
X168361Y7579D01*
X167579Y8361D01*
X166621Y8914D01*
X165553Y9200D01*
D02*
G37*
G36*
X155553D02*
X154447D01*
X153379Y8914D01*
X152421Y8361D01*
X151639Y7579D01*
X151086Y6621D01*
X150800Y5553D01*
Y4447D01*
X151086Y3379D01*
X151639Y2421D01*
X152421Y1639D01*
X153379Y1086D01*
X154447Y800D01*
X155553D01*
X156621Y1086D01*
X157579Y1639D01*
X158361Y2421D01*
X158914Y3379D01*
X159200Y4447D01*
Y5553D01*
X158914Y6621D01*
X158361Y7579D01*
X157579Y8361D01*
X156621Y8914D01*
X155553Y9200D01*
D02*
G37*
G36*
X145553D02*
X144447D01*
X143379Y8914D01*
X142421Y8361D01*
X141639Y7579D01*
X141086Y6621D01*
X140800Y5553D01*
Y4447D01*
X141086Y3379D01*
X141639Y2421D01*
X142421Y1639D01*
X143379Y1086D01*
X144447Y800D01*
X145553D01*
X146621Y1086D01*
X147579Y1639D01*
X148361Y2421D01*
X148914Y3379D01*
X149200Y4447D01*
Y5553D01*
X148914Y6621D01*
X148361Y7579D01*
X147579Y8361D01*
X146621Y8914D01*
X145553Y9200D01*
D02*
G37*
G36*
X135553D02*
X134447D01*
X133379Y8914D01*
X132421Y8361D01*
X131639Y7579D01*
X131086Y6621D01*
X130800Y5553D01*
Y4447D01*
X131086Y3379D01*
X131639Y2421D01*
X132421Y1639D01*
X133379Y1086D01*
X134447Y800D01*
X135553D01*
X136621Y1086D01*
X137579Y1639D01*
X138361Y2421D01*
X138914Y3379D01*
X139200Y4447D01*
Y5553D01*
X138914Y6621D01*
X138361Y7579D01*
X137579Y8361D01*
X136621Y8914D01*
X135553Y9200D01*
D02*
G37*
G36*
X125553D02*
X124447D01*
X123379Y8914D01*
X122421Y8361D01*
X121639Y7579D01*
X121086Y6621D01*
X120800Y5553D01*
Y4447D01*
X121086Y3379D01*
X121639Y2421D01*
X122421Y1639D01*
X123379Y1086D01*
X124447Y800D01*
X125553D01*
X126621Y1086D01*
X127579Y1639D01*
X128361Y2421D01*
X128914Y3379D01*
X129200Y4447D01*
Y5553D01*
X128914Y6621D01*
X128361Y7579D01*
X127579Y8361D01*
X126621Y8914D01*
X125553Y9200D01*
D02*
G37*
G36*
X115553D02*
X114447D01*
X113379Y8914D01*
X112421Y8361D01*
X111639Y7579D01*
X111086Y6621D01*
X110800Y5553D01*
Y4447D01*
X111086Y3379D01*
X111639Y2421D01*
X112421Y1639D01*
X113379Y1086D01*
X114447Y800D01*
X115553D01*
X116621Y1086D01*
X117579Y1639D01*
X118361Y2421D01*
X118914Y3379D01*
X119200Y4447D01*
Y5553D01*
X118914Y6621D01*
X118361Y7579D01*
X117579Y8361D01*
X116621Y8914D01*
X115553Y9200D01*
D02*
G37*
G36*
X105553D02*
X104447D01*
X103379Y8914D01*
X102421Y8361D01*
X101639Y7579D01*
X101086Y6621D01*
X100800Y5553D01*
Y4447D01*
X101086Y3379D01*
X101639Y2421D01*
X102421Y1639D01*
X103379Y1086D01*
X104447Y800D01*
X105553D01*
X106621Y1086D01*
X107579Y1639D01*
X108361Y2421D01*
X108914Y3379D01*
X109200Y4447D01*
Y5553D01*
X108914Y6621D01*
X108361Y7579D01*
X107579Y8361D01*
X106621Y8914D01*
X105553Y9200D01*
D02*
G37*
G36*
X95553D02*
X94447D01*
X93379Y8914D01*
X92421Y8361D01*
X91639Y7579D01*
X91086Y6621D01*
X90800Y5553D01*
Y4447D01*
X91086Y3379D01*
X91639Y2421D01*
X92421Y1639D01*
X93379Y1086D01*
X94447Y800D01*
X95553D01*
X96621Y1086D01*
X97579Y1639D01*
X98361Y2421D01*
X98914Y3379D01*
X99200Y4447D01*
Y5553D01*
X98914Y6621D01*
X98361Y7579D01*
X97579Y8361D01*
X96621Y8914D01*
X95553Y9200D01*
D02*
G37*
G36*
X85553D02*
X84447D01*
X83379Y8914D01*
X82421Y8361D01*
X81639Y7579D01*
X81086Y6621D01*
X80800Y5553D01*
Y4447D01*
X81086Y3379D01*
X81639Y2421D01*
X82421Y1639D01*
X83379Y1086D01*
X84447Y800D01*
X85553D01*
X86621Y1086D01*
X87579Y1639D01*
X88361Y2421D01*
X88914Y3379D01*
X89200Y4447D01*
Y5553D01*
X88914Y6621D01*
X88361Y7579D01*
X87579Y8361D01*
X86621Y8914D01*
X85553Y9200D01*
D02*
G37*
G36*
X55553D02*
X54447D01*
X53379Y8914D01*
X52421Y8361D01*
X51639Y7579D01*
X51086Y6621D01*
X50800Y5553D01*
Y4447D01*
X51086Y3379D01*
X51639Y2421D01*
X52421Y1639D01*
X53379Y1086D01*
X54447Y800D01*
X55553D01*
X56621Y1086D01*
X57579Y1639D01*
X58361Y2421D01*
X58914Y3379D01*
X59200Y4447D01*
Y5553D01*
X58914Y6621D01*
X58361Y7579D01*
X57579Y8361D01*
X56621Y8914D01*
X55553Y9200D01*
D02*
G37*
G36*
X45553D02*
X44447D01*
X43379Y8914D01*
X42421Y8361D01*
X41639Y7579D01*
X41086Y6621D01*
X40800Y5553D01*
Y4447D01*
X41086Y3379D01*
X41639Y2421D01*
X42421Y1639D01*
X43379Y1086D01*
X44447Y800D01*
X45553D01*
X46621Y1086D01*
X47579Y1639D01*
X48361Y2421D01*
X48914Y3379D01*
X49200Y4447D01*
Y5553D01*
X48914Y6621D01*
X48361Y7579D01*
X47579Y8361D01*
X46621Y8914D01*
X45553Y9200D01*
D02*
G37*
G36*
X238436Y88800D02*
X237561D01*
X236752Y88465D01*
X236133Y87846D01*
X235798Y87038D01*
Y86162D01*
X236133Y85354D01*
X236752Y84735D01*
X237561Y84400D01*
X238436D01*
X239245Y84735D01*
X239863Y85354D01*
X240198Y86162D01*
Y87038D01*
X239863Y87846D01*
X239245Y88465D01*
X238436Y88800D01*
D02*
G37*
G36*
X163338Y88400D02*
X162462D01*
X161654Y88065D01*
X161035Y87446D01*
X160700Y86638D01*
Y85762D01*
X161035Y84954D01*
X161654Y84335D01*
X162462Y84000D01*
X163338D01*
X164146Y84335D01*
X164765Y84954D01*
X165100Y85762D01*
Y86638D01*
X164765Y87446D01*
X164146Y88065D01*
X163338Y88400D01*
D02*
G37*
G36*
X131038Y86000D02*
X130162D01*
X129354Y85665D01*
X128735Y85046D01*
X128400Y84238D01*
Y83362D01*
X128735Y82554D01*
X129354Y81935D01*
X130162Y81600D01*
X131038D01*
X131846Y81935D01*
X132465Y82554D01*
X132800Y83362D01*
Y84238D01*
X132465Y85046D01*
X131846Y85665D01*
X131038Y86000D01*
D02*
G37*
G36*
X259938Y84400D02*
X259062D01*
X258254Y84065D01*
X257635Y83446D01*
X257300Y82638D01*
Y81762D01*
X257635Y80954D01*
X258254Y80335D01*
X259062Y80000D01*
X259938D01*
X260746Y80335D01*
X261365Y80954D01*
X261700Y81762D01*
Y82638D01*
X261365Y83446D01*
X260746Y84065D01*
X259938Y84400D01*
D02*
G37*
G36*
X189138Y79600D02*
X188262D01*
X187454Y79265D01*
X186835Y78646D01*
X186500Y77838D01*
Y76962D01*
X186835Y76154D01*
X187454Y75535D01*
X188262Y75200D01*
X189138D01*
X189946Y75535D01*
X190565Y76154D01*
X190900Y76962D01*
Y77838D01*
X190565Y78646D01*
X189946Y79265D01*
X189138Y79600D01*
D02*
G37*
G36*
X263147Y75620D02*
X262271D01*
X261463Y75285D01*
X261041Y74863D01*
X260834Y75070D01*
X260025Y75405D01*
X259150D01*
X258342Y75070D01*
X257723Y74451D01*
X257388Y73643D01*
Y72768D01*
X257723Y71959D01*
X258342Y71340D01*
X259150Y71005D01*
X260025D01*
X260203Y71079D01*
X260586Y70696D01*
X260509Y70511D01*
Y69636D01*
X260844Y68827D01*
X261271Y68400D01*
X260844Y67973D01*
X260509Y67165D01*
Y66290D01*
X260844Y65481D01*
X261271Y65054D01*
X260844Y64627D01*
X260509Y63818D01*
Y62943D01*
X260844Y62134D01*
X261271Y61708D01*
X260844Y61280D01*
X260509Y60472D01*
Y59597D01*
X260844Y58788D01*
X261271Y58361D01*
X260844Y57934D01*
X260509Y57125D01*
Y56250D01*
X260844Y55442D01*
X261271Y55015D01*
X260844Y54588D01*
X260509Y53779D01*
Y52904D01*
X260844Y52095D01*
X261271Y51668D01*
X260844Y51241D01*
X260509Y50432D01*
Y49557D01*
X260844Y48749D01*
X261271Y48322D01*
X260844Y47895D01*
X260509Y47086D01*
Y46211D01*
X260844Y45402D01*
X261271Y44975D01*
X260844Y44548D01*
X260509Y43740D01*
Y42864D01*
X260844Y42056D01*
X261271Y41629D01*
X260844Y41202D01*
X260509Y40393D01*
Y39518D01*
X260844Y38709D01*
X261271Y38282D01*
X260844Y37855D01*
X260509Y37047D01*
Y36171D01*
X260844Y35363D01*
X261271Y34936D01*
X260844Y34509D01*
X260509Y33700D01*
Y32825D01*
X260844Y32016D01*
X261271Y31589D01*
X260844Y31162D01*
X260509Y30354D01*
Y29478D01*
X260844Y28670D01*
X261271Y28243D01*
X260844Y27816D01*
X260509Y27007D01*
Y26132D01*
X260844Y25324D01*
X261463Y24705D01*
X262271Y24370D01*
X263147D01*
X263955Y24705D01*
X264574Y25324D01*
X264909Y26132D01*
Y27007D01*
X264574Y27816D01*
X264147Y28243D01*
X264574Y28670D01*
X264909Y29478D01*
Y30354D01*
X264574Y31162D01*
X264147Y31589D01*
X264574Y32016D01*
X264909Y32825D01*
Y33700D01*
X264574Y34509D01*
X264147Y34936D01*
X264574Y35363D01*
X264909Y36171D01*
Y37047D01*
X264574Y37855D01*
X264147Y38282D01*
X264574Y38709D01*
X264909Y39518D01*
Y40393D01*
X264574Y41202D01*
X264147Y41629D01*
X264574Y42056D01*
X264909Y42864D01*
Y43740D01*
X264574Y44548D01*
X264147Y44975D01*
X264574Y45402D01*
X264909Y46211D01*
Y47086D01*
X264574Y47895D01*
X264147Y48322D01*
X264574Y48749D01*
X264909Y49557D01*
Y50432D01*
X264574Y51241D01*
X264147Y51668D01*
X264574Y52095D01*
X264909Y52904D01*
Y53779D01*
X264574Y54588D01*
X264147Y55015D01*
X264574Y55442D01*
X264909Y56250D01*
Y57125D01*
X264574Y57934D01*
X264147Y58361D01*
X264574Y58788D01*
X264909Y59597D01*
Y60472D01*
X264574Y61280D01*
X264147Y61708D01*
X264574Y62134D01*
X264909Y62943D01*
Y63818D01*
X264574Y64627D01*
X264147Y65054D01*
X264574Y65481D01*
X264909Y66290D01*
Y67165D01*
X264574Y67973D01*
X264147Y68400D01*
X264574Y68827D01*
X264909Y69636D01*
Y70511D01*
X264574Y71320D01*
X264147Y71747D01*
X264574Y72174D01*
X264909Y72983D01*
Y73858D01*
X264574Y74666D01*
X263955Y75285D01*
X263147Y75620D01*
D02*
G37*
G36*
X265738Y20300D02*
X264862D01*
X264054Y19965D01*
X263435Y19346D01*
X263100Y18538D01*
Y17662D01*
X263435Y16854D01*
X264054Y16235D01*
X264862Y15900D01*
X265738D01*
X266546Y16235D01*
X267165Y16854D01*
X267500Y17662D01*
Y18538D01*
X267165Y19346D01*
X266546Y19965D01*
X265738Y20300D01*
D02*
G37*
%LPD*%
G36*
X263378Y74421D02*
X263710Y74089D01*
X263890Y73655D01*
Y73185D01*
X263710Y72751D01*
X263426Y72468D01*
X263205Y72137D01*
X263127Y71747D01*
X263205Y71357D01*
X263426Y71026D01*
X263710Y70742D01*
X263890Y70308D01*
Y69839D01*
X263710Y69405D01*
X263426Y69121D01*
X263205Y68791D01*
X263127Y68400D01*
X263205Y68010D01*
X263426Y67679D01*
X263710Y67396D01*
X263890Y66962D01*
Y66492D01*
X263710Y66058D01*
X263426Y65775D01*
X263205Y65444D01*
X263143Y65132D01*
X263127Y65054D01*
Y65054D01*
D01*
X263205Y64664D01*
X263426Y64333D01*
X263426Y64333D01*
X263710Y64049D01*
X263890Y63616D01*
Y63146D01*
X263710Y62712D01*
X263426Y62428D01*
X263205Y62098D01*
X263127Y61708D01*
X263205Y61317D01*
X263426Y60987D01*
X263710Y60703D01*
X263890Y60269D01*
Y59799D01*
X263710Y59366D01*
X263426Y59082D01*
X263205Y58751D01*
X263127Y58361D01*
X263205Y57971D01*
X263426Y57640D01*
X263710Y57356D01*
X263890Y56923D01*
Y56453D01*
X263710Y56019D01*
X263426Y55735D01*
X263353Y55626D01*
X263205Y55405D01*
X263127Y55015D01*
D01*
Y55014D01*
X263143Y54937D01*
X263205Y54624D01*
X263426Y54294D01*
X263710Y54010D01*
X263890Y53576D01*
Y53106D01*
X263710Y52673D01*
X263426Y52389D01*
X263205Y52058D01*
X263127Y51668D01*
X263205Y51278D01*
X263426Y50947D01*
X263710Y50664D01*
X263890Y50230D01*
Y49760D01*
X263710Y49326D01*
X263426Y49043D01*
X263205Y48712D01*
X263127Y48322D01*
X263205Y47932D01*
X263426Y47601D01*
X263710Y47317D01*
X263890Y46883D01*
Y46414D01*
X263710Y45980D01*
X263426Y45696D01*
X263205Y45365D01*
X263143Y45053D01*
X263127Y44975D01*
Y44975D01*
D01*
X263205Y44585D01*
X263426Y44254D01*
X263426Y44254D01*
X263710Y43971D01*
X263890Y43537D01*
Y43067D01*
X263710Y42633D01*
X263426Y42350D01*
X263205Y42019D01*
X263127Y41629D01*
X263205Y41239D01*
X263426Y40908D01*
X263710Y40624D01*
X263890Y40190D01*
Y39721D01*
X263710Y39287D01*
X263426Y39003D01*
X263205Y38673D01*
X263127Y38282D01*
X263205Y37892D01*
X263426Y37561D01*
X263710Y37278D01*
X263890Y36844D01*
Y36374D01*
X263710Y35940D01*
X263426Y35657D01*
X263353Y35547D01*
X263205Y35326D01*
X263127Y34936D01*
D01*
Y34936D01*
X263143Y34858D01*
X263205Y34546D01*
X263426Y34215D01*
X263710Y33931D01*
X263890Y33497D01*
Y33028D01*
X263710Y32594D01*
X263426Y32310D01*
X263205Y31980D01*
X263127Y31589D01*
X263205Y31199D01*
X263426Y30868D01*
X263710Y30585D01*
X263890Y30151D01*
Y29681D01*
X263710Y29247D01*
X263426Y28964D01*
X263205Y28633D01*
X263127Y28243D01*
X263205Y27853D01*
X263426Y27522D01*
X263710Y27238D01*
X263890Y26805D01*
Y26335D01*
X263710Y25901D01*
X263378Y25569D01*
X262944Y25389D01*
X262474D01*
X262040Y25569D01*
X261708Y25901D01*
X261529Y26335D01*
Y26805D01*
X261708Y27238D01*
X261992Y27522D01*
X262213Y27853D01*
X262291Y28243D01*
X262213Y28633D01*
X261992Y28964D01*
X261708Y29247D01*
X261529Y29681D01*
Y30151D01*
X261708Y30585D01*
X261992Y30868D01*
X262213Y31199D01*
X262291Y31589D01*
X262213Y31980D01*
X261992Y32310D01*
X261708Y32594D01*
X261529Y33028D01*
Y33497D01*
X261708Y33931D01*
X261992Y34215D01*
X262213Y34546D01*
X262275Y34858D01*
X262291Y34936D01*
Y34936D01*
D01*
X262213Y35326D01*
X261992Y35657D01*
X261992Y35657D01*
X261708Y35940D01*
X261529Y36374D01*
Y36844D01*
X261708Y37278D01*
X261992Y37561D01*
X262213Y37892D01*
X262291Y38282D01*
X262213Y38673D01*
X261992Y39003D01*
X261708Y39287D01*
X261529Y39721D01*
Y40190D01*
X261708Y40624D01*
X261992Y40908D01*
X262213Y41239D01*
X262291Y41629D01*
X262213Y42019D01*
X261992Y42350D01*
X261708Y42633D01*
X261529Y43067D01*
Y43537D01*
X261708Y43971D01*
X261992Y44254D01*
X262065Y44364D01*
X262213Y44585D01*
X262291Y44975D01*
D01*
Y44975D01*
X262275Y45053D01*
X262213Y45365D01*
X261992Y45696D01*
X261708Y45980D01*
X261529Y46414D01*
Y46883D01*
X261708Y47317D01*
X261992Y47601D01*
X262213Y47932D01*
X262291Y48322D01*
X262213Y48712D01*
X261992Y49043D01*
X261708Y49326D01*
X261529Y49760D01*
Y50230D01*
X261708Y50664D01*
X261992Y50947D01*
X262213Y51278D01*
X262291Y51668D01*
X262213Y52058D01*
X261992Y52389D01*
X261708Y52673D01*
X261529Y53106D01*
Y53576D01*
X261708Y54010D01*
X261992Y54294D01*
X262213Y54624D01*
X262275Y54937D01*
X262291Y55014D01*
Y55015D01*
D01*
X262213Y55405D01*
X261992Y55735D01*
X261992Y55735D01*
X261708Y56019D01*
X261529Y56453D01*
Y56923D01*
X261708Y57356D01*
X261992Y57640D01*
X262213Y57971D01*
X262291Y58361D01*
X262213Y58751D01*
X261992Y59082D01*
X261708Y59366D01*
X261529Y59799D01*
Y60269D01*
X261708Y60703D01*
X261992Y60987D01*
X262213Y61317D01*
X262291Y61708D01*
X262213Y62098D01*
X261992Y62428D01*
X261708Y62712D01*
X261529Y63146D01*
Y63616D01*
X261708Y64049D01*
X261992Y64333D01*
X262065Y64443D01*
X262213Y64664D01*
X262291Y65054D01*
D01*
Y65054D01*
X262275Y65132D01*
X262213Y65444D01*
X261992Y65775D01*
X261708Y66058D01*
X261529Y66492D01*
Y66962D01*
X261708Y67396D01*
X261992Y67679D01*
X262213Y68010D01*
X262291Y68400D01*
X262213Y68791D01*
X261992Y69121D01*
X261708Y69405D01*
X261529Y69839D01*
Y70311D01*
X261574Y70541D01*
X261605Y70696D01*
Y70696D01*
Y70696D01*
X261574Y70851D01*
X261528Y71086D01*
X261527Y71086D01*
Y71086D01*
X261453Y71197D01*
X261307Y71417D01*
X261307Y71417D01*
X261307Y71417D01*
X260924Y71800D01*
X260924D01*
Y71800D01*
X260759Y71909D01*
X260593Y72021D01*
X260593D01*
X260593Y72021D01*
X260358Y72067D01*
X260203Y72098D01*
X260203D01*
X260203D01*
X260048Y72067D01*
X259833Y72025D01*
X259353D01*
X258919Y72204D01*
X258587Y72536D01*
X258407Y72970D01*
Y73440D01*
X258587Y73874D01*
X258919Y74206D01*
X259353Y74385D01*
X259823D01*
X260256Y74206D01*
X260320Y74142D01*
X260651Y73921D01*
X261041Y73844D01*
X261431Y73921D01*
X261762Y74142D01*
X262040Y74421D01*
X262474Y74600D01*
X262944D01*
X263378Y74421D01*
D02*
G37*
D53*
X22500Y60984D02*
D03*
Y95000D02*
D03*
Y5000D02*
D03*
Y39016D02*
D03*
D54*
X6752Y60984D02*
D03*
Y95000D02*
D03*
Y5000D02*
D03*
Y39016D02*
D03*
D60*
X140500Y78200D02*
X183500D01*
X93636Y85736D02*
X106364D01*
X85700Y52201D02*
Y77800D01*
X93636Y85736D01*
X249300Y82200D02*
X250957D01*
X187560D02*
X249300D01*
X254541Y89941D02*
Y94541D01*
X255000Y95000D01*
X253300Y88700D02*
X254541Y89941D01*
X253300Y84543D02*
Y88700D01*
X250957Y82200D02*
X253300Y84543D01*
X184500Y79140D02*
X187560Y82200D01*
X183600Y78100D02*
X184500Y79000D01*
Y79140D01*
X113900Y78200D02*
X140500D01*
X140700Y78000D01*
Y50100D02*
Y78000D01*
X106364Y85736D02*
X113900Y78200D01*
X79799Y46300D02*
X85700Y52201D01*
X57500Y16000D02*
Y16100D01*
X62400Y21000D01*
X131200Y45600D02*
X135700Y50100D01*
X131200Y45400D02*
Y45600D01*
D62*
X256000Y33500D02*
X259431Y30069D01*
X249300Y82200D02*
X256000Y75500D01*
Y33500D02*
Y75500D01*
X259431Y16069D02*
Y30069D01*
Y16069D02*
X265000Y10500D01*
Y5000D02*
Y10500D01*
X248200Y88700D02*
X253300D01*
D66*
X35000Y5000D02*
D03*
X45000D02*
D03*
X55000D02*
D03*
X65000D02*
D03*
X75000D02*
D03*
X85000D02*
D03*
X95000D02*
D03*
X105000D02*
D03*
X115000D02*
D03*
X125000D02*
D03*
X135000D02*
D03*
X145000D02*
D03*
X155000D02*
D03*
X165000D02*
D03*
X175000D02*
D03*
X185000D02*
D03*
X195000D02*
D03*
X205000D02*
D03*
X215000D02*
D03*
X225000D02*
D03*
X235000D02*
D03*
X245000D02*
D03*
X255000D02*
D03*
X35000Y95000D02*
D03*
X45000D02*
D03*
X55000D02*
D03*
X65000D02*
D03*
X75000D02*
D03*
X85000D02*
D03*
X95000D02*
D03*
X105000D02*
D03*
X115000D02*
D03*
X125000D02*
D03*
X135000D02*
D03*
X145000D02*
D03*
X155000D02*
D03*
X165000D02*
D03*
X175000D02*
D03*
X185000D02*
D03*
X195000D02*
D03*
X205000D02*
D03*
X215000D02*
D03*
X225000D02*
D03*
X235000D02*
D03*
X245000D02*
D03*
X255000D02*
D03*
D67*
X265000Y5000D02*
D03*
Y95000D02*
D03*
D68*
X135700Y50100D02*
D03*
D69*
X140700D02*
D03*
X37500Y50000D02*
D03*
Y45000D02*
D03*
D70*
Y55000D02*
D03*
D71*
X68500Y57100D02*
D03*
X143400Y32400D02*
D03*
X148800Y59700D02*
D03*
X175500Y55500D02*
D03*
X169300Y58300D02*
D03*
X169000Y62500D02*
D03*
X161000Y62000D02*
D03*
X44000Y66500D02*
D03*
X63000Y69000D02*
D03*
X68800Y74800D02*
D03*
Y79200D02*
D03*
X73100Y74800D02*
D03*
Y79200D02*
D03*
X75100Y65900D02*
D03*
X78900Y87400D02*
D03*
X155600Y39204D02*
D03*
X183600Y78100D02*
D03*
X188700Y77400D02*
D03*
X237998Y86600D02*
D03*
X130600Y83800D02*
D03*
X84100Y84100D02*
D03*
X94801Y79401D02*
D03*
X46500Y69800D02*
D03*
X62300Y50000D02*
D03*
X93400Y50700D02*
D03*
Y56700D02*
D03*
X105900Y49000D02*
D03*
Y40450D02*
D03*
X30700Y57800D02*
D03*
X45800Y81400D02*
D03*
X38000Y75609D02*
D03*
Y72109D02*
D03*
X38087Y85686D02*
D03*
X29600Y90600D02*
D03*
X28900Y62400D02*
D03*
X31700Y77900D02*
D03*
X35300D02*
D03*
X47100Y74100D02*
D03*
Y77900D02*
D03*
X184900Y51600D02*
D03*
Y44800D02*
D03*
X183100Y36300D02*
D03*
X46000Y18500D02*
D03*
Y23000D02*
D03*
X37000Y25501D02*
D03*
X36900Y16000D02*
D03*
X44800Y28300D02*
D03*
Y14200D02*
D03*
X188200Y46300D02*
D03*
Y50200D02*
D03*
X187100Y35500D02*
D03*
X206700Y44800D02*
D03*
Y51600D02*
D03*
X83100Y18300D02*
D03*
X73400D02*
D03*
X203400Y51700D02*
D03*
X203401Y44800D02*
D03*
X76500Y21500D02*
D03*
X81000D02*
D03*
X117600Y49000D02*
D03*
X109800D02*
D03*
X102000D02*
D03*
X113700D02*
D03*
X102000Y40450D02*
D03*
X117600D02*
D03*
X113700D02*
D03*
X109800D02*
D03*
X113700Y31900D02*
D03*
X105900D02*
D03*
X117600D02*
D03*
X102000D02*
D03*
X109800D02*
D03*
X31500Y41000D02*
D03*
X29000Y38000D02*
D03*
X46000Y32500D02*
D03*
X29800Y9400D02*
D03*
X49500Y16000D02*
D03*
X53500D02*
D03*
X57500D02*
D03*
X49500Y29000D02*
D03*
X53500D02*
D03*
X57500D02*
D03*
X124350Y40500D02*
D03*
X181300Y72000D02*
D03*
X95536Y85736D02*
D03*
X91400Y70800D02*
D03*
X253300Y88700D02*
D03*
X248200D02*
D03*
X163100Y58300D02*
D03*
X69900Y88700D02*
D03*
X47900Y85700D02*
D03*
X79799Y46300D02*
D03*
X78800Y53200D02*
D03*
Y58500D02*
D03*
X206600Y21200D02*
D03*
X155800Y59700D02*
D03*
X162900Y86200D02*
D03*
X172857Y60800D02*
D03*
X176700Y69300D02*
D03*
Y63400D02*
D03*
X204400Y74478D02*
D03*
X181300Y66700D02*
D03*
X198300Y29700D02*
D03*
X194300Y36500D02*
D03*
X200030D02*
D03*
X204700Y29700D02*
D03*
X161600Y12400D02*
D03*
X168600Y21500D02*
D03*
X265300Y18100D02*
D03*
X259500Y82200D02*
D03*
X236100Y46700D02*
D03*
X242800D02*
D03*
Y53300D02*
D03*
X236100D02*
D03*
X239504Y61204D02*
D03*
X250708Y56496D02*
D03*
Y50000D02*
D03*
Y43504D02*
D03*
X239504Y38796D02*
D03*
X228300Y43504D02*
D03*
Y50000D02*
D03*
Y56496D02*
D03*
X259588Y73205D02*
D03*
X262709Y73420D02*
D03*
Y70074D02*
D03*
Y66727D02*
D03*
Y63381D02*
D03*
Y60034D02*
D03*
Y56688D02*
D03*
Y53341D02*
D03*
Y49995D02*
D03*
Y46648D02*
D03*
Y43302D02*
D03*
Y39955D02*
D03*
Y36609D02*
D03*
Y33263D02*
D03*
Y29916D02*
D03*
Y26570D02*
D03*
X216077Y31998D02*
D03*
X249540Y32000D02*
D03*
X246192Y26795D02*
D03*
X242847Y32000D02*
D03*
X239499Y26795D02*
D03*
X236154Y32000D02*
D03*
X232806Y26795D02*
D03*
X229461Y32000D02*
D03*
X226113Y26795D02*
D03*
X222768Y32000D02*
D03*
X219420Y26795D02*
D03*
X246200Y68000D02*
D03*
X256231Y26795D02*
D03*
X252885D02*
D03*
X216084Y73205D02*
D03*
X222777D02*
D03*
X219428Y68000D02*
D03*
X229470Y73205D02*
D03*
X226121Y68000D02*
D03*
X236163Y73205D02*
D03*
X232814Y68000D02*
D03*
X239507D02*
D03*
X242856Y73205D02*
D03*
X249548D02*
D03*
D72*
X62400Y21000D02*
X68100Y26700D01*
X123500D01*
X131200Y34400D01*
Y45400D01*
M02*
