G04*
G04 #@! TF.GenerationSoftware,Altium Limited,Altium Designer,24.1.2 (44)*
G04*
G04 Layer_Color=8388736*
%FSLAX25Y25*%
%MOIN*%
G70*
G04*
G04 #@! TF.SameCoordinates,0B90AA95-9CA7-41F6-A5B3-E5D1BD17CD36*
G04*
G04*
G04 #@! TF.FilePolarity,Positive*
G04*
G01*
G75*
%ADD10C,0.01000*%
%ADD114C,0.00600*%
D10*
X-22500Y314957D02*
X-20500Y308957D01*
X-24500D02*
X-22500Y314957D01*
X-24500Y6000D02*
X-22500Y0D01*
X-20500Y6000D01*
X-22500Y170974D02*
Y314957D01*
Y0D02*
Y140783D01*
X-23500Y314957D02*
X-1984D01*
X-23500Y0D02*
X-1984D01*
X0Y333256D02*
X6000Y335256D01*
X0Y333256D02*
X6000Y331256D01*
X308941D02*
X314941Y333256D01*
X308941Y335256D02*
X314941Y333256D01*
X0D02*
X140775D01*
X170966D02*
X314941D01*
X0Y316941D02*
Y334256D01*
X314941Y316941D02*
Y334256D01*
D114*
X-23899Y142383D02*
X-24899Y143382D01*
Y145382D01*
X-23899Y146381D01*
X-22900D01*
X-21900Y145382D01*
X-20900Y146381D01*
X-19901D01*
X-18901Y145382D01*
Y143382D01*
X-19901Y142383D01*
X-20900D01*
X-21900Y143382D01*
X-22900Y142383D01*
X-23899D01*
X-21900Y143382D02*
Y145382D01*
X-23899Y148381D02*
X-24899Y149380D01*
Y151380D01*
X-23899Y152380D01*
X-19901D01*
X-18901Y151380D01*
Y149380D01*
X-19901Y148381D01*
X-23899D01*
X-18901Y154379D02*
X-19901D01*
Y155378D01*
X-18901D01*
Y154379D01*
X-23899Y159377D02*
X-24899Y160377D01*
Y162376D01*
X-23899Y163376D01*
X-19901D01*
X-18901Y162376D01*
Y160377D01*
X-19901Y159377D01*
X-23899D01*
Y165375D02*
X-24899Y166375D01*
Y168374D01*
X-23899Y169374D01*
X-19901D01*
X-18901Y168374D01*
Y166375D01*
X-19901Y165375D01*
X-23899D01*
X142375Y334655D02*
X143375Y335655D01*
X145374D01*
X146373Y334655D01*
Y333656D01*
X145374Y332656D01*
X146373Y331656D01*
Y330657D01*
X145374Y329657D01*
X143375D01*
X142375Y330657D01*
Y331656D01*
X143375Y332656D01*
X142375Y333656D01*
Y334655D01*
X143375Y332656D02*
X145374D01*
X148373Y334655D02*
X149373Y335655D01*
X151372D01*
X152372Y334655D01*
Y330657D01*
X151372Y329657D01*
X149373D01*
X148373Y330657D01*
Y334655D01*
X154371Y329657D02*
Y330657D01*
X155371D01*
Y329657D01*
X154371D01*
X159369Y334655D02*
X160369Y335655D01*
X162368D01*
X163368Y334655D01*
Y330657D01*
X162368Y329657D01*
X160369D01*
X159369Y330657D01*
Y334655D01*
X165367D02*
X166367Y335655D01*
X168366D01*
X169366Y334655D01*
Y330657D01*
X168366Y329657D01*
X166367D01*
X165367Y330657D01*
Y334655D01*
M02*
