G04*
G04 #@! TF.GenerationSoftware,Altium Limited,Altium Designer,24.1.2 (44)*
G04*
G04 Layer_Color=8388736*
%FSLAX25Y25*%
%MOIN*%
G70*
G04*
G04 #@! TF.SameCoordinates,0B90AA95-9CA7-41F6-A5B3-E5D1BD17CD36*
G04*
G04*
G04 #@! TF.FilePolarity,Negative*
G04*
G01*
G75*
%ADD28R,0.10315X0.13819*%
%ADD31R,0.09449X0.12205*%
%ADD43O,0.08800X0.03200*%
%ADD44O,0.09461X0.03162*%
%ADD45R,0.06509X0.03162*%
%ADD46R,0.09213X0.02520*%
G04:AMPARAMS|DCode=47|XSize=59.18mil|YSize=47.37mil|CornerRadius=5.97mil|HoleSize=0mil|Usage=FLASHONLY|Rotation=0.000|XOffset=0mil|YOffset=0mil|HoleType=Round|Shape=RoundedRectangle|*
%AMROUNDEDRECTD47*
21,1,0.05918,0.03543,0,0,0.0*
21,1,0.04724,0.04737,0,0,0.0*
1,1,0.01194,0.02362,-0.01772*
1,1,0.01194,-0.02362,-0.01772*
1,1,0.01194,-0.02362,0.01772*
1,1,0.01194,0.02362,0.01772*
%
%ADD47ROUNDEDRECTD47*%
%ADD48O,0.09068X0.01981*%
G04:AMPARAMS|DCode=49|XSize=67.06mil|YSize=57.21mil|CornerRadius=6.46mil|HoleSize=0mil|Usage=FLASHONLY|Rotation=270.000|XOffset=0mil|YOffset=0mil|HoleType=Round|Shape=RoundedRectangle|*
%AMROUNDEDRECTD49*
21,1,0.06706,0.04429,0,0,270.0*
21,1,0.05413,0.05721,0,0,270.0*
1,1,0.01292,-0.02215,-0.02707*
1,1,0.01292,-0.02215,0.02707*
1,1,0.01292,0.02215,0.02707*
1,1,0.01292,0.02215,-0.02707*
%
%ADD49ROUNDEDRECTD49*%
G04:AMPARAMS|DCode=50|XSize=59.18mil|YSize=47.37mil|CornerRadius=5.97mil|HoleSize=0mil|Usage=FLASHONLY|Rotation=270.000|XOffset=0mil|YOffset=0mil|HoleType=Round|Shape=RoundedRectangle|*
%AMROUNDEDRECTD50*
21,1,0.05918,0.03543,0,0,270.0*
21,1,0.04724,0.04737,0,0,270.0*
1,1,0.01194,-0.01772,-0.02362*
1,1,0.01194,-0.01772,0.02362*
1,1,0.01194,0.01772,0.02362*
1,1,0.01194,0.01772,-0.02362*
%
%ADD50ROUNDEDRECTD50*%
%ADD51R,0.05524X0.03950*%
%ADD52R,0.03800X0.07800*%
%ADD53R,0.07099X0.03202*%
%ADD54R,0.03162X0.06509*%
%ADD55O,0.03162X0.09461*%
G04:AMPARAMS|DCode=56|XSize=146.46mil|YSize=212.6mil|CornerRadius=38.58mil|HoleSize=0mil|Usage=FLASHONLY|Rotation=180.000|XOffset=0mil|YOffset=0mil|HoleType=Round|Shape=RoundedRectangle|*
%AMROUNDEDRECTD56*
21,1,0.14646,0.13543,0,0,180.0*
21,1,0.06929,0.21260,0,0,180.0*
1,1,0.07717,-0.03465,0.06772*
1,1,0.07717,0.03465,0.06772*
1,1,0.07717,0.03465,-0.06772*
1,1,0.07717,-0.03465,-0.06772*
%
%ADD56ROUNDEDRECTD56*%
G04:AMPARAMS|DCode=57|XSize=47.24mil|YSize=47.24mil|CornerRadius=5.91mil|HoleSize=0mil|Usage=FLASHONLY|Rotation=0.000|XOffset=0mil|YOffset=0mil|HoleType=Round|Shape=RoundedRectangle|*
%AMROUNDEDRECTD57*
21,1,0.04724,0.03543,0,0,0.0*
21,1,0.03543,0.04724,0,0,0.0*
1,1,0.01181,0.01772,-0.01772*
1,1,0.01181,-0.01772,-0.01772*
1,1,0.01181,-0.01772,0.01772*
1,1,0.01181,0.01772,0.01772*
%
%ADD57ROUNDEDRECTD57*%
%ADD58R,0.16942X0.25210*%
%ADD59R,0.05524X0.13398*%
%ADD60O,0.01981X0.09068*%
G04:AMPARAMS|DCode=61|XSize=47.24mil|YSize=106.3mil|CornerRadius=5.91mil|HoleSize=0mil|Usage=FLASHONLY|Rotation=180.000|XOffset=0mil|YOffset=0mil|HoleType=Round|Shape=RoundedRectangle|*
%AMROUNDEDRECTD61*
21,1,0.04724,0.09449,0,0,180.0*
21,1,0.03543,0.10630,0,0,180.0*
1,1,0.01181,-0.01772,0.04724*
1,1,0.01181,0.01772,0.04724*
1,1,0.01181,0.01772,-0.04724*
1,1,0.01181,-0.01772,-0.04724*
%
%ADD61ROUNDEDRECTD61*%
%ADD62R,0.09265X0.22453*%
G04:AMPARAMS|DCode=63|XSize=112.33mil|YSize=76.9mil|CornerRadius=21.22mil|HoleSize=0mil|Usage=FLASHONLY|Rotation=0.000|XOffset=0mil|YOffset=0mil|HoleType=Round|Shape=RoundedRectangle|*
%AMROUNDEDRECTD63*
21,1,0.11233,0.03445,0,0,0.0*
21,1,0.06988,0.07690,0,0,0.0*
1,1,0.04245,0.03494,-0.01722*
1,1,0.04245,-0.03494,-0.01722*
1,1,0.04245,-0.03494,0.01722*
1,1,0.04245,0.03494,0.01722*
%
%ADD63ROUNDEDRECTD63*%
G04:AMPARAMS|DCode=64|XSize=67.06mil|YSize=57.21mil|CornerRadius=6.46mil|HoleSize=0mil|Usage=FLASHONLY|Rotation=180.000|XOffset=0mil|YOffset=0mil|HoleType=Round|Shape=RoundedRectangle|*
%AMROUNDEDRECTD64*
21,1,0.06706,0.04429,0,0,180.0*
21,1,0.05413,0.05721,0,0,180.0*
1,1,0.01292,-0.02707,0.02215*
1,1,0.01292,0.02707,0.02215*
1,1,0.01292,0.02707,-0.02215*
1,1,0.01292,-0.02707,-0.02215*
%
%ADD64ROUNDEDRECTD64*%
G04:AMPARAMS|DCode=65|XSize=78.87mil|YSize=56.42mil|CornerRadius=8.84mil|HoleSize=0mil|Usage=FLASHONLY|Rotation=180.000|XOffset=0mil|YOffset=0mil|HoleType=Round|Shape=RoundedRectangle|*
%AMROUNDEDRECTD65*
21,1,0.07887,0.03874,0,0,180.0*
21,1,0.06118,0.05642,0,0,180.0*
1,1,0.01769,-0.03059,0.01937*
1,1,0.01769,0.03059,0.01937*
1,1,0.01769,0.03059,-0.01937*
1,1,0.01769,-0.03059,-0.01937*
%
%ADD65ROUNDEDRECTD65*%
%ADD66C,0.07087*%
%ADD67C,0.03162*%
%ADD68C,0.24422*%
%ADD69R,0.07087X0.07087*%
%ADD70C,0.04816*%
%ADD71C,0.07217*%
%ADD72C,0.13595*%
%ADD73C,0.07099*%
G04:AMPARAMS|DCode=74|XSize=168mil|YSize=108mil|CornerRadius=29mil|HoleSize=0mil|Usage=FLASHONLY|Rotation=0.000|XOffset=0mil|YOffset=0mil|HoleType=Round|Shape=RoundedRectangle|*
%AMROUNDEDRECTD74*
21,1,0.16800,0.05000,0,0,0.0*
21,1,0.11000,0.10800,0,0,0.0*
1,1,0.05800,0.05500,-0.02500*
1,1,0.05800,-0.05500,-0.02500*
1,1,0.05800,-0.05500,0.02500*
1,1,0.05800,0.05500,0.02500*
%
%ADD74ROUNDEDRECTD74*%
G04:AMPARAMS|DCode=75|XSize=108mil|YSize=168mil|CornerRadius=29mil|HoleSize=0mil|Usage=FLASHONLY|Rotation=0.000|XOffset=0mil|YOffset=0mil|HoleType=Round|Shape=RoundedRectangle|*
%AMROUNDEDRECTD75*
21,1,0.10800,0.11000,0,0,0.0*
21,1,0.05000,0.16800,0,0,0.0*
1,1,0.05800,0.02500,-0.05500*
1,1,0.05800,-0.02500,-0.05500*
1,1,0.05800,-0.02500,0.05500*
1,1,0.05800,0.02500,0.05500*
%
%ADD75ROUNDEDRECTD75*%
%ADD76C,0.05906*%
%ADD77C,0.04737*%
G36*
X62926Y156445D02*
X62978Y156434D01*
X63027Y156418D01*
X63074Y156394D01*
X63118Y156365D01*
X63157Y156331D01*
X63192Y156291D01*
X63221Y156248D01*
X63244Y156201D01*
X63261Y156151D01*
X63271Y156100D01*
X63275Y156047D01*
Y148173D01*
X63271Y148121D01*
X63261Y148070D01*
X63244Y148020D01*
X63221Y147973D01*
X63192Y147929D01*
X63157Y147890D01*
X63118Y147855D01*
X63074Y147826D01*
X63027Y147803D01*
X62978Y147786D01*
X62926Y147776D01*
X62874Y147772D01*
X47126D01*
X47074Y147776D01*
X47022Y147786D01*
X46973Y147803D01*
X46926Y147826D01*
X46882Y147855D01*
X46843Y147890D01*
X46808Y147929D01*
X46779Y147973D01*
X46756Y148020D01*
X46739Y148070D01*
X46729Y148121D01*
X46725Y148173D01*
Y156047D01*
X46729Y156100D01*
X46739Y156151D01*
X46756Y156201D01*
X46779Y156248D01*
X46808Y156291D01*
X46843Y156331D01*
X46882Y156365D01*
X46926Y156394D01*
X46973Y156418D01*
X47022Y156434D01*
X47074Y156445D01*
X47126Y156448D01*
X62874D01*
X62926Y156445D01*
D02*
G37*
D28*
X190630Y218756D02*
D03*
D31*
X126319Y288756D02*
D03*
D43*
X185000Y91256D02*
D03*
Y86256D02*
D03*
Y81256D02*
D03*
Y76256D02*
D03*
Y71256D02*
D03*
Y66256D02*
D03*
Y61256D02*
D03*
Y56256D02*
D03*
Y51256D02*
D03*
Y46256D02*
D03*
Y41256D02*
D03*
Y36256D02*
D03*
Y31256D02*
D03*
Y26256D02*
D03*
X223000D02*
D03*
Y31256D02*
D03*
Y36256D02*
D03*
Y41256D02*
D03*
Y46256D02*
D03*
Y51256D02*
D03*
Y56256D02*
D03*
Y61256D02*
D03*
Y66256D02*
D03*
Y71256D02*
D03*
Y76256D02*
D03*
Y81256D02*
D03*
Y86256D02*
D03*
Y91256D02*
D03*
D44*
X115000Y185000D02*
D03*
Y180000D02*
D03*
Y175000D02*
D03*
Y170000D02*
D03*
Y165000D02*
D03*
Y160000D02*
D03*
Y155000D02*
D03*
Y150000D02*
D03*
X133898Y185000D02*
D03*
Y180000D02*
D03*
Y175000D02*
D03*
Y170000D02*
D03*
Y165000D02*
D03*
Y160000D02*
D03*
Y155000D02*
D03*
Y150000D02*
D03*
X73898Y221256D02*
D03*
Y226256D02*
D03*
Y231256D02*
D03*
Y236256D02*
D03*
X55000Y221256D02*
D03*
Y226256D02*
D03*
Y231256D02*
D03*
Y236256D02*
D03*
D45*
X59374Y205588D02*
D03*
Y198107D02*
D03*
X68626Y201848D02*
D03*
D46*
X137638Y296256D02*
D03*
X115000D02*
D03*
Y291256D02*
D03*
Y286256D02*
D03*
Y281256D02*
D03*
X137638D02*
D03*
Y286256D02*
D03*
Y291256D02*
D03*
D47*
X220000Y290856D02*
D03*
Y284557D02*
D03*
X243100Y87799D02*
D03*
Y81500D02*
D03*
X185000Y301256D02*
D03*
Y294957D02*
D03*
X280000Y239957D02*
D03*
Y246256D02*
D03*
X290000Y239957D02*
D03*
Y246256D02*
D03*
X233500Y93799D02*
D03*
Y87500D02*
D03*
X270000Y239957D02*
D03*
Y246256D02*
D03*
X97159Y25276D02*
D03*
Y31575D02*
D03*
X40000Y86256D02*
D03*
Y92555D02*
D03*
X102100Y130750D02*
D03*
Y137050D02*
D03*
X24500Y176256D02*
D03*
Y182555D02*
D03*
Y156256D02*
D03*
Y162555D02*
D03*
X125000Y263701D02*
D03*
Y270000D02*
D03*
X100000Y288701D02*
D03*
Y295000D02*
D03*
X210000Y306799D02*
D03*
Y300500D02*
D03*
X135000Y270000D02*
D03*
Y263701D02*
D03*
X195000Y301256D02*
D03*
Y294957D02*
D03*
D48*
X119095Y91256D02*
D03*
X75000D02*
D03*
Y89287D02*
D03*
Y87319D02*
D03*
Y85350D02*
D03*
Y83382D02*
D03*
Y81413D02*
D03*
Y79445D02*
D03*
Y77476D02*
D03*
Y75508D02*
D03*
Y73539D02*
D03*
Y71571D02*
D03*
Y69602D02*
D03*
Y67634D02*
D03*
Y65665D02*
D03*
Y63697D02*
D03*
Y61728D02*
D03*
X119095D02*
D03*
Y63697D02*
D03*
Y65665D02*
D03*
Y67634D02*
D03*
Y69602D02*
D03*
Y71571D02*
D03*
Y73539D02*
D03*
Y75508D02*
D03*
Y77476D02*
D03*
Y79445D02*
D03*
Y81413D02*
D03*
Y83382D02*
D03*
Y85350D02*
D03*
Y87319D02*
D03*
Y89287D02*
D03*
D49*
X266240Y111000D02*
D03*
X273130D02*
D03*
X266240Y58000D02*
D03*
X273130D02*
D03*
X214055Y191000D02*
D03*
X220945D02*
D03*
X85000Y151256D02*
D03*
X78110D02*
D03*
X210055Y157400D02*
D03*
X216945D02*
D03*
X55000Y56256D02*
D03*
X48110D02*
D03*
X65000Y251256D02*
D03*
X58110D02*
D03*
X10110Y57500D02*
D03*
X17000D02*
D03*
X10610Y121500D02*
D03*
X17500D02*
D03*
X159055Y101700D02*
D03*
X165945D02*
D03*
X91890Y136256D02*
D03*
X85000D02*
D03*
X170000Y216256D02*
D03*
X163110D02*
D03*
X191890Y241256D02*
D03*
X185000D02*
D03*
D50*
X163701Y41756D02*
D03*
X170000D02*
D03*
X163701Y18200D02*
D03*
X170000D02*
D03*
X40000Y220000D02*
D03*
X33701D02*
D03*
X91299Y221256D02*
D03*
X85000D02*
D03*
X91299Y231256D02*
D03*
X85000D02*
D03*
X182901Y173056D02*
D03*
X189200D02*
D03*
X33701Y231256D02*
D03*
X40000D02*
D03*
X268701Y25000D02*
D03*
X275000D02*
D03*
X155000Y216256D02*
D03*
X148701D02*
D03*
X211350Y216000D02*
D03*
X217650D02*
D03*
X170000Y196256D02*
D03*
X163701D02*
D03*
Y206256D02*
D03*
X170000D02*
D03*
X185000Y251256D02*
D03*
X191299D02*
D03*
X108701Y270000D02*
D03*
X115000D02*
D03*
X101299Y280000D02*
D03*
X95000D02*
D03*
X189200Y163056D02*
D03*
X182901D02*
D03*
X106299Y221256D02*
D03*
X100000D02*
D03*
X106299Y231256D02*
D03*
X100000D02*
D03*
X125000Y254500D02*
D03*
X131299D02*
D03*
X126299Y306256D02*
D03*
X120000D02*
D03*
X170000Y51256D02*
D03*
X163701D02*
D03*
D51*
X87779Y166256D02*
D03*
X60220D02*
D03*
X32441Y41256D02*
D03*
X60000D02*
D03*
D52*
X25000Y63056D02*
D03*
Y116256D02*
D03*
X256600Y111256D02*
D03*
Y58056D02*
D03*
D53*
X201260Y226256D02*
D03*
Y221256D02*
D03*
Y216256D02*
D03*
Y211256D02*
D03*
X180000D02*
D03*
Y216256D02*
D03*
Y221256D02*
D03*
Y226256D02*
D03*
D54*
X90000Y271256D02*
D03*
X93740Y262004D02*
D03*
X86260D02*
D03*
X266260Y35748D02*
D03*
X273740D02*
D03*
X270000Y45000D02*
D03*
D55*
X60000Y262358D02*
D03*
X65000D02*
D03*
X70000D02*
D03*
X75000D02*
D03*
X60000Y281256D02*
D03*
X65000D02*
D03*
X70000D02*
D03*
X75000D02*
D03*
D56*
X160000Y271256D02*
D03*
X193898D02*
D03*
D57*
X55000Y151126D02*
D03*
D58*
X240512Y282909D02*
D03*
X301929D02*
D03*
D59*
X285000Y261256D02*
D03*
X275157D02*
D03*
X267284D02*
D03*
X257441D02*
D03*
D60*
X82284Y54445D02*
D03*
X84252D02*
D03*
X86221D02*
D03*
X88189D02*
D03*
X90158D02*
D03*
X92126D02*
D03*
X94095D02*
D03*
X96063D02*
D03*
X98032D02*
D03*
X100000D02*
D03*
X101969D02*
D03*
X103937D02*
D03*
X105905D02*
D03*
X107874D02*
D03*
X109843D02*
D03*
X111811D02*
D03*
Y98539D02*
D03*
X109843D02*
D03*
X107874D02*
D03*
X105905D02*
D03*
X103937D02*
D03*
X101969D02*
D03*
X100000D02*
D03*
X98032D02*
D03*
X96063D02*
D03*
X94095D02*
D03*
X92126D02*
D03*
X90158D02*
D03*
X88189D02*
D03*
X86221D02*
D03*
X84252D02*
D03*
X82284D02*
D03*
D61*
X209785Y170500D02*
D03*
X220415D02*
D03*
D62*
X159500Y296256D02*
D03*
X174657D02*
D03*
D63*
X76929Y301256D02*
D03*
X60000D02*
D03*
X70000Y185000D02*
D03*
X53071D02*
D03*
D64*
X199200Y166166D02*
D03*
Y173056D02*
D03*
X40000Y126890D02*
D03*
Y120000D02*
D03*
X116500Y24193D02*
D03*
Y31083D02*
D03*
X70000Y126890D02*
D03*
Y120000D02*
D03*
X79000Y24193D02*
D03*
Y31083D02*
D03*
X40000Y76256D02*
D03*
Y69366D02*
D03*
D65*
X170000Y91256D02*
D03*
X159685D02*
D03*
D66*
X10000Y241256D02*
D03*
Y231256D02*
D03*
X300000Y45000D02*
D03*
Y65000D02*
D03*
Y85000D02*
D03*
Y95000D02*
D03*
Y105000D02*
D03*
Y75000D02*
D03*
Y55000D02*
D03*
Y35000D02*
D03*
X10000Y161256D02*
D03*
Y171256D02*
D03*
Y181256D02*
D03*
Y191256D02*
D03*
D67*
X17040Y25960D02*
D03*
X24000Y28842D02*
D03*
X30960Y25960D02*
D03*
X33843Y19000D02*
D03*
X30960Y12040D02*
D03*
X24000Y9157D02*
D03*
X17040Y12040D02*
D03*
X14157Y19000D02*
D03*
D68*
X24000D02*
D03*
D69*
X300000Y115000D02*
D03*
D70*
X299291Y184819D02*
D03*
Y152654D02*
D03*
Y194819D02*
D03*
Y142654D02*
D03*
D71*
X267992Y199228D02*
D03*
Y138244D02*
D03*
D72*
X280000Y146236D02*
D03*
Y191236D02*
D03*
D73*
X245000Y166217D02*
D03*
Y186216D02*
D03*
Y176216D02*
D03*
Y156217D02*
D03*
X255000Y151256D02*
D03*
Y181256D02*
D03*
Y171256D02*
D03*
Y161256D02*
D03*
D74*
X35000Y256256D02*
D03*
D75*
X20000Y276256D02*
D03*
X45000D02*
D03*
D76*
X60000Y111756D02*
D03*
X50000D02*
D03*
D77*
X245827Y282909D02*
D03*
X296614D02*
D03*
X297402Y261256D02*
D03*
X245039D02*
D03*
M02*
