G04*
G04 #@! TF.GenerationSoftware,Altium Limited,Altium Designer,24.1.2 (44)*
G04*
G04 Layer_Color=128*
%FSLAX25Y25*%
%MOIN*%
G70*
G04*
G04 #@! TF.SameCoordinates,0B90AA95-9CA7-41F6-A5B3-E5D1BD17CD36*
G04*
G04*
G04 #@! TF.FilePolarity,Positive*
G04*
G01*
G75*
G04:AMPARAMS|DCode=22|XSize=51.18mil|YSize=39.37mil|CornerRadius=1.97mil|HoleSize=0mil|Usage=FLASHONLY|Rotation=0.000|XOffset=0mil|YOffset=0mil|HoleType=Round|Shape=RoundedRectangle|*
%AMROUNDEDRECTD22*
21,1,0.05118,0.03543,0,0,0.0*
21,1,0.04724,0.03937,0,0,0.0*
1,1,0.00394,0.02362,-0.01772*
1,1,0.00394,-0.02362,-0.01772*
1,1,0.00394,-0.02362,0.01772*
1,1,0.00394,0.02362,0.01772*
%
%ADD22ROUNDEDRECTD22*%
G04:AMPARAMS|DCode=25|XSize=51.18mil|YSize=39.37mil|CornerRadius=1.97mil|HoleSize=0mil|Usage=FLASHONLY|Rotation=270.000|XOffset=0mil|YOffset=0mil|HoleType=Round|Shape=RoundedRectangle|*
%AMROUNDEDRECTD25*
21,1,0.05118,0.03543,0,0,270.0*
21,1,0.04724,0.03937,0,0,270.0*
1,1,0.00394,-0.01772,-0.02362*
1,1,0.00394,-0.01772,0.02362*
1,1,0.00394,0.01772,0.02362*
1,1,0.00394,0.01772,-0.02362*
%
%ADD25ROUNDEDRECTD25*%
G04:AMPARAMS|DCode=40|XSize=104.33mil|YSize=68.9mil|CornerRadius=17.22mil|HoleSize=0mil|Usage=FLASHONLY|Rotation=0.000|XOffset=0mil|YOffset=0mil|HoleType=Round|Shape=RoundedRectangle|*
%AMROUNDEDRECTD40*
21,1,0.10433,0.03445,0,0,0.0*
21,1,0.06988,0.06890,0,0,0.0*
1,1,0.03445,0.03494,-0.01722*
1,1,0.03445,-0.03494,-0.01722*
1,1,0.03445,-0.03494,0.01722*
1,1,0.03445,0.03494,0.01722*
%
%ADD40ROUNDEDRECTD40*%
%ADD111R,0.05512X0.13780*%
D22*
X232382Y130709D02*
D03*
Y137008D02*
D03*
X222441Y130709D02*
D03*
Y137008D02*
D03*
X220000Y300457D02*
D03*
Y306756D02*
D03*
X209700Y290600D02*
D03*
Y284301D02*
D03*
D25*
X226279Y159941D02*
D03*
X219980D02*
D03*
X226279Y169882D02*
D03*
X219980D02*
D03*
X80000Y166256D02*
D03*
X73701D02*
D03*
X50000Y41256D02*
D03*
X43701D02*
D03*
X159199Y280100D02*
D03*
X152900D02*
D03*
Y290100D02*
D03*
X159199D02*
D03*
D40*
X170000Y251256D02*
D03*
X153071D02*
D03*
D111*
X170236Y235000D02*
D03*
X160000D02*
D03*
M02*
