G04*
G04 #@! TF.GenerationSoftware,Altium Limited,Altium Designer,24.1.2 (44)*
G04*
G04 Layer_Physical_Order=4*
G04 Layer_Color=16711680*
%FSLAX25Y25*%
%MOIN*%
G70*
G04*
G04 #@! TF.SameCoordinates,0B90AA95-9CA7-41F6-A5B3-E5D1BD17CD36*
G04*
G04*
G04 #@! TF.FilePolarity,Positive*
G04*
G01*
G75*
%ADD12C,0.01181*%
G04:AMPARAMS|DCode=22|XSize=51.18mil|YSize=39.37mil|CornerRadius=1.97mil|HoleSize=0mil|Usage=FLASHONLY|Rotation=0.000|XOffset=0mil|YOffset=0mil|HoleType=Round|Shape=RoundedRectangle|*
%AMROUNDEDRECTD22*
21,1,0.05118,0.03543,0,0,0.0*
21,1,0.04724,0.03937,0,0,0.0*
1,1,0.00394,0.02362,-0.01772*
1,1,0.00394,-0.02362,-0.01772*
1,1,0.00394,-0.02362,0.01772*
1,1,0.00394,0.02362,0.01772*
%
%ADD22ROUNDEDRECTD22*%
G04:AMPARAMS|DCode=25|XSize=51.18mil|YSize=39.37mil|CornerRadius=1.97mil|HoleSize=0mil|Usage=FLASHONLY|Rotation=270.000|XOffset=0mil|YOffset=0mil|HoleType=Round|Shape=RoundedRectangle|*
%AMROUNDEDRECTD25*
21,1,0.05118,0.03543,0,0,270.0*
21,1,0.04724,0.03937,0,0,270.0*
1,1,0.00394,-0.01772,-0.02362*
1,1,0.00394,-0.01772,0.02362*
1,1,0.00394,0.01772,0.02362*
1,1,0.00394,0.01772,-0.02362*
%
%ADD25ROUNDEDRECTD25*%
G04:AMPARAMS|DCode=40|XSize=104.33mil|YSize=68.9mil|CornerRadius=17.22mil|HoleSize=0mil|Usage=FLASHONLY|Rotation=0.000|XOffset=0mil|YOffset=0mil|HoleType=Round|Shape=RoundedRectangle|*
%AMROUNDEDRECTD40*
21,1,0.10433,0.03445,0,0,0.0*
21,1,0.06988,0.06890,0,0,0.0*
1,1,0.03445,0.03494,-0.01722*
1,1,0.03445,-0.03494,-0.01722*
1,1,0.03445,-0.03494,0.01722*
1,1,0.03445,0.03494,0.01722*
%
%ADD40ROUNDEDRECTD40*%
%ADD78C,0.00817*%
%ADD79C,0.01968*%
%ADD81C,0.03937*%
%ADD83C,0.06299*%
%ADD84C,0.02362*%
%ADD85C,0.23622*%
%ADD86R,0.06299X0.06299*%
%ADD87C,0.04016*%
%ADD88C,0.06417*%
%ADD89C,0.12795*%
G04:AMPARAMS|DCode=90|XSize=160mil|YSize=100mil|CornerRadius=25mil|HoleSize=0mil|Usage=FLASHONLY|Rotation=0.000|XOffset=0mil|YOffset=0mil|HoleType=Round|Shape=RoundedRectangle|*
%AMROUNDEDRECTD90*
21,1,0.16000,0.05000,0,0,0.0*
21,1,0.11000,0.10000,0,0,0.0*
1,1,0.05000,0.05500,-0.02500*
1,1,0.05000,-0.05500,-0.02500*
1,1,0.05000,-0.05500,0.02500*
1,1,0.05000,0.05500,0.02500*
%
%ADD90ROUNDEDRECTD90*%
G04:AMPARAMS|DCode=91|XSize=100mil|YSize=160mil|CornerRadius=25mil|HoleSize=0mil|Usage=FLASHONLY|Rotation=0.000|XOffset=0mil|YOffset=0mil|HoleType=Round|Shape=RoundedRectangle|*
%AMROUNDEDRECTD91*
21,1,0.10000,0.11000,0,0,0.0*
21,1,0.05000,0.16000,0,0,0.0*
1,1,0.05000,0.02500,-0.05500*
1,1,0.05000,-0.02500,-0.05500*
1,1,0.05000,-0.02500,0.05500*
1,1,0.05000,0.02500,0.05500*
%
%ADD91ROUNDEDRECTD91*%
%ADD92C,0.05118*%
%ADD93C,0.03937*%
%ADD94C,0.02756*%
%ADD111R,0.05512X0.13780*%
%ADD112C,0.05512*%
G36*
X313135Y1806D02*
X1806D01*
Y313150D01*
X313135D01*
Y1806D01*
D02*
G37*
%LPC*%
G36*
X80863Y311756D02*
X80137D01*
X79436Y311568D01*
X78808Y311205D01*
X78295Y310692D01*
X77932Y310064D01*
X77744Y309363D01*
Y308637D01*
X77932Y307936D01*
X78295Y307308D01*
X78808Y306795D01*
X79436Y306432D01*
X80137Y306244D01*
X80863D01*
X81564Y306432D01*
X82192Y306795D01*
X82705Y307308D01*
X83068Y307936D01*
X83256Y308637D01*
Y309363D01*
X83068Y310064D01*
X82705Y310692D01*
X82192Y311205D01*
X81564Y311568D01*
X80863Y311756D01*
D02*
G37*
G36*
X73463D02*
X72737D01*
X72036Y311568D01*
X71408Y311205D01*
X70895Y310692D01*
X70532Y310064D01*
X70344Y309363D01*
Y308637D01*
X70532Y307936D01*
X70895Y307308D01*
X71408Y306795D01*
X72036Y306432D01*
X72737Y306244D01*
X73463D01*
X74164Y306432D01*
X74792Y306795D01*
X75305Y307308D01*
X75668Y307936D01*
X75856Y308637D01*
Y309363D01*
X75668Y310064D01*
X75305Y310692D01*
X74792Y311205D01*
X74164Y311568D01*
X73463Y311756D01*
D02*
G37*
G36*
X185463Y310356D02*
X184737D01*
X184036Y310168D01*
X183408Y309805D01*
X182895Y309292D01*
X182532Y308664D01*
X182344Y307963D01*
Y307237D01*
X182532Y306536D01*
X182895Y305908D01*
X183408Y305395D01*
X184036Y305032D01*
X184737Y304844D01*
X185463D01*
X186164Y305032D01*
X186792Y305395D01*
X187305Y305908D01*
X187668Y306536D01*
X187856Y307237D01*
Y307963D01*
X187668Y308664D01*
X187305Y309292D01*
X186792Y309805D01*
X186164Y310168D01*
X185463Y310356D01*
D02*
G37*
G36*
X106563Y305056D02*
X105837D01*
X105136Y304868D01*
X104508Y304505D01*
X103995Y303992D01*
X103632Y303364D01*
X103444Y302663D01*
Y301937D01*
X103632Y301236D01*
X103995Y300608D01*
X104508Y300095D01*
X105136Y299732D01*
X105837Y299544D01*
X106563D01*
X107264Y299732D01*
X107892Y300095D01*
X108405Y300608D01*
X108768Y301236D01*
X108956Y301937D01*
Y302663D01*
X108768Y303364D01*
X108405Y303992D01*
X107892Y304505D01*
X107264Y304868D01*
X106563Y305056D01*
D02*
G37*
G36*
X99663D02*
X98937D01*
X98236Y304868D01*
X97608Y304505D01*
X97095Y303992D01*
X96732Y303364D01*
X96544Y302663D01*
Y301937D01*
X96732Y301236D01*
X97095Y300608D01*
X97608Y300095D01*
X98236Y299732D01*
X98937Y299544D01*
X99663D01*
X100364Y299732D01*
X100992Y300095D01*
X101505Y300608D01*
X101868Y301236D01*
X102056Y301937D01*
Y302663D01*
X101868Y303364D01*
X101505Y303992D01*
X100992Y304505D01*
X100364Y304868D01*
X99663Y305056D01*
D02*
G37*
G36*
X194500Y310380D02*
X194319Y310356D01*
X194137D01*
X193961Y310309D01*
X193781Y310285D01*
X193612Y310215D01*
X193436Y310168D01*
X193278Y310077D01*
X193110Y310007D01*
X192966Y309896D01*
X192808Y309805D01*
X192679Y309676D01*
X192534Y309565D01*
X192424Y309421D01*
X192295Y309292D01*
X192204Y309134D01*
X192093Y308990D01*
X192023Y308822D01*
X191932Y308664D01*
X191885Y308488D01*
X191815Y308319D01*
X191791Y308139D01*
X191744Y307963D01*
Y307781D01*
X191720Y307600D01*
Y302400D01*
X191815Y301681D01*
X192093Y301010D01*
X192534Y300434D01*
X195535Y297434D01*
X196110Y296993D01*
X196781Y296715D01*
X197500Y296620D01*
X207900D01*
X208619Y296715D01*
X209290Y296993D01*
X209865Y297434D01*
X216407Y303976D01*
X220000D01*
X220034Y303981D01*
X222362D01*
X222746Y304057D01*
X223072Y304275D01*
X223289Y304600D01*
X223366Y304984D01*
Y308528D01*
X223289Y308912D01*
X223072Y309237D01*
X222746Y309455D01*
X222362Y309531D01*
X220034D01*
X220000Y309536D01*
X215256D01*
X214536Y309441D01*
X213866Y309163D01*
X213290Y308721D01*
X206749Y302180D01*
X198651D01*
X197280Y303551D01*
Y307600D01*
X197256Y307781D01*
Y307963D01*
X197209Y308139D01*
X197185Y308319D01*
X197115Y308488D01*
X197068Y308664D01*
X196977Y308822D01*
X196907Y308990D01*
X196796Y309134D01*
X196705Y309292D01*
X196576Y309421D01*
X196466Y309565D01*
X196321Y309676D01*
X196192Y309805D01*
X196034Y309896D01*
X195890Y310007D01*
X195722Y310077D01*
X195564Y310168D01*
X195388Y310215D01*
X195219Y310285D01*
X195039Y310309D01*
X194863Y310356D01*
X194681D01*
X194500Y310380D01*
D02*
G37*
G36*
X222362Y303232D02*
X217638D01*
X217254Y303155D01*
X216928Y302938D01*
X216711Y302612D01*
X216634Y302228D01*
Y298685D01*
X216711Y298301D01*
X216928Y297975D01*
X217254Y297758D01*
X217638Y297681D01*
X222362D01*
X222746Y297758D01*
X223072Y297975D01*
X223289Y298301D01*
X223366Y298685D01*
Y299041D01*
X223866Y299047D01*
X225335Y297579D01*
Y296969D01*
X225664Y296173D01*
X226273Y295564D01*
X227069Y295235D01*
X227931D01*
X228727Y295564D01*
X229336Y296173D01*
X229665Y296969D01*
Y297831D01*
X229336Y298627D01*
X228727Y299236D01*
X227931Y299565D01*
X227322D01*
X225437Y301450D01*
X224981Y301755D01*
X224443Y301862D01*
X223366D01*
Y302228D01*
X223289Y302612D01*
X223072Y302938D01*
X222746Y303155D01*
X222362Y303232D01*
D02*
G37*
G36*
X106563Y298956D02*
X105837D01*
X105136Y298768D01*
X104508Y298405D01*
X103995Y297892D01*
X103632Y297264D01*
X103444Y296563D01*
Y295837D01*
X103632Y295136D01*
X103995Y294508D01*
X104508Y293995D01*
X105136Y293632D01*
X105837Y293444D01*
X106563D01*
X107264Y293632D01*
X107892Y293995D01*
X108405Y294508D01*
X108768Y295136D01*
X108956Y295837D01*
Y296563D01*
X108768Y297264D01*
X108405Y297892D01*
X107892Y298405D01*
X107264Y298768D01*
X106563Y298956D01*
D02*
G37*
G36*
X73363Y297256D02*
X72637D01*
X71936Y297068D01*
X71308Y296705D01*
X70795Y296192D01*
X70432Y295564D01*
X70244Y294863D01*
Y294137D01*
X70432Y293436D01*
X70795Y292808D01*
X71308Y292295D01*
X71936Y291932D01*
X72637Y291744D01*
X73363D01*
X74064Y291932D01*
X74692Y292295D01*
X75205Y292808D01*
X75568Y293436D01*
X75756Y294137D01*
Y294863D01*
X75568Y295564D01*
X75205Y296192D01*
X74692Y296705D01*
X74064Y297068D01*
X73363Y297256D01*
D02*
G37*
G36*
X204187Y294765D02*
X203325D01*
X202529Y294436D01*
X201920Y293827D01*
X201591Y293031D01*
Y292169D01*
X201920Y291373D01*
X202529Y290764D01*
X203325Y290435D01*
X203899D01*
X204727Y289607D01*
X205183Y289302D01*
X205721Y289195D01*
X206334D01*
Y288828D01*
X206411Y288444D01*
X206628Y288119D01*
X206954Y287901D01*
X207338Y287825D01*
X212062D01*
X212446Y287901D01*
X212772Y288119D01*
X212989Y288444D01*
X213066Y288828D01*
Y292372D01*
X212989Y292756D01*
X212772Y293081D01*
X212446Y293299D01*
X212062Y293375D01*
X207338D01*
X206954Y293299D01*
X206628Y293081D01*
X206421Y292772D01*
X206378Y292762D01*
X205921Y292855D01*
Y293031D01*
X205592Y293827D01*
X204982Y294436D01*
X204187Y294765D01*
D02*
G37*
G36*
X62963Y292056D02*
X62237D01*
X61536Y291868D01*
X60908Y291505D01*
X60395Y290992D01*
X60032Y290364D01*
X59844Y289663D01*
Y288937D01*
X60032Y288236D01*
X60395Y287608D01*
X60908Y287095D01*
X61536Y286732D01*
X62237Y286544D01*
X62963D01*
X63664Y286732D01*
X64292Y287095D01*
X64805Y287608D01*
X65168Y288236D01*
X65356Y288937D01*
Y289663D01*
X65168Y290364D01*
X64805Y290992D01*
X64292Y291505D01*
X63664Y291868D01*
X62963Y292056D01*
D02*
G37*
G36*
X55481D02*
X54755D01*
X54054Y291868D01*
X53426Y291505D01*
X52913Y290992D01*
X52550Y290364D01*
X52362Y289663D01*
Y288937D01*
X52550Y288236D01*
X52913Y287608D01*
X53426Y287095D01*
X54054Y286732D01*
X54755Y286544D01*
X55481D01*
X56182Y286732D01*
X56810Y287095D01*
X57323Y287608D01*
X57686Y288236D01*
X57874Y288937D01*
Y289663D01*
X57686Y290364D01*
X57323Y290992D01*
X56810Y291505D01*
X56182Y291868D01*
X55481Y292056D01*
D02*
G37*
G36*
X80763Y297256D02*
X80037D01*
X79336Y297068D01*
X78708Y296705D01*
X78195Y296192D01*
X77832Y295564D01*
X77644Y294863D01*
Y294137D01*
X77832Y293436D01*
X78195Y292808D01*
X78708Y292295D01*
X79336Y291932D01*
X79516Y291884D01*
Y291366D01*
X79336Y291318D01*
X78708Y290955D01*
X78195Y290442D01*
X77832Y289814D01*
X77644Y289113D01*
Y288387D01*
X77832Y287686D01*
X78195Y287058D01*
X78708Y286545D01*
X79336Y286182D01*
X79516Y286134D01*
Y285616D01*
X79336Y285568D01*
X78708Y285205D01*
X78195Y284692D01*
X77832Y284064D01*
X77644Y283363D01*
Y282637D01*
X77832Y281936D01*
X78195Y281308D01*
X78708Y280795D01*
X79336Y280432D01*
X80037Y280244D01*
X80763D01*
X81464Y280432D01*
X82092Y280795D01*
X82605Y281308D01*
X82968Y281936D01*
X83156Y282637D01*
Y283363D01*
X82968Y284064D01*
X82605Y284692D01*
X82092Y285205D01*
X81464Y285568D01*
X81284Y285616D01*
Y286134D01*
X81464Y286182D01*
X82092Y286545D01*
X82605Y287058D01*
X82968Y287686D01*
X83156Y288387D01*
Y289113D01*
X82968Y289814D01*
X82605Y290442D01*
X82092Y290955D01*
X81464Y291318D01*
X81284Y291366D01*
Y291884D01*
X81464Y291932D01*
X82092Y292295D01*
X82605Y292808D01*
X82968Y293436D01*
X83156Y294137D01*
Y294863D01*
X82968Y295564D01*
X82605Y296192D01*
X82092Y296705D01*
X81464Y297068D01*
X80763Y297256D01*
D02*
G37*
G36*
X296977Y285665D02*
X296251D01*
X295550Y285477D01*
X294922Y285115D01*
X294409Y284602D01*
X294046Y283973D01*
X293858Y283272D01*
Y282547D01*
X294046Y281846D01*
X294409Y281217D01*
X294922Y280704D01*
X295550Y280341D01*
X296251Y280153D01*
X296977D01*
X297678Y280341D01*
X298306Y280704D01*
X298819Y281217D01*
X299182Y281846D01*
X299370Y282547D01*
Y283272D01*
X299182Y283973D01*
X298819Y284602D01*
X298306Y285115D01*
X297678Y285477D01*
X296977Y285665D01*
D02*
G37*
G36*
X246190D02*
X245464D01*
X244763Y285477D01*
X244135Y285115D01*
X243621Y284602D01*
X243259Y283973D01*
X243071Y283272D01*
Y282547D01*
X243259Y281846D01*
X243621Y281217D01*
X244135Y280704D01*
X244763Y280341D01*
X245464Y280153D01*
X246190D01*
X246890Y280341D01*
X247519Y280704D01*
X248032Y281217D01*
X248395Y281846D01*
X248583Y282547D01*
Y283272D01*
X248395Y283973D01*
X248032Y284602D01*
X247519Y285115D01*
X246890Y285477D01*
X246190Y285665D01*
D02*
G37*
G36*
X154672Y293466D02*
X151128D01*
X150744Y293389D01*
X150419Y293172D01*
X150201Y292846D01*
X150125Y292462D01*
Y287738D01*
X150201Y287354D01*
X150419Y287028D01*
X150744Y286811D01*
X151128Y286734D01*
X151495D01*
Y283466D01*
X151128D01*
X150744Y283389D01*
X150419Y283172D01*
X150201Y282846D01*
X150125Y282462D01*
Y279854D01*
X150048Y279802D01*
X148852Y278606D01*
X141591D01*
X141192Y279005D01*
X140564Y279368D01*
X139863Y279556D01*
X139137D01*
X138436Y279368D01*
X137808Y279005D01*
X137295Y278492D01*
X136932Y277864D01*
X136744Y277163D01*
Y276437D01*
X136932Y275736D01*
X137295Y275108D01*
X137808Y274595D01*
X138436Y274232D01*
X139137Y274044D01*
X139863D01*
X140564Y274232D01*
X141192Y274595D01*
X141591Y274994D01*
X149600D01*
X150291Y275131D01*
X150877Y275523D01*
X152089Y276734D01*
X154672D01*
X155056Y276811D01*
X155381Y277028D01*
X155599Y277354D01*
X155675Y277738D01*
Y282462D01*
X155599Y282846D01*
X155381Y283172D01*
X155056Y283389D01*
X154672Y283466D01*
X154305D01*
Y286734D01*
X154672D01*
X155056Y286811D01*
X155381Y287028D01*
X155599Y287354D01*
X155675Y287738D01*
Y292462D01*
X155599Y292846D01*
X155381Y293172D01*
X155056Y293389D01*
X154672Y293466D01*
D02*
G37*
G36*
X55481Y284056D02*
X54755D01*
X54054Y283868D01*
X53426Y283505D01*
X52913Y282992D01*
X52550Y282364D01*
X52362Y281663D01*
Y280937D01*
X52550Y280236D01*
X52913Y279608D01*
X53426Y279095D01*
X54054Y278732D01*
X54755Y278544D01*
X55481D01*
X56182Y278732D01*
X56810Y279095D01*
X57323Y279608D01*
X57686Y280236D01*
X57874Y280937D01*
Y281663D01*
X57686Y282364D01*
X57323Y282992D01*
X56810Y283505D01*
X56182Y283868D01*
X55481Y284056D01*
D02*
G37*
G36*
X160971Y293466D02*
X157428D01*
X157044Y293389D01*
X156718Y293172D01*
X156500Y292846D01*
X156424Y292462D01*
Y290134D01*
X156420Y290100D01*
X156424Y290066D01*
Y287738D01*
X156500Y287354D01*
X156718Y287028D01*
X157044Y286811D01*
X157428Y286734D01*
X160971D01*
X161355Y286811D01*
X161680Y287028D01*
X161876Y287320D01*
X164149D01*
X172535Y278935D01*
X172679Y278824D01*
X172808Y278695D01*
X172966Y278604D01*
X173110Y278493D01*
X173278Y278423D01*
X173436Y278332D01*
X173612Y278285D01*
X173781Y278215D01*
X173961Y278191D01*
X174137Y278144D01*
X174319D01*
X174500Y278120D01*
X174681Y278144D01*
X174863D01*
X175039Y278191D01*
X175219Y278215D01*
X175388Y278285D01*
X175564Y278332D01*
X175722Y278423D01*
X175890Y278493D01*
X176034Y278604D01*
X176192Y278695D01*
X176321Y278824D01*
X176465Y278935D01*
X176576Y279079D01*
X176705Y279208D01*
X176796Y279366D01*
X176907Y279510D01*
X176977Y279678D01*
X177068Y279836D01*
X177115Y280012D01*
X177185Y280181D01*
X177209Y280361D01*
X177256Y280537D01*
Y280719D01*
X177280Y280900D01*
X177256Y281081D01*
Y281263D01*
X177209Y281439D01*
X177185Y281619D01*
X177115Y281788D01*
X177068Y281964D01*
X176977Y282122D01*
X176907Y282290D01*
X176796Y282434D01*
X176705Y282592D01*
X176576Y282721D01*
X176465Y282866D01*
X167265Y292066D01*
X166690Y292507D01*
X166019Y292785D01*
X165300Y292880D01*
X161876D01*
X161680Y293172D01*
X161355Y293389D01*
X160971Y293466D01*
D02*
G37*
G36*
X285363Y277756D02*
X284637D01*
X283936Y277568D01*
X283308Y277205D01*
X282795Y276692D01*
X282432Y276064D01*
X282244Y275363D01*
Y274637D01*
X282432Y273936D01*
X282795Y273308D01*
X283308Y272795D01*
X283936Y272432D01*
X284637Y272244D01*
X285363D01*
X286064Y272432D01*
X286692Y272795D01*
X287205Y273308D01*
X287568Y273936D01*
X287756Y274637D01*
Y275363D01*
X287568Y276064D01*
X287205Y276692D01*
X286692Y277205D01*
X286064Y277568D01*
X285363Y277756D01*
D02*
G37*
G36*
X209700Y287081D02*
X209666Y287076D01*
X207338D01*
X206954Y287000D01*
X206628Y286782D01*
X206411Y286456D01*
X206334Y286072D01*
Y282529D01*
X206411Y282145D01*
X206628Y281820D01*
X206920Y281624D01*
Y272900D01*
X206944Y272719D01*
Y272537D01*
X206991Y272361D01*
X207015Y272181D01*
X207085Y272012D01*
X207132Y271836D01*
X207223Y271678D01*
X207293Y271510D01*
X207404Y271366D01*
X207495Y271208D01*
X207624Y271079D01*
X207734Y270935D01*
X207879Y270824D01*
X208008Y270695D01*
X208166Y270604D01*
X208310Y270493D01*
X208478Y270423D01*
X208636Y270332D01*
X208812Y270285D01*
X208981Y270215D01*
X209161Y270191D01*
X209337Y270144D01*
X209519D01*
X209700Y270120D01*
X209881Y270144D01*
X210063D01*
X210239Y270191D01*
X210419Y270215D01*
X210588Y270285D01*
X210764Y270332D01*
X210922Y270423D01*
X211090Y270493D01*
X211234Y270604D01*
X211392Y270695D01*
X211521Y270824D01*
X211666Y270935D01*
X211776Y271079D01*
X211905Y271208D01*
X211996Y271366D01*
X212107Y271510D01*
X212177Y271678D01*
X212268Y271836D01*
X212315Y272012D01*
X212385Y272181D01*
X212409Y272361D01*
X212456Y272537D01*
Y272719D01*
X212480Y272900D01*
Y281624D01*
X212772Y281820D01*
X212989Y282145D01*
X213066Y282529D01*
Y286072D01*
X212989Y286456D01*
X212772Y286782D01*
X212446Y287000D01*
X212062Y287076D01*
X209734D01*
X209700Y287081D01*
D02*
G37*
G36*
X47500Y285072D02*
X42500D01*
X41642Y284959D01*
X40842Y284627D01*
X40155Y284101D01*
X39628Y283414D01*
X39297Y282614D01*
X39184Y281756D01*
Y270756D01*
X39297Y269898D01*
X39628Y269098D01*
X40155Y268411D01*
X40842Y267884D01*
X41642Y267553D01*
X42500Y267440D01*
X47500D01*
X48358Y267553D01*
X49158Y267884D01*
X49845Y268411D01*
X50371Y269098D01*
X50703Y269898D01*
X50816Y270756D01*
Y281756D01*
X50703Y282614D01*
X50371Y283414D01*
X49845Y284101D01*
X49158Y284627D01*
X48358Y284959D01*
X47500Y285072D01*
D02*
G37*
G36*
X297777Y264110D02*
X297026D01*
X296300Y263916D01*
X295649Y263540D01*
X295117Y263008D01*
X294742Y262358D01*
X294547Y261632D01*
Y260880D01*
X294742Y260154D01*
X295117Y259503D01*
X295649Y258972D01*
X296300Y258596D01*
X297026Y258402D01*
X297777D01*
X298503Y258596D01*
X299154Y258972D01*
X299686Y259503D01*
X300061Y260154D01*
X300256Y260880D01*
Y261632D01*
X300061Y262358D01*
X299686Y263008D01*
X299154Y263540D01*
X298503Y263916D01*
X297777Y264110D01*
D02*
G37*
G36*
X245415D02*
X244664D01*
X243938Y263916D01*
X243287Y263540D01*
X242755Y263008D01*
X242380Y262358D01*
X242185Y261632D01*
Y260880D01*
X242380Y260154D01*
X242755Y259503D01*
X243287Y258972D01*
X243938Y258596D01*
X244664Y258402D01*
X245415D01*
X246141Y258596D01*
X246792Y258972D01*
X247323Y259503D01*
X247699Y260154D01*
X247894Y260880D01*
Y261632D01*
X247699Y262358D01*
X247323Y263008D01*
X246792Y263540D01*
X246141Y263916D01*
X245415Y264110D01*
D02*
G37*
G36*
X76763Y255356D02*
X76037D01*
X75336Y255168D01*
X74708Y254805D01*
X74195Y254292D01*
X73832Y253664D01*
X73644Y252963D01*
Y252237D01*
X73832Y251536D01*
X74195Y250908D01*
X74708Y250395D01*
X75336Y250032D01*
X76037Y249844D01*
X76763D01*
X77464Y250032D01*
X78092Y250395D01*
X78605Y250908D01*
X78968Y251536D01*
X79156Y252237D01*
Y252963D01*
X78968Y253664D01*
X78605Y254292D01*
X78092Y254805D01*
X77464Y255168D01*
X76763Y255356D01*
D02*
G37*
G36*
X211163Y253556D02*
X210437D01*
X209736Y253368D01*
X209108Y253005D01*
X208595Y252492D01*
X208232Y251864D01*
X208044Y251163D01*
Y250437D01*
X208232Y249736D01*
X208595Y249108D01*
X209108Y248595D01*
X209736Y248232D01*
X210437Y248044D01*
X211163D01*
X211864Y248232D01*
X212492Y248595D01*
X213005Y249108D01*
X213368Y249736D01*
X213556Y250437D01*
Y251163D01*
X213368Y251864D01*
X213005Y252492D01*
X212492Y253005D01*
X211864Y253368D01*
X211163Y253556D01*
D02*
G37*
G36*
X203063D02*
X202337D01*
X201636Y253368D01*
X201008Y253005D01*
X200495Y252492D01*
X200132Y251864D01*
X199944Y251163D01*
Y250437D01*
X200132Y249736D01*
X200495Y249108D01*
X201008Y248595D01*
X201636Y248232D01*
X202337Y248044D01*
X203063D01*
X203764Y248232D01*
X204392Y248595D01*
X204905Y249108D01*
X205268Y249736D01*
X205456Y250437D01*
Y251163D01*
X205268Y251864D01*
X204905Y252492D01*
X204392Y253005D01*
X203764Y253368D01*
X203063Y253556D01*
D02*
G37*
G36*
X211163Y247256D02*
X210437D01*
X209736Y247068D01*
X209108Y246705D01*
X208595Y246192D01*
X208232Y245564D01*
X208044Y244863D01*
Y244137D01*
X208232Y243436D01*
X208595Y242808D01*
X209108Y242295D01*
X209736Y241932D01*
X210437Y241744D01*
X211163D01*
X211864Y241932D01*
X212492Y242295D01*
X213005Y242808D01*
X213368Y243436D01*
X213556Y244137D01*
Y244863D01*
X213368Y245564D01*
X213005Y246192D01*
X212492Y246705D01*
X211864Y247068D01*
X211163Y247256D01*
D02*
G37*
G36*
X74663Y244956D02*
X73937D01*
X73236Y244768D01*
X72608Y244405D01*
X72095Y243892D01*
X71732Y243264D01*
X71544Y242563D01*
Y241837D01*
X71732Y241136D01*
X72095Y240508D01*
X72608Y239995D01*
X73236Y239632D01*
X73937Y239444D01*
X74663D01*
X75364Y239632D01*
X75992Y239995D01*
X76505Y240508D01*
X76868Y241136D01*
X77056Y241837D01*
Y242563D01*
X76868Y243264D01*
X76505Y243892D01*
X75992Y244405D01*
X75364Y244768D01*
X74663Y244956D01*
D02*
G37*
G36*
X10518Y245193D02*
X9482D01*
X8480Y244925D01*
X7583Y244406D01*
X6850Y243673D01*
X6331Y242776D01*
X6063Y241774D01*
Y240738D01*
X6331Y239736D01*
X6850Y238839D01*
X7583Y238106D01*
X8480Y237587D01*
X9482Y237319D01*
X10518D01*
X11520Y237587D01*
X12417Y238106D01*
X13150Y238839D01*
X13669Y239736D01*
X13937Y240738D01*
Y241774D01*
X13669Y242776D01*
X13150Y243673D01*
X12417Y244406D01*
X11520Y244925D01*
X10518Y245193D01*
D02*
G37*
G36*
X211163Y240656D02*
X210437D01*
X209736Y240468D01*
X209108Y240105D01*
X208595Y239592D01*
X208232Y238964D01*
X208044Y238263D01*
Y237537D01*
X208232Y236836D01*
X208595Y236208D01*
X209108Y235695D01*
X209736Y235332D01*
X210437Y235144D01*
X211163D01*
X211864Y235332D01*
X212492Y235695D01*
X213005Y236208D01*
X213368Y236836D01*
X213556Y237537D01*
Y238263D01*
X213368Y238964D01*
X213005Y239592D01*
X212492Y240105D01*
X211864Y240468D01*
X211163Y240656D01*
D02*
G37*
G36*
X173494Y255537D02*
X166506D01*
X165527Y255343D01*
X164696Y254788D01*
X164142Y253958D01*
X163947Y252978D01*
Y249534D01*
X164142Y248554D01*
X164696Y247724D01*
X165527Y247169D01*
X166506Y246974D01*
X168430D01*
Y242677D01*
X166693D01*
Y227323D01*
X173779D01*
Y233394D01*
X176044D01*
X176073Y233364D01*
X176869Y233035D01*
X177731D01*
X178527Y233364D01*
X179136Y233973D01*
X179465Y234769D01*
Y235631D01*
X179136Y236427D01*
X178527Y237036D01*
X177731Y237365D01*
X176869D01*
X176073Y237036D01*
X176044Y237006D01*
X173779D01*
Y242677D01*
X172043D01*
Y246974D01*
X173494D01*
X174473Y247169D01*
X175304Y247724D01*
X175858Y248554D01*
X176053Y249534D01*
Y252978D01*
X175858Y253958D01*
X175304Y254788D01*
X174473Y255343D01*
X173494Y255537D01*
D02*
G37*
G36*
X280363Y236120D02*
X279637D01*
X278936Y235932D01*
X278308Y235569D01*
X277795Y235056D01*
X277432Y234427D01*
X277244Y233727D01*
Y233001D01*
X277432Y232300D01*
X277795Y231672D01*
X278308Y231158D01*
X278936Y230796D01*
X279637Y230608D01*
X280363D01*
X281064Y230796D01*
X281692Y231158D01*
X282205Y231672D01*
X282568Y232300D01*
X282756Y233001D01*
Y233727D01*
X282568Y234427D01*
X282205Y235056D01*
X281692Y235569D01*
X281064Y235932D01*
X280363Y236120D01*
D02*
G37*
G36*
X211163Y234156D02*
X210437D01*
X209736Y233968D01*
X209108Y233605D01*
X208595Y233092D01*
X208232Y232464D01*
X208044Y231763D01*
Y231037D01*
X208232Y230336D01*
X208595Y229708D01*
X209108Y229195D01*
X209736Y228832D01*
X210437Y228644D01*
X211163D01*
X211864Y228832D01*
X212492Y229195D01*
X213005Y229708D01*
X213368Y230336D01*
X213556Y231037D01*
Y231763D01*
X213368Y232464D01*
X213005Y233092D01*
X212492Y233605D01*
X211864Y233968D01*
X211163Y234156D01*
D02*
G37*
G36*
X268231Y232965D02*
X267369D01*
X266573Y232636D01*
X266143Y232205D01*
X246351D01*
X245813Y232098D01*
X245358Y231793D01*
X207316Y193752D01*
X122747D01*
X122210Y193645D01*
X121754Y193341D01*
X112318Y183905D01*
X101500D01*
X100962Y183798D01*
X100507Y183493D01*
X94407Y177393D01*
X94102Y176938D01*
X93995Y176400D01*
Y166500D01*
X94102Y165962D01*
X94407Y165506D01*
X100635Y159278D01*
Y158669D01*
X100964Y157873D01*
X101573Y157264D01*
X102369Y156935D01*
X103231D01*
X104027Y157264D01*
X104636Y157873D01*
X104965Y158669D01*
Y159531D01*
X104636Y160327D01*
X104027Y160936D01*
X103231Y161265D01*
X102622D01*
X96805Y167082D01*
Y175818D01*
X102082Y181095D01*
X112900D01*
X113438Y181202D01*
X113893Y181507D01*
X123329Y190942D01*
X207898D01*
X208436Y191049D01*
X208892Y191354D01*
X246933Y229395D01*
X266143D01*
X266573Y228964D01*
X267369Y228635D01*
X268231D01*
X269027Y228964D01*
X269636Y229573D01*
X269965Y230369D01*
Y231231D01*
X269636Y232027D01*
X269027Y232636D01*
X268231Y232965D01*
D02*
G37*
G36*
X47163Y217656D02*
X46437D01*
X45736Y217468D01*
X45108Y217105D01*
X44595Y216592D01*
X44232Y215964D01*
X44159Y215691D01*
X43641D01*
X43568Y215964D01*
X43205Y216592D01*
X42692Y217105D01*
X42064Y217468D01*
X41363Y217656D01*
X40637D01*
X39936Y217468D01*
X39308Y217105D01*
X38795Y216592D01*
X38432Y215964D01*
X38244Y215263D01*
Y214537D01*
X38432Y213836D01*
X38795Y213208D01*
X39308Y212695D01*
X39665Y212489D01*
Y211911D01*
X39308Y211705D01*
X38795Y211192D01*
X38432Y210564D01*
X38244Y209863D01*
Y209137D01*
X38432Y208436D01*
X38795Y207808D01*
X39308Y207295D01*
X39936Y206932D01*
X40637Y206744D01*
X41363D01*
X42064Y206932D01*
X42692Y207295D01*
X43205Y207808D01*
X43568Y208436D01*
X43641Y208709D01*
X44159D01*
X44232Y208436D01*
X44595Y207808D01*
X45108Y207295D01*
X45736Y206932D01*
X46437Y206744D01*
X47163D01*
X47864Y206932D01*
X48492Y207295D01*
X49005Y207808D01*
X49368Y208436D01*
X49556Y209137D01*
Y209863D01*
X49368Y210564D01*
X49005Y211192D01*
X48492Y211705D01*
X48135Y211911D01*
Y212489D01*
X48492Y212695D01*
X49005Y213208D01*
X49368Y213836D01*
X49556Y214537D01*
Y215263D01*
X49368Y215964D01*
X49005Y216592D01*
X48492Y217105D01*
X47864Y217468D01*
X47163Y217656D01*
D02*
G37*
G36*
X198531Y243465D02*
X197669D01*
X196873Y243136D01*
X196264Y242527D01*
X195935Y241731D01*
Y240869D01*
X196264Y240073D01*
X196294Y240044D01*
Y238548D01*
X194623Y236877D01*
X194231Y236291D01*
X194094Y235600D01*
Y214500D01*
X194231Y213809D01*
X194623Y213223D01*
X199161Y208684D01*
X199747Y208293D01*
X200439Y208155D01*
X205852D01*
X205995Y207908D01*
X206508Y207395D01*
X207136Y207032D01*
X207837Y206844D01*
X208563D01*
X209264Y207032D01*
X209892Y207395D01*
X210405Y207908D01*
X210768Y208536D01*
X210956Y209237D01*
Y209963D01*
X210768Y210664D01*
X210405Y211292D01*
X209892Y211805D01*
X209264Y212168D01*
X208563Y212356D01*
X207837D01*
X207136Y212168D01*
X206508Y211805D01*
X206470Y211768D01*
X201187D01*
X197706Y215248D01*
Y234852D01*
X199377Y236523D01*
X199769Y237109D01*
X199906Y237800D01*
Y240044D01*
X199936Y240073D01*
X200265Y240869D01*
Y241731D01*
X199936Y242527D01*
X199327Y243136D01*
X198531Y243465D01*
D02*
G37*
G36*
X59863Y217656D02*
X59137D01*
X58436Y217468D01*
X57808Y217105D01*
X57295Y216592D01*
X56932Y215964D01*
X56744Y215263D01*
Y214537D01*
X56932Y213836D01*
X57295Y213208D01*
X57808Y212695D01*
X58165Y212489D01*
Y211911D01*
X57808Y211705D01*
X57295Y211192D01*
X56932Y210564D01*
X56744Y209863D01*
Y209137D01*
X56932Y208436D01*
X57295Y207808D01*
X57808Y207295D01*
X58436Y206932D01*
X59137Y206744D01*
X59863D01*
X60564Y206932D01*
X61192Y207295D01*
X61705Y207808D01*
X62068Y208436D01*
X62256Y209137D01*
Y209863D01*
X62068Y210564D01*
X61705Y211192D01*
X61192Y211705D01*
X60835Y211911D01*
Y212489D01*
X61192Y212695D01*
X61705Y213208D01*
X62068Y213836D01*
X62256Y214537D01*
Y215263D01*
X62068Y215964D01*
X61705Y216592D01*
X61192Y217105D01*
X60564Y217468D01*
X59863Y217656D01*
D02*
G37*
G36*
X53463D02*
X52737D01*
X52036Y217468D01*
X51408Y217105D01*
X50895Y216592D01*
X50532Y215964D01*
X50344Y215263D01*
Y214537D01*
X50532Y213836D01*
X50895Y213208D01*
X51408Y212695D01*
X51765Y212489D01*
Y211911D01*
X51408Y211705D01*
X50895Y211192D01*
X50532Y210564D01*
X50344Y209863D01*
Y209137D01*
X50532Y208436D01*
X50895Y207808D01*
X51408Y207295D01*
X52036Y206932D01*
X52737Y206744D01*
X53463D01*
X54164Y206932D01*
X54792Y207295D01*
X55305Y207808D01*
X55668Y208436D01*
X55856Y209137D01*
Y209863D01*
X55668Y210564D01*
X55305Y211192D01*
X54792Y211705D01*
X54435Y211911D01*
Y212489D01*
X54792Y212695D01*
X55305Y213208D01*
X55668Y213836D01*
X55856Y214537D01*
Y215263D01*
X55668Y215964D01*
X55305Y216592D01*
X54792Y217105D01*
X54164Y217468D01*
X53463Y217656D01*
D02*
G37*
G36*
X163543Y242677D02*
X156457D01*
Y235281D01*
X156433Y235100D01*
X156436Y235076D01*
X156426Y235000D01*
Y210628D01*
X154581Y208783D01*
X154013Y208043D01*
X153656Y207181D01*
X153534Y206256D01*
X153656Y205331D01*
X154013Y204469D01*
X154581Y203729D01*
X155321Y203161D01*
X156183Y202804D01*
X157108Y202682D01*
X158033Y202804D01*
X158895Y203161D01*
X159635Y203729D01*
X162527Y206621D01*
X162527Y206621D01*
X163095Y207361D01*
X163452Y208223D01*
X163574Y209148D01*
X163574Y209148D01*
Y235000D01*
X163543Y235232D01*
Y242677D01*
D02*
G37*
G36*
X72163Y274256D02*
X71437D01*
X70736Y274068D01*
X70108Y273705D01*
X69595Y273192D01*
X69232Y272564D01*
X69044Y271863D01*
Y271137D01*
X69232Y270436D01*
X69595Y269808D01*
X70108Y269295D01*
X70736Y268932D01*
X71437Y268744D01*
X72163D01*
X72864Y268932D01*
X73492Y269295D01*
X74005Y269808D01*
X74171Y270095D01*
X79318D01*
X124382Y225031D01*
Y199787D01*
X123952Y199356D01*
X123622Y198561D01*
Y197699D01*
X123952Y196903D01*
X124561Y196294D01*
X125357Y195965D01*
X126218D01*
X127014Y196294D01*
X127623Y196903D01*
X127953Y197699D01*
Y198561D01*
X127623Y199356D01*
X127192Y199787D01*
Y225613D01*
X127085Y226150D01*
X126781Y226606D01*
X80893Y272493D01*
X80438Y272798D01*
X79900Y272905D01*
X74171D01*
X74005Y273192D01*
X73492Y273705D01*
X72864Y274068D01*
X72163Y274256D01*
D02*
G37*
G36*
X268518Y203224D02*
X267466D01*
X266450Y202952D01*
X265539Y202426D01*
X264794Y201682D01*
X264268Y200771D01*
X263996Y199754D01*
Y198702D01*
X264268Y197686D01*
X264794Y196775D01*
X265539Y196031D01*
X266450Y195505D01*
X267466Y195232D01*
X268518D01*
X269534Y195505D01*
X270446Y196031D01*
X271190Y196775D01*
X271716Y197686D01*
X271988Y198702D01*
Y199754D01*
X271716Y200771D01*
X271190Y201682D01*
X270446Y202426D01*
X269534Y202952D01*
X268518Y203224D01*
D02*
G37*
G36*
X73063Y200356D02*
X72337D01*
X71636Y200168D01*
X71008Y199805D01*
X70495Y199292D01*
X70132Y198664D01*
X69944Y197963D01*
Y197237D01*
X70132Y196536D01*
X70495Y195908D01*
X71008Y195395D01*
X71636Y195032D01*
X72337Y194844D01*
X73063D01*
X73764Y195032D01*
X74392Y195395D01*
X74905Y195908D01*
X75268Y196536D01*
X75456Y197237D01*
Y197963D01*
X75268Y198664D01*
X74905Y199292D01*
X74392Y199805D01*
X73764Y200168D01*
X73063Y200356D01*
D02*
G37*
G36*
X299659Y197614D02*
X298923D01*
X298212Y197424D01*
X297575Y197056D01*
X297055Y196535D01*
X296687Y195898D01*
X296496Y195187D01*
Y194451D01*
X296687Y193740D01*
X297055Y193103D01*
X297575Y192582D01*
X298212Y192214D01*
X298923Y192024D01*
X299659D01*
X300370Y192214D01*
X301008Y192582D01*
X301528Y193103D01*
X301896Y193740D01*
X302087Y194451D01*
Y195187D01*
X301896Y195898D01*
X301528Y196535D01*
X301008Y197056D01*
X300370Y197424D01*
X299659Y197614D01*
D02*
G37*
G36*
X69163Y194756D02*
X68437D01*
X67736Y194568D01*
X67108Y194205D01*
X66595Y193692D01*
X66232Y193064D01*
X66044Y192363D01*
Y191637D01*
X66232Y190936D01*
X66595Y190308D01*
X67108Y189795D01*
X67736Y189432D01*
X68437Y189244D01*
X69163D01*
X69864Y189432D01*
X70492Y189795D01*
X71005Y190308D01*
X71368Y190936D01*
X71556Y191637D01*
Y192363D01*
X71368Y193064D01*
X71005Y193692D01*
X70492Y194205D01*
X69864Y194568D01*
X69163Y194756D01*
D02*
G37*
G36*
X110163Y192656D02*
X109437D01*
X108736Y192468D01*
X108108Y192105D01*
X107595Y191592D01*
X107232Y190964D01*
X107044Y190263D01*
Y189537D01*
X107232Y188836D01*
X107595Y188208D01*
X108108Y187695D01*
X108736Y187332D01*
X109437Y187144D01*
X110163D01*
X110864Y187332D01*
X111492Y187695D01*
X112005Y188208D01*
X112368Y188836D01*
X112556Y189537D01*
Y190263D01*
X112368Y190964D01*
X112005Y191592D01*
X111492Y192105D01*
X110864Y192468D01*
X110163Y192656D01*
D02*
G37*
G36*
X41963Y191456D02*
X41237D01*
X40536Y191268D01*
X39908Y190905D01*
X39395Y190392D01*
X39032Y189764D01*
X38844Y189063D01*
Y188337D01*
X39032Y187636D01*
X39395Y187008D01*
X39908Y186495D01*
X40536Y186132D01*
X41237Y185944D01*
X41963D01*
X42664Y186132D01*
X43292Y186495D01*
X43805Y187008D01*
X44168Y187636D01*
X44356Y188337D01*
Y189063D01*
X44168Y189764D01*
X43805Y190392D01*
X43292Y190905D01*
X42664Y191268D01*
X41963Y191456D01*
D02*
G37*
G36*
X280708Y198421D02*
X279292D01*
X277904Y198145D01*
X276597Y197603D01*
X275420Y196817D01*
X274419Y195816D01*
X273633Y194640D01*
X273091Y193332D01*
X272815Y191944D01*
Y190529D01*
X273091Y189140D01*
X273633Y187833D01*
X274419Y186656D01*
X275420Y185655D01*
X276597Y184869D01*
X277904Y184327D01*
X279292Y184051D01*
X280708D01*
X282096Y184327D01*
X283403Y184869D01*
X284580Y185655D01*
X285581Y186656D01*
X286367Y187833D01*
X286909Y189140D01*
X287185Y190529D01*
Y191944D01*
X286909Y193332D01*
X286367Y194640D01*
X285581Y195816D01*
X284580Y196817D01*
X283403Y197603D01*
X282096Y198145D01*
X280708Y198421D01*
D02*
G37*
G36*
X209363Y183256D02*
X208637D01*
X207936Y183068D01*
X207308Y182705D01*
X206795Y182192D01*
X206432Y181564D01*
X206244Y180863D01*
Y180137D01*
X206432Y179436D01*
X206795Y178808D01*
X207308Y178295D01*
X207936Y177932D01*
X208637Y177744D01*
X209363D01*
X210064Y177932D01*
X210692Y178295D01*
X211205Y178808D01*
X211568Y179436D01*
X211756Y180137D01*
Y180863D01*
X211568Y181564D01*
X211205Y182192D01*
X210692Y182705D01*
X210064Y183068D01*
X209363Y183256D01*
D02*
G37*
G36*
X199363D02*
X198637D01*
X197936Y183068D01*
X197308Y182705D01*
X196795Y182192D01*
X196432Y181564D01*
X196244Y180863D01*
Y180137D01*
X196432Y179436D01*
X196795Y178808D01*
X197308Y178295D01*
X197936Y177932D01*
X198637Y177744D01*
X199363D01*
X200064Y177932D01*
X200692Y178295D01*
X201205Y178808D01*
X201568Y179436D01*
X201756Y180137D01*
Y180863D01*
X201568Y181564D01*
X201205Y182192D01*
X200692Y182705D01*
X200064Y183068D01*
X199363Y183256D01*
D02*
G37*
G36*
X190363D02*
X189637D01*
X188936Y183068D01*
X188308Y182705D01*
X187795Y182192D01*
X187432Y181564D01*
X187244Y180863D01*
Y180137D01*
X187432Y179436D01*
X187795Y178808D01*
X188308Y178295D01*
X188936Y177932D01*
X189637Y177744D01*
X190363D01*
X191064Y177932D01*
X191692Y178295D01*
X192205Y178808D01*
X192568Y179436D01*
X192756Y180137D01*
Y180863D01*
X192568Y181564D01*
X192205Y182192D01*
X191692Y182705D01*
X191064Y183068D01*
X190363Y183256D01*
D02*
G37*
G36*
X255518Y185193D02*
X254482D01*
X253480Y184925D01*
X252583Y184406D01*
X251850Y183673D01*
X251331Y182775D01*
X251063Y181774D01*
Y180738D01*
X251331Y179736D01*
X251850Y178839D01*
X252583Y178105D01*
X253480Y177587D01*
X254482Y177319D01*
X255518D01*
X256520Y177587D01*
X257417Y178105D01*
X258150Y178839D01*
X258669Y179736D01*
X258937Y180738D01*
Y181774D01*
X258669Y182775D01*
X258150Y183673D01*
X257417Y184406D01*
X256520Y184925D01*
X255518Y185193D01*
D02*
G37*
G36*
X10518D02*
X9482D01*
X8480Y184925D01*
X7583Y184406D01*
X6850Y183673D01*
X6331Y182775D01*
X6063Y181774D01*
Y180738D01*
X6331Y179736D01*
X6850Y178839D01*
X7583Y178105D01*
X8480Y177587D01*
X9482Y177319D01*
X10518D01*
X11520Y177587D01*
X12417Y178105D01*
X13150Y178839D01*
X13669Y179736D01*
X13937Y180738D01*
Y181774D01*
X13669Y182775D01*
X13150Y183673D01*
X12417Y184406D01*
X11520Y184925D01*
X10518Y185193D01*
D02*
G37*
G36*
X144931Y178765D02*
X144069D01*
X143273Y178436D01*
X142843Y178005D01*
X138200D01*
X137662Y177898D01*
X137206Y177594D01*
X114207Y154594D01*
X113902Y154138D01*
X113795Y153600D01*
Y102800D01*
X113902Y102262D01*
X113996Y102122D01*
Y90799D01*
X108847Y85650D01*
X108794Y85632D01*
X108790Y85623D01*
X108780Y85619D01*
X108692Y85535D01*
X108620Y85475D01*
X108554Y85427D01*
X108492Y85389D01*
X108437Y85360D01*
X108387Y85339D01*
X108342Y85326D01*
X108301Y85317D01*
X108262Y85314D01*
X108191Y85315D01*
X108076Y85268D01*
X107708D01*
X106985Y84969D01*
X106431Y84415D01*
X106131Y83692D01*
Y82908D01*
X106431Y82185D01*
X106985Y81631D01*
X107708Y81331D01*
X108492D01*
X109215Y81631D01*
X109769Y82185D01*
X110069Y82908D01*
Y83100D01*
X110114Y83187D01*
X110120Y83261D01*
X110128Y83308D01*
X110142Y83357D01*
X110162Y83410D01*
X110189Y83468D01*
X110224Y83530D01*
X110268Y83596D01*
X110321Y83667D01*
X110385Y83742D01*
X110470Y83831D01*
X110493Y83890D01*
X116051Y89448D01*
X116051Y89448D01*
X116313Y89839D01*
X116404Y90300D01*
Y102122D01*
X116498Y102262D01*
X116605Y102800D01*
Y153018D01*
X138782Y175195D01*
X142843D01*
X143273Y174764D01*
X144069Y174435D01*
X144931D01*
X145727Y174764D01*
X146336Y175373D01*
X146665Y176169D01*
Y177031D01*
X146336Y177827D01*
X145727Y178436D01*
X144931Y178765D01*
D02*
G37*
G36*
X10518Y175193D02*
X9482D01*
X8480Y174925D01*
X7583Y174406D01*
X6850Y173673D01*
X6331Y172775D01*
X6063Y171774D01*
Y170738D01*
X6331Y169736D01*
X6850Y168839D01*
X7583Y168105D01*
X8480Y167587D01*
X9482Y167319D01*
X10518D01*
X11520Y167587D01*
X12417Y168105D01*
X13150Y168839D01*
X13669Y169736D01*
X13937Y170738D01*
Y171774D01*
X13669Y172775D01*
X13150Y173673D01*
X12417Y174406D01*
X11520Y174925D01*
X10518Y175193D01*
D02*
G37*
G36*
X246419Y182606D02*
X227067D01*
X226529Y182499D01*
X226074Y182194D01*
X218987Y175108D01*
X218682Y174652D01*
X218575Y174114D01*
Y173248D01*
X218209D01*
X217825Y173171D01*
X217499Y172954D01*
X217282Y172628D01*
X217205Y172244D01*
Y167520D01*
X217282Y167136D01*
X217499Y166810D01*
X217825Y166593D01*
X218209Y166516D01*
X218575D01*
Y163307D01*
X218209D01*
X217825Y163230D01*
X217499Y163013D01*
X217282Y162687D01*
X217205Y162303D01*
Y157579D01*
X217282Y157195D01*
X217499Y156869D01*
X217825Y156652D01*
X218209Y156575D01*
X221752D01*
X222136Y156652D01*
X222462Y156869D01*
X222679Y157195D01*
X222756Y157579D01*
Y162303D01*
X222679Y162687D01*
X222462Y163013D01*
X222136Y163230D01*
X221752Y163307D01*
X221385D01*
Y166516D01*
X221752D01*
X222136Y166593D01*
X222462Y166810D01*
X222679Y167136D01*
X222756Y167520D01*
Y172244D01*
X222679Y172628D01*
X222462Y172954D01*
X222136Y173171D01*
X221798Y173238D01*
X221713Y173375D01*
X221601Y173748D01*
X227649Y179796D01*
X242411D01*
X242512Y179296D01*
X241850Y178634D01*
X241331Y177736D01*
X241063Y176735D01*
Y175698D01*
X241331Y174697D01*
X241487Y174428D01*
X233848Y166790D01*
X229348D01*
X229247Y166885D01*
X229009Y167290D01*
X229055Y167520D01*
Y172244D01*
X228978Y172628D01*
X228761Y172954D01*
X228435Y173171D01*
X228051Y173248D01*
X224508D01*
X224124Y173171D01*
X223798Y172954D01*
X223581Y172628D01*
X223504Y172244D01*
Y167520D01*
X223581Y167136D01*
X223798Y166810D01*
X224124Y166593D01*
X224508Y166516D01*
X225060D01*
Y166049D01*
X225153Y165582D01*
X225417Y165187D01*
X225442Y165161D01*
Y164661D01*
X225417Y164636D01*
X225153Y164241D01*
X225060Y163774D01*
Y163307D01*
X224508D01*
X224124Y163230D01*
X223798Y163013D01*
X223581Y162687D01*
X223504Y162303D01*
Y157579D01*
X223581Y157195D01*
X223798Y156869D01*
X224124Y156652D01*
X224508Y156575D01*
X228051D01*
X228435Y156652D01*
X228761Y156869D01*
X228978Y157195D01*
X229055Y157579D01*
Y162303D01*
X229009Y162533D01*
X229247Y162938D01*
X229348Y163033D01*
X234258D01*
X236897Y160394D01*
X236897Y160394D01*
X237293Y160129D01*
X237760Y160036D01*
X242742D01*
X242876Y159536D01*
X242583Y159367D01*
X241850Y158634D01*
X241331Y157736D01*
X241063Y156735D01*
Y155698D01*
X241331Y154697D01*
X241850Y153799D01*
X242583Y153066D01*
X243480Y152548D01*
X243780Y152467D01*
Y150918D01*
X240478Y147616D01*
X229573D01*
X229573Y147616D01*
X229106Y147523D01*
X228710Y147258D01*
X228710Y147258D01*
X225890Y144439D01*
X225626Y144043D01*
X225533Y143576D01*
Y140077D01*
X225438Y139975D01*
X225033Y139737D01*
X224803Y139783D01*
X220079D01*
X219695Y139707D01*
X219369Y139489D01*
X219152Y139163D01*
X219075Y138779D01*
Y136124D01*
X218613Y135933D01*
X212822Y141724D01*
Y146743D01*
X213109Y146909D01*
X213623Y147422D01*
X213985Y148050D01*
X214173Y148751D01*
Y149477D01*
X213985Y150178D01*
X213623Y150806D01*
X213109Y151319D01*
X212481Y151682D01*
X211780Y151870D01*
X211054D01*
X210354Y151682D01*
X209725Y151319D01*
X209212Y150806D01*
X208849Y150178D01*
X208661Y149477D01*
Y148751D01*
X208849Y148050D01*
X209212Y147422D01*
X209725Y146909D01*
X210012Y146743D01*
Y141142D01*
X210119Y140604D01*
X210424Y140148D01*
X219075Y131497D01*
Y128937D01*
X219152Y128553D01*
X219369Y128227D01*
X219695Y128010D01*
X220079Y127934D01*
X224803D01*
X225187Y128010D01*
X225513Y128227D01*
X225730Y128553D01*
X225807Y128937D01*
Y129304D01*
X229016D01*
Y128937D01*
X229093Y128553D01*
X229310Y128227D01*
X229636Y128010D01*
X230020Y127934D01*
X234744D01*
X235128Y128010D01*
X235454Y128227D01*
X235671Y128553D01*
X235748Y128937D01*
Y129304D01*
X249705D01*
X250242Y129411D01*
X250698Y129715D01*
X263395Y142412D01*
X263700Y142868D01*
X263807Y143405D01*
Y163189D01*
X263700Y163727D01*
X263395Y164182D01*
X260367Y167210D01*
X259912Y167515D01*
X259374Y167622D01*
X257545D01*
X257438Y168021D01*
X257433Y168122D01*
X258150Y168839D01*
X258669Y169736D01*
X258937Y170738D01*
Y171774D01*
X258669Y172775D01*
X258150Y173673D01*
X257417Y174406D01*
X256520Y174925D01*
X255518Y175193D01*
X254482D01*
X254428Y175179D01*
X247412Y182194D01*
X246956Y182499D01*
X246419Y182606D01*
D02*
G37*
G36*
X288231Y232965D02*
X287369D01*
X286573Y232636D01*
X285964Y232027D01*
X285635Y231231D01*
Y230622D01*
X281918Y226905D01*
X246366D01*
X245829Y226798D01*
X245373Y226493D01*
X205884Y187005D01*
X123700D01*
X123162Y186898D01*
X122706Y186593D01*
X115418Y179305D01*
X105300D01*
X104762Y179198D01*
X104306Y178893D01*
X101707Y176294D01*
X101402Y175838D01*
X101295Y175300D01*
Y170457D01*
X100864Y170027D01*
X100535Y169231D01*
Y168369D01*
X100864Y167573D01*
X101473Y166964D01*
X102269Y166635D01*
X103131D01*
X103927Y166964D01*
X104536Y167573D01*
X104865Y168369D01*
Y169231D01*
X104536Y170027D01*
X104105Y170457D01*
Y174718D01*
X105882Y176495D01*
X116000D01*
X116538Y176602D01*
X116993Y176907D01*
X124282Y184195D01*
X206466D01*
X207004Y184302D01*
X207460Y184607D01*
X246948Y224095D01*
X282500D01*
X283038Y224202D01*
X283493Y224507D01*
X287621Y228635D01*
X288231D01*
X289027Y228964D01*
X289636Y229573D01*
X289965Y230369D01*
Y231231D01*
X289636Y232027D01*
X289027Y232636D01*
X288231Y232965D01*
D02*
G37*
G36*
X81200Y178980D02*
X76007D01*
X75288Y178885D01*
X74617Y178607D01*
X74041Y178165D01*
X71735Y175859D01*
X71293Y175284D01*
X71016Y174613D01*
X70921Y173894D01*
Y166256D01*
X70926Y166222D01*
Y163894D01*
X71002Y163510D01*
X71219Y163184D01*
X71545Y162967D01*
X71929Y162890D01*
X75472D01*
X75857Y162967D01*
X76182Y163184D01*
X76400Y163510D01*
X76476Y163894D01*
Y166222D01*
X76481Y166256D01*
Y172742D01*
X77158Y173420D01*
X81200D01*
X81381Y173444D01*
X81563D01*
X81739Y173491D01*
X81919Y173515D01*
X82088Y173585D01*
X82264Y173632D01*
X82422Y173723D01*
X82590Y173793D01*
X82734Y173904D01*
X82892Y173995D01*
X83021Y174124D01*
X83166Y174234D01*
X83276Y174379D01*
X83405Y174508D01*
X83496Y174666D01*
X83607Y174810D01*
X83677Y174978D01*
X83768Y175136D01*
X83815Y175312D01*
X83885Y175481D01*
X83909Y175661D01*
X83956Y175837D01*
Y176019D01*
X83980Y176200D01*
X83956Y176381D01*
Y176563D01*
X83909Y176739D01*
X83885Y176919D01*
X83815Y177088D01*
X83768Y177264D01*
X83677Y177422D01*
X83607Y177590D01*
X83496Y177734D01*
X83405Y177892D01*
X83276Y178021D01*
X83166Y178165D01*
X83021Y178276D01*
X82892Y178405D01*
X82734Y178496D01*
X82590Y178607D01*
X82422Y178677D01*
X82264Y178768D01*
X82088Y178815D01*
X81919Y178885D01*
X81739Y178909D01*
X81563Y178956D01*
X81381D01*
X81200Y178980D01*
D02*
G37*
G36*
X10518Y165193D02*
X9482D01*
X8480Y164925D01*
X7583Y164406D01*
X6850Y163673D01*
X6331Y162776D01*
X6063Y161774D01*
Y160738D01*
X6331Y159736D01*
X6850Y158838D01*
X7583Y158106D01*
X8480Y157587D01*
X9482Y157319D01*
X10518D01*
X11520Y157587D01*
X12417Y158106D01*
X13150Y158838D01*
X13669Y159736D01*
X13937Y160738D01*
Y161774D01*
X13669Y162776D01*
X13150Y163673D01*
X12417Y164406D01*
X11520Y164925D01*
X10518Y165193D01*
D02*
G37*
G36*
X24863Y152419D02*
X24137D01*
X23436Y152231D01*
X22808Y151868D01*
X22295Y151355D01*
X21932Y150727D01*
X21744Y150026D01*
Y149300D01*
X21932Y148599D01*
X22295Y147971D01*
X22808Y147458D01*
X23436Y147095D01*
X24137Y146907D01*
X24863D01*
X25564Y147095D01*
X26192Y147458D01*
X26705Y147971D01*
X27068Y148599D01*
X27256Y149300D01*
Y150026D01*
X27068Y150727D01*
X26705Y151355D01*
X26192Y151868D01*
X25564Y152231D01*
X24863Y152419D01*
D02*
G37*
G36*
X299659Y145449D02*
X298923D01*
X298212Y145258D01*
X297575Y144890D01*
X297055Y144370D01*
X296687Y143733D01*
X296496Y143022D01*
Y142286D01*
X296589Y141938D01*
X257856Y103205D01*
X236957D01*
X236527Y103636D01*
X235731Y103965D01*
X234869D01*
X234073Y103636D01*
X233464Y103027D01*
X233135Y102231D01*
Y101369D01*
X233464Y100573D01*
X234073Y99964D01*
X234869Y99635D01*
X235731D01*
X236527Y99964D01*
X236957Y100395D01*
X258438D01*
X258976Y100502D01*
X259431Y100807D01*
X298576Y139951D01*
X298923Y139858D01*
X299659D01*
X300370Y140049D01*
X301008Y140417D01*
X301528Y140937D01*
X301896Y141575D01*
X302087Y142286D01*
Y143022D01*
X301896Y143733D01*
X301528Y144370D01*
X301008Y144890D01*
X300370Y145258D01*
X299659Y145449D01*
D02*
G37*
G36*
X280708Y153421D02*
X279292D01*
X277904Y153145D01*
X276597Y152603D01*
X275420Y151817D01*
X274419Y150816D01*
X273633Y149640D01*
X273091Y148332D01*
X272815Y146944D01*
Y145528D01*
X273091Y144140D01*
X273633Y142833D01*
X274419Y141656D01*
X275420Y140655D01*
X276597Y139869D01*
X277904Y139327D01*
X279292Y139051D01*
X280708D01*
X282096Y139327D01*
X283403Y139869D01*
X284580Y140655D01*
X285581Y141656D01*
X286367Y142833D01*
X286909Y144140D01*
X287185Y145528D01*
Y146944D01*
X286909Y148332D01*
X286367Y149640D01*
X285581Y150816D01*
X284580Y151817D01*
X283403Y152603D01*
X282096Y153145D01*
X280708Y153421D01*
D02*
G37*
G36*
X268518Y142240D02*
X267466D01*
X266450Y141968D01*
X265539Y141442D01*
X264794Y140698D01*
X264268Y139787D01*
X263996Y138770D01*
Y137718D01*
X264268Y136702D01*
X264794Y135791D01*
X265539Y135047D01*
X266450Y134520D01*
X267466Y134248D01*
X268518D01*
X269534Y134520D01*
X270446Y135047D01*
X271190Y135791D01*
X271716Y136702D01*
X271988Y137718D01*
Y138770D01*
X271716Y139787D01*
X271190Y140698D01*
X270446Y141442D01*
X269534Y141968D01*
X268518Y142240D01*
D02*
G37*
G36*
X32963Y175256D02*
X32237D01*
X31536Y175068D01*
X30908Y174705D01*
X30395Y174192D01*
X30032Y173564D01*
X29844Y172863D01*
Y172137D01*
X30032Y171436D01*
X30395Y170808D01*
X30908Y170295D01*
X31536Y169932D01*
X32237Y169744D01*
X32963D01*
X33664Y169932D01*
X34292Y170295D01*
X34643Y170646D01*
X36067D01*
X94735Y111978D01*
Y111369D01*
X95064Y110573D01*
X95673Y109964D01*
X96469Y109635D01*
X97331D01*
X98127Y109964D01*
X98736Y110573D01*
X99065Y111369D01*
Y112231D01*
X98736Y113027D01*
X98127Y113636D01*
X97331Y113965D01*
X96722D01*
X84173Y126514D01*
X84432Y126962D01*
X84637Y126907D01*
X85363D01*
X86064Y127095D01*
X86692Y127458D01*
X87205Y127971D01*
X87568Y128599D01*
X87756Y129300D01*
Y130026D01*
X87568Y130727D01*
X87205Y131355D01*
X86692Y131868D01*
X86064Y132231D01*
X85363Y132419D01*
X84637D01*
X83936Y132231D01*
X83308Y131868D01*
X82795Y131355D01*
X82432Y130727D01*
X82244Y130026D01*
Y129300D01*
X82299Y129095D01*
X81851Y128836D01*
X37643Y173044D01*
X37187Y173349D01*
X36649Y173456D01*
X35197D01*
X35168Y173564D01*
X34805Y174192D01*
X34292Y174705D01*
X33664Y175068D01*
X32963Y175256D01*
D02*
G37*
G36*
X303937Y118937D02*
X296063D01*
Y111063D01*
X303937D01*
Y118937D01*
D02*
G37*
G36*
X60441Y115102D02*
X59559D01*
X58708Y114874D01*
X57945Y114434D01*
X57322Y113811D01*
X56882Y113048D01*
X56653Y112197D01*
Y111315D01*
X56882Y110464D01*
X57322Y109701D01*
X57945Y109078D01*
X58708Y108637D01*
X59559Y108410D01*
X60441D01*
X61292Y108637D01*
X62055Y109078D01*
X62678Y109701D01*
X63118Y110464D01*
X63346Y111315D01*
Y112197D01*
X63118Y113048D01*
X62678Y113811D01*
X62055Y114434D01*
X61292Y114874D01*
X60441Y115102D01*
D02*
G37*
G36*
X50441D02*
X49559D01*
X48708Y114874D01*
X47945Y114434D01*
X47322Y113811D01*
X46882Y113048D01*
X46654Y112197D01*
Y111315D01*
X46882Y110464D01*
X47322Y109701D01*
X47945Y109078D01*
X48708Y108637D01*
X49559Y108410D01*
X50441D01*
X51292Y108637D01*
X52055Y109078D01*
X52678Y109701D01*
X53118Y110464D01*
X53347Y111315D01*
Y112197D01*
X53118Y113048D01*
X52678Y113811D01*
X52055Y114434D01*
X51292Y114874D01*
X50441Y115102D01*
D02*
G37*
G36*
X172901Y104456D02*
X172175D01*
X171474Y104268D01*
X170846Y103905D01*
X170333Y103392D01*
X169970Y102764D01*
X169782Y102063D01*
Y101337D01*
X169970Y100636D01*
X170333Y100008D01*
X170846Y99495D01*
X171474Y99132D01*
X172175Y98944D01*
X172901D01*
X173601Y99132D01*
X174230Y99495D01*
X174743Y100008D01*
X175106Y100636D01*
X175294Y101337D01*
Y102063D01*
X175106Y102764D01*
X174743Y103392D01*
X174230Y103905D01*
X173601Y104268D01*
X172901Y104456D01*
D02*
G37*
G36*
X224763Y99856D02*
X224037D01*
X223336Y99668D01*
X222708Y99305D01*
X222200Y98797D01*
X221692Y99305D01*
X221064Y99668D01*
X220363Y99856D01*
X219637D01*
X218936Y99668D01*
X218308Y99305D01*
X217795Y98792D01*
X217432Y98164D01*
X217244Y97463D01*
Y96737D01*
X217432Y96036D01*
X217795Y95408D01*
X218308Y94895D01*
X218936Y94532D01*
X219637Y94344D01*
X220363D01*
X221064Y94532D01*
X221692Y94895D01*
X222200Y95403D01*
X222708Y94895D01*
X223336Y94532D01*
X224037Y94344D01*
X224763D01*
X225464Y94532D01*
X226092Y94895D01*
X226605Y95408D01*
X226968Y96036D01*
X227156Y96737D01*
Y97463D01*
X226968Y98164D01*
X226605Y98792D01*
X226092Y99305D01*
X225464Y99668D01*
X224763Y99856D01*
D02*
G37*
G36*
X78437Y103259D02*
X77763D01*
X77112Y103085D01*
X76529Y102748D01*
X76052Y102271D01*
X75715Y101688D01*
X75541Y101037D01*
Y100363D01*
X75715Y99712D01*
X76052Y99129D01*
X76529Y98652D01*
X77112Y98315D01*
X77763Y98141D01*
X78437D01*
X79088Y98315D01*
X79671Y98652D01*
X80148Y99129D01*
X80485Y99712D01*
X80659Y100363D01*
Y101037D01*
X80485Y101688D01*
X80148Y102271D01*
X79671Y102748D01*
X79088Y103085D01*
X78437Y103259D01*
D02*
G37*
G36*
X73437Y99159D02*
X72763D01*
X72112Y98985D01*
X71529Y98648D01*
X71052Y98171D01*
X70715Y97588D01*
X70541Y96937D01*
Y96263D01*
X70715Y95612D01*
X71052Y95029D01*
X71529Y94552D01*
X72112Y94215D01*
X72763Y94041D01*
X73437D01*
X74088Y94215D01*
X74671Y94552D01*
X75148Y95029D01*
X75485Y95612D01*
X75659Y96263D01*
Y96937D01*
X75485Y97588D01*
X75148Y98171D01*
X74671Y98648D01*
X74088Y98985D01*
X73437Y99159D01*
D02*
G37*
G36*
X124631Y98715D02*
X123958D01*
X123307Y98541D01*
X122723Y98204D01*
X122247Y97727D01*
X121910Y97144D01*
X121735Y96493D01*
Y95819D01*
X121910Y95168D01*
X122247Y94585D01*
X122723Y94108D01*
X123307Y93771D01*
X123958Y93597D01*
X124631D01*
X125282Y93771D01*
X125866Y94108D01*
X126342Y94585D01*
X126679Y95168D01*
X126854Y95819D01*
Y96493D01*
X126679Y97144D01*
X126342Y97727D01*
X125866Y98204D01*
X125282Y98541D01*
X124631Y98715D01*
D02*
G37*
G36*
X300518Y98937D02*
X299482D01*
X298480Y98669D01*
X297583Y98150D01*
X296850Y97417D01*
X296331Y96520D01*
X296063Y95518D01*
Y94482D01*
X296331Y93480D01*
X296850Y92583D01*
X297583Y91850D01*
X298480Y91331D01*
X299482Y91063D01*
X300518D01*
X301520Y91331D01*
X302417Y91850D01*
X303150Y92583D01*
X303669Y93480D01*
X303937Y94482D01*
Y95518D01*
X303669Y96520D01*
X303150Y97417D01*
X302417Y98150D01*
X301520Y98669D01*
X300518Y98937D01*
D02*
G37*
G36*
X86563Y258356D02*
X85837D01*
X85136Y258168D01*
X84508Y257805D01*
X83995Y257292D01*
X83632Y256664D01*
X83444Y255963D01*
Y255237D01*
X83632Y254536D01*
X83995Y253908D01*
X84508Y253395D01*
X84795Y253229D01*
Y145200D01*
X84902Y144662D01*
X85207Y144207D01*
X105295Y124118D01*
Y102800D01*
X105402Y102262D01*
X105496Y102122D01*
Y89799D01*
X104330Y88634D01*
X103814Y88824D01*
X103569Y89415D01*
X103456Y89528D01*
X103432Y89612D01*
X103385Y89670D01*
X103358Y89711D01*
X103332Y89757D01*
X103309Y89811D01*
X103287Y89872D01*
X103268Y89943D01*
X103254Y90013D01*
X103232Y90220D01*
X103230Y90335D01*
X103204Y90392D01*
Y102122D01*
X103298Y102262D01*
X103405Y102800D01*
Y124000D01*
X103298Y124538D01*
X102994Y124994D01*
X82605Y145382D01*
Y158643D01*
X83036Y159073D01*
X83365Y159869D01*
Y160731D01*
X83036Y161527D01*
X82427Y162136D01*
X81792Y162399D01*
X81782Y162642D01*
X81866Y162909D01*
X82156Y162967D01*
X82481Y163184D01*
X82699Y163510D01*
X82775Y163894D01*
Y168618D01*
X82699Y169002D01*
X82481Y169328D01*
X82156Y169545D01*
X81772Y169622D01*
X78228D01*
X77844Y169545D01*
X77519Y169328D01*
X77301Y169002D01*
X77225Y168618D01*
Y163894D01*
X77301Y163510D01*
X77519Y163184D01*
X77844Y162967D01*
X78228Y162890D01*
X78595D01*
Y161600D01*
X78702Y161062D01*
X79007Y160607D01*
X79035Y160578D01*
Y159869D01*
X79364Y159073D01*
X79795Y158643D01*
Y144800D01*
X79902Y144262D01*
X80207Y143807D01*
X100595Y123418D01*
Y102800D01*
X100702Y102262D01*
X100796Y102122D01*
Y90512D01*
X100772Y90466D01*
X100778Y90449D01*
X100770Y90433D01*
X100767Y90311D01*
X100759Y90219D01*
X100746Y90139D01*
X100730Y90070D01*
X100711Y90013D01*
X100690Y89965D01*
X100669Y89925D01*
X100646Y89893D01*
X100622Y89865D01*
X100571Y89817D01*
X100521Y89705D01*
X100231Y89415D01*
X99932Y88692D01*
Y87908D01*
X100231Y87185D01*
X100785Y86631D01*
X101376Y86386D01*
X101567Y85870D01*
X87498Y71801D01*
X87237Y71411D01*
X87145Y70950D01*
X87145Y70950D01*
Y68646D01*
X87125Y68609D01*
X87133Y68579D01*
X87120Y68551D01*
X87117Y68430D01*
X87108Y68340D01*
X87095Y68261D01*
X87079Y68195D01*
X87061Y68141D01*
X87041Y68097D01*
X87021Y68062D01*
X87000Y68033D01*
X86977Y68008D01*
X86926Y67963D01*
X86874Y67858D01*
X86531Y67515D01*
X86231Y66792D01*
Y66008D01*
X86531Y65285D01*
X87085Y64731D01*
X87808Y64432D01*
X88592D01*
X89315Y64731D01*
X89869Y65285D01*
X90168Y66008D01*
Y66792D01*
X89869Y67515D01*
X89795Y67589D01*
X89777Y67656D01*
X89732Y67717D01*
X89705Y67760D01*
X89680Y67809D01*
X89657Y67866D01*
X89635Y67931D01*
X89617Y68004D01*
X89603Y68078D01*
X89582Y68288D01*
X89579Y68404D01*
X89554Y68461D01*
Y70451D01*
X107552Y88449D01*
X107813Y88839D01*
X107904Y89300D01*
Y102122D01*
X107998Y102262D01*
X108105Y102800D01*
Y124700D01*
X107998Y125238D01*
X107694Y125694D01*
X87605Y145782D01*
Y253229D01*
X87892Y253395D01*
X88405Y253908D01*
X88768Y254536D01*
X88956Y255237D01*
Y255963D01*
X88768Y256664D01*
X88405Y257292D01*
X87892Y257805D01*
X87264Y258168D01*
X86563Y258356D01*
D02*
G37*
G36*
X32963Y161956D02*
X32237D01*
X31536Y161768D01*
X30908Y161405D01*
X30395Y160892D01*
X30032Y160264D01*
X29844Y159563D01*
Y158837D01*
X30032Y158136D01*
X30395Y157508D01*
X30908Y156995D01*
X31536Y156632D01*
X32237Y156444D01*
X32963D01*
X33664Y156632D01*
X34292Y156995D01*
X34805Y157508D01*
X34971Y157795D01*
X35618D01*
X91607Y101807D01*
X92062Y101502D01*
X92228Y101469D01*
X92796Y100901D01*
Y86746D01*
X92770Y86689D01*
X92767Y86567D01*
X92759Y86471D01*
X92747Y86386D01*
X92730Y86312D01*
X92711Y86248D01*
X92690Y86193D01*
X92667Y86146D01*
X92642Y86106D01*
X92616Y86072D01*
X92566Y86018D01*
X92526Y85910D01*
X92331Y85715D01*
X92032Y84992D01*
Y84208D01*
X92331Y83485D01*
X92885Y82931D01*
X93608Y82631D01*
X94392D01*
X95115Y82931D01*
X95669Y83485D01*
X95969Y84208D01*
Y84992D01*
X95669Y85715D01*
X95474Y85910D01*
X95434Y86018D01*
X95384Y86072D01*
X95358Y86106D01*
X95333Y86146D01*
X95310Y86193D01*
X95289Y86248D01*
X95270Y86312D01*
X95253Y86386D01*
X95241Y86471D01*
X95233Y86567D01*
X95230Y86689D01*
X95204Y86746D01*
Y101400D01*
X95113Y101861D01*
X94851Y102252D01*
X94851Y102252D01*
X93931Y103172D01*
X93898Y103338D01*
X93594Y103794D01*
X37194Y160194D01*
X36738Y160498D01*
X36200Y160605D01*
X34971D01*
X34805Y160892D01*
X34292Y161405D01*
X33664Y161768D01*
X32963Y161956D01*
D02*
G37*
G36*
X300518Y88937D02*
X299482D01*
X298480Y88669D01*
X297583Y88150D01*
X296850Y87417D01*
X296331Y86520D01*
X296301Y86405D01*
X224300D01*
X223762Y86298D01*
X223307Y85993D01*
X214365Y77051D01*
X154857D01*
X154427Y77482D01*
X153631Y77812D01*
X152769D01*
X151973Y77482D01*
X151364Y76873D01*
X151035Y76077D01*
Y75216D01*
X151364Y74420D01*
X151579Y74205D01*
X151372Y73705D01*
X146857D01*
X146427Y74136D01*
X145631Y74465D01*
X144769D01*
X143973Y74136D01*
X143364Y73527D01*
X143035Y72731D01*
Y71869D01*
X143364Y71073D01*
X143973Y70464D01*
X144769Y70135D01*
X145631D01*
X146427Y70464D01*
X146857Y70895D01*
X217900D01*
X218438Y71002D01*
X218893Y71307D01*
X221182Y73595D01*
X296301D01*
X296331Y73480D01*
X296850Y72583D01*
X297583Y71850D01*
X298480Y71331D01*
X299482Y71063D01*
X300518D01*
X301520Y71331D01*
X302417Y71850D01*
X303150Y72583D01*
X303669Y73480D01*
X303937Y74482D01*
Y75518D01*
X303669Y76520D01*
X303150Y77417D01*
X302417Y78150D01*
X301520Y78669D01*
X300518Y78937D01*
X299482D01*
X298480Y78669D01*
X297583Y78150D01*
X296850Y77417D01*
X296331Y76520D01*
X296301Y76405D01*
X220600D01*
X220062Y76298D01*
X219607Y75993D01*
X217318Y73705D01*
X155590D01*
X155322Y74205D01*
X155347Y74242D01*
X214947D01*
X215484Y74348D01*
X215940Y74653D01*
X224882Y83595D01*
X296301D01*
X296331Y83480D01*
X296850Y82583D01*
X297583Y81850D01*
X298480Y81331D01*
X299482Y81063D01*
X300518D01*
X301520Y81331D01*
X302417Y81850D01*
X303150Y82583D01*
X303669Y83480D01*
X303937Y84482D01*
Y85518D01*
X303669Y86520D01*
X303150Y87417D01*
X302417Y88150D01*
X301520Y88669D01*
X300518Y88937D01*
D02*
G37*
G36*
X169131Y83565D02*
X168269D01*
X167473Y83236D01*
X167043Y82805D01*
X137586D01*
X137049Y82698D01*
X136593Y82393D01*
X135205Y81005D01*
X124200D01*
X123662Y80898D01*
X123522Y80804D01*
X102500D01*
X102039Y80713D01*
X101648Y80452D01*
X101648Y80452D01*
X93348Y72151D01*
X93087Y71761D01*
X92996Y71300D01*
X92996Y71300D01*
Y50678D01*
X92902Y50538D01*
X92795Y50000D01*
Y46757D01*
X92364Y46327D01*
X92035Y45531D01*
Y44669D01*
X92364Y43873D01*
X92973Y43264D01*
X93769Y42935D01*
X94631D01*
X95427Y43264D01*
X96036Y43873D01*
X96365Y44669D01*
Y45531D01*
X96036Y46327D01*
X95605Y46757D01*
Y50000D01*
X95498Y50538D01*
X95404Y50678D01*
Y70801D01*
X102999Y78396D01*
X123522D01*
X123662Y78302D01*
X124200Y78195D01*
X135786D01*
X136324Y78302D01*
X136780Y78607D01*
X138168Y79995D01*
X167043D01*
X167473Y79564D01*
X168269Y79235D01*
X169131D01*
X169927Y79564D01*
X170536Y80173D01*
X170865Y80969D01*
Y81831D01*
X170536Y82627D01*
X169927Y83236D01*
X169131Y83565D01*
D02*
G37*
G36*
X46956Y79012D02*
X46230D01*
X45529Y78824D01*
X44901Y78461D01*
X44388Y77948D01*
X44025Y77320D01*
X43837Y76619D01*
Y75893D01*
X44025Y75192D01*
X44388Y74564D01*
X44901Y74051D01*
X45529Y73688D01*
X46230Y73500D01*
X46956D01*
X47657Y73688D01*
X48285Y74051D01*
X48798Y74564D01*
X49161Y75192D01*
X49349Y75893D01*
Y76619D01*
X49161Y77320D01*
X48798Y77948D01*
X48285Y78461D01*
X47657Y78824D01*
X46956Y79012D01*
D02*
G37*
G36*
X300518Y68937D02*
X299482D01*
X298480Y68669D01*
X297583Y68150D01*
X296850Y67417D01*
X296331Y66520D01*
X296301Y66405D01*
X222800D01*
X222262Y66298D01*
X221807Y65993D01*
X218340Y62527D01*
X193685D01*
X193156Y63056D01*
X192360Y63386D01*
X191498D01*
X190703Y63056D01*
X190093Y62447D01*
X189764Y61651D01*
Y60790D01*
X190093Y59994D01*
X190703Y59385D01*
X191498Y59055D01*
X192360D01*
X193156Y59385D01*
X193488Y59717D01*
X218922D01*
X219460Y59824D01*
X219916Y60129D01*
X223382Y63595D01*
X296301D01*
X296331Y63480D01*
X296850Y62583D01*
X297583Y61850D01*
X298480Y61331D01*
X299482Y61063D01*
X300518D01*
X301520Y61331D01*
X302417Y61850D01*
X303150Y62583D01*
X303669Y63480D01*
X303937Y64482D01*
Y65518D01*
X303669Y66520D01*
X303150Y67417D01*
X302417Y68150D01*
X301520Y68669D01*
X300518Y68937D01*
D02*
G37*
G36*
X65331Y77965D02*
X64469D01*
X63673Y77636D01*
X63064Y77027D01*
X62735Y76231D01*
Y75622D01*
X60807Y73693D01*
X60502Y73238D01*
X60395Y72700D01*
Y57757D01*
X59964Y57327D01*
X59635Y56531D01*
Y55669D01*
X59964Y54873D01*
X60573Y54264D01*
X61369Y53935D01*
X62231D01*
X63027Y54264D01*
X63636Y54873D01*
X63965Y55669D01*
Y56531D01*
X63636Y57327D01*
X63205Y57757D01*
Y72118D01*
X64722Y73635D01*
X65331D01*
X66127Y73964D01*
X66736Y74573D01*
X67065Y75369D01*
Y76231D01*
X66736Y77027D01*
X66127Y77636D01*
X65331Y77965D01*
D02*
G37*
G36*
X105792Y71768D02*
X105008D01*
X104285Y71469D01*
X103731Y70915D01*
X103431Y70192D01*
Y69916D01*
X103383Y69811D01*
X103381Y69738D01*
X103375Y69695D01*
X103364Y69650D01*
X103347Y69600D01*
X103323Y69546D01*
X103292Y69487D01*
X103251Y69423D01*
X103200Y69354D01*
X103138Y69281D01*
X103054Y69192D01*
X103031Y69134D01*
X101948Y68051D01*
X101687Y67661D01*
X101596Y67200D01*
X101596Y67200D01*
Y62600D01*
X101596Y62600D01*
X101687Y62139D01*
X101948Y61748D01*
X110248Y53448D01*
X110248Y53448D01*
X110639Y53187D01*
X111100Y53096D01*
X111100Y53096D01*
X123522D01*
X123662Y53002D01*
X124200Y52895D01*
X146100D01*
X146638Y53002D01*
X147093Y53307D01*
X150782Y56995D01*
X157843D01*
X158273Y56564D01*
X159069Y56235D01*
X159931D01*
X160727Y56564D01*
X161336Y57173D01*
X161665Y57969D01*
Y58831D01*
X161336Y59627D01*
X161067Y59895D01*
X161274Y60395D01*
X170318D01*
X197006Y33707D01*
X197462Y33402D01*
X198000Y33295D01*
X236943D01*
X237373Y32864D01*
X238169Y32535D01*
X239031D01*
X239827Y32864D01*
X240436Y33473D01*
X240765Y34269D01*
Y35131D01*
X240436Y35927D01*
X239827Y36536D01*
X239031Y36865D01*
X238169D01*
X237373Y36536D01*
X236943Y36105D01*
X198582D01*
X171894Y62793D01*
X171438Y63098D01*
X170900Y63205D01*
X146163D01*
X145625Y63098D01*
X145170Y62793D01*
X143281Y60905D01*
X139957D01*
X139527Y61336D01*
X138731Y61665D01*
X137869D01*
X137073Y61336D01*
X136464Y60727D01*
X136135Y59931D01*
Y59069D01*
X136464Y58273D01*
X137073Y57664D01*
X137869Y57335D01*
X138731D01*
X139527Y57664D01*
X139957Y58095D01*
X143863D01*
X144401Y58202D01*
X144857Y58507D01*
X146745Y60395D01*
X157222D01*
X157489Y59895D01*
X157429Y59805D01*
X150200D01*
X149662Y59698D01*
X149206Y59393D01*
X145518Y55705D01*
X124200D01*
X123662Y55598D01*
X123522Y55504D01*
X111599D01*
X104004Y63099D01*
Y66701D01*
X104734Y67431D01*
X104792Y67454D01*
X104881Y67538D01*
X104954Y67600D01*
X105023Y67651D01*
X105087Y67692D01*
X105146Y67723D01*
X105200Y67747D01*
X105250Y67764D01*
X105295Y67775D01*
X105338Y67781D01*
X105411Y67783D01*
X105516Y67831D01*
X105714D01*
X105941Y67613D01*
X106081Y67410D01*
X106032Y67292D01*
Y66508D01*
X106331Y65785D01*
X106885Y65231D01*
X107608Y64931D01*
X108392D01*
X109115Y65231D01*
X109310Y65426D01*
X109418Y65466D01*
X109449Y65495D01*
X164818D01*
X164997Y65316D01*
X165453Y65011D01*
X165991Y64904D01*
X174351D01*
X174364Y64873D01*
X174973Y64264D01*
X175769Y63935D01*
X176378D01*
X201307Y39007D01*
X201762Y38702D01*
X202300Y38595D01*
X294418D01*
X296391Y36622D01*
X296331Y36520D01*
X296063Y35518D01*
Y34482D01*
X296331Y33480D01*
X296850Y32583D01*
X297583Y31850D01*
X298480Y31331D01*
X299482Y31063D01*
X300518D01*
X301520Y31331D01*
X302417Y31850D01*
X303150Y32583D01*
X303669Y33480D01*
X303937Y34482D01*
Y35518D01*
X303669Y36520D01*
X303150Y37417D01*
X302417Y38150D01*
X301520Y38669D01*
X300518Y38937D01*
X299482D01*
X298480Y38669D01*
X298378Y38609D01*
X295993Y40993D01*
X295538Y41298D01*
X295000Y41405D01*
X202882D01*
X190531Y53756D01*
X190814Y54180D01*
X191400Y53937D01*
X192261D01*
X193057Y54267D01*
X193666Y54876D01*
X193716Y54995D01*
X219718D01*
X221098Y53615D01*
X221554Y53311D01*
X222091Y53204D01*
X296491D01*
X296850Y52583D01*
X297583Y51850D01*
X298480Y51331D01*
X299482Y51063D01*
X300518D01*
X301520Y51331D01*
X302417Y51850D01*
X303150Y52583D01*
X303669Y53480D01*
X303937Y54482D01*
Y55518D01*
X303669Y56520D01*
X303150Y57417D01*
X302417Y58150D01*
X301520Y58669D01*
X300518Y58937D01*
X299482D01*
X298480Y58669D01*
X297583Y58150D01*
X296850Y57417D01*
X296331Y56520D01*
X296196Y56014D01*
X222673D01*
X221293Y57393D01*
X220838Y57698D01*
X220300Y57805D01*
X193190D01*
X193057Y57938D01*
X192261Y58268D01*
X191400D01*
X190604Y57938D01*
X189995Y57329D01*
X189665Y56533D01*
Y55672D01*
X189908Y55086D01*
X189484Y54803D01*
X178365Y65922D01*
Y66531D01*
X178036Y67327D01*
X177427Y67936D01*
X176631Y68265D01*
X175769D01*
X174973Y67936D01*
X174752Y67714D01*
X166572D01*
X166393Y67893D01*
X165938Y68198D01*
X165400Y68305D01*
X109449D01*
X109418Y68334D01*
X109310Y68374D01*
X109115Y68569D01*
X108392Y68868D01*
X107686D01*
X107459Y69087D01*
X107319Y69290D01*
X107369Y69408D01*
Y70192D01*
X107069Y70915D01*
X106515Y71469D01*
X105792Y71768D01*
D02*
G37*
G36*
X158263Y53756D02*
X157537D01*
X156836Y53568D01*
X156208Y53205D01*
X155695Y52692D01*
X155332Y52064D01*
X155144Y51363D01*
Y50637D01*
X155332Y49936D01*
X155695Y49308D01*
X156208Y48795D01*
X156836Y48432D01*
X157537Y48244D01*
X158263D01*
X158964Y48432D01*
X159592Y48795D01*
X160105Y49308D01*
X160468Y49936D01*
X160656Y50637D01*
Y51363D01*
X160468Y52064D01*
X160105Y52692D01*
X159592Y53205D01*
X158964Y53568D01*
X158263Y53756D01*
D02*
G37*
G36*
X232463Y51256D02*
X231737D01*
X231036Y51068D01*
X230408Y50705D01*
X229895Y50192D01*
X229532Y49564D01*
X229344Y48863D01*
Y48137D01*
X229532Y47436D01*
X229895Y46808D01*
X230408Y46295D01*
X231036Y45932D01*
X231737Y45744D01*
X232463D01*
X233164Y45932D01*
X233792Y46295D01*
X234305Y46808D01*
X234668Y47436D01*
X234856Y48137D01*
Y48863D01*
X234668Y49564D01*
X234305Y50192D01*
X233792Y50705D01*
X233164Y51068D01*
X232463Y51256D01*
D02*
G37*
G36*
X283263Y50156D02*
X282537D01*
X281836Y49968D01*
X281208Y49605D01*
X280695Y49092D01*
X280332Y48464D01*
X280144Y47763D01*
Y47037D01*
X280332Y46336D01*
X280695Y45708D01*
X281208Y45195D01*
X281836Y44832D01*
X282537Y44644D01*
X283263D01*
X283964Y44832D01*
X284592Y45195D01*
X285105Y45708D01*
X285468Y46336D01*
X285656Y47037D01*
Y47763D01*
X285468Y48464D01*
X285105Y49092D01*
X284592Y49605D01*
X283964Y49968D01*
X283263Y50156D01*
D02*
G37*
G36*
X300518Y48937D02*
X299482D01*
X298480Y48669D01*
X297583Y48150D01*
X296850Y47417D01*
X296331Y46520D01*
X296063Y45518D01*
Y44482D01*
X296331Y43480D01*
X296850Y42583D01*
X297583Y41850D01*
X298480Y41331D01*
X299482Y41063D01*
X300518D01*
X301520Y41331D01*
X302417Y41850D01*
X303150Y42583D01*
X303669Y43480D01*
X303937Y44482D01*
Y45518D01*
X303669Y46520D01*
X303150Y47417D01*
X302417Y48150D01*
X301520Y48669D01*
X300518Y48937D01*
D02*
G37*
G36*
X158363Y44856D02*
X157637D01*
X156936Y44668D01*
X156308Y44305D01*
X155795Y43792D01*
X155432Y43164D01*
X155244Y42463D01*
Y41737D01*
X155432Y41036D01*
X155795Y40408D01*
X156308Y39895D01*
X156936Y39532D01*
X157637Y39344D01*
X158363D01*
X159064Y39532D01*
X159692Y39895D01*
X160205Y40408D01*
X160568Y41036D01*
X160756Y41737D01*
Y42463D01*
X160568Y43164D01*
X160205Y43792D01*
X159692Y44305D01*
X159064Y44668D01*
X158363Y44856D01*
D02*
G37*
G36*
X51772Y44622D02*
X48228D01*
X47844Y44545D01*
X47519Y44328D01*
X47301Y44002D01*
X47225Y43618D01*
Y38894D01*
X47301Y38510D01*
X47519Y38184D01*
X47844Y37967D01*
X48228Y37890D01*
X51772D01*
X52156Y37967D01*
X52481Y38184D01*
X52699Y38510D01*
X52775Y38894D01*
Y39795D01*
X53543D01*
X53973Y39364D01*
X54769Y39035D01*
X55631D01*
X56427Y39364D01*
X57036Y39973D01*
X57365Y40769D01*
Y41631D01*
X57036Y42427D01*
X56427Y43036D01*
X55631Y43365D01*
X54769D01*
X53973Y43036D01*
X53543Y42605D01*
X52775D01*
Y43618D01*
X52699Y44002D01*
X52481Y44328D01*
X52156Y44545D01*
X51772Y44622D01*
D02*
G37*
G36*
X105792Y77668D02*
X105008D01*
X104285Y77369D01*
X103731Y76815D01*
X103431Y76092D01*
Y75816D01*
X103383Y75711D01*
X103381Y75638D01*
X103375Y75595D01*
X103364Y75550D01*
X103347Y75500D01*
X103323Y75446D01*
X103292Y75387D01*
X103251Y75323D01*
X103200Y75254D01*
X103138Y75181D01*
X103054Y75092D01*
X103031Y75034D01*
X97649Y69652D01*
X97387Y69261D01*
X97296Y68800D01*
X97296Y68800D01*
Y60800D01*
X97296Y60800D01*
X97387Y60339D01*
X97649Y59948D01*
X107969Y49628D01*
X108002Y49462D01*
X108307Y49007D01*
X110007Y47306D01*
X110462Y47002D01*
X111000Y46895D01*
X139018D01*
X152506Y33406D01*
X152962Y33102D01*
X153500Y32995D01*
X164643D01*
X165073Y32564D01*
X165869Y32235D01*
X166731D01*
X167527Y32564D01*
X168136Y33173D01*
X168465Y33969D01*
Y34831D01*
X168136Y35627D01*
X167527Y36236D01*
X166731Y36565D01*
X165869D01*
X165073Y36236D01*
X164643Y35805D01*
X154082D01*
X140594Y49294D01*
X140138Y49598D01*
X139600Y49705D01*
X111582D01*
X110293Y50994D01*
X109838Y51298D01*
X109672Y51331D01*
X99704Y61299D01*
Y68301D01*
X104734Y73331D01*
X104792Y73354D01*
X104881Y73438D01*
X104954Y73500D01*
X105023Y73551D01*
X105087Y73592D01*
X105146Y73623D01*
X105200Y73647D01*
X105250Y73664D01*
X105295Y73675D01*
X105338Y73681D01*
X105411Y73683D01*
X105516Y73731D01*
X105792D01*
X106515Y74031D01*
X107069Y74585D01*
X107369Y75308D01*
Y76092D01*
X107069Y76815D01*
X106515Y77369D01*
X105792Y77668D01*
D02*
G37*
G36*
X278963Y35756D02*
X278237D01*
X277536Y35568D01*
X276908Y35205D01*
X276395Y34692D01*
X276032Y34064D01*
X275844Y33363D01*
Y32637D01*
X276032Y31936D01*
X276395Y31308D01*
X276908Y30795D01*
X277536Y30432D01*
X278237Y30244D01*
X278963D01*
X279664Y30432D01*
X280292Y30795D01*
X280805Y31308D01*
X281168Y31936D01*
X281356Y32637D01*
Y33363D01*
X281168Y34064D01*
X280805Y34692D01*
X280292Y35205D01*
X279664Y35568D01*
X278963Y35756D01*
D02*
G37*
G36*
X45472Y44622D02*
X41929D01*
X41545Y44545D01*
X41219Y44328D01*
X41002Y44002D01*
X40926Y43618D01*
Y41290D01*
X40921Y41256D01*
Y32606D01*
X40920Y32600D01*
X40944Y32419D01*
Y32237D01*
X40991Y32061D01*
X41015Y31881D01*
X41085Y31712D01*
X41132Y31536D01*
X41223Y31378D01*
X41293Y31210D01*
X41404Y31066D01*
X41495Y30908D01*
X41624Y30779D01*
X41734Y30634D01*
X41879Y30524D01*
X42008Y30395D01*
X42166Y30304D01*
X42310Y30193D01*
X42478Y30123D01*
X42636Y30032D01*
X42812Y29985D01*
X42981Y29915D01*
X43161Y29891D01*
X43337Y29844D01*
X43519D01*
X43700Y29820D01*
X43881Y29844D01*
X44063D01*
X44239Y29891D01*
X44419Y29915D01*
X44588Y29985D01*
X44764Y30032D01*
X44922Y30123D01*
X45090Y30193D01*
X45234Y30304D01*
X45392Y30395D01*
X45521Y30524D01*
X45665Y30634D01*
X45666Y30635D01*
X45777Y30780D01*
X45905Y30908D01*
X45996Y31065D01*
X46108Y31211D01*
X46179Y31381D01*
X46268Y31536D01*
X46314Y31709D01*
X46386Y31881D01*
X46410Y32066D01*
X46456Y32237D01*
Y32414D01*
X46481Y32601D01*
Y41256D01*
X46476Y41290D01*
Y43618D01*
X46400Y44002D01*
X46182Y44328D01*
X45856Y44545D01*
X45472Y44622D01*
D02*
G37*
G36*
X281163Y27556D02*
X280437D01*
X279736Y27368D01*
X279108Y27005D01*
X278595Y26492D01*
X278232Y25864D01*
X278044Y25163D01*
Y24437D01*
X278232Y23736D01*
X278595Y23108D01*
X279108Y22595D01*
X279736Y22232D01*
X280437Y22044D01*
X281163D01*
X281864Y22232D01*
X282492Y22595D01*
X283005Y23108D01*
X283368Y23736D01*
X283556Y24437D01*
Y25163D01*
X283368Y25864D01*
X283005Y26492D01*
X282492Y27005D01*
X281864Y27368D01*
X281163Y27556D01*
D02*
G37*
G36*
X228563Y24112D02*
X227837D01*
X227136Y23924D01*
X226508Y23561D01*
X225995Y23048D01*
X225632Y22420D01*
X225444Y21719D01*
Y20993D01*
X225632Y20292D01*
X225995Y19664D01*
X226508Y19151D01*
X227136Y18788D01*
X227837Y18600D01*
X228563D01*
X229264Y18788D01*
X229892Y19151D01*
X230405Y19664D01*
X230768Y20292D01*
X230956Y20993D01*
Y21719D01*
X230768Y22420D01*
X230405Y23048D01*
X229892Y23561D01*
X229264Y23924D01*
X228563Y24112D01*
D02*
G37*
G36*
X116863Y20356D02*
X116137D01*
X115436Y20168D01*
X114808Y19805D01*
X114295Y19292D01*
X113932Y18664D01*
X113744Y17963D01*
Y17237D01*
X113932Y16536D01*
X114295Y15908D01*
X114808Y15395D01*
X115436Y15032D01*
X116137Y14844D01*
X116863D01*
X117564Y15032D01*
X118192Y15395D01*
X118705Y15908D01*
X119068Y16536D01*
X119256Y17237D01*
Y17963D01*
X119068Y18664D01*
X118705Y19292D01*
X118192Y19805D01*
X117564Y20168D01*
X116863Y20356D01*
D02*
G37*
G36*
X79363D02*
X78637D01*
X77936Y20168D01*
X77308Y19805D01*
X76795Y19292D01*
X76432Y18664D01*
X76244Y17963D01*
Y17237D01*
X76432Y16536D01*
X76795Y15908D01*
X77308Y15395D01*
X77936Y15032D01*
X78637Y14844D01*
X79363D01*
X80064Y15032D01*
X80692Y15395D01*
X81205Y15908D01*
X81568Y16536D01*
X81756Y17237D01*
Y17963D01*
X81568Y18664D01*
X81205Y19292D01*
X80692Y19805D01*
X80064Y20168D01*
X79363Y20356D01*
D02*
G37*
G36*
X24992Y31598D02*
X23009D01*
X21050Y31288D01*
X19164Y30675D01*
X17397Y29775D01*
X15793Y28609D01*
X14390Y27207D01*
X13225Y25603D01*
X12325Y23836D01*
X11712Y21950D01*
X11402Y19992D01*
Y18009D01*
X11712Y16050D01*
X12325Y14164D01*
X13225Y12397D01*
X14390Y10793D01*
X15793Y9391D01*
X17397Y8225D01*
X19164Y7325D01*
X21050Y6712D01*
X23009Y6402D01*
X24992D01*
X26950Y6712D01*
X28836Y7325D01*
X30603Y8225D01*
X32207Y9391D01*
X33610Y10793D01*
X34775Y12397D01*
X35675Y14164D01*
X36288Y16050D01*
X36598Y18009D01*
Y19992D01*
X36288Y21950D01*
X35675Y23836D01*
X34775Y25603D01*
X33610Y27207D01*
X32207Y28609D01*
X30603Y29775D01*
X28836Y30675D01*
X26950Y31288D01*
X24992Y31598D01*
D02*
G37*
%LPD*%
G36*
X153596Y280796D02*
X152204D01*
X152224Y280835D01*
X152242Y280912D01*
X152258Y281026D01*
X152283Y281364D01*
X152309Y282856D01*
X153491D01*
X153596Y280796D01*
D02*
G37*
G36*
X110007Y84272D02*
X109910Y84170D01*
X109823Y84068D01*
X109746Y83966D01*
X109678Y83863D01*
X109620Y83760D01*
X109572Y83657D01*
X109534Y83554D01*
X109505Y83451D01*
X109486Y83347D01*
X109477Y83243D01*
X108185Y84675D01*
X108289Y84674D01*
X108393Y84684D01*
X108498Y84705D01*
X108601Y84737D01*
X108705Y84779D01*
X108808Y84832D01*
X108912Y84897D01*
X109014Y84972D01*
X109117Y85058D01*
X109219Y85155D01*
X110007Y84272D01*
D02*
G37*
G36*
X247561Y168115D02*
X248160Y167598D01*
X248446Y167388D01*
X248724Y167211D01*
X248993Y167065D01*
X249254Y166952D01*
X249505Y166872D01*
X249749Y166823D01*
X249984Y166807D01*
Y165626D01*
X249749Y165610D01*
X249505Y165561D01*
X249254Y165481D01*
X248993Y165368D01*
X248724Y165223D01*
X248446Y165045D01*
X248160Y164835D01*
X247865Y164593D01*
X247249Y164012D01*
Y168421D01*
X247561Y168115D01*
D02*
G37*
G36*
X252751Y159051D02*
X252406Y159392D01*
X251464Y160201D01*
X251180Y160398D01*
X250911Y160560D01*
X250657Y160686D01*
X250419Y160775D01*
X250195Y160829D01*
X249987Y160847D01*
Y161665D01*
X250195Y161682D01*
X250419Y161736D01*
X250657Y161826D01*
X250911Y161952D01*
X251180Y162114D01*
X251464Y162311D01*
X251763Y162545D01*
X252406Y163119D01*
X252751Y163461D01*
Y159051D01*
D02*
G37*
G36*
X260997Y162607D02*
Y143988D01*
X249123Y132114D01*
X235748D01*
Y132480D01*
X235671Y132864D01*
X235454Y133190D01*
X235128Y133407D01*
X234744Y133484D01*
X230020D01*
X229636Y133407D01*
X229310Y133190D01*
X229093Y132864D01*
X229016Y132480D01*
Y132114D01*
X225807D01*
Y132480D01*
X225730Y132864D01*
X225513Y133190D01*
X225187Y133407D01*
X224803Y133484D01*
X221142D01*
X220932Y133747D01*
X221147Y134233D01*
X224803D01*
X225187Y134309D01*
X225513Y134527D01*
X225730Y134852D01*
X225807Y135236D01*
Y135788D01*
X226274D01*
X226741Y135881D01*
X227136Y136146D01*
X227202Y136212D01*
X227687Y136145D01*
X228082Y135881D01*
X228549Y135788D01*
X229016Y135769D01*
Y135236D01*
X229093Y134852D01*
X229310Y134527D01*
X229636Y134309D01*
X230020Y134233D01*
X234744D01*
X235128Y134309D01*
X235454Y134527D01*
X235671Y134852D01*
X235748Y135236D01*
Y138779D01*
X235671Y139164D01*
X235454Y139489D01*
X235128Y139707D01*
X234744Y139783D01*
X230020D01*
X229790Y139737D01*
X229384Y139975D01*
X229290Y140077D01*
Y142526D01*
X230623Y143859D01*
X242316D01*
X242782Y143952D01*
X243178Y144216D01*
X244789Y145828D01*
X250791D01*
X251258Y145921D01*
X251654Y146185D01*
X252359Y146890D01*
X252375Y146904D01*
X252477Y146966D01*
X252627Y147034D01*
X252826Y147101D01*
X253073Y147162D01*
X253347Y147212D01*
X254516Y147301D01*
X254972Y147304D01*
X255047Y147319D01*
X255518D01*
X256520Y147587D01*
X257417Y148106D01*
X258150Y148838D01*
X258669Y149736D01*
X258937Y150738D01*
Y151774D01*
X258669Y152776D01*
X258150Y153673D01*
X257417Y154406D01*
X256520Y154925D01*
X255518Y155193D01*
X254482D01*
X253480Y154925D01*
X252583Y154406D01*
X251850Y153673D01*
X251331Y152776D01*
X251063Y151774D01*
Y151303D01*
X251048Y151228D01*
X251045Y150764D01*
X250999Y149950D01*
X250959Y149621D01*
X250907Y149329D01*
X250845Y149082D01*
X250778Y148883D01*
X250710Y148733D01*
X250648Y148631D01*
X250634Y148615D01*
X250286Y148267D01*
X245231D01*
X245040Y148729D01*
X245862Y149551D01*
X246127Y149947D01*
X246219Y150413D01*
Y152467D01*
X246520Y152548D01*
X247417Y153066D01*
X248150Y153799D01*
X248669Y154697D01*
X248937Y155698D01*
Y156735D01*
X248669Y157736D01*
X248150Y158634D01*
X247417Y159367D01*
X247124Y159536D01*
X247258Y160036D01*
X250045D01*
X250066Y160035D01*
X250182Y160007D01*
X250337Y159948D01*
X250525Y159855D01*
X250743Y159724D01*
X250972Y159565D01*
X251862Y158802D01*
X252186Y158481D01*
X252250Y158439D01*
X252583Y158106D01*
X253480Y157587D01*
X254482Y157319D01*
X255518D01*
X256520Y157587D01*
X257417Y158106D01*
X258150Y158838D01*
X258669Y159736D01*
X258937Y160738D01*
Y161774D01*
X258669Y162776D01*
X258150Y163673D01*
X257512Y164312D01*
X257646Y164812D01*
X258792D01*
X260997Y162607D01*
D02*
G37*
G36*
X254969Y148107D02*
X254484Y148104D01*
X253245Y148009D01*
X252905Y147948D01*
X252601Y147872D01*
X252332Y147782D01*
X252100Y147677D01*
X251904Y147557D01*
X251744Y147422D01*
X251167Y148000D01*
X251301Y148160D01*
X251421Y148356D01*
X251526Y148588D01*
X251616Y148857D01*
X251692Y149161D01*
X251753Y149501D01*
X251800Y149878D01*
X251848Y150740D01*
X251851Y151224D01*
X254969Y148107D01*
D02*
G37*
G36*
X229832Y136190D02*
X229823Y136268D01*
X229798Y136338D01*
X229757Y136399D01*
X229699Y136452D01*
X229624Y136497D01*
X229533Y136534D01*
X229425Y136562D01*
X229301Y136583D01*
X229160Y136595D01*
X229002Y136599D01*
Y137417D01*
X229160Y137421D01*
X229301Y137433D01*
X229425Y137453D01*
X229533Y137482D01*
X229624Y137519D01*
X229699Y137564D01*
X229757Y137617D01*
X229798Y137678D01*
X229823Y137748D01*
X229832Y137825D01*
Y136190D01*
D02*
G37*
G36*
X224999Y137748D02*
X225024Y137678D01*
X225066Y137617D01*
X225124Y137564D01*
X225199Y137519D01*
X225290Y137482D01*
X225398Y137453D01*
X225522Y137433D01*
X225663Y137421D01*
X225821Y137417D01*
Y136599D01*
X225663Y136595D01*
X225522Y136583D01*
X225398Y136562D01*
X225290Y136534D01*
X225199Y136497D01*
X225124Y136452D01*
X225066Y136399D01*
X225024Y136338D01*
X224999Y136268D01*
X224991Y136190D01*
Y137825D01*
X224999Y137748D01*
D02*
G37*
G36*
X102591Y90319D02*
X102594Y90179D01*
X102621Y89917D01*
X102645Y89797D01*
X102676Y89683D01*
X102714Y89575D01*
X102759Y89474D01*
X102810Y89380D01*
X102868Y89293D01*
X102933Y89211D01*
X101009Y89351D01*
X101085Y89423D01*
X101153Y89502D01*
X101213Y89589D01*
X101265Y89684D01*
X101309Y89787D01*
X101345Y89897D01*
X101373Y90015D01*
X101393Y90140D01*
X101405Y90273D01*
X101409Y90414D01*
X102591Y90319D01*
D02*
G37*
G36*
X88940Y68389D02*
X88943Y68249D01*
X88969Y67987D01*
X88992Y67866D01*
X89022Y67751D01*
X89057Y67643D01*
X89100Y67541D01*
X89148Y67445D01*
X89204Y67356D01*
X89266Y67273D01*
X87348Y67483D01*
X87426Y67552D01*
X87496Y67628D01*
X87558Y67713D01*
X87611Y67806D01*
X87656Y67907D01*
X87693Y68016D01*
X87722Y68133D01*
X87743Y68258D01*
X87755Y68391D01*
X87759Y68532D01*
X88940Y68389D01*
D02*
G37*
G36*
X94594Y86531D02*
X94605Y86397D01*
X94624Y86271D01*
X94650Y86152D01*
X94684Y86039D01*
X94725Y85934D01*
X94774Y85836D01*
X94830Y85745D01*
X94893Y85661D01*
X94965Y85584D01*
X93035D01*
X93107Y85661D01*
X93170Y85745D01*
X93226Y85836D01*
X93275Y85934D01*
X93316Y86039D01*
X93350Y86152D01*
X93376Y86271D01*
X93395Y86397D01*
X93406Y86531D01*
X93410Y86672D01*
X94591D01*
X94594Y86531D01*
D02*
G37*
G36*
X105386Y68422D02*
X105282Y68418D01*
X105177Y68404D01*
X105073Y68379D01*
X104970Y68344D01*
X104866Y68299D01*
X104763Y68243D01*
X104660Y68177D01*
X104557Y68101D01*
X104455Y68014D01*
X104353Y67918D01*
X103517Y68753D01*
X103614Y68855D01*
X103701Y68957D01*
X103777Y69060D01*
X103843Y69163D01*
X103899Y69266D01*
X103944Y69370D01*
X103979Y69473D01*
X104004Y69577D01*
X104018Y69682D01*
X104022Y69786D01*
X105386Y68422D01*
D02*
G37*
G36*
X109061Y67794D02*
X109145Y67730D01*
X109236Y67674D01*
X109334Y67625D01*
X109439Y67584D01*
X109552Y67550D01*
X109671Y67524D01*
X109798Y67506D01*
X109931Y67494D01*
X110072Y67491D01*
Y66309D01*
X109931Y66306D01*
X109798Y66294D01*
X109671Y66276D01*
X109552Y66250D01*
X109439Y66216D01*
X109334Y66175D01*
X109236Y66126D01*
X109145Y66070D01*
X109061Y66006D01*
X108984Y65935D01*
Y67865D01*
X109061Y67794D01*
D02*
G37*
G36*
X105386Y74322D02*
X105282Y74318D01*
X105177Y74304D01*
X105073Y74279D01*
X104970Y74244D01*
X104866Y74199D01*
X104763Y74143D01*
X104660Y74077D01*
X104557Y74001D01*
X104455Y73914D01*
X104353Y73817D01*
X103517Y74653D01*
X103614Y74755D01*
X103701Y74857D01*
X103777Y74960D01*
X103843Y75063D01*
X103899Y75166D01*
X103944Y75270D01*
X103979Y75373D01*
X104004Y75477D01*
X104018Y75582D01*
X104022Y75686D01*
X105386Y74322D01*
D02*
G37*
D12*
X79900Y271500D02*
X125787Y225613D01*
Y198130D02*
Y225613D01*
X245000Y166217D02*
X259374D01*
X262402Y163189D01*
Y143405D02*
Y163189D01*
X249705Y130709D02*
X262402Y143405D01*
X232382Y130709D02*
X249705D01*
X222441D02*
X232382D01*
X219980Y159941D02*
Y169882D01*
Y174114D01*
X227067Y181201D01*
X246419D02*
X255000Y172619D01*
X227067Y181201D02*
X246419D01*
X255000Y171256D02*
Y172619D01*
X219980Y159941D02*
X219980Y159941D01*
X211417Y141142D02*
Y149114D01*
X221850Y130709D02*
X222441D01*
X211417Y141142D02*
X221850Y130709D01*
X222441D02*
X222441Y130709D01*
X246351Y230800D02*
X267800D01*
X122747Y192347D02*
X207898D01*
X246351Y230800D01*
X123700Y185600D02*
X206466D01*
X246366Y225500D02*
X282500D01*
X206466Y185600D02*
X246366Y225500D01*
X192128Y56400D02*
X220300D01*
X191831Y56102D02*
X192128Y56400D01*
X191929Y61221D02*
X192027Y61122D01*
X218922D01*
X222800Y65000D01*
X220300Y56400D02*
X222091Y54609D01*
X95400Y166500D02*
Y176400D01*
X101500Y182500D01*
X112900D01*
X122747Y192347D01*
X95400Y166500D02*
X102800Y159100D01*
X116000Y177900D02*
X123700Y185600D01*
X102700Y175300D02*
X105300Y177900D01*
X116000D01*
X102700Y168800D02*
Y175300D01*
X282500Y225500D02*
X287800Y230800D01*
X153500Y34400D02*
X166300D01*
X139600Y48300D02*
X153500Y34400D01*
X258438Y101800D02*
X299291Y142654D01*
X235300Y101800D02*
X258438D01*
X198000Y34700D02*
X238600D01*
X170900Y61800D02*
X198000Y34700D01*
X143863Y59500D02*
X146163Y61800D01*
X138300Y59500D02*
X143863D01*
X146163Y61800D02*
X170900D01*
X176200Y66100D02*
X202300Y40000D01*
X295000D02*
X300000Y35000D01*
X202300Y40000D02*
X295000D01*
X108000Y66900D02*
X165400D01*
X165991Y66309D01*
X175991D01*
X176200Y66100D01*
X222091Y54609D02*
X299609D01*
X300000Y55000D01*
X222800Y65000D02*
X300000D01*
X150200Y58400D02*
X159500D01*
X124200Y54300D02*
X146100D01*
X150200Y58400D01*
X111100Y54300D02*
X124200D01*
X102800Y62600D02*
X111100Y54300D01*
X109300Y50000D02*
X111000Y48300D01*
X98500Y60800D02*
X109300Y50000D01*
X111000Y48300D02*
X139600D01*
X224300Y85000D02*
X300000D01*
X214947Y75647D02*
X224300Y85000D01*
X153200Y75647D02*
X214947D01*
X217900Y72300D02*
X220600Y75000D01*
X145200Y72300D02*
X217900D01*
X220600Y75000D02*
X300000D01*
X137586Y81400D02*
X168700D01*
X135786Y79600D02*
X137586Y81400D01*
X94200Y71300D02*
X102500Y79600D01*
X124200D02*
X135786D01*
X102500D02*
X124200D01*
X203756Y292565D02*
X205721Y290600D01*
X209700D01*
X203756Y292565D02*
Y292600D01*
X220000Y300457D02*
X224443D01*
X227500Y297400D01*
X115200Y153600D02*
X138200Y176600D01*
X144500D01*
X94200Y45100D02*
Y50000D01*
Y71300D01*
X106700Y89300D02*
Y102800D01*
X88350Y66550D02*
Y70950D01*
X106700Y89300D01*
X88200Y66400D02*
X88350Y66550D01*
X98500Y60800D02*
Y68800D01*
X105400Y75700D01*
X108100Y83300D02*
X108200D01*
X115200Y90300D01*
Y102800D01*
Y153600D01*
X102800Y62600D02*
Y67200D01*
X105400Y69800D01*
X50056Y41200D02*
X55200D01*
X50000Y41256D02*
X50056Y41200D01*
X61800Y56100D02*
Y72700D01*
X64900Y75800D01*
X36200Y159200D02*
X92600Y102800D01*
X94000Y101400D01*
X32600Y159200D02*
X36200D01*
X94000Y84600D02*
Y101400D01*
X36649Y172051D02*
X96900Y111800D01*
X33049Y172051D02*
X36649D01*
X32600Y172500D02*
X33049Y172051D01*
X101900Y88300D02*
X102000Y88400D01*
Y102800D01*
Y124000D01*
X81200Y144800D02*
X102000Y124000D01*
X106700Y102800D02*
Y124700D01*
X86200Y145200D02*
X106700Y124700D01*
X86200Y145200D02*
Y255600D01*
X71800Y271500D02*
X79900D01*
X81200Y144800D02*
Y160300D01*
Y160400D01*
X80000Y161600D02*
X81200Y160400D01*
X80000Y161600D02*
Y166256D01*
X152900Y280100D02*
Y290100D01*
D22*
X232382Y130709D02*
D03*
Y137008D02*
D03*
X222441Y130709D02*
D03*
Y137008D02*
D03*
X220000Y300457D02*
D03*
Y306756D02*
D03*
X209700Y290600D02*
D03*
Y284301D02*
D03*
D25*
X226279Y159941D02*
D03*
X219980D02*
D03*
X226279Y169882D02*
D03*
X219980D02*
D03*
X80000Y166256D02*
D03*
X73701D02*
D03*
X50000Y41256D02*
D03*
X43701D02*
D03*
X159199Y280100D02*
D03*
X152900D02*
D03*
Y290100D02*
D03*
X159199D02*
D03*
D40*
X170000Y251256D02*
D03*
X153071D02*
D03*
D78*
X226279Y166049D02*
Y169882D01*
X234353Y165570D02*
X245000Y176216D01*
X226279Y166049D02*
X226758Y165570D01*
X234353D01*
X234763Y164253D02*
X237760Y161256D01*
X226279Y163774D02*
X226758Y164253D01*
X234763D01*
X237760Y161256D02*
X255000D01*
X226279Y159941D02*
Y163774D01*
Y159941D02*
X226279Y159941D01*
X229573Y146396D02*
X240983D01*
X245000Y150413D02*
Y156217D01*
X240983Y146396D02*
X245000Y150413D01*
X242316Y145079D02*
X244284Y147047D01*
X230118Y145079D02*
X242316D01*
X244284Y147047D02*
X250791D01*
X255000Y151256D01*
X226753Y143576D02*
X229573Y146396D01*
X226753Y137487D02*
Y143576D01*
X228070Y137487D02*
Y143031D01*
X230118Y145079D01*
X228549Y137008D02*
X232382D01*
X228070Y137487D02*
X228549Y137008D01*
X226274D02*
X226753Y137487D01*
X222441Y137008D02*
X226274D01*
X222441Y137008D02*
X222441Y137008D01*
D79*
X149880Y253660D02*
X152284Y251256D01*
X149880Y253660D02*
Y257320D01*
X146400Y260800D02*
X149880Y257320D01*
X152284Y251256D02*
X153071D01*
X200439Y209961D02*
X207839D01*
X195900Y214500D02*
Y235600D01*
Y214500D02*
X200439Y209961D01*
X198100Y237800D02*
Y241300D01*
X195900Y235600D02*
X198100Y237800D01*
X207839Y209961D02*
X208200Y209600D01*
X170436Y235200D02*
X177300D01*
X170236Y235000D02*
X170436Y235200D01*
X151916Y278525D02*
X152900Y279509D01*
X149600Y276800D02*
X151325Y278525D01*
X152900Y279509D02*
Y280100D01*
X151325Y278525D02*
X151916D01*
X139500Y276800D02*
X149600D01*
X170236Y235000D02*
Y251020D01*
X170000Y251256D02*
X170236Y251020D01*
D81*
X209700Y272900D02*
Y284301D01*
X159313Y235000D02*
X160000D01*
X159213Y235100D02*
X159313Y235000D01*
X43701Y32601D02*
Y41256D01*
X43700Y32600D02*
X43701Y32601D01*
X73701Y166256D02*
Y173894D01*
X76007Y176200D02*
X81200D01*
X73701Y173894D02*
X76007Y176200D01*
X194500Y302400D02*
Y307600D01*
Y302400D02*
X197500Y299400D01*
X207900D01*
X215256Y306756D02*
X220000D01*
X207900Y299400D02*
X215256Y306756D01*
X159199Y290100D02*
X165300D01*
X174500Y280900D01*
D83*
X10000Y241256D02*
D03*
Y231256D02*
D03*
X300000Y45000D02*
D03*
Y65000D02*
D03*
Y85000D02*
D03*
Y95000D02*
D03*
Y105000D02*
D03*
Y75000D02*
D03*
Y55000D02*
D03*
Y35000D02*
D03*
X245000Y166217D02*
D03*
Y186216D02*
D03*
Y176216D02*
D03*
Y156217D02*
D03*
X255000Y151256D02*
D03*
Y181256D02*
D03*
Y171256D02*
D03*
Y161256D02*
D03*
X10000D02*
D03*
Y171256D02*
D03*
Y181256D02*
D03*
Y191256D02*
D03*
D84*
X17040Y25960D02*
D03*
X24000Y28842D02*
D03*
X30960Y25960D02*
D03*
X33843Y19000D02*
D03*
X30960Y12040D02*
D03*
X24000Y9157D02*
D03*
X17040Y12040D02*
D03*
X14157Y19000D02*
D03*
D85*
X24000D02*
D03*
D86*
X300000Y115000D02*
D03*
D87*
X299291Y184819D02*
D03*
Y152654D02*
D03*
Y194819D02*
D03*
Y142654D02*
D03*
D88*
X267992Y199228D02*
D03*
Y138244D02*
D03*
D89*
X280000Y146236D02*
D03*
Y191236D02*
D03*
D90*
X35000Y256256D02*
D03*
D91*
X20000Y276256D02*
D03*
X45000D02*
D03*
D92*
X60000Y111756D02*
D03*
X50000D02*
D03*
D93*
X245827Y282909D02*
D03*
X296614D02*
D03*
X297402Y261256D02*
D03*
X245039D02*
D03*
X271890Y271886D02*
D03*
X261890D02*
D03*
X251890D02*
D03*
X306890Y301886D02*
D03*
Y261886D02*
D03*
X301890Y251886D02*
D03*
X306890Y241886D02*
D03*
X301890Y231886D02*
D03*
X306890Y221886D02*
D03*
X301890Y211886D02*
D03*
X306890Y201886D02*
D03*
Y181886D02*
D03*
X301890Y171886D02*
D03*
X306890Y161886D02*
D03*
Y141886D02*
D03*
X301890Y131886D02*
D03*
X306890Y121886D02*
D03*
Y101886D02*
D03*
Y81886D02*
D03*
Y61886D02*
D03*
Y41886D02*
D03*
Y21886D02*
D03*
X301890Y11886D02*
D03*
X296890Y301886D02*
D03*
X291890Y251886D02*
D03*
X296890Y241886D02*
D03*
Y221886D02*
D03*
X291890Y211886D02*
D03*
X296890Y201886D02*
D03*
X291890Y191886D02*
D03*
Y171886D02*
D03*
X296890Y161886D02*
D03*
X291890Y151886D02*
D03*
X296890Y121886D02*
D03*
X291890Y111886D02*
D03*
Y91886D02*
D03*
X296890Y21886D02*
D03*
X291890Y11886D02*
D03*
X286890Y301886D02*
D03*
X281890Y291886D02*
D03*
X286890Y281886D02*
D03*
X281890Y251886D02*
D03*
X286890Y221886D02*
D03*
X281890Y211886D02*
D03*
X286890Y201886D02*
D03*
Y161886D02*
D03*
X281890Y131886D02*
D03*
X286890Y121886D02*
D03*
Y101886D02*
D03*
X281890Y91886D02*
D03*
X286890Y21886D02*
D03*
X281890Y11886D02*
D03*
X276890Y301886D02*
D03*
X271890Y291886D02*
D03*
X276890Y281886D02*
D03*
Y221886D02*
D03*
X271890Y211886D02*
D03*
X276890Y201886D02*
D03*
Y181886D02*
D03*
X271890Y171886D02*
D03*
X276890Y161886D02*
D03*
X271890Y151886D02*
D03*
Y131886D02*
D03*
Y11886D02*
D03*
X266890Y301886D02*
D03*
X261890Y291886D02*
D03*
X266890Y281886D02*
D03*
Y221886D02*
D03*
X261890Y211886D02*
D03*
Y191886D02*
D03*
X266890Y181886D02*
D03*
X261890Y171886D02*
D03*
Y131886D02*
D03*
X266890Y121886D02*
D03*
Y101886D02*
D03*
X261890Y91886D02*
D03*
Y31886D02*
D03*
X256890Y301886D02*
D03*
X251890Y291886D02*
D03*
X256890Y281886D02*
D03*
X251890Y251886D02*
D03*
X256890Y241886D02*
D03*
Y221886D02*
D03*
X251890Y211886D02*
D03*
X256890Y201886D02*
D03*
X251890Y191886D02*
D03*
X256890Y121886D02*
D03*
X251890Y111886D02*
D03*
Y91886D02*
D03*
Y31886D02*
D03*
X256890Y21886D02*
D03*
X246890Y301886D02*
D03*
X241890Y251886D02*
D03*
X246890Y241886D02*
D03*
X241890Y231886D02*
D03*
Y211886D02*
D03*
X246890Y201886D02*
D03*
X241890Y191886D02*
D03*
X246890Y141886D02*
D03*
Y21886D02*
D03*
X236890Y301886D02*
D03*
Y261886D02*
D03*
X231890Y251886D02*
D03*
X236890Y241886D02*
D03*
X231890Y231886D02*
D03*
X236890Y201886D02*
D03*
X231890Y191886D02*
D03*
Y171886D02*
D03*
X236890Y121886D02*
D03*
X231890Y111886D02*
D03*
X236890Y21886D02*
D03*
X226890Y261886D02*
D03*
Y241886D02*
D03*
Y221886D02*
D03*
X221890Y211886D02*
D03*
Y151886D02*
D03*
X226890Y121886D02*
D03*
X221890Y111886D02*
D03*
X216890Y181886D02*
D03*
X211890Y51886D02*
D03*
X216890Y21886D02*
D03*
X206890Y141886D02*
D03*
Y121886D02*
D03*
Y21886D02*
D03*
X191890Y231886D02*
D03*
X196890Y201886D02*
D03*
Y141886D02*
D03*
X191890Y131886D02*
D03*
Y111886D02*
D03*
Y91886D02*
D03*
X196890Y21886D02*
D03*
X186890Y201886D02*
D03*
X181890Y151886D02*
D03*
X186890Y141886D02*
D03*
X181890Y131886D02*
D03*
X186890Y121886D02*
D03*
X181890Y111886D02*
D03*
X186890Y101886D02*
D03*
X171890Y271886D02*
D03*
X176890Y261886D02*
D03*
Y201886D02*
D03*
Y181886D02*
D03*
X171890Y171886D02*
D03*
X176890Y161886D02*
D03*
X171890Y151886D02*
D03*
X176890Y141886D02*
D03*
X171890Y131886D02*
D03*
X176890Y121886D02*
D03*
X171890Y111886D02*
D03*
X176890Y81886D02*
D03*
X171890Y31886D02*
D03*
X176890Y21886D02*
D03*
X166890Y301886D02*
D03*
X161890Y251886D02*
D03*
X166890Y221886D02*
D03*
Y181886D02*
D03*
X161890Y171886D02*
D03*
X166890Y161886D02*
D03*
X161890Y151886D02*
D03*
X166890Y141886D02*
D03*
X161890Y131886D02*
D03*
X166890Y121886D02*
D03*
X161890Y111886D02*
D03*
X151890Y231886D02*
D03*
X156890Y181886D02*
D03*
X151890Y171886D02*
D03*
X156890Y161886D02*
D03*
X151890Y151886D02*
D03*
X156890Y141886D02*
D03*
X151890Y131886D02*
D03*
X156890Y121886D02*
D03*
X151890Y111886D02*
D03*
Y51886D02*
D03*
X146890Y301886D02*
D03*
X141890Y251886D02*
D03*
X146890Y241886D02*
D03*
X141890Y231886D02*
D03*
Y211886D02*
D03*
X146890Y181886D02*
D03*
X141890Y171886D02*
D03*
X146890Y161886D02*
D03*
X141890Y151886D02*
D03*
X146890Y141886D02*
D03*
X141890Y131886D02*
D03*
X146890Y121886D02*
D03*
X141890Y111886D02*
D03*
X146890Y101886D02*
D03*
X141890Y31886D02*
D03*
X146890Y21886D02*
D03*
X136890Y241886D02*
D03*
X131890Y231886D02*
D03*
X136890Y221886D02*
D03*
X131890Y211886D02*
D03*
X136890Y201886D02*
D03*
Y141886D02*
D03*
X131890Y131886D02*
D03*
X136890Y121886D02*
D03*
X131890Y91886D02*
D03*
X136890Y41886D02*
D03*
X131890Y31886D02*
D03*
X136890Y21886D02*
D03*
X126890Y241886D02*
D03*
X121890Y211886D02*
D03*
Y111886D02*
D03*
X126890Y101886D02*
D03*
Y21886D02*
D03*
X116890Y261886D02*
D03*
X111890Y251886D02*
D03*
X116890Y241886D02*
D03*
X111890Y211886D02*
D03*
X116890Y201886D02*
D03*
X106890Y281886D02*
D03*
Y201886D02*
D03*
X101890Y151886D02*
D03*
X106890Y41886D02*
D03*
Y21886D02*
D03*
X91890Y291886D02*
D03*
Y251886D02*
D03*
X96890Y241886D02*
D03*
X91890Y211886D02*
D03*
X96890Y201886D02*
D03*
X91890Y191886D02*
D03*
Y171886D02*
D03*
Y151886D02*
D03*
X81890Y251886D02*
D03*
Y211886D02*
D03*
Y191886D02*
D03*
X86890Y81886D02*
D03*
X81890Y71886D02*
D03*
Y11886D02*
D03*
X76890Y141886D02*
D03*
X71890Y131886D02*
D03*
Y111886D02*
D03*
Y51886D02*
D03*
X76890Y41886D02*
D03*
X71890Y31886D02*
D03*
Y11886D02*
D03*
X61890Y271886D02*
D03*
Y171886D02*
D03*
X66890Y161886D02*
D03*
Y101886D02*
D03*
Y61886D02*
D03*
X61890Y51886D02*
D03*
X66890Y41886D02*
D03*
X61890Y31886D02*
D03*
X66890Y21886D02*
D03*
X61890Y11886D02*
D03*
X56890Y241886D02*
D03*
X51890Y191886D02*
D03*
Y171886D02*
D03*
X56890Y161886D02*
D03*
X51890Y131886D02*
D03*
X56890Y121886D02*
D03*
X51890Y31886D02*
D03*
X56890Y21886D02*
D03*
X51890Y11886D02*
D03*
X41890Y171886D02*
D03*
X46890Y141886D02*
D03*
X41890Y111886D02*
D03*
X46890Y81886D02*
D03*
Y61886D02*
D03*
X41890Y51886D02*
D03*
X46890Y21886D02*
D03*
X41890Y11886D02*
D03*
X36890Y301886D02*
D03*
X31890Y291886D02*
D03*
X36890Y281886D02*
D03*
X31890Y271886D02*
D03*
X36890Y241886D02*
D03*
X31890Y211886D02*
D03*
Y151886D02*
D03*
X36890Y141886D02*
D03*
X31890Y131886D02*
D03*
X36890Y101886D02*
D03*
Y61886D02*
D03*
X31890Y51886D02*
D03*
Y31886D02*
D03*
X26890Y301886D02*
D03*
X21890Y291886D02*
D03*
Y251886D02*
D03*
X26890Y241886D02*
D03*
Y141886D02*
D03*
X21890Y131886D02*
D03*
X26890Y101886D02*
D03*
X21890Y91886D02*
D03*
X26890Y81886D02*
D03*
X21890Y71886D02*
D03*
Y51886D02*
D03*
X16890Y301886D02*
D03*
X11890Y291886D02*
D03*
Y271886D02*
D03*
X16890Y261886D02*
D03*
X11890Y251886D02*
D03*
Y211886D02*
D03*
X16890Y181886D02*
D03*
Y161886D02*
D03*
X11890Y151886D02*
D03*
X16890Y141886D02*
D03*
X11890Y111886D02*
D03*
X16890Y101886D02*
D03*
X11890Y91886D02*
D03*
X16890Y81886D02*
D03*
X11890Y71886D02*
D03*
Y51886D02*
D03*
X16890Y41886D02*
D03*
X11890Y31886D02*
D03*
X211417Y149114D02*
D03*
X53100Y214900D02*
D03*
Y209500D02*
D03*
X132100Y100800D02*
D03*
X220000Y97100D02*
D03*
X224400D02*
D03*
X211000Y201500D02*
D03*
X78500Y122800D02*
D03*
X32600Y159200D02*
D03*
Y172500D02*
D03*
X86200Y255600D02*
D03*
X71800Y271500D02*
D03*
X208200Y209600D02*
D03*
X285000Y275000D02*
D03*
X219900Y273700D02*
D03*
X217600Y224400D02*
D03*
X209700Y272900D02*
D03*
X139500Y276800D02*
D03*
X73100Y309000D02*
D03*
X80500D02*
D03*
X80400Y283000D02*
D03*
Y288750D02*
D03*
Y294500D02*
D03*
X41600Y188700D02*
D03*
X68800Y192000D02*
D03*
X72700Y197600D02*
D03*
X46800Y214900D02*
D03*
Y209500D02*
D03*
X41000D02*
D03*
Y214900D02*
D03*
X59500Y209500D02*
D03*
Y214900D02*
D03*
X228200Y21356D02*
D03*
X209000Y180500D02*
D03*
X199000D02*
D03*
X190000D02*
D03*
X278600Y33000D02*
D03*
X280800Y24800D02*
D03*
X158000Y42100D02*
D03*
X157900Y51000D02*
D03*
X232100Y48500D02*
D03*
X43700Y32600D02*
D03*
X73100Y96600D02*
D03*
X78100Y100700D02*
D03*
X124294Y96156D02*
D03*
X282900Y47400D02*
D03*
X109800Y189900D02*
D03*
X81200Y176200D02*
D03*
X46593Y76256D02*
D03*
X24500Y149663D02*
D03*
X85000Y129663D02*
D03*
X157108Y206256D02*
D03*
X280000Y233364D02*
D03*
X172538Y101700D02*
D03*
X116500Y17600D02*
D03*
X79000D02*
D03*
X194500Y307600D02*
D03*
X185100D02*
D03*
X203399Y306799D02*
D03*
X174500Y280900D02*
D03*
X74300Y242200D02*
D03*
X76400Y252600D02*
D03*
X210800Y231400D02*
D03*
Y244500D02*
D03*
Y250800D02*
D03*
Y237900D02*
D03*
X202700Y250800D02*
D03*
X201260Y232260D02*
D03*
X108400Y262400D02*
D03*
X101700Y269600D02*
D03*
X106200Y296200D02*
D03*
Y302300D02*
D03*
X99300D02*
D03*
X55118Y289300D02*
D03*
Y281300D02*
D03*
X62600Y289300D02*
D03*
X73000Y294500D02*
D03*
X232000Y58500D02*
D03*
X150100Y266000D02*
D03*
X146400Y260800D02*
D03*
X145100Y291200D02*
D03*
X103300Y144700D02*
D03*
X97200D02*
D03*
X109400D02*
D03*
X97115Y18021D02*
D03*
X115200Y38400D02*
D03*
X79600Y38300D02*
D03*
X113000Y221500D02*
D03*
Y231400D02*
D03*
X257500Y251800D02*
D03*
X156446Y18245D02*
D03*
X280385Y110955D02*
D03*
Y57955D02*
D03*
X152854Y91800D02*
D03*
X152654Y102300D02*
D03*
X70855Y151301D02*
D03*
X101500Y262500D02*
D03*
X203200Y155300D02*
D03*
X196750D02*
D03*
X190300D02*
D03*
X163656Y189001D02*
D03*
X148746Y223511D02*
D03*
X197200Y287200D02*
D03*
X187900Y287300D02*
D03*
X49800Y262400D02*
D03*
X50000Y251850D02*
D03*
Y241300D02*
D03*
X52965Y166301D02*
D03*
X40045Y134145D02*
D03*
X10655Y128755D02*
D03*
X10200Y64800D02*
D03*
X26300Y41200D02*
D03*
X40300Y56600D02*
D03*
X27500Y220100D02*
D03*
X27300Y230600D02*
D03*
X24500Y190500D02*
D03*
X138600Y255600D02*
D03*
D94*
X125787Y198130D02*
D03*
X191929Y61221D02*
D03*
X191831Y56102D02*
D03*
X287800Y230800D02*
D03*
X267800D02*
D03*
X166300Y34400D02*
D03*
X235300Y101800D02*
D03*
X238600Y34700D02*
D03*
X176200Y66100D02*
D03*
X138300Y59500D02*
D03*
X153200Y75647D02*
D03*
X145200Y72300D02*
D03*
X168700Y81400D02*
D03*
X227500Y297400D02*
D03*
X203756Y292600D02*
D03*
X102700Y168800D02*
D03*
X102800Y159100D02*
D03*
X144500Y176600D02*
D03*
X88200Y66400D02*
D03*
X108100Y83300D02*
D03*
X94200Y45100D02*
D03*
X105400Y75700D02*
D03*
Y69800D02*
D03*
X159500Y58400D02*
D03*
X108000Y66900D02*
D03*
X55200Y41200D02*
D03*
X61800Y56100D02*
D03*
X64900Y75800D02*
D03*
X101900Y88300D02*
D03*
X96900Y111800D02*
D03*
X94000Y84600D02*
D03*
X81200Y160300D02*
D03*
X198100Y241300D02*
D03*
X177300Y235200D02*
D03*
D111*
X170236Y235000D02*
D03*
X160000D02*
D03*
D112*
X157108Y206256D02*
X160000Y209148D01*
Y235000D01*
M02*
