G04*
G04 #@! TF.GenerationSoftware,Altium Limited,Altium Designer,24.1.2 (44)*
G04*
G04 Layer_Color=8421504*
%FSLAX25Y25*%
%MOIN*%
G70*
G04*
G04 #@! TF.SameCoordinates,0B90AA95-9CA7-41F6-A5B3-E5D1BD17CD36*
G04*
G04*
G04 #@! TF.FilePolarity,Positive*
G04*
G01*
G75*
%ADD18O,0.08000X0.02400*%
%ADD19O,0.08661X0.02362*%
%ADD20R,0.05709X0.02362*%
%ADD21R,0.08661X0.01968*%
G04:AMPARAMS|DCode=22|XSize=51.18mil|YSize=39.37mil|CornerRadius=1.97mil|HoleSize=0mil|Usage=FLASHONLY|Rotation=0.000|XOffset=0mil|YOffset=0mil|HoleType=Round|Shape=RoundedRectangle|*
%AMROUNDEDRECTD22*
21,1,0.05118,0.03543,0,0,0.0*
21,1,0.04724,0.03937,0,0,0.0*
1,1,0.00394,0.02362,-0.01772*
1,1,0.00394,-0.02362,-0.01772*
1,1,0.00394,-0.02362,0.01772*
1,1,0.00394,0.02362,0.01772*
%
%ADD22ROUNDEDRECTD22*%
%ADD23O,0.08268X0.01181*%
G04:AMPARAMS|DCode=24|XSize=59.06mil|YSize=49.21mil|CornerRadius=2.46mil|HoleSize=0mil|Usage=FLASHONLY|Rotation=270.000|XOffset=0mil|YOffset=0mil|HoleType=Round|Shape=RoundedRectangle|*
%AMROUNDEDRECTD24*
21,1,0.05906,0.04429,0,0,270.0*
21,1,0.05413,0.04921,0,0,270.0*
1,1,0.00492,-0.02215,-0.02707*
1,1,0.00492,-0.02215,0.02707*
1,1,0.00492,0.02215,0.02707*
1,1,0.00492,0.02215,-0.02707*
%
%ADD24ROUNDEDRECTD24*%
G04:AMPARAMS|DCode=25|XSize=51.18mil|YSize=39.37mil|CornerRadius=1.97mil|HoleSize=0mil|Usage=FLASHONLY|Rotation=270.000|XOffset=0mil|YOffset=0mil|HoleType=Round|Shape=RoundedRectangle|*
%AMROUNDEDRECTD25*
21,1,0.05118,0.03543,0,0,270.0*
21,1,0.04724,0.03937,0,0,270.0*
1,1,0.00394,-0.01772,-0.02362*
1,1,0.00394,-0.01772,0.02362*
1,1,0.00394,0.01772,0.02362*
1,1,0.00394,0.01772,-0.02362*
%
%ADD25ROUNDEDRECTD25*%
%ADD26R,0.04724X0.03150*%
%ADD27R,0.03000X0.07000*%
%ADD28R,0.10315X0.13819*%
%ADD29R,0.06299X0.02402*%
%ADD30R,0.02362X0.05709*%
%ADD31R,0.09449X0.12205*%
%ADD32O,0.02362X0.08661*%
G04:AMPARAMS|DCode=33|XSize=138.58mil|YSize=204.72mil|CornerRadius=34.65mil|HoleSize=0mil|Usage=FLASHONLY|Rotation=180.000|XOffset=0mil|YOffset=0mil|HoleType=Round|Shape=RoundedRectangle|*
%AMROUNDEDRECTD33*
21,1,0.13858,0.13543,0,0,180.0*
21,1,0.06929,0.20472,0,0,180.0*
1,1,0.06929,-0.03465,0.06772*
1,1,0.06929,0.03465,0.06772*
1,1,0.06929,0.03465,-0.06772*
1,1,0.06929,-0.03465,-0.06772*
%
%ADD33ROUNDEDRECTD33*%
G04:AMPARAMS|DCode=34|XSize=39.37mil|YSize=39.37mil|CornerRadius=1.97mil|HoleSize=0mil|Usage=FLASHONLY|Rotation=0.000|XOffset=0mil|YOffset=0mil|HoleType=Round|Shape=RoundedRectangle|*
%AMROUNDEDRECTD34*
21,1,0.03937,0.03543,0,0,0.0*
21,1,0.03543,0.03937,0,0,0.0*
1,1,0.00394,0.01772,-0.01772*
1,1,0.00394,-0.01772,-0.01772*
1,1,0.00394,-0.01772,0.01772*
1,1,0.00394,0.01772,0.01772*
%
%ADD34ROUNDEDRECTD34*%
%ADD35R,0.16142X0.24410*%
%ADD36R,0.04724X0.12598*%
%ADD37O,0.01181X0.08268*%
G04:AMPARAMS|DCode=38|XSize=39.37mil|YSize=98.43mil|CornerRadius=1.97mil|HoleSize=0mil|Usage=FLASHONLY|Rotation=180.000|XOffset=0mil|YOffset=0mil|HoleType=Round|Shape=RoundedRectangle|*
%AMROUNDEDRECTD38*
21,1,0.03937,0.09449,0,0,180.0*
21,1,0.03543,0.09843,0,0,180.0*
1,1,0.00394,-0.01772,0.04724*
1,1,0.00394,0.01772,0.04724*
1,1,0.00394,0.01772,-0.04724*
1,1,0.00394,-0.01772,-0.04724*
%
%ADD38ROUNDEDRECTD38*%
%ADD39R,0.08465X0.21654*%
G04:AMPARAMS|DCode=40|XSize=104.33mil|YSize=68.9mil|CornerRadius=17.22mil|HoleSize=0mil|Usage=FLASHONLY|Rotation=0.000|XOffset=0mil|YOffset=0mil|HoleType=Round|Shape=RoundedRectangle|*
%AMROUNDEDRECTD40*
21,1,0.10433,0.03445,0,0,0.0*
21,1,0.06988,0.06890,0,0,0.0*
1,1,0.03445,0.03494,-0.01722*
1,1,0.03445,-0.03494,-0.01722*
1,1,0.03445,-0.03494,0.01722*
1,1,0.03445,0.03494,0.01722*
%
%ADD40ROUNDEDRECTD40*%
G04:AMPARAMS|DCode=41|XSize=59.06mil|YSize=49.21mil|CornerRadius=2.46mil|HoleSize=0mil|Usage=FLASHONLY|Rotation=180.000|XOffset=0mil|YOffset=0mil|HoleType=Round|Shape=RoundedRectangle|*
%AMROUNDEDRECTD41*
21,1,0.05906,0.04429,0,0,180.0*
21,1,0.05413,0.04921,0,0,180.0*
1,1,0.00492,-0.02707,0.02215*
1,1,0.00492,0.02707,0.02215*
1,1,0.00492,0.02707,-0.02215*
1,1,0.00492,-0.02707,-0.02215*
%
%ADD41ROUNDEDRECTD41*%
G04:AMPARAMS|DCode=42|XSize=70.87mil|YSize=48.42mil|CornerRadius=4.84mil|HoleSize=0mil|Usage=FLASHONLY|Rotation=180.000|XOffset=0mil|YOffset=0mil|HoleType=Round|Shape=RoundedRectangle|*
%AMROUNDEDRECTD42*
21,1,0.07087,0.03874,0,0,180.0*
21,1,0.06118,0.04842,0,0,180.0*
1,1,0.00969,-0.03059,0.01937*
1,1,0.00969,0.03059,0.01937*
1,1,0.00969,0.03059,-0.01937*
1,1,0.00969,-0.03059,-0.01937*
%
%ADD42ROUNDEDRECTD42*%
G36*
X62874Y148173D02*
X47126D01*
Y156047D01*
X62874D01*
Y148173D01*
D02*
G37*
D18*
X185000Y91256D02*
D03*
Y86256D02*
D03*
Y81256D02*
D03*
Y76256D02*
D03*
Y71256D02*
D03*
Y66256D02*
D03*
Y61256D02*
D03*
Y56256D02*
D03*
Y51256D02*
D03*
Y46256D02*
D03*
Y41256D02*
D03*
Y36256D02*
D03*
Y31256D02*
D03*
Y26256D02*
D03*
X223000D02*
D03*
Y31256D02*
D03*
Y36256D02*
D03*
Y41256D02*
D03*
Y46256D02*
D03*
Y51256D02*
D03*
Y56256D02*
D03*
Y61256D02*
D03*
Y66256D02*
D03*
Y71256D02*
D03*
Y76256D02*
D03*
Y81256D02*
D03*
Y86256D02*
D03*
Y91256D02*
D03*
D19*
X115000Y185000D02*
D03*
Y180000D02*
D03*
Y175000D02*
D03*
Y170000D02*
D03*
Y165000D02*
D03*
Y160000D02*
D03*
Y155000D02*
D03*
Y150000D02*
D03*
X133898Y185000D02*
D03*
Y180000D02*
D03*
Y175000D02*
D03*
Y170000D02*
D03*
Y165000D02*
D03*
Y160000D02*
D03*
Y155000D02*
D03*
Y150000D02*
D03*
X73898Y221256D02*
D03*
Y226256D02*
D03*
Y231256D02*
D03*
Y236256D02*
D03*
X55000Y221256D02*
D03*
Y226256D02*
D03*
Y231256D02*
D03*
Y236256D02*
D03*
D20*
X59374Y205588D02*
D03*
Y198107D02*
D03*
X68626Y201848D02*
D03*
D21*
X137638Y296256D02*
D03*
X115000D02*
D03*
Y291256D02*
D03*
Y286256D02*
D03*
Y281256D02*
D03*
X137638D02*
D03*
Y286256D02*
D03*
Y291256D02*
D03*
D22*
X220000Y290856D02*
D03*
Y284557D02*
D03*
X243100Y87799D02*
D03*
Y81500D02*
D03*
X185000Y301256D02*
D03*
Y294957D02*
D03*
X280000Y239957D02*
D03*
Y246256D02*
D03*
X290000Y239957D02*
D03*
Y246256D02*
D03*
X233500Y93799D02*
D03*
Y87500D02*
D03*
X270000Y239957D02*
D03*
Y246256D02*
D03*
X97159Y25276D02*
D03*
Y31575D02*
D03*
X40000Y86256D02*
D03*
Y92555D02*
D03*
X102100Y130750D02*
D03*
Y137050D02*
D03*
X24500Y176256D02*
D03*
Y182555D02*
D03*
Y156256D02*
D03*
Y162555D02*
D03*
X125000Y263701D02*
D03*
Y270000D02*
D03*
X100000Y288701D02*
D03*
Y295000D02*
D03*
X210000Y306799D02*
D03*
Y300500D02*
D03*
X135000Y270000D02*
D03*
Y263701D02*
D03*
X195000Y301256D02*
D03*
Y294957D02*
D03*
D23*
X119095Y91256D02*
D03*
X75000D02*
D03*
Y89287D02*
D03*
Y87319D02*
D03*
Y85350D02*
D03*
Y83382D02*
D03*
Y81413D02*
D03*
Y79445D02*
D03*
Y77476D02*
D03*
Y75508D02*
D03*
Y73539D02*
D03*
Y71571D02*
D03*
Y69602D02*
D03*
Y67634D02*
D03*
Y65665D02*
D03*
Y63697D02*
D03*
Y61728D02*
D03*
X119095D02*
D03*
Y63697D02*
D03*
Y65665D02*
D03*
Y67634D02*
D03*
Y69602D02*
D03*
Y71571D02*
D03*
Y73539D02*
D03*
Y75508D02*
D03*
Y77476D02*
D03*
Y79445D02*
D03*
Y81413D02*
D03*
Y83382D02*
D03*
Y85350D02*
D03*
Y87319D02*
D03*
Y89287D02*
D03*
D24*
X266240Y111000D02*
D03*
X273130D02*
D03*
X266240Y58000D02*
D03*
X273130D02*
D03*
X214055Y191000D02*
D03*
X220945D02*
D03*
X85000Y151256D02*
D03*
X78110D02*
D03*
X210055Y157400D02*
D03*
X216945D02*
D03*
X55000Y56256D02*
D03*
X48110D02*
D03*
X65000Y251256D02*
D03*
X58110D02*
D03*
X10110Y57500D02*
D03*
X17000D02*
D03*
X10610Y121500D02*
D03*
X17500D02*
D03*
X159055Y101700D02*
D03*
X165945D02*
D03*
X91890Y136256D02*
D03*
X85000D02*
D03*
X170000Y216256D02*
D03*
X163110D02*
D03*
X191890Y241256D02*
D03*
X185000D02*
D03*
D25*
X163701Y41756D02*
D03*
X170000D02*
D03*
X163701Y18200D02*
D03*
X170000D02*
D03*
X40000Y220000D02*
D03*
X33701D02*
D03*
X91299Y221256D02*
D03*
X85000D02*
D03*
X91299Y231256D02*
D03*
X85000D02*
D03*
X182901Y173056D02*
D03*
X189200D02*
D03*
X33701Y231256D02*
D03*
X40000D02*
D03*
X268701Y25000D02*
D03*
X275000D02*
D03*
X155000Y216256D02*
D03*
X148701D02*
D03*
X211350Y216000D02*
D03*
X217650D02*
D03*
X170000Y196256D02*
D03*
X163701D02*
D03*
Y206256D02*
D03*
X170000D02*
D03*
X185000Y251256D02*
D03*
X191299D02*
D03*
X108701Y270000D02*
D03*
X115000D02*
D03*
X101299Y280000D02*
D03*
X95000D02*
D03*
X189200Y163056D02*
D03*
X182901D02*
D03*
X106299Y221256D02*
D03*
X100000D02*
D03*
X106299Y231256D02*
D03*
X100000D02*
D03*
X125000Y254500D02*
D03*
X131299D02*
D03*
X126299Y306256D02*
D03*
X120000D02*
D03*
X170000Y51256D02*
D03*
X163701D02*
D03*
D26*
X87779Y166256D02*
D03*
X60220D02*
D03*
X32441Y41256D02*
D03*
X60000D02*
D03*
D27*
X25000Y63056D02*
D03*
Y116256D02*
D03*
X256600Y111256D02*
D03*
Y58056D02*
D03*
D28*
X190630Y218756D02*
D03*
D29*
X201260Y226256D02*
D03*
Y221256D02*
D03*
Y216256D02*
D03*
Y211256D02*
D03*
X180000D02*
D03*
Y216256D02*
D03*
Y221256D02*
D03*
Y226256D02*
D03*
D30*
X90000Y271256D02*
D03*
X93740Y262004D02*
D03*
X86260D02*
D03*
X266260Y35748D02*
D03*
X273740D02*
D03*
X270000Y45000D02*
D03*
D31*
X126319Y288756D02*
D03*
D32*
X60000Y262358D02*
D03*
X65000D02*
D03*
X70000D02*
D03*
X75000D02*
D03*
X60000Y281256D02*
D03*
X65000D02*
D03*
X70000D02*
D03*
X75000D02*
D03*
D33*
X160000Y271256D02*
D03*
X193898D02*
D03*
D34*
X55000Y151126D02*
D03*
D35*
X240512Y282909D02*
D03*
X301929D02*
D03*
D36*
X285000Y261256D02*
D03*
X275157D02*
D03*
X267284D02*
D03*
X257441D02*
D03*
D37*
X82284Y54445D02*
D03*
X84252D02*
D03*
X86221D02*
D03*
X88189D02*
D03*
X90158D02*
D03*
X92126D02*
D03*
X94095D02*
D03*
X96063D02*
D03*
X98032D02*
D03*
X100000D02*
D03*
X101969D02*
D03*
X103937D02*
D03*
X105905D02*
D03*
X107874D02*
D03*
X109843D02*
D03*
X111811D02*
D03*
Y98539D02*
D03*
X109843D02*
D03*
X107874D02*
D03*
X105905D02*
D03*
X103937D02*
D03*
X101969D02*
D03*
X100000D02*
D03*
X98032D02*
D03*
X96063D02*
D03*
X94095D02*
D03*
X92126D02*
D03*
X90158D02*
D03*
X88189D02*
D03*
X86221D02*
D03*
X84252D02*
D03*
X82284D02*
D03*
D38*
X209785Y170500D02*
D03*
X220415D02*
D03*
D39*
X159500Y296256D02*
D03*
X174657D02*
D03*
D40*
X76929Y301256D02*
D03*
X60000D02*
D03*
X70000Y185000D02*
D03*
X53071D02*
D03*
D41*
X199200Y166166D02*
D03*
Y173056D02*
D03*
X40000Y126890D02*
D03*
Y120000D02*
D03*
X116500Y24193D02*
D03*
Y31083D02*
D03*
X70000Y126890D02*
D03*
Y120000D02*
D03*
X79000Y24193D02*
D03*
Y31083D02*
D03*
X40000Y76256D02*
D03*
Y69366D02*
D03*
D42*
X170000Y91256D02*
D03*
X159685D02*
D03*
M02*
