G04*
G04 #@! TF.GenerationSoftware,Altium Limited,Altium Designer,24.1.2 (44)*
G04*
G04 Layer_Color=32896*
%FSLAX25Y25*%
%MOIN*%
G70*
G04*
G04 #@! TF.SameCoordinates,07A00EC3-4A37-4249-9402-1084735040C8*
G04*
G04*
G04 #@! TF.FilePolarity,Positive*
G04*
G01*
G75*
%ADD11C,0.00600*%
%ADD65C,0.01200*%
%ADD80C,0.01000*%
D11*
X33568Y25234D02*
X32901Y25901D01*
Y27234D01*
X33568Y27900D01*
X36233D01*
X36900Y27234D01*
Y25901D01*
X36233Y25234D01*
X34901D01*
Y26567D01*
X36900Y23901D02*
X32901D01*
X36900Y21236D01*
X32901D01*
Y19903D02*
X36900D01*
Y17903D01*
X36233Y17237D01*
X33568D01*
X32901Y17903D01*
Y19903D01*
X42901Y27900D02*
Y26567D01*
Y27234D01*
X46900D01*
Y27900D01*
Y26567D01*
X42901Y22568D02*
Y23901D01*
X43568Y24568D01*
X46233D01*
X46900Y23901D01*
Y22568D01*
X46233Y21902D01*
X43568D01*
X42901Y22568D01*
X46900Y18570D02*
X42901D01*
X44901Y20569D01*
Y17903D01*
X42901Y16570D02*
Y13905D01*
X43568D01*
X46233Y16570D01*
X46900D01*
X52901Y27900D02*
Y26567D01*
Y27234D01*
X56900D01*
Y27900D01*
Y26567D01*
X52901Y22568D02*
Y23901D01*
X53568Y24568D01*
X56234D01*
X56900Y23901D01*
Y22568D01*
X56234Y21902D01*
X53568D01*
X52901Y22568D01*
X56900Y18570D02*
X52901D01*
X54901Y20569D01*
Y17903D01*
X53568Y16570D02*
X52901Y15904D01*
Y14571D01*
X53568Y13905D01*
X54234D01*
X54901Y14571D01*
X55567Y13905D01*
X56234D01*
X56900Y14571D01*
Y15904D01*
X56234Y16570D01*
X55567D01*
X54901Y15904D01*
X54234Y16570D01*
X53568D01*
X54901Y15904D02*
Y14571D01*
X62901Y27900D02*
X66234D01*
X66900Y27234D01*
Y25901D01*
X66234Y25234D01*
X62901D01*
X63568Y21236D02*
X62901Y21902D01*
Y23235D01*
X63568Y23901D01*
X64234D01*
X64901Y23235D01*
Y21902D01*
X65567Y21236D01*
X66234D01*
X66900Y21902D01*
Y23235D01*
X66234Y23901D01*
X62901Y19903D02*
X66900D01*
Y17903D01*
X66234Y17237D01*
X65567D01*
X64901Y17903D01*
Y19903D01*
Y17903D01*
X64234Y17237D01*
X63568D01*
X62901Y17903D01*
Y19903D01*
X64901Y15904D02*
Y13238D01*
X72901Y27900D02*
X76234D01*
X76900Y27234D01*
Y25901D01*
X76234Y25234D01*
X72901D01*
X73568Y21236D02*
X72901Y21902D01*
Y23235D01*
X73568Y23901D01*
X74234D01*
X74901Y23235D01*
Y21902D01*
X75567Y21236D01*
X76234D01*
X76900Y21902D01*
Y23235D01*
X76234Y23901D01*
X72901Y19903D02*
X76900D01*
Y17903D01*
X76234Y17237D01*
X75567D01*
X74901Y17903D01*
Y19903D01*
Y17903D01*
X74234Y17237D01*
X73568D01*
X72901Y17903D01*
Y19903D01*
X74901Y15904D02*
Y13238D01*
X73568Y14571D02*
X76234D01*
X82901Y27900D02*
Y26567D01*
Y27234D01*
X86900D01*
Y27900D01*
Y26567D01*
X82901Y22568D02*
Y23901D01*
X83568Y24568D01*
X86234D01*
X86900Y23901D01*
Y22568D01*
X86234Y21902D01*
X83568D01*
X82901Y22568D01*
X86900Y17903D02*
Y20569D01*
X84234Y17903D01*
X83568D01*
X82901Y18570D01*
Y19903D01*
X83568Y20569D01*
X86900Y16570D02*
Y15237D01*
Y15904D01*
X82901D01*
X83568Y16570D01*
X92901Y27900D02*
Y26567D01*
Y27234D01*
X96900D01*
Y27900D01*
Y26567D01*
X92901Y22568D02*
Y23901D01*
X93568Y24568D01*
X96233D01*
X96900Y23901D01*
Y22568D01*
X96233Y21902D01*
X93568D01*
X92901Y22568D01*
X96900Y17903D02*
Y20569D01*
X94234Y17903D01*
X93568D01*
X92901Y18570D01*
Y19903D01*
X93568Y20569D01*
X92901Y13905D02*
X93568Y15237D01*
X94901Y16570D01*
X96233D01*
X96900Y15904D01*
Y14571D01*
X96233Y13905D01*
X95567D01*
X94901Y14571D01*
Y16570D01*
X102901Y27900D02*
Y26567D01*
Y27234D01*
X106900D01*
Y27900D01*
Y26567D01*
X102901Y22568D02*
Y23901D01*
X103568Y24568D01*
X106234D01*
X106900Y23901D01*
Y22568D01*
X106234Y21902D01*
X103568D01*
X102901Y22568D01*
X103568Y20569D02*
X102901Y19903D01*
Y18570D01*
X103568Y17903D01*
X104234D01*
X104901Y18570D01*
Y19236D01*
Y18570D01*
X105567Y17903D01*
X106234D01*
X106900Y18570D01*
Y19903D01*
X106234Y20569D01*
X103568Y16570D02*
X102901Y15904D01*
Y14571D01*
X103568Y13905D01*
X104234D01*
X104901Y14571D01*
Y15237D01*
Y14571D01*
X105567Y13905D01*
X106234D01*
X106900Y14571D01*
Y15904D01*
X106234Y16570D01*
X112901Y27900D02*
Y26567D01*
Y27234D01*
X116900D01*
Y27900D01*
Y26567D01*
X112901Y22568D02*
Y23901D01*
X113568Y24568D01*
X116234D01*
X116900Y23901D01*
Y22568D01*
X116234Y21902D01*
X113568D01*
X112901Y22568D01*
X113568Y20569D02*
X112901Y19903D01*
Y18570D01*
X113568Y17903D01*
X114234D01*
X114901Y18570D01*
Y19236D01*
Y18570D01*
X115567Y17903D01*
X116234D01*
X116900Y18570D01*
Y19903D01*
X116234Y20569D01*
X116900Y14571D02*
X112901D01*
X114901Y16570D01*
Y13905D01*
X122901Y27900D02*
Y26567D01*
Y27234D01*
X126900D01*
Y27900D01*
Y26567D01*
X122901Y22568D02*
Y23901D01*
X123568Y24568D01*
X126233D01*
X126900Y23901D01*
Y22568D01*
X126233Y21902D01*
X123568D01*
X122901Y22568D01*
X123568Y20569D02*
X122901Y19903D01*
Y18570D01*
X123568Y17903D01*
X124234D01*
X124901Y18570D01*
Y19236D01*
Y18570D01*
X125567Y17903D01*
X126233D01*
X126900Y18570D01*
Y19903D01*
X126233Y20569D01*
X122901Y13905D02*
Y16570D01*
X124901D01*
X124234Y15237D01*
Y14571D01*
X124901Y13905D01*
X126233D01*
X126900Y14571D01*
Y15904D01*
X126233Y16570D01*
X132901Y27900D02*
Y26567D01*
Y27234D01*
X136900D01*
Y27900D01*
Y26567D01*
X132901Y22568D02*
Y23901D01*
X133568Y24568D01*
X136233D01*
X136900Y23901D01*
Y22568D01*
X136233Y21902D01*
X133568D01*
X132901Y22568D01*
X133568Y20569D02*
X132901Y19903D01*
Y18570D01*
X133568Y17903D01*
X134234D01*
X134901Y18570D01*
Y19236D01*
Y18570D01*
X135567Y17903D01*
X136233D01*
X136900Y18570D01*
Y19903D01*
X136233Y20569D01*
X132901Y13905D02*
X133568Y15237D01*
X134901Y16570D01*
X136233D01*
X136900Y15904D01*
Y14571D01*
X136233Y13905D01*
X135567D01*
X134901Y14571D01*
Y16570D01*
X142901Y27900D02*
Y26567D01*
Y27234D01*
X146900D01*
Y27900D01*
Y26567D01*
X142901Y22568D02*
Y23901D01*
X143568Y24568D01*
X146233D01*
X146900Y23901D01*
Y22568D01*
X146233Y21902D01*
X143568D01*
X142901Y22568D01*
X143568Y20569D02*
X142901Y19903D01*
Y18570D01*
X143568Y17903D01*
X144234D01*
X144901Y18570D01*
Y19236D01*
Y18570D01*
X145567Y17903D01*
X146233D01*
X146900Y18570D01*
Y19903D01*
X146233Y20569D01*
X142901Y16570D02*
Y13905D01*
X143568D01*
X146233Y16570D01*
X146900D01*
X152901Y27900D02*
Y26567D01*
Y27234D01*
X156900D01*
Y27900D01*
Y26567D01*
X152901Y22568D02*
Y23901D01*
X153568Y24568D01*
X156234D01*
X156900Y23901D01*
Y22568D01*
X156234Y21902D01*
X153568D01*
X152901Y22568D01*
X153568Y20569D02*
X152901Y19903D01*
Y18570D01*
X153568Y17903D01*
X154234D01*
X154901Y18570D01*
Y19236D01*
Y18570D01*
X155567Y17903D01*
X156234D01*
X156900Y18570D01*
Y19903D01*
X156234Y20569D01*
X153568Y16570D02*
X152901Y15904D01*
Y14571D01*
X153568Y13905D01*
X154234D01*
X154901Y14571D01*
X155567Y13905D01*
X156234D01*
X156900Y14571D01*
Y15904D01*
X156234Y16570D01*
X155567D01*
X154901Y15904D01*
X154234Y16570D01*
X153568D01*
X154901Y15904D02*
Y14571D01*
X162901Y27900D02*
Y26567D01*
Y27234D01*
X166900D01*
Y27900D01*
Y26567D01*
X162901Y22568D02*
Y23901D01*
X163568Y24568D01*
X166234D01*
X166900Y23901D01*
Y22568D01*
X166234Y21902D01*
X163568D01*
X162901Y22568D01*
X163568Y20569D02*
X162901Y19903D01*
Y18570D01*
X163568Y17903D01*
X164234D01*
X164901Y18570D01*
Y19236D01*
Y18570D01*
X165567Y17903D01*
X166234D01*
X166900Y18570D01*
Y19903D01*
X166234Y20569D01*
Y16570D02*
X166900Y15904D01*
Y14571D01*
X166234Y13905D01*
X163568D01*
X162901Y14571D01*
Y15904D01*
X163568Y16570D01*
X164234D01*
X164901Y15904D01*
Y13905D01*
X172901Y27900D02*
Y26567D01*
Y27234D01*
X176900D01*
Y27900D01*
Y26567D01*
X172901Y22568D02*
Y23901D01*
X173568Y24568D01*
X176233D01*
X176900Y23901D01*
Y22568D01*
X176233Y21902D01*
X173568D01*
X172901Y22568D01*
X176900Y18570D02*
X172901D01*
X174901Y20569D01*
Y17903D01*
X173568Y16570D02*
X172901Y15904D01*
Y14571D01*
X173568Y13905D01*
X176233D01*
X176900Y14571D01*
Y15904D01*
X176233Y16570D01*
X173568D01*
X182901Y27900D02*
Y26567D01*
Y27234D01*
X186900D01*
Y27900D01*
Y26567D01*
X182901Y22568D02*
Y23901D01*
X183568Y24568D01*
X186233D01*
X186900Y23901D01*
Y22568D01*
X186233Y21902D01*
X183568D01*
X182901Y22568D01*
X186900Y18570D02*
X182901D01*
X184901Y20569D01*
Y17903D01*
X186900Y16570D02*
Y15237D01*
Y15904D01*
X182901D01*
X183568Y16570D01*
X192901Y27900D02*
Y26567D01*
Y27234D01*
X196900D01*
Y27900D01*
Y26567D01*
X192901Y22568D02*
Y23901D01*
X193568Y24568D01*
X196233D01*
X196900Y23901D01*
Y22568D01*
X196233Y21902D01*
X193568D01*
X192901Y22568D01*
X196900Y18570D02*
X192901D01*
X194901Y20569D01*
Y17903D01*
X196900Y13905D02*
Y16570D01*
X194234Y13905D01*
X193568D01*
X192901Y14571D01*
Y15904D01*
X193568Y16570D01*
X203208Y28188D02*
Y25523D01*
Y26855D01*
X207206D01*
X203208Y24190D02*
X207206Y21524D01*
X203208D02*
X207206Y24190D01*
X203208Y20191D02*
X207206D01*
Y18192D01*
X206540Y17525D01*
X203874D01*
X203208Y18192D01*
Y20191D01*
X216575Y28289D02*
X212576D01*
Y26290D01*
X213243Y25623D01*
X214575D01*
X215242Y26290D01*
Y28289D01*
Y26956D02*
X216575Y25623D01*
X212576Y24291D02*
X216575Y21625D01*
X212576D02*
X216575Y24291D01*
X212576Y20292D02*
X216575D01*
Y18292D01*
X215908Y17626D01*
X213243D01*
X212576Y18292D01*
Y20292D01*
X222901Y27900D02*
Y26567D01*
Y27234D01*
X226900D01*
Y27900D01*
Y26567D01*
X222901Y22568D02*
Y23901D01*
X223568Y24568D01*
X226234D01*
X226900Y23901D01*
Y22568D01*
X226234Y21902D01*
X223568D01*
X222901Y22568D01*
X226900Y18570D02*
X222901D01*
X224901Y20569D01*
Y17903D01*
X222901Y13905D02*
Y16570D01*
X224901D01*
X224234Y15237D01*
Y14571D01*
X224901Y13905D01*
X226234D01*
X226900Y14571D01*
Y15904D01*
X226234Y16570D01*
X263568Y27900D02*
X262901Y27234D01*
Y25901D01*
X263568Y25234D01*
X264234D01*
X264901Y25901D01*
Y26567D01*
Y25901D01*
X265567Y25234D01*
X266234D01*
X266900Y25901D01*
Y27234D01*
X266234Y27900D01*
X262901Y23901D02*
X265567D01*
X266900Y22568D01*
X265567Y21236D01*
X262901D01*
X263568Y19903D02*
X262901Y19236D01*
Y17903D01*
X263568Y17237D01*
X264234D01*
X264901Y17903D01*
Y18570D01*
Y17903D01*
X265567Y17237D01*
X266234D01*
X266900Y17903D01*
Y19236D01*
X266234Y19903D01*
X253568Y25234D02*
X252901Y25901D01*
Y27234D01*
X253568Y27900D01*
X256234D01*
X256900Y27234D01*
Y25901D01*
X256234Y25234D01*
X254901D01*
Y26567D01*
X256900Y23901D02*
X252901D01*
X256900Y21236D01*
X252901D01*
Y19903D02*
X256900D01*
Y17903D01*
X256234Y17237D01*
X253568D01*
X252901Y17903D01*
Y19903D01*
X242901Y25234D02*
Y27900D01*
X246900D01*
Y25234D01*
X244901Y27900D02*
Y26567D01*
X246900Y23901D02*
X242901D01*
X246900Y21236D01*
X242901D01*
X232901Y27900D02*
Y26567D01*
Y27234D01*
X236900D01*
Y27900D01*
Y26567D01*
X232901Y22568D02*
Y23901D01*
X233568Y24568D01*
X236234D01*
X236900Y23901D01*
Y22568D01*
X236234Y21902D01*
X233568D01*
X232901Y22568D01*
X236900Y18570D02*
X232901D01*
X234901Y20569D01*
Y17903D01*
X232901Y13905D02*
X233568Y15237D01*
X234901Y16570D01*
X236234D01*
X236900Y15904D01*
Y14571D01*
X236234Y13905D01*
X235567D01*
X234901Y14571D01*
Y16570D01*
X36900Y80735D02*
X32901D01*
X36900Y78070D01*
X32901D01*
X33568Y74071D02*
X32901Y74737D01*
Y76070D01*
X33568Y76737D01*
X36234D01*
X36900Y76070D01*
Y74737D01*
X36234Y74071D01*
X43568Y82068D02*
X42901Y82735D01*
Y84068D01*
X43568Y84734D01*
X46234D01*
X46900Y84068D01*
Y82735D01*
X46234Y82068D01*
X44901D01*
Y83401D01*
X46900Y80735D02*
X42901D01*
X46900Y78070D01*
X42901D01*
Y76737D02*
X46900D01*
Y74737D01*
X46234Y74071D01*
X43568D01*
X42901Y74737D01*
Y76737D01*
X52901Y78070D02*
Y80735D01*
X54901D01*
X54234Y79403D01*
Y78736D01*
X54901Y78070D01*
X56234D01*
X56900Y78736D01*
Y80069D01*
X56234Y80735D01*
X52901Y76737D02*
X55567D01*
X56900Y75404D01*
X55567Y74071D01*
X52901D01*
X253568Y84734D02*
X252901Y84068D01*
Y82735D01*
X253568Y82068D01*
X254234D01*
X254901Y82735D01*
Y83401D01*
Y82735D01*
X255567Y82068D01*
X256234D01*
X256900Y82735D01*
Y84068D01*
X256234Y84734D01*
X252901Y80735D02*
X255567D01*
X256900Y79403D01*
X255567Y78070D01*
X252901D01*
X253568Y76737D02*
X252901Y76070D01*
Y74737D01*
X253568Y74071D01*
X254234D01*
X254901Y74737D01*
Y75404D01*
Y74737D01*
X255567Y74071D01*
X256234D01*
X256900Y74737D01*
Y76070D01*
X256234Y76737D01*
X263568Y82068D02*
X262901Y82735D01*
Y84068D01*
X263568Y84734D01*
X266234D01*
X266900Y84068D01*
Y82735D01*
X266234Y82068D01*
X264901D01*
Y83401D01*
X266900Y80735D02*
X262901D01*
X266900Y78070D01*
X262901D01*
Y76737D02*
X266900D01*
Y74737D01*
X266234Y74071D01*
X263568D01*
X262901Y74737D01*
Y76737D01*
X242901Y84068D02*
Y82735D01*
Y83401D01*
X246900D01*
Y84068D01*
Y82735D01*
X242901Y78736D02*
Y80069D01*
X243568Y80735D01*
X246234D01*
X246900Y80069D01*
Y78736D01*
X246234Y78070D01*
X243568D01*
X242901Y78736D01*
X243568Y76737D02*
X242901Y76070D01*
Y74737D01*
X243568Y74071D01*
X246234D01*
X246900Y74737D01*
Y76070D01*
X246234Y76737D01*
X243568D01*
X232901Y82735D02*
Y81402D01*
Y82068D01*
X236900D01*
Y82735D01*
Y81402D01*
X232901Y77403D02*
Y78736D01*
X233568Y79403D01*
X236234D01*
X236900Y78736D01*
Y77403D01*
X236234Y76737D01*
X233568D01*
X232901Y77403D01*
X236900Y75404D02*
Y74071D01*
Y74737D01*
X232901D01*
X233568Y75404D01*
X222901Y84068D02*
Y82735D01*
Y83401D01*
X226900D01*
Y84068D01*
Y82735D01*
X222901Y78736D02*
Y80069D01*
X223568Y80735D01*
X226234D01*
X226900Y80069D01*
Y78736D01*
X226234Y78070D01*
X223568D01*
X222901Y78736D01*
X226900Y74071D02*
Y76737D01*
X224234Y74071D01*
X223568D01*
X222901Y74737D01*
Y76070D01*
X223568Y76737D01*
X212901Y84068D02*
Y82735D01*
Y83401D01*
X216900D01*
Y84068D01*
Y82735D01*
X212901Y78736D02*
Y80069D01*
X213568Y80735D01*
X216234D01*
X216900Y80069D01*
Y78736D01*
X216234Y78070D01*
X213568D01*
X212901Y78736D01*
X213568Y76737D02*
X212901Y76070D01*
Y74737D01*
X213568Y74071D01*
X214234D01*
X214901Y74737D01*
Y75404D01*
Y74737D01*
X215567Y74071D01*
X216234D01*
X216900Y74737D01*
Y76070D01*
X216234Y76737D01*
X202901Y84068D02*
Y82735D01*
Y83401D01*
X206900D01*
Y84068D01*
Y82735D01*
X202901Y78736D02*
Y80069D01*
X203568Y80735D01*
X206234D01*
X206900Y80069D01*
Y78736D01*
X206234Y78070D01*
X203568D01*
X202901Y78736D01*
X206900Y74737D02*
X202901D01*
X204901Y76737D01*
Y74071D01*
X112901Y87400D02*
Y86067D01*
Y86734D01*
X116900D01*
Y87400D01*
Y86067D01*
X112901Y82068D02*
Y83401D01*
X113568Y84068D01*
X116234D01*
X116900Y83401D01*
Y82068D01*
X116234Y81402D01*
X113568D01*
X112901Y82068D01*
X116900Y80069D02*
Y78736D01*
Y79403D01*
X112901D01*
X113568Y80069D01*
Y76737D02*
X112901Y76070D01*
Y74737D01*
X113568Y74071D01*
X114234D01*
X114901Y74737D01*
Y75404D01*
Y74737D01*
X115567Y74071D01*
X116234D01*
X116900Y74737D01*
Y76070D01*
X116234Y76737D01*
X152901Y84068D02*
Y82735D01*
Y83401D01*
X156900D01*
Y84068D01*
Y82735D01*
X152901Y78736D02*
Y80069D01*
X153568Y80735D01*
X156234D01*
X156900Y80069D01*
Y78736D01*
X156234Y78070D01*
X153568D01*
X152901Y78736D01*
X156234Y76737D02*
X156900Y76070D01*
Y74737D01*
X156234Y74071D01*
X153568D01*
X152901Y74737D01*
Y76070D01*
X153568Y76737D01*
X154234D01*
X154901Y76070D01*
Y74071D01*
X142901Y87400D02*
Y86067D01*
Y86734D01*
X146900D01*
Y87400D01*
Y86067D01*
X142901Y82068D02*
Y83401D01*
X143568Y84068D01*
X146233D01*
X146900Y83401D01*
Y82068D01*
X146233Y81402D01*
X143568D01*
X142901Y82068D01*
X146900Y80069D02*
Y78736D01*
Y79403D01*
X142901D01*
X143568Y80069D01*
Y76737D02*
X142901Y76070D01*
Y74737D01*
X143568Y74071D01*
X146233D01*
X146900Y74737D01*
Y76070D01*
X146233Y76737D01*
X143568D01*
X122901Y87400D02*
Y86067D01*
Y86734D01*
X126900D01*
Y87400D01*
Y86067D01*
X122901Y82068D02*
Y83401D01*
X123568Y84068D01*
X126233D01*
X126900Y83401D01*
Y82068D01*
X126233Y81402D01*
X123568D01*
X122901Y82068D01*
X126900Y80069D02*
Y78736D01*
Y79403D01*
X122901D01*
X123568Y80069D01*
X126900Y74071D02*
Y76737D01*
X124234Y74071D01*
X123568D01*
X122901Y74737D01*
Y76070D01*
X123568Y76737D01*
X132901Y86067D02*
Y84734D01*
Y85401D01*
X136900D01*
Y86067D01*
Y84734D01*
X132901Y80735D02*
Y82068D01*
X133568Y82735D01*
X136233D01*
X136900Y82068D01*
Y80735D01*
X136233Y80069D01*
X133568D01*
X132901Y80735D01*
X136900Y78736D02*
Y77403D01*
Y78070D01*
X132901D01*
X133568Y78736D01*
X136900Y75404D02*
Y74071D01*
Y74737D01*
X132901D01*
X133568Y75404D01*
X172901Y84068D02*
Y82735D01*
Y83401D01*
X176900D01*
Y84068D01*
Y82735D01*
X172901Y78736D02*
Y80069D01*
X173568Y80735D01*
X176233D01*
X176900Y80069D01*
Y78736D01*
X176233Y78070D01*
X173568D01*
X172901Y78736D01*
Y76737D02*
Y74071D01*
X173568D01*
X176233Y76737D01*
X176900D01*
X162901Y84068D02*
Y82735D01*
Y83401D01*
X166900D01*
Y84068D01*
Y82735D01*
X162901Y78736D02*
Y80069D01*
X163568Y80735D01*
X166234D01*
X166900Y80069D01*
Y78736D01*
X166234Y78070D01*
X163568D01*
X162901Y78736D01*
X163568Y76737D02*
X162901Y76070D01*
Y74737D01*
X163568Y74071D01*
X164234D01*
X164901Y74737D01*
X165567Y74071D01*
X166234D01*
X166900Y74737D01*
Y76070D01*
X166234Y76737D01*
X165567D01*
X164901Y76070D01*
X164234Y76737D01*
X163568D01*
X164901Y76070D02*
Y74737D01*
X182901Y84068D02*
Y82735D01*
Y83401D01*
X186900D01*
Y84068D01*
Y82735D01*
X182901Y78736D02*
Y80069D01*
X183568Y80735D01*
X186233D01*
X186900Y80069D01*
Y78736D01*
X186233Y78070D01*
X183568D01*
X182901Y78736D01*
Y74071D02*
X183568Y75404D01*
X184901Y76737D01*
X186233D01*
X186900Y76070D01*
Y74737D01*
X186233Y74071D01*
X185567D01*
X184901Y74737D01*
Y76737D01*
X192901Y84068D02*
Y82735D01*
Y83401D01*
X196900D01*
Y84068D01*
Y82735D01*
X192901Y78736D02*
Y80069D01*
X193568Y80735D01*
X196233D01*
X196900Y80069D01*
Y78736D01*
X196233Y78070D01*
X193568D01*
X192901Y78736D01*
Y74071D02*
Y76737D01*
X194901D01*
X194234Y75404D01*
Y74737D01*
X194901Y74071D01*
X196233D01*
X196900Y74737D01*
Y76070D01*
X196233Y76737D01*
X102901Y87400D02*
Y86067D01*
Y86734D01*
X106900D01*
Y87400D01*
Y86067D01*
X102901Y82068D02*
Y83401D01*
X103568Y84068D01*
X106234D01*
X106900Y83401D01*
Y82068D01*
X106234Y81402D01*
X103568D01*
X102901Y82068D01*
X106900Y80069D02*
Y78736D01*
Y79403D01*
X102901D01*
X103568Y80069D01*
X106900Y74737D02*
X102901D01*
X104901Y76737D01*
Y74071D01*
X92901Y87400D02*
Y86067D01*
Y86734D01*
X96900D01*
Y87400D01*
Y86067D01*
X92901Y82068D02*
Y83401D01*
X93568Y84068D01*
X96234D01*
X96900Y83401D01*
Y82068D01*
X96234Y81402D01*
X93568D01*
X92901Y82068D01*
X96900Y80069D02*
Y78736D01*
Y79403D01*
X92901D01*
X93568Y80069D01*
X92901Y74071D02*
Y76737D01*
X94901D01*
X94234Y75404D01*
Y74737D01*
X94901Y74071D01*
X96234D01*
X96900Y74737D01*
Y76070D01*
X96234Y76737D01*
X82901Y87400D02*
Y86067D01*
Y86734D01*
X86900D01*
Y87400D01*
Y86067D01*
X82901Y82068D02*
Y83401D01*
X83568Y84068D01*
X86234D01*
X86900Y83401D01*
Y82068D01*
X86234Y81402D01*
X83568D01*
X82901Y82068D01*
X86900Y80069D02*
Y78736D01*
Y79403D01*
X82901D01*
X83568Y80069D01*
X82901Y74071D02*
X83568Y75404D01*
X84901Y76737D01*
X86234D01*
X86900Y76070D01*
Y74737D01*
X86234Y74071D01*
X85567D01*
X84901Y74737D01*
Y76737D01*
X72901Y87400D02*
Y86067D01*
Y86734D01*
X76900D01*
Y87400D01*
Y86067D01*
X72901Y82068D02*
Y83401D01*
X73568Y84068D01*
X76234D01*
X76900Y83401D01*
Y82068D01*
X76234Y81402D01*
X73568D01*
X72901Y82068D01*
X76900Y80069D02*
Y78736D01*
Y79403D01*
X72901D01*
X73568Y80069D01*
X72901Y76737D02*
Y74071D01*
X73568D01*
X76234Y76737D01*
X76900D01*
X62901Y87400D02*
Y86067D01*
Y86734D01*
X66900D01*
Y87400D01*
Y86067D01*
X62901Y82068D02*
Y83401D01*
X63568Y84068D01*
X66234D01*
X66900Y83401D01*
Y82068D01*
X66234Y81402D01*
X63568D01*
X62901Y82068D01*
X66900Y80069D02*
Y78736D01*
Y79403D01*
X62901D01*
X63568Y80069D01*
Y76737D02*
X62901Y76070D01*
Y74737D01*
X63568Y74071D01*
X64234D01*
X64901Y74737D01*
X65567Y74071D01*
X66234D01*
X66900Y74737D01*
Y76070D01*
X66234Y76737D01*
X65567D01*
X64901Y76070D01*
X64234Y76737D01*
X63568D01*
X64901Y76070D02*
Y74737D01*
X262700Y-3400D02*
Y-2067D01*
Y-2733D01*
X266699D01*
X266032Y-3400D01*
X263752Y102791D02*
Y104124D01*
Y103457D01*
X267751D01*
X267084Y102791D01*
D65*
X213800Y55198D02*
Y48200D01*
X210301D01*
X209135Y49366D01*
Y54031D01*
X210301Y55198D01*
X213800D01*
X206802Y52865D02*
Y49366D01*
X205636Y48200D01*
X202137D01*
Y52865D01*
X195139D02*
X198638D01*
X199804Y51699D01*
Y49366D01*
X198638Y48200D01*
X195139D01*
X185809D02*
Y52865D01*
X183476Y55198D01*
X181144Y52865D01*
Y48200D01*
Y51699D01*
X185809D01*
X178811Y48200D02*
Y52865D01*
X175312D01*
X174146Y51699D01*
Y48200D01*
X171814Y55198D02*
Y48200D01*
Y51699D01*
X170647Y52865D01*
X168315D01*
X167148Y51699D01*
Y48200D01*
D80*
X270000Y0D02*
Y10000D01*
X30000D02*
X270000D01*
X30000Y0D02*
Y10000D01*
Y0D02*
X270000D01*
Y90000D02*
Y100000D01*
X30000D02*
X270000D01*
X30000Y90000D02*
Y100000D01*
Y90000D02*
X270000D01*
M02*
