G04*
G04 #@! TF.GenerationSoftware,Altium Limited,Altium Designer,24.1.2 (44)*
G04*
G04 Layer_Physical_Order=1*
G04 Layer_Color=255*
%FSLAX25Y25*%
%MOIN*%
G70*
G04*
G04 #@! TF.SameCoordinates,07A00EC3-4A37-4249-9402-1084735040C8*
G04*
G04*
G04 #@! TF.FilePolarity,Positive*
G04*
G01*
G75*
%ADD11C,0.00600*%
%ADD16R,0.02362X0.02126*%
G04:AMPARAMS|DCode=17|XSize=23.62mil|YSize=21.26mil|CornerRadius=5.63mil|HoleSize=0mil|Usage=FLASHONLY|Rotation=270.000|XOffset=0mil|YOffset=0mil|HoleType=Round|Shape=RoundedRectangle|*
%AMROUNDEDRECTD17*
21,1,0.02362,0.00999,0,0,270.0*
21,1,0.01235,0.02126,0,0,270.0*
1,1,0.01127,-0.00500,-0.00618*
1,1,0.01127,-0.00500,0.00618*
1,1,0.01127,0.00500,0.00618*
1,1,0.01127,0.00500,-0.00618*
%
%ADD17ROUNDEDRECTD17*%
%ADD18R,0.01378X0.02362*%
%ADD19R,0.02126X0.02362*%
%ADD20R,0.02362X0.01378*%
G04:AMPARAMS|DCode=21|XSize=23.62mil|YSize=21.26mil|CornerRadius=5.63mil|HoleSize=0mil|Usage=FLASHONLY|Rotation=180.000|XOffset=0mil|YOffset=0mil|HoleType=Round|Shape=RoundedRectangle|*
%AMROUNDEDRECTD21*
21,1,0.02362,0.00999,0,0,180.0*
21,1,0.01235,0.02126,0,0,180.0*
1,1,0.01127,-0.00618,0.00500*
1,1,0.01127,0.00618,0.00500*
1,1,0.01127,0.00618,-0.00500*
1,1,0.01127,-0.00618,-0.00500*
%
%ADD21ROUNDEDRECTD21*%
%ADD22R,0.05343X0.02253*%
G04:AMPARAMS|DCode=23|XSize=53.43mil|YSize=22.53mil|CornerRadius=11.26mil|HoleSize=0mil|Usage=FLASHONLY|Rotation=0.000|XOffset=0mil|YOffset=0mil|HoleType=Round|Shape=RoundedRectangle|*
%AMROUNDEDRECTD23*
21,1,0.05343,0.00000,0,0,0.0*
21,1,0.03091,0.02253,0,0,0.0*
1,1,0.02253,0.01545,0.00000*
1,1,0.02253,-0.01545,0.00000*
1,1,0.02253,-0.01545,0.00000*
1,1,0.02253,0.01545,0.00000*
%
%ADD23ROUNDEDRECTD23*%
%ADD24R,0.02756X0.02362*%
%ADD25R,0.06102X0.05118*%
%ADD26R,0.04528X0.01181*%
%ADD27R,0.04528X0.02362*%
G04:AMPARAMS|DCode=28|XSize=9.55mil|YSize=33.06mil|CornerRadius=4.77mil|HoleSize=0mil|Usage=FLASHONLY|Rotation=270.000|XOffset=0mil|YOffset=0mil|HoleType=Round|Shape=RoundedRectangle|*
%AMROUNDEDRECTD28*
21,1,0.00955,0.02351,0,0,270.0*
21,1,0.00000,0.03306,0,0,270.0*
1,1,0.00955,-0.01176,0.00000*
1,1,0.00955,-0.01176,0.00000*
1,1,0.00955,0.01176,0.00000*
1,1,0.00955,0.01176,0.00000*
%
%ADD28ROUNDEDRECTD28*%
G04:AMPARAMS|DCode=29|XSize=33.06mil|YSize=9.55mil|CornerRadius=4.77mil|HoleSize=0mil|Usage=FLASHONLY|Rotation=270.000|XOffset=0mil|YOffset=0mil|HoleType=Round|Shape=RoundedRectangle|*
%AMROUNDEDRECTD29*
21,1,0.03306,0.00000,0,0,270.0*
21,1,0.02351,0.00955,0,0,270.0*
1,1,0.00955,0.00000,-0.01176*
1,1,0.00955,0.00000,0.01176*
1,1,0.00955,0.00000,0.01176*
1,1,0.00955,0.00000,-0.01176*
%
%ADD29ROUNDEDRECTD29*%
%ADD30R,0.00955X0.03306*%
G04:AMPARAMS|DCode=31|XSize=125.98mil|YSize=68.9mil|CornerRadius=2.07mil|HoleSize=0mil|Usage=FLASHONLY|Rotation=90.000|XOffset=0mil|YOffset=0mil|HoleType=Round|Shape=RoundedRectangle|*
%AMROUNDEDRECTD31*
21,1,0.12598,0.06476,0,0,90.0*
21,1,0.12185,0.06890,0,0,90.0*
1,1,0.00413,0.03238,0.06093*
1,1,0.00413,0.03238,-0.06093*
1,1,0.00413,-0.03238,-0.06093*
1,1,0.00413,-0.03238,0.06093*
%
%ADD31ROUNDEDRECTD31*%
G04:AMPARAMS|DCode=32|XSize=35.43mil|YSize=68.9mil|CornerRadius=1.95mil|HoleSize=0mil|Usage=FLASHONLY|Rotation=90.000|XOffset=0mil|YOffset=0mil|HoleType=Round|Shape=RoundedRectangle|*
%AMROUNDEDRECTD32*
21,1,0.03543,0.06500,0,0,90.0*
21,1,0.03154,0.06890,0,0,90.0*
1,1,0.00390,0.03250,0.01577*
1,1,0.00390,0.03250,-0.01577*
1,1,0.00390,-0.03250,-0.01577*
1,1,0.00390,-0.03250,0.01577*
%
%ADD32ROUNDEDRECTD32*%
%ADD33R,0.04724X0.04724*%
%ADD34R,0.03150X0.01575*%
%ADD35R,0.01575X0.03150*%
%ADD36R,0.03150X0.03150*%
%ADD44R,0.08071X0.08071*%
G04:AMPARAMS|DCode=53|XSize=39.37mil|YSize=70.87mil|CornerRadius=19.68mil|HoleSize=0mil|Usage=FLASHONLY|Rotation=270.000|XOffset=0mil|YOffset=0mil|HoleType=Round|Shape=RoundedRectangle|*
%AMROUNDEDRECTD53*
21,1,0.03937,0.03150,0,0,270.0*
21,1,0.00000,0.07087,0,0,270.0*
1,1,0.03937,-0.01575,0.00000*
1,1,0.03937,-0.01575,0.00000*
1,1,0.03937,0.01575,0.00000*
1,1,0.03937,0.01575,0.00000*
%
%ADD53ROUNDEDRECTD53*%
G04:AMPARAMS|DCode=54|XSize=39.37mil|YSize=86.61mil|CornerRadius=19.68mil|HoleSize=0mil|Usage=FLASHONLY|Rotation=270.000|XOffset=0mil|YOffset=0mil|HoleType=Round|Shape=RoundedRectangle|*
%AMROUNDEDRECTD54*
21,1,0.03937,0.04724,0,0,270.0*
21,1,0.00000,0.08661,0,0,270.0*
1,1,0.03937,-0.02362,0.00000*
1,1,0.03937,-0.02362,0.00000*
1,1,0.03937,0.02362,0.00000*
1,1,0.03937,0.02362,0.00000*
%
%ADD54ROUNDEDRECTD54*%
%ADD58C,0.00600*%
%ADD59R,0.01575X0.01575*%
%ADD60C,0.04000*%
%ADD61C,0.01500*%
%ADD62C,0.02000*%
%ADD63C,0.01001*%
%ADD64C,0.00603*%
%ADD65C,0.01200*%
%ADD66C,0.06400*%
%ADD67R,0.06400X0.06400*%
%ADD68R,0.04000X0.04000*%
%ADD69C,0.04000*%
%ADD70R,0.04000X0.04000*%
%ADD71C,0.02400*%
G36*
X254600Y89500D02*
Y86121D01*
X254599Y86118D01*
Y84882D01*
X254600Y84879D01*
Y84600D01*
X254100Y84100D01*
X247500D01*
X246975Y84625D01*
Y89500D01*
X247475Y90000D01*
X254100D01*
X254600Y89500D01*
D02*
G37*
G36*
X88800Y78200D02*
X86900D01*
X83900Y80400D01*
X82424D01*
X81932Y80498D01*
X81439Y80400D01*
X80700D01*
Y83708D01*
X83600Y85400D01*
X88800D01*
Y78200D01*
D02*
G37*
G36*
X61000Y71100D02*
X61800Y70300D01*
X63600D01*
X64200Y69700D01*
Y68241D01*
X62300Y66600D01*
X55400D01*
X55400Y58900D01*
X56000Y58300D01*
X61100D01*
Y56000D01*
X55500D01*
X53500Y58000D01*
X53500Y68000D01*
Y69000D01*
X59380Y73900D01*
X61000D01*
Y71100D01*
D02*
G37*
G36*
X40900Y63200D02*
X42600D01*
Y53020D01*
X36000D01*
X35901Y53000D01*
X34500D01*
Y66700D01*
X37400D01*
X40900Y63200D01*
D02*
G37*
G36*
X252000Y37500D02*
X227200D01*
Y62500D01*
X252000D01*
Y37500D01*
D02*
G37*
G36*
X57000Y40000D02*
X69500D01*
Y36000D01*
X62500D01*
X62000Y36500D01*
X52600D01*
X41100Y48000D01*
X36000D01*
X35300Y48700D01*
Y51300D01*
X36000Y52000D01*
X45000D01*
X57000Y40000D01*
D02*
G37*
G36*
X119000Y13600D02*
X86500D01*
Y21200D01*
X84200Y24100D01*
X59500D01*
X58600Y22600D01*
X49400D01*
X48500Y23500D01*
Y34400D01*
X49500Y35400D01*
X58600D01*
X59500Y34500D01*
X78000D01*
X87500Y44000D01*
X97500D01*
X100500Y47000D01*
Y49900D01*
X101500Y50900D01*
X119000D01*
Y13600D01*
D02*
G37*
G36*
X36000Y46980D02*
X39822D01*
X43000Y44100D01*
Y30400D01*
X34800D01*
Y47000D01*
X35901D01*
X36000Y46980D01*
D02*
G37*
G36*
X69500Y17500D02*
X66500Y14500D01*
X49000D01*
X48000Y15500D01*
Y20500D01*
X49000Y21500D01*
X61500D01*
X62500Y22500D01*
X69500D01*
Y17500D01*
D02*
G37*
D11*
X183385Y53589D02*
G03*
X182975Y53195I1515J-1989D01*
G01*
X65000Y60601D02*
Y65400D01*
X64900Y60601D02*
X65000D01*
X59900D02*
X64900D01*
X65000Y65400D02*
X67063Y67463D01*
X143400Y32400D02*
X147808Y27992D01*
X164600D01*
X184800Y38000D02*
X188500D01*
X193500Y33000D01*
X183100Y36300D02*
X184800Y38000D01*
X187100Y35500D02*
X196025Y26575D01*
X211945D01*
X193500Y33000D02*
X201400D01*
X148800Y59700D02*
X152800Y55700D01*
X155800Y59700D02*
X197200Y18300D01*
X152800Y55700D02*
X156500D01*
X196700Y15500D02*
X201799D01*
X156500Y55700D02*
X196700Y15500D01*
X197200Y18300D02*
X210500D01*
X163100Y58300D02*
X168400Y53000D01*
X183586Y53743D02*
X186544Y56700D01*
X168400Y53000D02*
X182780D01*
X182956Y53176D01*
X182956Y53176D02*
X182975Y53195D01*
X183385Y53589D02*
X183586Y53743D01*
X169300Y58300D02*
X206063D01*
X206206Y58213D01*
X208707Y56693D01*
X208956Y56693D02*
X211945D01*
X208707Y56693D02*
X208956Y56693D01*
X67063Y67463D02*
Y69459D01*
X77241D02*
X79700Y67000D01*
X74937Y69459D02*
X77241D01*
X78541Y77000D02*
X78564Y76977D01*
X74937Y84541D02*
X78061D01*
X78900Y85380D01*
X78541Y80937D02*
X82037D01*
X82137Y81000D01*
X79700Y66700D02*
Y67000D01*
X82000Y65600D02*
Y70700D01*
X78541Y73063D02*
X79672D01*
X78541Y75032D02*
X80068D01*
X79672Y73063D02*
X79694Y73040D01*
Y73006D02*
Y73040D01*
X78564Y76977D02*
X81094D01*
X78541Y78969D02*
X81932D01*
X79694Y73006D02*
X82000Y70700D01*
X78900Y85380D02*
Y87400D01*
X109221Y60760D02*
X109800Y61338D01*
Y63317D02*
X114800Y68317D01*
X108758Y60760D02*
X109221D01*
X109800Y61338D02*
Y63317D01*
X100382Y79299D02*
X110601D01*
X114800Y75100D01*
Y68317D02*
Y75100D01*
X188700Y77400D02*
Y83500D01*
X239100Y89100D02*
X245000Y95000D01*
X195700Y89100D02*
X239100D01*
X186900Y85300D02*
X188700Y83500D01*
X174600Y85300D02*
X186900D01*
X82137Y81000D02*
X84529D01*
X80068Y75032D02*
X84300Y70800D01*
X41309Y69409D02*
X42000Y70100D01*
Y72299D01*
X29298Y71102D02*
X30991Y69409D01*
X41309D01*
X24764Y71102D02*
X29298D01*
X27813Y82913D02*
X33400Y88500D01*
X41000D02*
X42000Y87500D01*
X33400Y88500D02*
X41000D01*
X42000Y84701D02*
Y87500D01*
X24764Y82913D02*
X27813D01*
X29382Y15118D02*
X32500Y12000D01*
X24764Y15118D02*
X29382D01*
X32500Y12000D02*
X38583D01*
X40882Y14299D02*
X41000D01*
X38583Y12000D02*
X40882Y14299D01*
X30000Y27500D02*
X30701Y28201D01*
X24764Y26929D02*
X29429D01*
X30000Y27500D01*
X30701Y28201D02*
X41000D01*
X197900Y40100D02*
X206000D01*
X209207Y43307D01*
X208961Y39961D02*
X211945D01*
X200030Y36500D02*
X205500D01*
X208961Y39961D01*
X209207Y43307D02*
X211945D01*
X164550Y27942D02*
X164600Y27992D01*
X164550Y20936D02*
Y27942D01*
X164500Y20886D02*
X164550Y20936D01*
X155650Y19850D02*
X156686Y20886D01*
X164500D01*
X155650Y16142D02*
Y19850D01*
X124843Y16142D02*
X155650D01*
X124350D02*
X124843D01*
X130600Y21899D01*
Y49400D01*
X125000Y55000D02*
X130600Y49400D01*
X116242Y58558D02*
X119800Y55000D01*
X125000D01*
X116242Y58558D02*
Y64500D01*
X175200Y74700D02*
X190917D01*
X193299Y77082D01*
Y77200D01*
X170386Y69886D02*
X175200Y74700D01*
X164500Y69886D02*
X170386D01*
X181300Y72000D02*
X193772D01*
X161000Y69314D02*
X161586Y69900D01*
X160414Y66142D02*
X161000Y66728D01*
Y69314D01*
X161586Y69900D02*
X164486D01*
X155650Y66142D02*
X160414D01*
X124350D02*
X155650D01*
X164486Y69900D02*
X164500Y69886D01*
X121500Y79000D02*
X124350Y76150D01*
Y66142D02*
Y76150D01*
X116242Y79000D02*
X121500D01*
X104698Y68198D02*
X108716D01*
X103800Y62300D02*
Y67300D01*
X104698Y68198D01*
X108716D02*
X108758Y68240D01*
X102799Y61299D02*
X103800Y62300D01*
X100500Y61299D02*
X102799D01*
X102860Y75260D02*
X108758D01*
X100500Y72900D02*
X102860Y75260D01*
X100500Y64701D02*
Y72900D01*
X96100Y66400D02*
Y72000D01*
X94400Y73700D02*
X96100Y72000D01*
X84372Y73700D02*
X94400D01*
X96100Y66400D02*
X97799Y64701D01*
X100500D01*
X81094Y76977D02*
X84372Y73700D01*
X84300Y70800D02*
X91400D01*
X82000Y64100D02*
Y65600D01*
X81932Y78969D02*
X84532Y76368D01*
X97451D01*
X100382Y79299D01*
X108738Y82721D02*
X108758Y82740D01*
X100500Y82701D02*
X100520Y82721D01*
X108738D01*
X251600Y81300D02*
X252890Y80010D01*
X238600Y81300D02*
X251600D01*
X237200Y82700D02*
X238600Y81300D01*
X252890Y77559D02*
Y80010D01*
X196701Y82700D02*
X237200D01*
X196701Y77200D02*
Y82700D01*
X193299Y86699D02*
X195700Y89100D01*
X193299Y82700D02*
Y86699D01*
X186544Y56700D02*
X205400D01*
X208753Y53347D02*
X211945D01*
X205400Y56700D02*
X208753Y53347D01*
X79700Y62700D02*
X82500Y59900D01*
X79700Y62700D02*
Y66700D01*
X82500Y52400D02*
X84200Y50700D01*
X82500Y52400D02*
Y59900D01*
X84200Y50700D02*
X86300D01*
X82000Y64100D02*
X83400Y62700D01*
X86300D01*
Y56700D02*
Y62700D01*
X205000Y10300D02*
X205201Y10501D01*
X205000Y5000D02*
Y10300D01*
X205201Y10501D02*
Y15500D01*
X215000Y5000D02*
Y10100D01*
X214701Y10399D02*
X215000Y10100D01*
X214701Y10399D02*
Y15500D01*
X210500Y18300D02*
X211299Y17501D01*
Y15500D02*
Y17501D01*
X208414Y36614D02*
X211945D01*
X206637Y34837D02*
X208414Y36614D01*
X203237Y34837D02*
X206637D01*
X201400Y33000D02*
X203237Y34837D01*
X172857Y60800D02*
X181200D01*
X181961Y60039D01*
X211945D01*
X176700Y63400D02*
X211931D01*
X176700Y69300D02*
X176900Y69500D01*
X195178D01*
X193772Y72000D02*
X193795Y71978D01*
X206378D01*
X195178Y69500D02*
X195757Y70079D01*
X211945D01*
X181200Y66700D02*
X181300D01*
X181316Y66716D01*
X211929D01*
X211945Y66732D01*
X206378Y71978D02*
X207825Y73425D01*
X211945D01*
X173000Y83700D02*
X174600Y85300D01*
X173000Y81870D02*
Y83700D01*
X177051Y81701D02*
X180000D01*
X173000Y78130D02*
X176348D01*
X176700Y78481D01*
Y81349D01*
X177051Y81701D01*
X173000Y22370D02*
X175830D01*
X176499Y21701D02*
X180000D01*
X175830Y22370D02*
X176499Y21701D01*
X198300Y29700D02*
X200900D01*
X204921Y29921D02*
X211945D01*
X204700Y29700D02*
X204921Y29921D01*
X200900Y29700D02*
X204437Y33237D01*
X211915D01*
X194300Y36500D02*
X197900Y40100D01*
X246100Y9600D02*
X252400Y15900D01*
X235000Y5000D02*
X239600Y9600D01*
X246100D01*
X255565Y15900D02*
X259583Y19917D01*
X252400Y15900D02*
X255565D01*
X259583Y19917D02*
Y22441D01*
X262929Y20129D02*
Y22441D01*
X253300Y14300D02*
X257100D01*
X262929Y20129D01*
X245000Y6000D02*
X253300Y14300D01*
X245000Y5000D02*
Y6000D01*
X239504Y56496D02*
Y61204D01*
X246000Y56496D02*
X250708D01*
X246000Y50000D02*
X250708D01*
X246000Y43504D02*
X250708D01*
X239504Y38796D02*
Y43504D01*
X228300D02*
X233008D01*
X228300Y50000D02*
X233008D01*
X228300Y56496D02*
X233008D01*
X259583Y73210D02*
Y77559D01*
X262714Y73425D02*
X267063D01*
X262714Y70079D02*
X267063D01*
X262714Y66732D02*
X267063D01*
X262714Y63386D02*
X267063D01*
X262714Y60039D02*
X267063D01*
X262714Y56693D02*
X267063D01*
X262714Y53347D02*
X267063D01*
X262714Y50000D02*
X267063D01*
X262714Y46654D02*
X267063D01*
X262714Y43307D02*
X267063D01*
X262714Y39961D02*
X267063D01*
X262714Y36614D02*
X267063D01*
X262714Y33268D02*
X267063D01*
X262714Y29921D02*
X267063D01*
X262714Y26575D02*
X267063D01*
X216079Y22441D02*
Y31997D01*
X246197Y22441D02*
Y26790D01*
X249542Y22443D02*
Y31998D01*
X239504Y22441D02*
Y26790D01*
X242849Y22443D02*
Y31998D01*
X232811Y22441D02*
Y26790D01*
X236156Y22443D02*
Y31998D01*
X226118Y22441D02*
Y26790D01*
X229463Y22443D02*
Y31998D01*
X219425Y22441D02*
Y26790D01*
X222770Y22443D02*
Y31998D01*
X219427Y68002D02*
X219428Y68000D01*
X219425Y77559D02*
X219427Y77557D01*
Y68002D02*
Y77557D01*
X226118Y77559D02*
X226120Y77557D01*
Y68002D02*
Y77557D01*
Y68002D02*
X226121Y68000D01*
X232813Y68002D02*
X232814Y68000D01*
X232811Y77559D02*
X232813Y77557D01*
Y68002D02*
Y77557D01*
X239506Y68002D02*
Y77557D01*
Y68002D02*
X239507Y68000D01*
X239504Y77559D02*
X239506Y77557D01*
X246198Y68002D02*
Y77557D01*
Y68002D02*
X246200Y68000D01*
X246197Y77559D02*
X246198Y77557D01*
X256236Y22441D02*
Y26790D01*
X252890Y22441D02*
Y26790D01*
X216079Y73210D02*
Y77559D01*
X222772Y73210D02*
Y77559D01*
X229465Y73210D02*
Y77559D01*
X236157Y73210D02*
Y77559D01*
X239503Y67996D02*
X239507Y68000D01*
X242850Y73210D02*
Y77559D01*
X249543Y73210D02*
Y77559D01*
D16*
X164600Y31394D02*
D03*
Y27992D02*
D03*
X42000Y84701D02*
D03*
Y81299D02*
D03*
Y75701D02*
D03*
Y72299D02*
D03*
X100500Y79299D02*
D03*
Y82701D02*
D03*
X180000Y81701D02*
D03*
Y78299D02*
D03*
X100500Y64701D02*
D03*
Y61299D02*
D03*
X59900Y57199D02*
D03*
Y60601D02*
D03*
X180000Y21701D02*
D03*
Y18299D02*
D03*
X41000Y17701D02*
D03*
Y14299D02*
D03*
Y24799D02*
D03*
Y28201D02*
D03*
D17*
X91093Y79500D02*
D03*
X87707D02*
D03*
X44886Y62000D02*
D03*
X41500D02*
D03*
X41807Y36000D02*
D03*
X45193D02*
D03*
X54500Y85700D02*
D03*
X51114D02*
D03*
X54500Y67700D02*
D03*
X51114D02*
D03*
X253307Y85500D02*
D03*
X256693D02*
D03*
X248193D02*
D03*
X244807D02*
D03*
X72307Y60500D02*
D03*
X75693D02*
D03*
X261807Y85500D02*
D03*
X265193D02*
D03*
X264693Y14000D02*
D03*
X261307D02*
D03*
X72307Y55500D02*
D03*
X75693D02*
D03*
D18*
X35280Y62000D02*
D03*
X32721D02*
D03*
X32941Y36000D02*
D03*
X35500D02*
D03*
D19*
X196098Y44800D02*
D03*
X199500D02*
D03*
X196098Y51700D02*
D03*
X199499D02*
D03*
X196100D02*
D03*
X192698D02*
D03*
X196100Y44800D02*
D03*
X192698D02*
D03*
X72301Y49000D02*
D03*
X68899D02*
D03*
X53701Y73500D02*
D03*
X50299D02*
D03*
X211299Y15500D02*
D03*
X214701D02*
D03*
X196701Y82700D02*
D03*
X193299D02*
D03*
X86300Y56700D02*
D03*
X89702D02*
D03*
X86300Y62700D02*
D03*
X89702D02*
D03*
X193299Y77200D02*
D03*
X196701D02*
D03*
X205201Y15500D02*
D03*
X201799D02*
D03*
X91001Y84100D02*
D03*
X87599D02*
D03*
X75700Y49000D02*
D03*
X72298D02*
D03*
X86300Y50700D02*
D03*
X89702D02*
D03*
X50299Y78500D02*
D03*
X53701D02*
D03*
D20*
X33600Y23111D02*
D03*
Y25670D02*
D03*
X33500Y72220D02*
D03*
Y74779D02*
D03*
Y83559D02*
D03*
Y81000D02*
D03*
X33600Y15830D02*
D03*
Y18389D02*
D03*
D21*
X64900Y60601D02*
D03*
Y57215D02*
D03*
X164500Y69886D02*
D03*
Y66500D02*
D03*
Y20886D02*
D03*
Y17500D02*
D03*
X57500Y20307D02*
D03*
Y23693D02*
D03*
Y37693D02*
D03*
Y34307D02*
D03*
X52500Y20307D02*
D03*
Y23693D02*
D03*
D22*
X108758Y68240D02*
D03*
Y82740D02*
D03*
D23*
Y60760D02*
D03*
X116242Y64500D02*
D03*
X108758Y75260D02*
D03*
X116242Y79000D02*
D03*
D24*
X173000Y81870D02*
D03*
Y78130D02*
D03*
Y22370D02*
D03*
Y18630D02*
D03*
D25*
X155650Y66142D02*
D03*
X124350D02*
D03*
X155650Y83858D02*
D03*
X124350D02*
D03*
X155650Y16142D02*
D03*
X124350D02*
D03*
X155650Y33858D02*
D03*
X124350D02*
D03*
D26*
X24764Y84882D02*
D03*
Y82913D02*
D03*
Y80945D02*
D03*
Y78976D02*
D03*
Y77008D02*
D03*
Y75039D02*
D03*
Y73071D02*
D03*
Y71102D02*
D03*
Y28898D02*
D03*
Y26929D02*
D03*
Y24961D02*
D03*
Y22992D02*
D03*
Y21024D02*
D03*
Y19055D02*
D03*
Y17087D02*
D03*
Y15118D02*
D03*
D27*
Y68543D02*
D03*
Y87441D02*
D03*
Y90591D02*
D03*
Y65394D02*
D03*
Y12559D02*
D03*
Y31457D02*
D03*
Y34606D02*
D03*
Y9409D02*
D03*
D28*
X78541Y80937D02*
D03*
Y78969D02*
D03*
Y77000D02*
D03*
Y75032D02*
D03*
Y73063D02*
D03*
X63459D02*
D03*
Y75032D02*
D03*
Y77000D02*
D03*
Y78969D02*
D03*
Y80937D02*
D03*
D29*
X74937Y69459D02*
D03*
X72969D02*
D03*
X71000D02*
D03*
X69032D02*
D03*
X67063D02*
D03*
Y84541D02*
D03*
X69032D02*
D03*
X71000D02*
D03*
X72969D02*
D03*
D30*
X74937D02*
D03*
D31*
X90303Y29000D02*
D03*
D32*
X65697Y19945D02*
D03*
Y29000D02*
D03*
Y38055D02*
D03*
D33*
X239504Y56496D02*
D03*
X233008D02*
D03*
Y50000D02*
D03*
Y43504D02*
D03*
X239504D02*
D03*
X246000D02*
D03*
Y50000D02*
D03*
X239504D02*
D03*
D34*
X267063Y73425D02*
D03*
Y70079D02*
D03*
Y66732D02*
D03*
Y63386D02*
D03*
Y60039D02*
D03*
Y56693D02*
D03*
Y53347D02*
D03*
Y50000D02*
D03*
Y46654D02*
D03*
Y43307D02*
D03*
Y39961D02*
D03*
Y36614D02*
D03*
Y33268D02*
D03*
Y29921D02*
D03*
Y26575D02*
D03*
X211945D02*
D03*
Y29921D02*
D03*
Y33268D02*
D03*
Y36614D02*
D03*
Y39961D02*
D03*
Y43307D02*
D03*
Y46654D02*
D03*
Y50000D02*
D03*
Y53347D02*
D03*
Y56693D02*
D03*
Y60039D02*
D03*
Y63386D02*
D03*
Y66732D02*
D03*
Y70079D02*
D03*
Y73425D02*
D03*
D35*
X262929Y22441D02*
D03*
X259583D02*
D03*
X256236D02*
D03*
X252890D02*
D03*
X249543D02*
D03*
X246197D02*
D03*
X242850D02*
D03*
X239504D02*
D03*
X236157D02*
D03*
X232811D02*
D03*
X229465D02*
D03*
X226118D02*
D03*
X222772D02*
D03*
X219425D02*
D03*
X216079D02*
D03*
Y77559D02*
D03*
X219425D02*
D03*
X222772D02*
D03*
X226118D02*
D03*
X229465D02*
D03*
X232811D02*
D03*
X236157D02*
D03*
X239504D02*
D03*
X242850D02*
D03*
X246197D02*
D03*
X249543D02*
D03*
X252890D02*
D03*
X256236D02*
D03*
X259583D02*
D03*
X262929D02*
D03*
D36*
X211945Y22441D02*
D03*
X267063D02*
D03*
X211945Y77559D02*
D03*
X267063D02*
D03*
D44*
X71000Y77000D02*
D03*
D53*
X22500Y60984D02*
D03*
Y95000D02*
D03*
Y5000D02*
D03*
Y39016D02*
D03*
D54*
X6752Y60984D02*
D03*
Y95000D02*
D03*
Y5000D02*
D03*
Y39016D02*
D03*
D58*
X182956Y53176D02*
D03*
D59*
X246000Y56496D02*
D03*
D60*
X140700Y50100D02*
X151000D01*
X164600Y36500D01*
X167443D02*
X176843Y27100D01*
X164600Y36500D02*
X167443D01*
X176843Y27100D02*
X180200D01*
X164600Y36500D02*
X164600D01*
D61*
X64900Y57215D02*
X64957Y57157D01*
X68442D02*
X68500Y57100D01*
X64957Y57157D02*
X68442D01*
X55379Y57199D02*
X59900D01*
X54500Y58078D02*
X55379Y57199D01*
X54500Y58078D02*
Y67700D01*
X82300Y42800D02*
X86100Y46600D01*
X95100D02*
X97300Y48800D01*
X86100Y46600D02*
X95100D01*
X64200Y42800D02*
X82300D01*
X52000Y55000D02*
X64200Y42800D01*
X97300Y48800D02*
Y59200D01*
X89702Y62700D02*
X93800D01*
X97300Y59200D01*
X37500Y50000D02*
X42900D01*
X55207Y37693D02*
X57500D01*
X42900Y50000D02*
X55207Y37693D01*
X37400Y43900D02*
X38600D01*
X54500Y67700D02*
X61457D01*
X62757Y69000D01*
X63000D01*
X59782Y73100D02*
X61200D01*
X53500Y16000D02*
X57500D01*
X49500D02*
X53500D01*
X253307Y82693D02*
Y85500D01*
Y82693D02*
X256199Y79801D01*
Y77596D02*
Y79801D01*
Y77596D02*
X256236Y77559D01*
X180100Y78200D02*
X183500D01*
X180000Y78299D02*
X180100Y78200D01*
X183500D02*
X183600Y78100D01*
X239342Y85500D02*
X244807D01*
X237998Y86600D02*
X238242D01*
X239342Y85500D01*
X84100Y84100D02*
X87599D01*
X84529Y80937D02*
X85885Y79931D01*
X87394Y79931D01*
X87653Y79672D01*
Y84046D01*
Y79554D02*
Y79672D01*
X87599Y84100D02*
X87653Y84046D01*
Y79554D02*
X87707Y79500D01*
X46500Y69800D02*
X48600Y67700D01*
X51114D01*
X62300Y50000D02*
X62543D01*
X63543Y49000D02*
X68899D01*
X62543Y50000D02*
X63543Y49000D01*
X37500Y55000D02*
X52000D01*
X57681Y37874D02*
X65516D01*
X57500Y37693D02*
X57681Y37874D01*
X65516D02*
X65697Y38055D01*
X38390Y62000D02*
X41500D01*
X35280D02*
X38390D01*
X30711Y57811D02*
Y59620D01*
X32659Y61569D01*
X30700Y57800D02*
X30711Y57811D01*
X42000Y81299D02*
X42050Y81350D01*
X45750D01*
X45800Y81400D01*
X24764Y90591D02*
X29591D01*
X29600Y90600D01*
X26337Y64963D02*
X28900Y62400D01*
X24764Y65394D02*
X25195Y64963D01*
X26337D01*
X54500Y67818D02*
X59782Y73100D01*
X42630Y17388D02*
X44628Y15390D01*
Y14372D02*
Y15390D01*
Y14372D02*
X44800Y14200D01*
X41000Y17701D02*
X41313Y17388D01*
X42630D01*
Y25112D02*
X44628Y27110D01*
Y28128D01*
X41000Y24799D02*
X41313Y25112D01*
X42630D01*
X44628Y28128D02*
X44800Y28300D01*
X72307Y55500D02*
Y60500D01*
X72304Y55497D02*
X72307Y55500D01*
X72304Y49003D02*
Y55497D01*
X72301Y49000D02*
X72304Y49003D01*
X38654Y36000D02*
X41807D01*
X35500D02*
X38654D01*
X38600Y43900D02*
X41807Y40693D01*
Y36000D02*
Y40693D01*
X45193Y33307D02*
Y36000D01*
Y33307D02*
X46000Y32500D01*
X57618Y20307D02*
X57980Y19945D01*
X57500Y20307D02*
X57618D01*
X57980Y19945D02*
X65697D01*
X57500Y16000D02*
Y20307D01*
X52500D02*
X57500D01*
X124350Y33858D02*
Y40250D01*
X93957Y84100D02*
X95536Y85680D01*
Y85736D01*
X91001Y84100D02*
X93957D01*
X253300Y88700D02*
X253307Y88693D01*
Y85500D02*
Y88693D01*
X248193D02*
X248200Y88700D01*
X248193Y85500D02*
Y88693D01*
X54500Y85700D02*
Y88900D01*
X55000Y89400D01*
Y95000D01*
X47900Y85700D02*
X51114D01*
X69023Y62644D02*
Y65416D01*
Y62644D02*
X70736Y60931D01*
X71994D01*
X78282Y46300D02*
X79799D01*
X75700Y48882D02*
X78282Y46300D01*
X75700Y48882D02*
Y49000D01*
X77923Y53152D02*
X78752D01*
X75693Y55382D02*
X77923Y53152D01*
X78752D02*
X78800Y53200D01*
X75693Y55382D02*
Y55500D01*
X78700Y58600D02*
X78800Y58500D01*
X75693Y60416D02*
X77509Y58600D01*
X78700D01*
X75693Y60416D02*
Y60500D01*
X264693Y10007D02*
X265000Y9700D01*
Y5000D02*
Y9700D01*
X264693Y10007D02*
Y14000D01*
X261307Y11307D02*
Y13882D01*
X255000Y5000D02*
X261307Y11307D01*
X262650Y82200D02*
X265800D01*
X259500D02*
X262650D01*
X262929Y81921D01*
Y77559D02*
Y81921D01*
X267063Y77559D02*
Y80937D01*
X265800Y82200D02*
X267063Y80937D01*
X256693Y85382D02*
Y85500D01*
Y85382D02*
X259500Y82575D01*
Y82200D02*
Y82575D01*
X265000Y89700D02*
X265193Y89507D01*
Y85500D02*
Y89507D01*
X265000Y89700D02*
Y95000D01*
X255000D02*
X255100D01*
X261807Y85500D02*
Y88293D01*
X255100Y95000D02*
X261807Y88293D01*
D62*
X91030Y79319D02*
X91156Y79445D01*
X164600Y31394D02*
Y36500D01*
X180200Y27100D02*
X184572Y22728D01*
Y19471D02*
Y22728D01*
X183401Y18299D02*
X184572Y19471D01*
X180000Y18299D02*
X183401D01*
X161108Y62000D02*
X161285Y62177D01*
X161000Y62000D02*
X161108D01*
X161285Y62177D02*
X163220D01*
X44886Y62174D02*
X44893Y62181D01*
X44000Y66392D02*
X44893Y65499D01*
X44886Y62000D02*
Y62174D01*
X44000Y66392D02*
Y66500D01*
X44893Y62181D02*
Y65499D01*
X236204Y46700D02*
X239504Y50000D01*
X236100Y46700D02*
X236204D01*
X155600Y33908D02*
X155650Y33858D01*
X155600Y33908D02*
Y39204D01*
X164100Y37000D02*
X164600Y36500D01*
X130571Y83829D02*
X130600Y83800D01*
X124350Y83858D02*
X124380Y83829D01*
X130571D01*
X94757Y79445D02*
X94801Y79401D01*
X91030Y79319D02*
Y79319D01*
X91156Y79445D02*
X94757D01*
X99100Y29000D02*
X102000Y31900D01*
X90303Y29000D02*
X99100D01*
X89702Y50700D02*
X93400D01*
X89702Y56700D02*
X93400D01*
X28354Y68446D02*
X31085Y65715D01*
X36985D02*
X38390Y64310D01*
X31085Y65715D02*
X36985D01*
X38390Y62000D02*
Y64310D01*
X24764Y68543D02*
X24861Y68446D01*
X28354D01*
X19557Y68543D02*
X24764D01*
X38390Y60190D02*
Y62000D01*
X37500Y59300D02*
X38390Y60190D01*
X37500Y55000D02*
Y59300D01*
X18200Y69900D02*
X19557Y68543D01*
X18200Y69900D02*
Y86200D01*
X19441Y87441D01*
X24764D01*
X38654Y33154D02*
Y36000D01*
X36957Y31457D02*
X38654Y33154D01*
X24764Y31457D02*
X36957D01*
X18000Y29500D02*
X19776Y31276D01*
X18000Y14500D02*
X19941Y12559D01*
X18000Y14500D02*
Y29500D01*
X19776Y31276D02*
X24583D01*
X24764Y31457D01*
X19941Y12559D02*
X24764D01*
X29791Y9409D02*
X29800Y9400D01*
X24764Y9409D02*
X29791D01*
X52500Y27892D02*
X53500Y28892D01*
X52500Y23693D02*
Y27892D01*
X53500Y28892D02*
Y29000D01*
X49500D02*
X53500D01*
X57500D01*
Y23693D02*
Y29000D01*
Y34307D01*
Y29000D02*
X65697D01*
X163220Y62177D02*
X164500Y63456D01*
Y66500D01*
X207949Y22441D02*
X211945D01*
X206708Y21200D02*
X207949Y22441D01*
X206600Y21200D02*
X206708D01*
X160558Y83858D02*
X162900Y86200D01*
X155650Y83858D02*
X160558D01*
X207370Y77559D02*
X211945D01*
X204476Y74665D02*
X207370Y77559D01*
X204476Y74555D02*
Y74665D01*
X204400Y74478D02*
X204476Y74555D01*
X161600Y12400D02*
Y14718D01*
X164319Y17437D01*
X168676Y20123D02*
X170170Y18630D01*
X173000D01*
X168676Y20123D02*
Y21423D01*
X168600Y21500D02*
X168676Y21423D01*
X164319Y17437D02*
X164437D01*
X164500Y17500D01*
X267000Y19800D02*
Y22378D01*
X265300Y18100D02*
X267000Y19800D01*
Y22378D02*
X267063Y22441D01*
X265300Y18100D02*
Y18132D01*
D63*
X71898Y65802D02*
X75002D01*
X75100Y65900D01*
X71000Y66700D02*
X71898Y65802D01*
X69032Y65694D02*
Y69459D01*
X71000Y66700D02*
Y69459D01*
X61214Y73086D02*
X63436D01*
X61200Y73100D02*
X61214Y73086D01*
X63436D02*
X63459Y73063D01*
X71000Y84541D02*
Y87600D01*
X69900Y88700D02*
X71000Y87600D01*
D64*
X61068Y75032D02*
X63459D01*
X60802Y75299D02*
X61068Y75032D01*
X60800Y76701D02*
X61098Y77000D01*
X63459D01*
X196098Y44800D02*
Y46798D01*
X196100Y49900D02*
Y51700D01*
X33500Y79700D02*
X35300Y77900D01*
X33472Y80972D02*
X33500Y81000D01*
Y79700D02*
Y81000D01*
X24791Y80972D02*
X29132D01*
X33472D01*
X24764Y80945D02*
X24791Y80972D01*
X29132Y78432D02*
Y80972D01*
X27708Y77008D02*
X29132Y78432D01*
X24764Y77008D02*
X27708D01*
X31700Y77880D02*
X33500Y76079D01*
Y74779D02*
Y76079D01*
X29320Y74779D02*
X33500D01*
X21776Y78976D02*
X24764D01*
X21000Y78200D02*
X21776Y78976D01*
X21000Y75800D02*
Y78200D01*
X24764Y75039D02*
X29061D01*
X29320Y74779D01*
X21000Y75800D02*
X21761Y75039D01*
X24764D01*
X49699Y74100D02*
X50299Y73500D01*
X47100Y74100D02*
X49699D01*
X47100Y77900D02*
X49699D01*
X50299Y78500D01*
X53701Y73618D02*
X55381Y75299D01*
X53701Y78382D02*
X55381Y76701D01*
X60800D01*
X55381Y75299D02*
X60802D01*
X53701Y73500D02*
Y73618D01*
Y78382D02*
Y78500D01*
X28200Y19055D02*
Y22400D01*
X24764Y22992D02*
X27608D01*
X28200Y22400D01*
Y19055D02*
X29445D01*
X24764D02*
X28200D01*
X33489Y18500D02*
X33600Y18389D01*
X30000Y18500D02*
X33489D01*
X29445Y19055D02*
X30000Y18500D01*
X30189Y23111D02*
X33600D01*
X28339Y24961D02*
X30189Y23111D01*
X24764Y24961D02*
X28339D01*
X21453Y24607D02*
X21806Y24961D01*
X21453Y21377D02*
Y24607D01*
X21806Y21024D02*
X24764D01*
X21453Y21377D02*
X21806Y21024D01*
Y24961D02*
X24764D01*
X189700Y44800D02*
X192698D01*
X188200Y46300D02*
X189700Y44800D01*
Y51700D02*
X192698D01*
X188200Y50200D02*
X189700Y51700D01*
X33600Y23111D02*
X33711Y23000D01*
Y21805D02*
Y23000D01*
Y21805D02*
X34064Y21452D01*
X44451D01*
X46000Y23000D01*
X33711Y19695D02*
X34064Y20049D01*
X44451D02*
X46000Y18500D01*
X33600Y18389D02*
X33711Y18500D01*
X34064Y20049D02*
X44451D01*
X33711Y18500D02*
Y19695D01*
X70701Y9000D02*
X74701Y5000D01*
X79452Y19951D02*
X81000Y21500D01*
X76500D02*
X78048Y19951D01*
X70701Y9000D02*
Y9802D01*
X79452Y18552D01*
Y19951D01*
X69298Y9000D02*
Y10383D01*
X78048Y19133D02*
Y19951D01*
X69298Y10383D02*
X78048Y19133D01*
X65298Y5000D02*
X69298Y9000D01*
X74701Y5000D02*
X75000D01*
X65000D02*
X65298D01*
X199499Y51700D02*
X203400D01*
X199500Y44800D02*
X203401D01*
X196925Y47625D02*
X208375D01*
X209347Y46654D01*
X196098Y46798D02*
X196925Y47625D01*
X209347Y46654D02*
X211945D01*
X209500Y50000D02*
X211945D01*
X196972Y49028D02*
X208528D01*
X209500Y50000D01*
X196100Y49900D02*
X196972Y49028D01*
D65*
X38046Y75655D02*
X41954D01*
X42000Y75701D01*
X38000Y75609D02*
X38046Y75655D01*
X33555Y72165D02*
X37944D01*
X33500Y72220D02*
X33555Y72165D01*
X37944D02*
X38000Y72109D01*
X34081Y83648D02*
X36119Y85686D01*
X33589Y83648D02*
X34081D01*
X36119Y85686D02*
X38087D01*
X33500Y83559D02*
X33589Y83648D01*
X33689Y25581D02*
X36920D01*
X37000Y25501D01*
X33600Y25670D02*
X33689Y25581D01*
X33600Y15830D02*
X36730D01*
X36900Y16000D01*
X31500Y41000D02*
X32941Y39559D01*
X31500Y41000D02*
X31500D01*
X32941Y36000D02*
Y39559D01*
X29000Y35500D02*
Y38000D01*
X28000Y34500D02*
X29000Y35500D01*
X24870Y34500D02*
X28000D01*
X24764Y34606D02*
X24870Y34500D01*
D66*
X35000Y5000D02*
D03*
X45000D02*
D03*
X55000D02*
D03*
X65000D02*
D03*
X75000D02*
D03*
X85000D02*
D03*
X95000D02*
D03*
X105000D02*
D03*
X115000D02*
D03*
X125000D02*
D03*
X135000D02*
D03*
X145000D02*
D03*
X155000D02*
D03*
X165000D02*
D03*
X175000D02*
D03*
X185000D02*
D03*
X195000D02*
D03*
X205000D02*
D03*
X215000D02*
D03*
X225000D02*
D03*
X235000D02*
D03*
X245000D02*
D03*
X255000D02*
D03*
X35000Y95000D02*
D03*
X45000D02*
D03*
X55000D02*
D03*
X65000D02*
D03*
X75000D02*
D03*
X85000D02*
D03*
X95000D02*
D03*
X105000D02*
D03*
X115000D02*
D03*
X125000D02*
D03*
X135000D02*
D03*
X145000D02*
D03*
X155000D02*
D03*
X165000D02*
D03*
X175000D02*
D03*
X185000D02*
D03*
X195000D02*
D03*
X205000D02*
D03*
X215000D02*
D03*
X225000D02*
D03*
X235000D02*
D03*
X245000D02*
D03*
X255000D02*
D03*
D67*
X265000Y5000D02*
D03*
Y95000D02*
D03*
D68*
X135700Y50100D02*
D03*
D69*
X140700D02*
D03*
X37500Y50000D02*
D03*
Y45000D02*
D03*
D70*
Y55000D02*
D03*
D71*
X68500Y57100D02*
D03*
X143400Y32400D02*
D03*
X148800Y59700D02*
D03*
X175500Y55500D02*
D03*
X169300Y58300D02*
D03*
X169000Y62500D02*
D03*
X161000Y62000D02*
D03*
X44000Y66500D02*
D03*
X63000Y69000D02*
D03*
X68800Y74800D02*
D03*
Y79200D02*
D03*
X73100Y74800D02*
D03*
Y79200D02*
D03*
X75100Y65900D02*
D03*
X78900Y87400D02*
D03*
X155600Y39204D02*
D03*
X183600Y78100D02*
D03*
X188700Y77400D02*
D03*
X237998Y86600D02*
D03*
X130600Y83800D02*
D03*
X84100Y84100D02*
D03*
X94801Y79401D02*
D03*
X46500Y69800D02*
D03*
X62300Y50000D02*
D03*
X93400Y50700D02*
D03*
Y56700D02*
D03*
X105900Y49000D02*
D03*
Y40450D02*
D03*
X30700Y57800D02*
D03*
X45800Y81400D02*
D03*
X38000Y75609D02*
D03*
Y72109D02*
D03*
X38087Y85686D02*
D03*
X29600Y90600D02*
D03*
X28900Y62400D02*
D03*
X31700Y77900D02*
D03*
X35300D02*
D03*
X47100Y74100D02*
D03*
Y77900D02*
D03*
X184900Y51600D02*
D03*
Y44800D02*
D03*
X183100Y36300D02*
D03*
X46000Y18500D02*
D03*
Y23000D02*
D03*
X37000Y25501D02*
D03*
X36900Y16000D02*
D03*
X44800Y28300D02*
D03*
Y14200D02*
D03*
X188200Y46300D02*
D03*
Y50200D02*
D03*
X187100Y35500D02*
D03*
X206700Y44800D02*
D03*
Y51600D02*
D03*
X83100Y18300D02*
D03*
X73400D02*
D03*
X203400Y51700D02*
D03*
X203401Y44800D02*
D03*
X76500Y21500D02*
D03*
X81000D02*
D03*
X117600Y49000D02*
D03*
X109800D02*
D03*
X102000D02*
D03*
X113700D02*
D03*
X102000Y40450D02*
D03*
X117600D02*
D03*
X113700D02*
D03*
X109800D02*
D03*
X113700Y31900D02*
D03*
X105900D02*
D03*
X117600D02*
D03*
X102000D02*
D03*
X109800D02*
D03*
X31500Y41000D02*
D03*
X29000Y38000D02*
D03*
X46000Y32500D02*
D03*
X29800Y9400D02*
D03*
X49500Y16000D02*
D03*
X53500D02*
D03*
X57500D02*
D03*
X49500Y29000D02*
D03*
X53500D02*
D03*
X57500D02*
D03*
X124350Y40500D02*
D03*
X181300Y72000D02*
D03*
X95536Y85736D02*
D03*
X91400Y70800D02*
D03*
X253300Y88700D02*
D03*
X248200D02*
D03*
X163100Y58300D02*
D03*
X69900Y88700D02*
D03*
X47900Y85700D02*
D03*
X79799Y46300D02*
D03*
X78800Y53200D02*
D03*
Y58500D02*
D03*
X206600Y21200D02*
D03*
X155800Y59700D02*
D03*
X162900Y86200D02*
D03*
X172857Y60800D02*
D03*
X176700Y69300D02*
D03*
Y63400D02*
D03*
X204400Y74478D02*
D03*
X181300Y66700D02*
D03*
X198300Y29700D02*
D03*
X194300Y36500D02*
D03*
X200030D02*
D03*
X204700Y29700D02*
D03*
X161600Y12400D02*
D03*
X168600Y21500D02*
D03*
X265300Y18100D02*
D03*
X259500Y82200D02*
D03*
X236100Y46700D02*
D03*
X242800D02*
D03*
Y53300D02*
D03*
X236100D02*
D03*
X239504Y61204D02*
D03*
X250708Y56496D02*
D03*
Y50000D02*
D03*
Y43504D02*
D03*
X239504Y38796D02*
D03*
X228300Y43504D02*
D03*
Y50000D02*
D03*
Y56496D02*
D03*
X259588Y73205D02*
D03*
X262709Y73420D02*
D03*
Y70074D02*
D03*
Y66727D02*
D03*
Y63381D02*
D03*
Y60034D02*
D03*
Y56688D02*
D03*
Y53341D02*
D03*
Y49995D02*
D03*
Y46648D02*
D03*
Y43302D02*
D03*
Y39955D02*
D03*
Y36609D02*
D03*
Y33263D02*
D03*
Y29916D02*
D03*
Y26570D02*
D03*
X216077Y31998D02*
D03*
X249540Y32000D02*
D03*
X246192Y26795D02*
D03*
X242847Y32000D02*
D03*
X239499Y26795D02*
D03*
X236154Y32000D02*
D03*
X232806Y26795D02*
D03*
X229461Y32000D02*
D03*
X226113Y26795D02*
D03*
X222768Y32000D02*
D03*
X219420Y26795D02*
D03*
X246200Y68000D02*
D03*
X256231Y26795D02*
D03*
X252885D02*
D03*
X216084Y73205D02*
D03*
X222777D02*
D03*
X219428Y68000D02*
D03*
X229470Y73205D02*
D03*
X226121Y68000D02*
D03*
X236163Y73205D02*
D03*
X232814Y68000D02*
D03*
X239507D02*
D03*
X242856Y73205D02*
D03*
X249548D02*
D03*
M02*
